<?xml version="1.0" encoding="UTF-8" standalone="no"?>
<svg
   xmlns:dc="http://purl.org/dc/elements/1.1/"
   xmlns:cc="http://web.resource.org/cc/"
   xmlns:rdf="http://www.w3.org/1999/02/22-rdf-syntax-ns#"
   xmlns:svg="http://www.w3.org/2000/svg"
   xmlns="http://www.w3.org/2000/svg"
   xmlns:sodipodi="http://inkscape.sourceforge.net/DTD/sodipodi-0.dtd"
   xmlns:inkscape="http://www.inkscape.org/namespaces/inkscape"
   sodipodi:docbase="/home/tornil/these/manuscrit2/img"
   sodipodi:docname="comparaison.svg"
   inkscape:version="0.41"
   sodipodi:version="0.32"
   id="svg1656"
   height="288.2499996451661"
   width="439"
   version="1.1">
  <metadata
     id="metadata1959">
    <rdf:RDF
       id="RDF1961">
      <cc:Work
         id="Work1963"
         rdf:about="">
        <dc:format
           id="format1965">image/svg+xml</dc:format>
        <dc:type
           rdf:resource="http://purl.org/dc/dcmitype/StillImage"
           id="type1967" />
      </cc:Work>
    </rdf:RDF>
  </metadata>
  <sodipodi:namedview
     inkscape:current-layer="svg1656"
     inkscape:window-y="288"
     inkscape:window-x="448"
     inkscape:cy="239.04419"
     inkscape:cx="351.50838"
     inkscape:zoom="2.4965831"
     inkscape:window-height="695"
     inkscape:window-width="1059"
     inkscape:pageshadow="2"
     inkscape:pageopacity="0.0"
     borderopacity="1.0"
     bordercolor="#666666"
     pagecolor="#ffffff"
     id="base" />
  <defs
     id="defs1658">
    <clipPath
       id="clip1">
      <path
         id="path1661"
         d="M51.783307086614172 8.783307086614176L427.71669291338583 8.783307086614176L427.71669291338583 253.46669255855193L51.783307086614172 253.46669255855193L51.783307086614172 8.783307086614176" />
    </clipPath>
    <clipPath
       id="clip2">
      <path
         id="path1664"
         d="M331.67268031496064 3.7833070866141734L423.33378267716535 3.7833070866141734L423.33378267716535 71.349921259842517L331.67268031496064 71.349921259842517L331.67268031496064 3.7833070866141734" />
    </clipPath>
  </defs>
  <path
     id="path1666"
     stroke="#000000"
     stroke-width="0.23999999999999999"
     fill="#ffffff"
     d="M0.12 0.12L0.12 288.12999964516609L438.88 288.12999964516609L438.88 0.12L0.12 0.12z" />
  <path
     id="path1668"
     stroke="#848284"
     stroke-width="1"
     fill="#d0d0d0"
     d="M51.783307086614172 8.783307086614176L51.783307086614172 253.46669255855193L427.71669291338583 253.46669255855193L427.71669291338583 8.783307086614176L51.783307086614172 8.783307086614176z" />
  <path
     id="path1670"
     stroke="#000000"
     stroke-width="0.23999999999999999"
     fill="none"
     d="M51.783307086614172 253.46669255855193L427.71669291338583 253.46669255855193" />
  <path
     id="path1674"
     stroke="#000000"
     stroke-width="0.23999999999999999"
     fill="none"
     d="M68.871188260558341 255.58669255855193L68.871188260558341 253.46669255855193" />
  <text
     id="text1676"
     font-size="8"
     font-family="Sans"
     fill="#000000"
     transform="rotate(-0,85.95906943450251,260.58669255855193)"
     text-anchor="middle"
     y="263.58669255855193"
     x="85.95906943450251">1</text>
  <path
     id="path1678"
     stroke="#000000"
     stroke-width="0.23999999999999999"
     fill="none"
     d="M103.04695060844666 255.58669255855193L103.04695060844666 253.46669255855193" />
  <text
     id="text1680"
     font-size="8"
     font-family="Sans"
     fill="#000000"
     transform="rotate(-0,120.13483178239083,260.58669255855193)"
     text-anchor="middle"
     y="263.58669255855193"
     x="120.13483178239083">2</text>
  <path
     id="path1682"
     stroke="#000000"
     stroke-width="0.23999999999999999"
     fill="none"
     d="M137.22271295633499 255.58669255855193L137.22271295633499 253.46669255855193" />
  <text
     id="text1684"
     font-size="8"
     font-family="Sans"
     fill="#000000"
     transform="rotate(-0,154.31059413027916,260.58669255855193)"
     text-anchor="middle"
     y="263.58669255855193"
     x="154.31059413027916">3</text>
  <path
     id="path1686"
     stroke="#000000"
     stroke-width="0.23999999999999999"
     fill="none"
     d="M171.39847530422333 255.58669255855193L171.39847530422333 253.46669255855193" />
  <text
     id="text1688"
     font-size="8"
     font-family="Sans"
     fill="#000000"
     transform="rotate(-0,188.48635647816749,260.58669255855193)"
     text-anchor="middle"
     y="263.58669255855193"
     x="188.48635647816749">4</text>
  <path
     id="path1690"
     stroke="#000000"
     stroke-width="0.23999999999999999"
     fill="none"
     d="M205.57423765211166 255.58669255855193L205.57423765211166 253.46669255855193" />
  <text
     id="text1692"
     font-size="8"
     font-family="Sans"
     fill="#000000"
     transform="rotate(-0,222.66211882605583,260.58669255855193)"
     text-anchor="middle"
     y="263.58669255855193"
     x="222.66211882605583">5</text>
  <path
     id="path1694"
     stroke="#000000"
     stroke-width="0.23999999999999999"
     fill="none"
     d="M239.75 255.58669255855193L239.75 253.46669255855193" />
  <text
     id="text1696"
     font-size="8"
     font-family="Sans"
     fill="#000000"
     transform="rotate(-0,256.83788117394414,260.58669255855193)"
     text-anchor="middle"
     y="263.58669255855193"
     x="256.83788117394414">6</text>
  <path
     id="path1698"
     stroke="#000000"
     stroke-width="0.23999999999999999"
     fill="none"
     d="M273.92576234788828 255.58669255855193L273.92576234788828 253.46669255855193" />
  <text
     id="text1700"
     font-size="8"
     font-family="Sans"
     fill="#000000"
     transform="rotate(-0,291.01364352183248,260.58669255855193)"
     text-anchor="middle"
     y="263.58669255855193"
     x="291.01364352183248">7</text>
  <path
     id="path1702"
     stroke="#000000"
     stroke-width="0.23999999999999999"
     fill="none"
     d="M308.10152469577667 255.58669255855193L308.10152469577667 253.46669255855193" />
  <text
     id="text1704"
     font-size="8"
     font-family="Sans"
     fill="#000000"
     transform="rotate(-0,325.18940586972082,260.58669255855193)"
     text-anchor="middle"
     y="263.58669255855193"
     x="325.18940586972082">8</text>
  <path
     id="path1706"
     stroke="#000000"
     stroke-width="0.23999999999999999"
     fill="none"
     d="M342.27728704366496 255.58669255855193L342.27728704366496 253.46669255855193" />
  <text
     id="text1708"
     font-size="8"
     font-family="Sans"
     fill="#000000"
     transform="rotate(-0,359.36516821760915,260.58669255855193)"
     text-anchor="middle"
     y="263.58669255855193"
     x="359.36516821760915">9</text>
  <path
     id="path1710"
     stroke="#000000"
     stroke-width="0.23999999999999999"
     fill="none"
     d="M376.45304939155329 255.58669255855193L376.45304939155329 253.46669255855193" />
  <text
     id="text1712"
     font-size="8"
     font-family="Sans"
     fill="#000000"
     transform="rotate(-0,393.54093056549749,260.58669255855193)"
     text-anchor="middle"
     y="263.58669255855193"
     x="393.54093056549749">10</text>
  <path
     id="path1714"
     stroke="#000000"
     stroke-width="0.23999999999999999"
     fill="none"
     d="M410.62881173944163 255.58669255855193L410.62881173944163 253.46669255855193" />
  <text
     id="text1718"
     font-size="12"
     font-family="Sans"
     fill="#000000"
     transform="rotate(-0,239.75,276.96669255855193)"
     text-anchor="middle"
     y="281.46669255855193"
     x="239.75">Blocs</text>
  <path
     id="path1720"
     stroke="#000000"
     stroke-width="0.23999999999999999"
     fill="none"
     d="M51.783307086614172 253.46669255855193L51.783307086614172 8.7833070866141441" />
  <path
     id="path1722"
     stroke="#000000"
     stroke-width="0.23999999999999999"
     fill="none"
     d="M47.663307086614175 253.46669255855193L51.783307086614172 253.46669255855193" />
  <text
     id="text1724"
     font-size="8"
     font-family="Sans"
     fill="#000000"
     transform="rotate(-0,42.663307086614168,253.46669255855193)"
     text-anchor="middle"
     y="256.46669255855193"
     x="42.663307086614168">0</text>
  <path
     id="path1726"
     stroke="#000000"
     stroke-width="0.23999999999999999"
     fill="none"
     d="M47.663307086614175 212.68612831322895L51.783307086614172 212.68612831322895" />
  <text
     id="text1728"
     font-size="8"
     font-family="Sans"
     fill="#000000"
     transform="rotate(-0,37.663307086614175,212.68612831322895)"
     text-anchor="middle"
     y="215.68612831322895"
     x="37.663307086614175">500</text>
  <path
     id="path1730"
     stroke="#000000"
     stroke-width="0.23999999999999999"
     fill="none"
     d="M47.663307086614182 171.905564067906L51.78330708661418 171.905564067906" />
  <text
     id="text1732"
     font-size="8"
     font-family="Sans"
     fill="#000000"
     transform="rotate(-0,35.163307086614175,171.905564067906)"
     text-anchor="middle"
     y="174.905564067906"
     x="35.163307086614175">1000</text>
  <path
     id="path1734"
     stroke="#000000"
     stroke-width="0.23999999999999999"
     fill="none"
     d="M47.663307086614182 131.12499982258302L51.78330708661418 131.12499982258305" />
  <text
     id="text1736"
     font-size="8"
     font-family="Sans"
     fill="#000000"
     transform="rotate(-0,35.163307086614182,131.12499982258302)"
     text-anchor="middle"
     y="134.12499982258302"
     x="35.163307086614182">1500</text>
  <path
     id="path1738"
     stroke="#000000"
     stroke-width="0.23999999999999999"
     fill="none"
     d="M47.663307086614182 90.344435577260072L51.78330708661418 90.344435577260072" />
  <text
     id="text1740"
     font-size="8"
     font-family="Sans"
     fill="#000000"
     transform="rotate(-0,35.163307086614182,90.344435577260072)"
     text-anchor="middle"
     y="93.344435577260072"
     x="35.163307086614182">2000</text>
  <path
     id="path1742"
     stroke="#000000"
     stroke-width="0.23999999999999999"
     fill="none"
     d="M47.663307086614189 49.563871331937122L51.783307086614187 49.563871331937122" />
  <text
     id="text1744"
     font-size="8"
     font-family="Sans"
     fill="#000000"
     transform="rotate(-0,35.163307086614182,49.563871331937122)"
     text-anchor="middle"
     y="52.563871331937122"
     x="35.163307086614182">2500</text>
  <path
     id="path1746"
     stroke="#000000"
     stroke-width="0.23999999999999999"
     fill="none"
     d="M47.663307086614189 8.7833070866141441L51.783307086614187 8.7833070866141441" />
  <text
     id="text1748"
     font-size="8"
     font-family="Sans"
     fill="#000000"
     transform="rotate(-0,35.163307086614189,8.7833070866141423)"
     text-anchor="middle"
     y="11.783307086614142"
     x="35.163307086614189">3000</text>
  <text
     id="text1750"
     font-size="12"
     font-family="Sans"
     fill="#000000"
     transform="rotate(-90,11.28330708661418,131.12499982258305)"
     text-anchor="middle"
     y="135.62499982258305"
     x="11.28330708661418">Temps du mouvement (ms)</text>
  <g
     id="g1752"
     clip-path="url(#clip1)">
    <path
       id="path1754"
       stroke="#ff6600"
       stroke-width="0.23999999999999999"
       fill="none"
       d="M85.95906943450251 49.563871331937115L120.13483178239083 61.798040605534005L154.31059413027916 66.691708314972757L188.48635647816749 74.032209879130889L222.66211882605583 80.557100158382568L256.83788117394414 83.819545298008407L291.01364352183248 85.450767867821327L325.18940586972082 81.372711443289035L359.36516821760915 80.557100158382568L393.54093056549749 83.00393401310194" />
    <path
       id="path1756"
       stroke="#808080"
       stroke-width="0.23999999999999999"
       fill="none"
       d="M85.95906943450251 116.44399669426677L120.13483178239083 127.86255468295721L154.31059413027916 135.20305624711534L188.48635647816749 137.64989010183473L222.66211882605583 142.54355781127347L256.83788117394414 147.43722552071222L291.01364352183248 146.62161423580577L325.18940586972082 149.06844809052515L359.36516821760915 143.35916909617993L393.54093056549749 145.80600295089931" />
    <path
       id="path1758"
       stroke="#993366"
       stroke-width="0.23999999999999999"
       fill="none"
       d="M85.95906943450251 122.15327568861198L120.13483178239083 128.67816596786366L154.31059413027916 136.83427881692825L188.48635647816749 140.09672395655409L222.66211882605583 143.35916909617993L256.83788117394414 148.2528368056187L291.01364352183248 146.21380859335252L325.18940586972082 148.2528368056187L359.36516821760915 144.99039166599286L393.54093056549749 146.62161423580577" />
    <path
       id="path1760"
       stroke="#ff00ff"
       stroke-width="0.23999999999999999"
       fill="none"
       d="M85.95906943450251 171.905564067906L120.13483178239083 173.53678663771893L154.31059413027916 173.94459228017215L188.48635647816749 175.16800920753184L222.66211882605583 176.79923177734477L256.83788117394414 176.79923177734477L291.01364352183248 177.61484306225123L325.18940586972082 176.79923177734477L359.36516821760915 177.20703741979798L393.54093056549749 177.61484306225123" />
  </g>
  <path
     id="path1762"
     stroke="none"
     fill="#ff6600"
     d="M85.95906943450251 47.063871331937115L88.45906943450251 52.063871331937115L83.45906943450251 52.063871331937115L85.95906943450251 47.063871331937115z" />
  <path
     id="path1764"
     stroke="#ff6600"
     stroke-width="0.5"
     stroke-linecap="round"
     fill="none"
     d="M85.95906943450251 47.063871331937115L88.45906943450251 52.063871331937115L83.45906943450251 52.063871331937115L85.95906943450251 47.063871331937115z" />
  <path
     id="path1766"
     stroke="none"
     fill="#ff6600"
     d="M120.13483178239083 59.298040605534005L122.63483178239083 64.298040605533998L117.63483178239083 64.298040605533998L120.13483178239083 59.298040605534005z" />
  <path
     id="path1768"
     stroke="#ff6600"
     stroke-width="0.5"
     stroke-linecap="round"
     fill="none"
     d="M120.13483178239083 59.298040605534005L122.63483178239083 64.298040605533998L117.63483178239083 64.298040605533998L120.13483178239083 59.298040605534005z" />
  <path
     id="path1770"
     stroke="none"
     fill="#ff6600"
     d="M154.31059413027916 64.191708314972757L156.81059413027916 69.191708314972757L151.81059413027916 69.191708314972757L154.31059413027916 64.191708314972757z" />
  <path
     id="path1772"
     stroke="#ff6600"
     stroke-width="0.5"
     stroke-linecap="round"
     fill="none"
     d="M154.31059413027916 64.191708314972757L156.81059413027916 69.191708314972757L151.81059413027916 69.191708314972757L154.31059413027916 64.191708314972757z" />
  <path
     id="path1774"
     stroke="none"
     fill="#ff6600"
     d="M188.48635647816749 71.532209879130889L190.98635647816749 76.532209879130889L185.98635647816749 76.532209879130889L188.48635647816749 71.532209879130889z" />
  <path
     id="path1776"
     stroke="#ff6600"
     stroke-width="0.5"
     stroke-linecap="round"
     fill="none"
     d="M188.48635647816749 71.532209879130889L190.98635647816749 76.532209879130889L185.98635647816749 76.532209879130889L188.48635647816749 71.532209879130889z" />
  <path
     id="path1778"
     stroke="none"
     fill="#ff6600"
     d="M222.66211882605583 78.057100158382568L225.16211882605583 83.057100158382568L220.16211882605583 83.057100158382568L222.66211882605583 78.057100158382568z" />
  <path
     id="path1780"
     stroke="#ff6600"
     stroke-width="0.5"
     stroke-linecap="round"
     fill="none"
     d="M222.66211882605583 78.057100158382568L225.16211882605583 83.057100158382568L220.16211882605583 83.057100158382568L222.66211882605583 78.057100158382568z" />
  <path
     id="path1782"
     stroke="none"
     fill="#ff6600"
     d="M256.83788117394414 81.319545298008407L259.33788117394414 86.319545298008407L254.33788117394414 86.319545298008407L256.83788117394414 81.319545298008407z" />
  <path
     id="path1784"
     stroke="#ff6600"
     stroke-width="0.5"
     stroke-linecap="round"
     fill="none"
     d="M256.83788117394414 81.319545298008407L259.33788117394414 86.319545298008407L254.33788117394414 86.319545298008407L256.83788117394414 81.319545298008407z" />
  <path
     id="path1786"
     stroke="none"
     fill="#ff6600"
     d="M291.01364352183248 82.950767867821327L293.51364352183248 87.950767867821327L288.51364352183248 87.950767867821327L291.01364352183248 82.950767867821327z" />
  <path
     id="path1788"
     stroke="#ff6600"
     stroke-width="0.5"
     stroke-linecap="round"
     fill="none"
     d="M291.01364352183248 82.950767867821327L293.51364352183248 87.950767867821327L288.51364352183248 87.950767867821327L291.01364352183248 82.950767867821327z" />
  <path
     id="path1790"
     stroke="none"
     fill="#ff6600"
     d="M325.18940586972082 78.872711443289035L327.68940586972082 83.872711443289035L322.68940586972082 83.872711443289035L325.18940586972082 78.872711443289035z" />
  <path
     id="path1792"
     stroke="#ff6600"
     stroke-width="0.5"
     stroke-linecap="round"
     fill="none"
     d="M325.18940586972082 78.872711443289035L327.68940586972082 83.872711443289035L322.68940586972082 83.872711443289035L325.18940586972082 78.872711443289035z" />
  <path
     id="path1794"
     stroke="none"
     fill="#ff6600"
     d="M359.36516821760915 78.057100158382568L361.86516821760915 83.057100158382568L356.86516821760915 83.057100158382568L359.36516821760915 78.057100158382568z" />
  <path
     id="path1796"
     stroke="#ff6600"
     stroke-width="0.5"
     stroke-linecap="round"
     fill="none"
     d="M359.36516821760915 78.057100158382568L361.86516821760915 83.057100158382568L356.86516821760915 83.057100158382568L359.36516821760915 78.057100158382568z" />
  <path
     id="path1798"
     stroke="none"
     fill="#ff6600"
     d="M393.54093056549749 80.50393401310194L396.04093056549749 85.50393401310194L391.04093056549749 85.50393401310194L393.54093056549749 80.50393401310194z" />
  <path
     id="path1800"
     stroke="#ff6600"
     stroke-width="0.5"
     stroke-linecap="round"
     fill="none"
     d="M393.54093056549749 80.50393401310194L396.04093056549749 85.50393401310194L391.04093056549749 85.50393401310194L393.54093056549749 80.50393401310194z" />
  <path
     id="path1804"
     stroke="#808080"
     stroke-width="0.5"
     stroke-linecap="round"
     fill="none"
     d="M88.45906943450251 118.94399669426677L83.45906943450251 113.94399669426677M88.45906943450251 113.94399669426677L83.45906943450251 118.94399669426677z" />
  <path
     id="path1808"
     stroke="#808080"
     stroke-width="0.5"
     stroke-linecap="round"
     fill="none"
     d="M122.63483178239083 130.36255468295721L117.63483178239083 125.36255468295721M122.63483178239083 125.36255468295721L117.63483178239083 130.36255468295721z" />
  <path
     id="path1812"
     stroke="#808080"
     stroke-width="0.5"
     stroke-linecap="round"
     fill="none"
     d="M156.81059413027916 137.70305624711534L151.81059413027916 132.70305624711534M156.81059413027916 132.70305624711534L151.81059413027916 137.70305624711534z" />
  <path
     id="path1816"
     stroke="#808080"
     stroke-width="0.5"
     stroke-linecap="round"
     fill="none"
     d="M190.98635647816749 140.14989010183473L185.98635647816749 135.14989010183473M190.98635647816749 135.14989010183473L185.98635647816749 140.14989010183473z" />
  <path
     id="path1820"
     stroke="#808080"
     stroke-width="0.5"
     stroke-linecap="round"
     fill="none"
     d="M225.16211882605583 145.04355781127347L220.16211882605583 140.04355781127347M225.16211882605583 140.04355781127347L220.16211882605583 145.04355781127347z" />
  <path
     id="path1824"
     stroke="#808080"
     stroke-width="0.5"
     stroke-linecap="round"
     fill="none"
     d="M259.33788117394414 149.93722552071222L254.33788117394414 144.93722552071222M259.33788117394414 144.93722552071222L254.33788117394414 149.93722552071222z" />
  <path
     id="path1828"
     stroke="#808080"
     stroke-width="0.5"
     stroke-linecap="round"
     fill="none"
     d="M293.51364352183248 149.12161423580577L288.51364352183248 144.12161423580577M293.51364352183248 144.12161423580577L288.51364352183248 149.12161423580577z" />
  <path
     id="path1832"
     stroke="#808080"
     stroke-width="0.5"
     stroke-linecap="round"
     fill="none"
     d="M327.68940586972082 151.56844809052515L322.68940586972082 146.56844809052515M327.68940586972082 146.56844809052515L322.68940586972082 151.56844809052515z" />
  <path
     id="path1836"
     stroke="#808080"
     stroke-width="0.5"
     stroke-linecap="round"
     fill="none"
     d="M361.86516821760915 145.85916909617993L356.86516821760915 140.85916909617993M361.86516821760915 140.85916909617993L356.86516821760915 145.85916909617993z" />
  <path
     id="path1840"
     stroke="#808080"
     stroke-width="0.5"
     stroke-linecap="round"
     fill="none"
     d="M396.04093056549749 148.30600295089931L391.04093056549749 143.30600295089931M396.04093056549749 143.30600295089931L391.04093056549749 148.30600295089931z" />
  <path
     fill="none"
     stroke="#993366"
     stroke-width="0.5"
     stroke-linecap="round"
     id="path1844"
     d="M87.70906943450251 123.90327568861198L84.20906943450251 120.40327568861198M87.70906943450251 120.40327568861198L84.20906943450251 123.90327568861198M88.45906943450251 122.15327568861198L83.45906943450251 122.15327568861198M85.95906943450251 124.65327568861198L85.95906943450251 119.65327568861198z" />
  <path
     id="path1848"
     stroke="#993366"
     stroke-width="0.5"
     stroke-linecap="round"
     fill="none"
     d="M121.88483178239083 130.42816596786366L118.38483178239083 126.92816596786366M121.88483178239083 126.92816596786366L118.38483178239083 130.42816596786366M122.63483178239083 128.67816596786366L117.63483178239083 128.67816596786366M120.13483178239083 131.17816596786366L120.13483178239083 126.17816596786366z" />
  <path
     id="path1852"
     stroke="#993366"
     stroke-width="0.5"
     stroke-linecap="round"
     fill="none"
     d="M156.06059413027916 138.58427881692825L152.56059413027916 135.08427881692825M156.06059413027916 135.08427881692825L152.56059413027916 138.58427881692825M156.81059413027916 136.83427881692825L151.81059413027916 136.83427881692825M154.31059413027916 139.33427881692825L154.31059413027916 134.33427881692825z" />
  <path
     id="path1856"
     stroke="#993366"
     stroke-width="0.5"
     stroke-linecap="round"
     fill="none"
     d="M190.23635647816749 141.84672395655409L186.73635647816749 138.34672395655409M190.23635647816749 138.34672395655409L186.73635647816749 141.84672395655409M190.98635647816749 140.09672395655409L185.98635647816749 140.09672395655409M188.48635647816749 142.59672395655409L188.48635647816749 137.59672395655409z" />
  <path
     id="path1860"
     stroke="#993366"
     stroke-width="0.5"
     stroke-linecap="round"
     fill="none"
     d="M224.41211882605583 145.10916909617993L220.91211882605583 141.60916909617993M224.41211882605583 141.60916909617993L220.91211882605583 145.10916909617993M225.16211882605583 143.35916909617993L220.16211882605583 143.35916909617993M222.66211882605583 145.85916909617993L222.66211882605583 140.85916909617993z" />
  <path
     id="path1864"
     stroke="#993366"
     stroke-width="0.5"
     stroke-linecap="round"
     fill="none"
     d="M258.58788117394414 150.0028368056187L255.08788117394414 146.5028368056187M258.58788117394414 146.5028368056187L255.08788117394414 150.0028368056187M259.33788117394414 148.2528368056187L254.33788117394414 148.2528368056187M256.83788117394414 150.7528368056187L256.83788117394414 145.7528368056187z" />
  <path
     id="path1868"
     stroke="#993366"
     stroke-width="0.5"
     stroke-linecap="round"
     fill="none"
     d="M292.76364352183248 147.96380859335252L289.26364352183248 144.46380859335252M292.76364352183248 144.46380859335252L289.26364352183248 147.96380859335252M293.51364352183248 146.21380859335252L288.51364352183248 146.21380859335252M291.01364352183248 148.71380859335252L291.01364352183248 143.71380859335252z" />
  <path
     id="path1872"
     stroke="#993366"
     stroke-width="0.5"
     stroke-linecap="round"
     fill="none"
     d="M326.93940586972082 150.0028368056187L323.43940586972082 146.5028368056187M326.93940586972082 146.5028368056187L323.43940586972082 150.0028368056187M327.68940586972082 148.2528368056187L322.68940586972082 148.2528368056187M325.18940586972082 150.7528368056187L325.18940586972082 145.7528368056187z" />
  <path
     id="path1876"
     stroke="#993366"
     stroke-width="0.5"
     stroke-linecap="round"
     fill="none"
     d="M361.11516821760915 146.74039166599286L357.61516821760915 143.24039166599286M361.11516821760915 143.24039166599286L357.61516821760915 146.74039166599286M361.86516821760915 144.99039166599286L356.86516821760915 144.99039166599286M359.36516821760915 147.49039166599286L359.36516821760915 142.49039166599286z" />
  <path
     id="path1880"
     stroke="#993366"
     stroke-width="0.5"
     stroke-linecap="round"
     fill="none"
     d="M395.29093056549749 148.37161423580577L391.79093056549749 144.87161423580577M395.29093056549749 144.87161423580577L391.79093056549749 148.37161423580577M396.04093056549749 146.62161423580577L391.04093056549749 146.62161423580577M393.54093056549749 149.12161423580577L393.54093056549749 144.12161423580577z" />
  <path
     id="path1882"
     stroke="none"
     fill="#ff00ff"
     d="M83.45906943450251 169.405564067906L83.45906943450251 174.405564067906L88.45906943450251 174.405564067906L88.45906943450251 169.405564067906L83.45906943450251 169.405564067906z" />
  <path
     id="path1884"
     stroke="#ff00ff"
     stroke-width="0.5"
     stroke-linecap="round"
     fill="none"
     d="M83.45906943450251 169.405564067906L83.45906943450251 174.405564067906L88.45906943450251 174.405564067906L88.45906943450251 169.405564067906L83.45906943450251 169.405564067906z" />
  <path
     id="path1886"
     stroke="none"
     fill="#ff00ff"
     d="M117.63483178239083 171.03678663771893L117.63483178239083 176.03678663771893L122.63483178239083 176.03678663771893L122.63483178239083 171.03678663771893L117.63483178239083 171.03678663771893z" />
  <path
     id="path1888"
     stroke="#ff00ff"
     stroke-width="0.5"
     stroke-linecap="round"
     fill="none"
     d="M117.63483178239083 171.03678663771893L117.63483178239083 176.03678663771893L122.63483178239083 176.03678663771893L122.63483178239083 171.03678663771893L117.63483178239083 171.03678663771893z" />
  <path
     id="path1890"
     stroke="none"
     fill="#ff00ff"
     d="M151.81059413027916 171.44459228017215L151.81059413027916 176.44459228017215L156.81059413027916 176.44459228017215L156.81059413027916 171.44459228017215L151.81059413027916 171.44459228017215z" />
  <path
     id="path1892"
     stroke="#ff00ff"
     stroke-width="0.5"
     stroke-linecap="round"
     fill="none"
     d="M151.81059413027916 171.44459228017215L151.81059413027916 176.44459228017215L156.81059413027916 176.44459228017215L156.81059413027916 171.44459228017215L151.81059413027916 171.44459228017215z" />
  <path
     id="path1894"
     stroke="none"
     fill="#ff00ff"
     d="M185.98635647816749 172.66800920753184L185.98635647816749 177.66800920753184L190.98635647816749 177.66800920753184L190.98635647816749 172.66800920753184L185.98635647816749 172.66800920753184z" />
  <path
     id="path1896"
     stroke="#ff00ff"
     stroke-width="0.5"
     stroke-linecap="round"
     fill="none"
     d="M185.98635647816749 172.66800920753184L185.98635647816749 177.66800920753184L190.98635647816749 177.66800920753184L190.98635647816749 172.66800920753184L185.98635647816749 172.66800920753184z" />
  <path
     id="path1898"
     stroke="none"
     fill="#ff00ff"
     d="M220.16211882605583 174.29923177734477L220.16211882605583 179.29923177734477L225.16211882605583 179.29923177734477L225.16211882605583 174.29923177734477L220.16211882605583 174.29923177734477z" />
  <path
     id="path1900"
     stroke="#ff00ff"
     stroke-width="0.5"
     stroke-linecap="round"
     fill="none"
     d="M220.16211882605583 174.29923177734477L220.16211882605583 179.29923177734477L225.16211882605583 179.29923177734477L225.16211882605583 174.29923177734477L220.16211882605583 174.29923177734477z" />
  <path
     id="path1902"
     stroke="none"
     fill="#ff00ff"
     d="M254.33788117394414 174.29923177734477L254.33788117394414 179.29923177734477L259.33788117394414 179.29923177734477L259.33788117394414 174.29923177734477L254.33788117394414 174.29923177734477z" />
  <path
     id="path1904"
     stroke="#ff00ff"
     stroke-width="0.5"
     stroke-linecap="round"
     fill="none"
     d="M254.33788117394414 174.29923177734477L254.33788117394414 179.29923177734477L259.33788117394414 179.29923177734477L259.33788117394414 174.29923177734477L254.33788117394414 174.29923177734477z" />
  <path
     id="path1906"
     stroke="none"
     fill="#ff00ff"
     d="M288.51364352183248 175.11484306225123L288.51364352183248 180.11484306225123L293.51364352183248 180.11484306225123L293.51364352183248 175.11484306225123L288.51364352183248 175.11484306225123z" />
  <path
     id="path1908"
     stroke="#ff00ff"
     stroke-width="0.5"
     stroke-linecap="round"
     fill="none"
     d="M288.51364352183248 175.11484306225123L288.51364352183248 180.11484306225123L293.51364352183248 180.11484306225123L293.51364352183248 175.11484306225123L288.51364352183248 175.11484306225123z" />
  <path
     id="path1910"
     stroke="none"
     fill="#ff00ff"
     d="M322.68940586972082 174.29923177734477L322.68940586972082 179.29923177734477L327.68940586972082 179.29923177734477L327.68940586972082 174.29923177734477L322.68940586972082 174.29923177734477z" />
  <path
     id="path1912"
     stroke="#ff00ff"
     stroke-width="0.5"
     stroke-linecap="round"
     fill="none"
     d="M322.68940586972082 174.29923177734477L322.68940586972082 179.29923177734477L327.68940586972082 179.29923177734477L327.68940586972082 174.29923177734477L322.68940586972082 174.29923177734477z" />
  <path
     id="path1914"
     stroke="none"
     fill="#ff00ff"
     d="M356.86516821760915 174.70703741979798L356.86516821760915 179.70703741979798L361.86516821760915 179.70703741979798L361.86516821760915 174.70703741979798L356.86516821760915 174.70703741979798z" />
  <path
     id="path1916"
     stroke="#ff00ff"
     stroke-width="0.5"
     stroke-linecap="round"
     fill="none"
     d="M356.86516821760915 174.70703741979798L356.86516821760915 179.70703741979798L361.86516821760915 179.70703741979798L361.86516821760915 174.70703741979798L356.86516821760915 174.70703741979798z" />
  <path
     id="path1918"
     stroke="none"
     fill="#ff00ff"
     d="M391.04093056549749 175.11484306225123L391.04093056549749 180.11484306225123L396.04093056549749 180.11484306225123L396.04093056549749 175.11484306225123L391.04093056549749 175.11484306225123z" />
  <path
     id="path1920"
     stroke="#ff00ff"
     stroke-width="0.5"
     stroke-linecap="round"
     fill="none"
     d="M391.04093056549749 175.11484306225123L391.04093056549749 180.11484306225123L396.04093056549749 180.11484306225123L396.04093056549749 175.11484306225123L391.04093056549749 175.11484306225123z" />
  <path
     style="fill:#ffffff;stroke:#000000;stroke-width:0.23999999"
     id="path1924"
     d="M 331.79268,3.9033071 L 331.79268,71.229921 L 423.21378,71.229921 L 423.21378,3.9033071 L 331.79268,3.9033071 z " />
  <path
     style="fill:none;stroke:#ff6600;stroke-width:0.23999999"
     id="path1926"
     d="M 335.45599,15.066614 L 356.71583,15.066614" />
  <path
     style="fill:#ff6600;stroke:none"
     id="path1928"
     d="M 346.08591,12.566614 L 348.58591,17.566614 L 343.58591,17.566614 L 346.08591,12.566614 z " />
  <path
     style="fill:none;stroke:#ff6600;stroke-width:0.50000000;stroke-linecap:round"
     id="path1930"
     d="M 346.08591,12.566614 L 348.58591,17.566614 L 343.58591,17.566614 L 346.08591,12.566614 z " />
  <text
     style="font-size:12.000000;fill:#000000;font-family:Sans;text-anchor:middle"
     id="text1932"
     font-size="12"
     y="19.566614"
     x="382.55048">Joystick</text>
  <path
     style="fill:none;stroke:#808080;stroke-width:0.23999999"
     id="path1934"
     d="M 335.45599,30.066614 L 356.71583,30.066614" />
  <path
     style="fill:none;stroke:#808080;stroke-width:0.50000000;stroke-linecap:round"
     id="path1938"
     d="M 348.58591,32.566614 L 343.58591,27.566614 M 348.58591,27.566614 L 343.58591,32.566614 L 348.58591,27.566614 z " />
  <text
     style="font-size:12.000000;fill:#000000;font-family:Sans;text-anchor:middle"
     id="text1940"
     font-size="12"
     y="34.566616"
     x="389.55048">Touchpad</text>
  <path
     style="fill:none;stroke:#993366;stroke-width:0.23999999"
     id="path1942"
     d="M 335.45599,45.066614 L 356.71583,45.066614" />
  <path
     style="fill:none;stroke:#993366;stroke-width:0.50000000;stroke-linecap:round"
     id="path1946"
     d="M 347.83591,46.816614 L 344.33591,43.316614 M 347.83591,43.316614 L 344.33591,46.816614 M 348.58591,45.066614 L 343.58591,45.066614 M 346.08591,47.566614 L 346.08591,42.566614 L 346.08591,47.566614 z " />
  <text
     style="font-size:12.000000;fill:#000000;font-family:Sans;text-anchor:middle"
     id="text1948"
     font-size="12"
     y="49.566616"
     x="387.55048">Trackpad</text>
  <path
     style="fill:none;stroke:#ff00ff;stroke-width:0.23999999"
     id="path1950"
     d="M 335.45599,60.066614 L 356.71583,60.066614" />
  <path
     style="fill:#ff00ff;stroke:none"
     id="path1952"
     d="M 343.58591,57.566614 L 343.58591,62.566614 L 348.58591,62.566614 L 348.58591,57.566614 L 343.58591,57.566614 z " />
  <path
     style="fill:none;stroke:#ff00ff;stroke-width:0.50000000;stroke-linecap:round"
     id="path1954"
     d="M 343.58591,57.566614 L 343.58591,62.566614 L 348.58591,62.566614 L 348.58591,57.566614 L 343.58591,57.566614 z " />
  <text
     style="font-size:12.000000;fill:#000000;font-family:Sans;text-anchor:middle"
     id="text1956"
     font-size="12"
     y="64.566612"
     x="380.05048">Mouse</text>
</svg>
