<?xml version="1.0" encoding="UTF-8" standalone="no"?>
<svg
   xmlns:xml="http://www.w3.org/XML/1998/namespace"
   xmlns:dc="http://purl.org/dc/elements/1.1/"
   xmlns:cc="http://web.resource.org/cc/"
   xmlns:rdf="http://www.w3.org/1999/02/22-rdf-syntax-ns#"
   xmlns:svg="http://www.w3.org/2000/svg"
   xmlns="http://www.w3.org/2000/svg"
   xmlns:sodipodi="http://inkscape.sourceforge.net/DTD/sodipodi-0.dtd"
   xmlns:inkscape="http://www.inkscape.org/namespaces/inkscape"
   sodipodi:docbase="/home/tornil/these/papier/ihm2005"
   sodipodi:docname="damier.svg"
   inkscape:version="0.41"
   sodipodi:version="0.32"
   id="svg2201"
   version="1.1"
   viewBox="-100 0 1200 400"
   height="600.00000pt"
   width="800.00000pt">
  <rect
     inkscape:export-ydpi="150.03279"
     inkscape:export-xdpi="150.03279"
     inkscape:export-filename="/home/tornil/these/papier/ihm2005/damier.png"
     y="-252.36804"
     x="-2.7707713"
     height="915.61926"
     width="1005.4681"
     id="rect8085"
     style="fill:#ffffff;fill-opacity:1.0000000;fill-rule:nonzero;stroke:#000000;stroke-width:0.39710611;stroke-linejoin:miter;stroke-miterlimit:4.0000000;stroke-dashoffset:0.0000000;stroke-opacity:1.0000000" />
  <g
     inkscape:export-ydpi="150.03279"
     inkscape:export-xdpi="150.03279"
     inkscape:export-filename="/home/tornil/these/papier/ihm2005/damier.png"
     transform="translate(-15.82997,-68.59655)"
     style="fill:#ececec;fill-opacity:0.41666666"
     id="g5317">
    <polygon
       style="stroke:#000000;stroke-width:0.60000002;stroke-miterlimit:4.0000000;stroke-opacity:1.0000000"
       transform="translate(246.6219,-105.7647)"
       id="polygon2209"
       points="40.310000,0.0000000 20.150000,34.910000 -20.150000,34.910000 -40.310000,0.0000000 -20.150000,-34.910000 20.150000,-34.910000 40.310000,0.0000000 " />
    <polygon
       style="stroke:#000000;stroke-width:0.60000002;stroke-miterlimit:4.0000000;stroke-opacity:1.0000000"
       transform="translate(307.4317,-70.65019)"
       id="polygon2224"
       points="40.310000,0.0000000 20.150000,34.910000 -20.150000,34.910000 -40.310000,0.0000000 -20.150000,-34.910000 20.150000,-34.910000 40.310000,0.0000000 " />
    <polygon
       style="stroke:#000000;stroke-width:0.60000002;stroke-miterlimit:4.0000000;stroke-opacity:1.0000000"
       transform="translate(246.7229,-35.60076)"
       id="polygon2226"
       points="40.310000,0.0000000 20.150000,34.910000 -20.150000,34.910000 -40.310000,0.0000000 -20.150000,-34.910000 20.150000,-34.910000 40.310000,0.0000000 " />
    <polygon
       style="stroke:#000000;stroke-width:0.60000002;stroke-miterlimit:4.0000000;stroke-opacity:1.0000000"
       transform="translate(307.3544,-0.814307)"
       id="polygon2228"
       points="40.310000,0.0000000 20.150000,34.910000 -20.150000,34.910000 -40.310000,0.0000000 -20.150000,-34.910000 20.150000,-34.910000 40.310000,0.0000000 " />
    <polygon
       style="stroke:#000000;stroke-width:0.60000002;stroke-miterlimit:4.0000000;stroke-opacity:1.0000000"
       transform="translate(246.7230,34.35851)"
       id="polygon2230"
       points="40.310000,0.0000000 20.150000,34.910000 -20.150000,34.910000 -40.310000,0.0000000 -20.150000,-34.910000 20.150000,-34.910000 40.310000,0.0000000 " />
    <polygon
       style="stroke:#000000;stroke-width:0.60000002;stroke-miterlimit:4.0000000;stroke-opacity:1.0000000"
       transform="translate(186.0916,-1.087515)"
       id="polygon2232"
       points="40.310000,0.0000000 20.150000,34.910000 -20.150000,34.910000 -40.310000,0.0000000 -20.150000,-34.910000 20.150000,-34.910000 40.310000,0.0000000 " />
    <polygon
       style="stroke:#000000;stroke-width:0.60000002;stroke-miterlimit:4.0000000;stroke-opacity:1.0000000"
       transform="translate(186.3648,-70.93361)"
       id="polygon2234"
       points="40.310000,0.0000000 20.150000,34.910000 -20.150000,34.910000 -40.310000,0.0000000 -20.150000,-34.910000 20.150000,-34.910000 40.310000,0.0000000 " />
    <polygon
       style="stroke:#000000;stroke-width:0.60000002;stroke-miterlimit:4.0000000;stroke-opacity:1.0000000"
       transform="translate(428.5887,-70.40968)"
       id="polygon2261"
       points="40.310000,0.0000000 20.150000,34.910000 -20.150000,34.910000 -40.310000,0.0000000 -20.150000,-34.910000 20.150000,-34.910000 40.310000,0.0000000 " />
    <polygon
       style="stroke:#000000;stroke-width:0.60000002;stroke-miterlimit:4.0000000;stroke-opacity:1.0000000"
       transform="translate(489.3985,-35.29517)"
       id="polygon2263"
       points="40.310000,0.0000000 20.150000,34.910000 -20.150000,34.910000 -40.310000,0.0000000 -20.150000,-34.910000 20.150000,-34.910000 40.310000,0.0000000 " />
    <polygon
       style="stroke:#000000;stroke-width:0.60000002;stroke-miterlimit:4.0000000;stroke-opacity:1.0000000"
       transform="translate(428.6897,-0.245740)"
       id="polygon2265"
       points="40.310000,0.0000000 20.150000,34.910000 -20.150000,34.910000 -40.310000,0.0000000 -20.150000,-34.910000 20.150000,-34.910000 40.310000,0.0000000 " />
    <polygon
       style="stroke:#000000;stroke-width:0.60000002;stroke-miterlimit:4.0000000;stroke-opacity:1.0000000"
       transform="translate(489.3212,34.54071)"
       id="polygon2267"
       points="40.310000,0.0000000 20.150000,34.910000 -20.150000,34.910000 -40.310000,0.0000000 -20.150000,-34.910000 20.150000,-34.910000 40.310000,0.0000000 " />
    <polygon
       style="stroke:#000000;stroke-width:0.60000002;stroke-miterlimit:4.0000000;stroke-opacity:1.0000000"
       transform="translate(428.6898,69.71353)"
       id="polygon2269"
       points="40.310000,0.0000000 20.150000,34.910000 -20.150000,34.910000 -40.310000,0.0000000 -20.150000,-34.910000 20.150000,-34.910000 40.310000,0.0000000 " />
    <polygon
       style="stroke:#000000;stroke-width:0.60000002;stroke-miterlimit:4.0000000;stroke-opacity:1.0000000"
       transform="translate(368.0584,34.26750)"
       id="polygon2271"
       points="40.310000,0.0000000 20.150000,34.910000 -20.150000,34.910000 -40.310000,0.0000000 -20.150000,-34.910000 20.150000,-34.910000 40.310000,0.0000000 " />
    <polygon
       style="stroke:#000000;stroke-width:0.60000002;stroke-miterlimit:4.0000000;stroke-opacity:1.0000000"
       transform="translate(368.3316,-35.57859)"
       id="polygon2273"
       points="40.310000,0.0000000 20.150000,34.910000 -20.150000,34.910000 -40.310000,0.0000000 -20.150000,-34.910000 20.150000,-34.910000 40.310000,0.0000000 " />
    <polygon
       style="stroke:#000000;stroke-width:0.60000002;stroke-miterlimit:4.0000000;stroke-opacity:1.0000000"
       transform="translate(307.2256,68.76220)"
       id="polygon2277"
       points="40.310000,0.0000000 20.150000,34.910000 -20.150000,34.910000 -40.310000,0.0000000 -20.150000,-34.910000 20.150000,-34.910000 40.310000,0.0000000 " />
    <polygon
       style="stroke:#000000;stroke-width:0.60000002;stroke-miterlimit:4.0000000;stroke-opacity:1.0000000"
       transform="translate(368.0354,103.8767)"
       id="polygon2279"
       points="40.310000,0.0000000 20.150000,34.910000 -20.150000,34.910000 -40.310000,0.0000000 -20.150000,-34.910000 20.150000,-34.910000 40.310000,0.0000000 " />
    <polygon
       style="stroke:#000000;stroke-width:0.60000002;stroke-miterlimit:4.0000000;stroke-opacity:1.0000000"
       transform="translate(307.3266,138.9261)"
       id="polygon2281"
       points="40.310000,0.0000000 20.150000,34.910000 -20.150000,34.910000 -40.310000,0.0000000 -20.150000,-34.910000 20.150000,-34.910000 40.310000,0.0000000 " />
    <polygon
       style="stroke:#000000;stroke-width:0.60000002;stroke-miterlimit:4.0000000;stroke-opacity:1.0000000"
       transform="translate(367.9581,173.7126)"
       id="polygon2283"
       points="40.310000,0.0000000 20.150000,34.910000 -20.150000,34.910000 -40.310000,0.0000000 -20.150000,-34.910000 20.150000,-34.910000 40.310000,0.0000000 " />
    <polygon
       style="stroke:#000000;stroke-width:0.60000002;stroke-miterlimit:4.0000000;stroke-opacity:1.0000000"
       transform="translate(307.3267,208.8854)"
       id="polygon2285"
       points="40.310000,0.0000000 20.150000,34.910000 -20.150000,34.910000 -40.310000,0.0000000 -20.150000,-34.910000 20.150000,-34.910000 40.310000,0.0000000 " />
    <polygon
       style="stroke:#000000;stroke-width:0.60000002;stroke-miterlimit:4.0000000;stroke-opacity:1.0000000"
       transform="translate(246.6953,173.4394)"
       id="polygon2287"
       points="40.310000,0.0000000 20.150000,34.910000 -20.150000,34.910000 -40.310000,0.0000000 -20.150000,-34.910000 20.150000,-34.910000 40.310000,0.0000000 " />
    <polygon
       style="stroke:#000000;stroke-width:0.60000002;stroke-miterlimit:4.0000000;stroke-opacity:1.0000000"
       transform="translate(246.9685,103.5933)"
       id="polygon2289"
       points="40.310000,0.0000000 20.150000,34.910000 -20.150000,34.910000 -40.310000,0.0000000 -20.150000,-34.910000 20.150000,-34.910000 40.310000,0.0000000 " />
    <polygon
       style="stroke:#000000;stroke-width:0.60000002;stroke-miterlimit:4.0000000;stroke-opacity:1.0000000"
       transform="translate(488.6107,104.3797)"
       id="polygon2293"
       points="40.310000,0.0000000 20.150000,34.910000 -20.150000,34.910000 -40.310000,0.0000000 -20.150000,-34.910000 20.150000,-34.910000 40.310000,0.0000000 " />
    <polygon
       style="stroke:#000000;stroke-width:0.60000002;stroke-miterlimit:4.0000000;stroke-opacity:1.0000000"
       transform="translate(549.4205,139.4942)"
       id="polygon2295"
       points="40.310000,0.0000000 20.150000,34.910000 -20.150000,34.910000 -40.310000,0.0000000 -20.150000,-34.910000 20.150000,-34.910000 40.310000,0.0000000 " />
    <polygon
       style="stroke:#000000;stroke-width:0.60000002;stroke-miterlimit:4.0000000;stroke-opacity:1.0000000"
       transform="translate(488.7117,174.5436)"
       id="polygon2297"
       points="40.310000,0.0000000 20.150000,34.910000 -20.150000,34.910000 -40.310000,0.0000000 -20.150000,-34.910000 20.150000,-34.910000 40.310000,0.0000000 " />
    <polygon
       style="stroke:#000000;stroke-width:0.60000002;stroke-miterlimit:4.0000000;stroke-opacity:1.0000000"
       transform="translate(549.3432,209.3301)"
       id="polygon2299"
       points="40.310000,0.0000000 20.150000,34.910000 -20.150000,34.910000 -40.310000,0.0000000 -20.150000,-34.910000 20.150000,-34.910000 40.310000,0.0000000 " />
    <polygon
       style="stroke:#000000;stroke-width:0.60000002;stroke-miterlimit:4.0000000;stroke-opacity:1.0000000"
       transform="translate(488.7118,244.5029)"
       id="polygon2301"
       points="40.310000,0.0000000 20.150000,34.910000 -20.150000,34.910000 -40.310000,0.0000000 -20.150000,-34.910000 20.150000,-34.910000 40.310000,0.0000000 " />
    <polygon
       style="stroke:#000000;stroke-width:0.60000002;stroke-miterlimit:4.0000000;stroke-opacity:1.0000000"
       transform="translate(428.0804,209.0569)"
       id="polygon2303"
       points="40.310000,0.0000000 20.150000,34.910000 -20.150000,34.910000 -40.310000,0.0000000 -20.150000,-34.910000 20.150000,-34.910000 40.310000,0.0000000 " />
    <polygon
       style="stroke:#000000;stroke-width:0.60000002;stroke-miterlimit:4.0000000;stroke-opacity:1.0000000"
       transform="translate(428.3536,139.2108)"
       id="polygon2305"
       points="40.310000,0.0000000 20.150000,34.910000 -20.150000,34.910000 -40.310000,0.0000000 -20.150000,-34.910000 20.150000,-34.910000 40.310000,0.0000000 " />
    <polygon
       style="stroke:#000000;stroke-width:0.60000002;stroke-miterlimit:4.0000000;stroke-opacity:1.0000000"
       transform="translate(609.5405,-34.87797)"
       id="polygon2309"
       points="40.310000,0.0000000 20.150000,34.910000 -20.150000,34.910000 -40.310000,0.0000000 -20.150000,-34.910000 20.150000,-34.910000 40.310000,0.0000000 " />
    <polygon
       style="stroke:#000000;stroke-width:0.60000002;stroke-miterlimit:4.0000000;stroke-opacity:1.0000000"
       transform="translate(670.3503,0.236540)"
       id="polygon2311"
       points="40.310000,0.0000000 20.150000,34.910000 -20.150000,34.910000 -40.310000,0.0000000 -20.150000,-34.910000 20.150000,-34.910000 40.310000,0.0000000 " />
    <polygon
       style="stroke:#000000;stroke-width:0.60000002;stroke-miterlimit:4.0000000;stroke-opacity:1.0000000"
       transform="translate(609.6415,35.28597)"
       id="polygon2313"
       points="40.310000,0.0000000 20.150000,34.910000 -20.150000,34.910000 -40.310000,0.0000000 -20.150000,-34.910000 20.150000,-34.910000 40.310000,0.0000000 " />
    <polygon
       style="stroke:#000000;stroke-width:0.60000002;stroke-miterlimit:4.0000000;stroke-opacity:1.0000000"
       transform="translate(670.2730,70.07242)"
       id="polygon2315"
       points="40.310000,0.0000000 20.150000,34.910000 -20.150000,34.910000 -40.310000,0.0000000 -20.150000,-34.910000 20.150000,-34.910000 40.310000,0.0000000 " />
    <polygon
       style="stroke:#000000;stroke-width:0.60000002;stroke-miterlimit:4.0000000;stroke-opacity:1.0000000"
       transform="translate(609.6416,105.2452)"
       id="polygon2317"
       points="40.310000,0.0000000 20.150000,34.910000 -20.150000,34.910000 -40.310000,0.0000000 -20.150000,-34.910000 20.150000,-34.910000 40.310000,0.0000000 " />
    <polygon
       style="stroke:#000000;stroke-width:0.60000002;stroke-miterlimit:4.0000000;stroke-opacity:1.0000000"
       transform="translate(549.0102,69.79922)"
       id="polygon2319"
       points="40.310000,0.0000000 20.150000,34.910000 -20.150000,34.910000 -40.310000,0.0000000 -20.150000,-34.910000 20.150000,-34.910000 40.310000,0.0000000 " />
    <polygon
       style="stroke:#000000;stroke-width:0.60000002;stroke-miterlimit:4.0000000;stroke-opacity:1.0000000"
       transform="translate(549.2834,-4.688000e-2)"
       id="polygon2321"
       points="40.310000,0.0000000 20.150000,34.910000 -20.150000,34.910000 -40.310000,0.0000000 -20.150000,-34.910000 20.150000,-34.910000 40.310000,0.0000000 " />
    <polygon
       style="stroke:#000000;stroke-width:0.60000002;stroke-miterlimit:4.0000000;stroke-opacity:1.0000000"
       transform="translate(671.3149,139.3375)"
       id="polygon2325"
       points="40.310000,0.0000000 20.150000,34.910000 -20.150000,34.910000 -40.310000,0.0000000 -20.150000,-34.910000 20.150000,-34.910000 40.310000,0.0000000 " />
    <polygon
       style="stroke:#000000;stroke-width:0.60000002;stroke-miterlimit:4.0000000;stroke-opacity:1.0000000"
       transform="translate(732.1247,174.4520)"
       id="polygon2327"
       points="40.310000,0.0000000 20.150000,34.910000 -20.150000,34.910000 -40.310000,0.0000000 -20.150000,-34.910000 20.150000,-34.910000 40.310000,0.0000000 " />
    <polygon
       style="stroke:#000000;stroke-width:0.60000002;stroke-miterlimit:4.0000000;stroke-opacity:1.0000000"
       transform="translate(671.4159,209.5014)"
       id="polygon2329"
       points="40.310000,0.0000000 20.150000,34.910000 -20.150000,34.910000 -40.310000,0.0000000 -20.150000,-34.910000 20.150000,-34.910000 40.310000,0.0000000 " />
    <polygon
       style="stroke:#000000;stroke-width:0.60000002;stroke-miterlimit:4.0000000;stroke-opacity:1.0000000"
       transform="translate(732.0474,244.2879)"
       id="polygon2331"
       points="40.310000,0.0000000 20.150000,34.910000 -20.150000,34.910000 -40.310000,0.0000000 -20.150000,-34.910000 20.150000,-34.910000 40.310000,0.0000000 " />
    <polygon
       style="stroke:#000000;stroke-width:0.60000002;stroke-miterlimit:4.0000000;stroke-opacity:1.0000000"
       transform="translate(671.4160,279.4607)"
       id="polygon2333"
       points="40.310000,0.0000000 20.150000,34.910000 -20.150000,34.910000 -40.310000,0.0000000 -20.150000,-34.910000 20.150000,-34.910000 40.310000,0.0000000 " />
    <polygon
       style="stroke:#000000;stroke-width:0.60000002;stroke-miterlimit:4.0000000;stroke-opacity:1.0000000"
       transform="translate(610.7846,244.0147)"
       id="polygon2335"
       points="40.310000,0.0000000 20.150000,34.910000 -20.150000,34.910000 -40.310000,0.0000000 -20.150000,-34.910000 20.150000,-34.910000 40.310000,0.0000000 " />
    <polygon
       style="stroke:#000000;stroke-width:0.60000002;stroke-miterlimit:4.0000000;stroke-opacity:1.0000000"
       transform="translate(611.0578,174.1686)"
       id="polygon2337"
       points="40.310000,0.0000000 20.150000,34.910000 -20.150000,34.910000 -40.310000,0.0000000 -20.150000,-34.910000 20.150000,-34.910000 40.310000,0.0000000 " />
    <polygon
       style="stroke:#000000;stroke-width:0.60000002;stroke-miterlimit:4.0000000;stroke-opacity:1.0000000"
       transform="translate(549.9519,279.1689)"
       id="polygon2341"
       points="40.310000,0.0000000 20.150000,34.910000 -20.150000,34.910000 -40.310000,0.0000000 -20.150000,-34.910000 20.150000,-34.910000 40.310000,0.0000000 " />
    <polygon
       style="stroke:#000000;stroke-width:0.60000002;stroke-miterlimit:4.0000000;stroke-opacity:1.0000000"
       transform="translate(610.7617,314.2834)"
       id="polygon2343"
       points="40.310000,0.0000000 20.150000,34.910000 -20.150000,34.910000 -40.310000,0.0000000 -20.150000,-34.910000 20.150000,-34.910000 40.310000,0.0000000 " />
    <polygon
       style="stroke:#000000;stroke-width:0.60000002;stroke-miterlimit:4.0000000;stroke-opacity:1.0000000"
       transform="translate(550.0529,349.3328)"
       id="polygon2345"
       points="40.310000,0.0000000 20.150000,34.910000 -20.150000,34.910000 -40.310000,0.0000000 -20.150000,-34.910000 20.150000,-34.910000 40.310000,0.0000000 " />
    <polygon
       style="stroke:#000000;stroke-width:0.60000002;stroke-miterlimit:4.0000000;stroke-opacity:1.0000000"
       transform="translate(610.6844,384.1193)"
       id="polygon2347"
       points="40.310000,0.0000000 20.150000,34.910000 -20.150000,34.910000 -40.310000,0.0000000 -20.150000,-34.910000 20.150000,-34.910000 40.310000,0.0000000 " />
    <polygon
       style="stroke:#000000;stroke-width:0.60000002;stroke-miterlimit:4.0000000;stroke-opacity:1.0000000"
       transform="translate(550.0530,419.2921)"
       id="polygon2349"
       points="40.310000,0.0000000 20.150000,34.910000 -20.150000,34.910000 -40.310000,0.0000000 -20.150000,-34.910000 20.150000,-34.910000 40.310000,0.0000000 " />
    <polygon
       style="stroke:#000000;stroke-width:0.60000002;stroke-miterlimit:4.0000000;stroke-opacity:1.0000000"
       transform="translate(489.4216,383.8461)"
       id="polygon2351"
       points="40.310000,0.0000000 20.150000,34.910000 -20.150000,34.910000 -40.310000,0.0000000 -20.150000,-34.910000 20.150000,-34.910000 40.310000,0.0000000 " />
    <polygon
       style="stroke:#000000;stroke-width:0.60000002;stroke-miterlimit:4.0000000;stroke-opacity:1.0000000"
       transform="translate(489.6948,314.0000)"
       id="polygon2353"
       points="40.310000,0.0000000 20.150000,34.910000 -20.150000,34.910000 -40.310000,0.0000000 -20.150000,-34.910000 20.150000,-34.910000 40.310000,0.0000000 " />
    <polygon
       style="stroke:#000000;stroke-width:0.60000002;stroke-miterlimit:4.0000000;stroke-opacity:1.0000000"
       transform="translate(367.9072,244.8706)"
       id="polygon2357"
       points="40.310000,0.0000000 20.150000,34.910000 -20.150000,34.910000 -40.310000,0.0000000 -20.150000,-34.910000 20.150000,-34.910000 40.310000,0.0000000 " />
    <polygon
       style="stroke:#000000;stroke-width:0.60000002;stroke-miterlimit:4.0000000;stroke-opacity:1.0000000"
       transform="translate(368.0082,315.0345)"
       id="polygon2361"
       points="40.310000,0.0000000 20.150000,34.910000 -20.150000,34.910000 -40.310000,0.0000000 -20.150000,-34.910000 20.150000,-34.910000 40.310000,0.0000000 " />
    <polygon
       style="stroke:#000000;stroke-width:0.60000002;stroke-miterlimit:4.0000000;stroke-opacity:1.0000000"
       transform="translate(428.6397,349.8210)"
       id="polygon2363"
       points="40.310000,0.0000000 20.150000,34.910000 -20.150000,34.910000 -40.310000,0.0000000 -20.150000,-34.910000 20.150000,-34.910000 40.310000,0.0000000 " />
    <polygon
       style="stroke:#000000;stroke-width:0.60000002;stroke-miterlimit:4.0000000;stroke-opacity:1.0000000"
       transform="translate(368.0083,384.9938)"
       id="polygon2365"
       points="40.310000,0.0000000 20.150000,34.910000 -20.150000,34.910000 -40.310000,0.0000000 -20.150000,-34.910000 20.150000,-34.910000 40.310000,0.0000000 " />
    <polygon
       style="stroke:#000000;stroke-width:0.60000002;stroke-miterlimit:4.0000000;stroke-opacity:1.0000000"
       transform="translate(307.3769,349.5478)"
       id="polygon2367"
       points="40.310000,0.0000000 20.150000,34.910000 -20.150000,34.910000 -40.310000,0.0000000 -20.150000,-34.910000 20.150000,-34.910000 40.310000,0.0000000 " />
    <polygon
       style="stroke:#000000;stroke-width:0.60000002;stroke-miterlimit:4.0000000;stroke-opacity:1.0000000"
       transform="translate(307.6501,279.7017)"
       id="polygon2369"
       points="40.310000,0.0000000 20.150000,34.910000 -20.150000,34.910000 -40.310000,0.0000000 -20.150000,-34.910000 20.150000,-34.910000 40.310000,0.0000000 " />
    <polygon
       style="stroke:#000000;stroke-width:0.60000002;stroke-miterlimit:4.0000000;stroke-opacity:1.0000000"
       transform="translate(187.1816,209.2531)"
       id="polygon2373"
       points="40.310000,0.0000000 20.150000,34.910000 -20.150000,34.910000 -40.310000,0.0000000 -20.150000,-34.910000 20.150000,-34.910000 40.310000,0.0000000 " />
    <polygon
       style="stroke:#000000;stroke-width:0.60000002;stroke-miterlimit:4.0000000;stroke-opacity:1.0000000"
       transform="translate(247.9914,244.3676)"
       id="polygon2375"
       points="40.310000,0.0000000 20.150000,34.910000 -20.150000,34.910000 -40.310000,0.0000000 -20.150000,-34.910000 20.150000,-34.910000 40.310000,0.0000000 " />
    <polygon
       style="stroke:#000000;stroke-width:0.60000002;stroke-miterlimit:4.0000000;stroke-opacity:1.0000000"
       transform="translate(187.2826,279.4170)"
       id="polygon2377"
       points="40.310000,0.0000000 20.150000,34.910000 -20.150000,34.910000 -40.310000,0.0000000 -20.150000,-34.910000 20.150000,-34.910000 40.310000,0.0000000 " />
    <polygon
       style="stroke:#000000;stroke-width:0.60000002;stroke-miterlimit:4.0000000;stroke-opacity:1.0000000"
       transform="translate(247.9141,314.2035)"
       id="polygon2379"
       points="40.310000,0.0000000 20.150000,34.910000 -20.150000,34.910000 -40.310000,0.0000000 -20.150000,-34.910000 20.150000,-34.910000 40.310000,0.0000000 " />
    <polygon
       style="stroke:#000000;stroke-width:0.60000002;stroke-miterlimit:4.0000000;stroke-opacity:1.0000000"
       transform="translate(187.2827,349.3763)"
       id="polygon2381"
       points="40.310000,0.0000000 20.150000,34.910000 -20.150000,34.910000 -40.310000,0.0000000 -20.150000,-34.910000 20.150000,-34.910000 40.310000,0.0000000 " />
    <polygon
       style="stroke:#000000;stroke-width:0.60000002;stroke-miterlimit:4.0000000;stroke-opacity:1.0000000"
       transform="translate(126.6513,313.9303)"
       id="polygon2383"
       points="40.310000,0.0000000 20.150000,34.910000 -20.150000,34.910000 -40.310000,0.0000000 -20.150000,-34.910000 20.150000,-34.910000 40.310000,0.0000000 " />
    <polygon
       style="stroke:#000000;stroke-width:0.60000002;stroke-miterlimit:4.0000000;stroke-opacity:1.0000000"
       transform="translate(126.9245,244.0842)"
       id="polygon2385"
       points="40.310000,0.0000000 20.150000,34.910000 -20.150000,34.910000 -40.310000,0.0000000 -20.150000,-34.910000 20.150000,-34.910000 40.310000,0.0000000 " />
    <polygon
       style="stroke:#000000;stroke-width:0.60000002;stroke-miterlimit:4.0000000;stroke-opacity:1.0000000"
       transform="translate(126.5001,33.80430)"
       id="polygon2389"
       points="40.310000,0.0000000 20.150000,34.910000 -20.150000,34.910000 -40.310000,0.0000000 -20.150000,-34.910000 20.150000,-34.910000 40.310000,0.0000000 " />
    <polygon
       style="stroke:#000000;stroke-width:0.60000002;stroke-miterlimit:4.0000000;stroke-opacity:1.0000000"
       transform="translate(187.3099,68.91881)"
       id="polygon2391"
       points="40.310000,0.0000000 20.150000,34.910000 -20.150000,34.910000 -40.310000,0.0000000 -20.150000,-34.910000 20.150000,-34.910000 40.310000,0.0000000 " />
    <polygon
       style="stroke:#000000;stroke-width:0.60000002;stroke-miterlimit:4.0000000;stroke-opacity:1.0000000"
       transform="translate(126.6011,103.9682)"
       id="polygon2393"
       points="40.310000,0.0000000 20.150000,34.910000 -20.150000,34.910000 -40.310000,0.0000000 -20.150000,-34.910000 20.150000,-34.910000 40.310000,0.0000000 " />
    <polygon
       style="stroke:#000000;stroke-width:0.60000002;stroke-miterlimit:4.0000000;stroke-opacity:1.0000000"
       transform="translate(187.2326,138.7547)"
       id="polygon2395"
       points="40.310000,0.0000000 20.150000,34.910000 -20.150000,34.910000 -40.310000,0.0000000 -20.150000,-34.910000 20.150000,-34.910000 40.310000,0.0000000 " />
    <polygon
       style="stroke:#000000;stroke-width:0.60000002;stroke-miterlimit:4.0000000;stroke-opacity:1.0000000"
       transform="translate(65.96980,138.4815)"
       id="polygon2399"
       points="40.310000,0.0000000 20.150000,34.910000 -20.150000,34.910000 -40.310000,0.0000000 -20.150000,-34.910000 20.150000,-34.910000 40.310000,0.0000000 " />
    <polygon
       style="stroke:#000000;stroke-width:0.60000002;stroke-miterlimit:4.0000000;stroke-opacity:1.0000000"
       transform="translate(66.24300,68.63539)"
       id="polygon2401"
       points="40.310000,0.0000000 20.150000,34.910000 -20.150000,34.910000 -40.310000,0.0000000 -20.150000,-34.910000 20.150000,-34.910000 40.310000,0.0000000 " />
    <polygon
       style="stroke:#000000;stroke-width:0.60000002;stroke-miterlimit:4.0000000;stroke-opacity:1.0000000"
       transform="translate(791.3589,-0.493900)"
       id="polygon2405"
       points="40.310000,0.0000000 20.150000,34.910000 -20.150000,34.910000 -40.310000,0.0000000 -20.150000,-34.910000 20.150000,-34.910000 40.310000,0.0000000 " />
    <polygon
       style="stroke:#000000;stroke-width:0.60000002;stroke-miterlimit:4.0000000;stroke-opacity:1.0000000"
       transform="translate(791.4599,69.67004)"
       id="polygon2409"
       points="40.310000,0.0000000 20.150000,34.910000 -20.150000,34.910000 -40.310000,0.0000000 -20.150000,-34.910000 20.150000,-34.910000 40.310000,0.0000000 " />
    <polygon
       style="stroke:#000000;stroke-width:0.60000002;stroke-miterlimit:4.0000000;stroke-opacity:1.0000000"
       transform="translate(852.0914,104.4565)"
       id="polygon2411"
       points="40.310000,0.0000000 20.150000,34.910000 -20.150000,34.910000 -40.310000,0.0000000 -20.150000,-34.910000 20.150000,-34.910000 40.310000,0.0000000 " />
    <polygon
       style="stroke:#000000;stroke-width:0.60000002;stroke-miterlimit:4.0000000;stroke-opacity:1.0000000"
       transform="translate(791.4600,139.6293)"
       id="polygon2413"
       points="40.310000,0.0000000 20.150000,34.910000 -20.150000,34.910000 -40.310000,0.0000000 -20.150000,-34.910000 20.150000,-34.910000 40.310000,0.0000000 " />
    <polygon
       style="stroke:#000000;stroke-width:0.60000002;stroke-miterlimit:4.0000000;stroke-opacity:1.0000000"
       transform="translate(790.8276,-139.5092)"
       id="polygon2423"
       points="40.310000,0.0000000 20.150000,34.910000 -20.150000,34.910000 -40.310000,0.0000000 -20.150000,-34.910000 20.150000,-34.910000 40.310000,0.0000000 " />
    <polygon
       style="stroke:#000000;stroke-width:0.60000002;stroke-miterlimit:4.0000000;stroke-opacity:1.0000000"
       transform="translate(730.1188,-104.4597)"
       id="polygon2425"
       points="40.310000,0.0000000 20.150000,34.910000 -20.150000,34.910000 -40.310000,0.0000000 -20.150000,-34.910000 20.150000,-34.910000 40.310000,0.0000000 " />
    <polygon
       style="stroke:#000000;stroke-width:0.60000002;stroke-miterlimit:4.0000000;stroke-opacity:1.0000000"
       transform="translate(790.7503,-69.67329)"
       id="polygon2427"
       points="40.310000,0.0000000 20.150000,34.910000 -20.150000,34.910000 -40.310000,0.0000000 -20.150000,-34.910000 20.150000,-34.910000 40.310000,0.0000000 " />
    <polygon
       style="stroke:#000000;stroke-width:0.60000002;stroke-miterlimit:4.0000000;stroke-opacity:1.0000000"
       transform="translate(730.1189,-34.50047)"
       id="polygon2429"
       points="40.310000,0.0000000 20.150000,34.910000 -20.150000,34.910000 -40.310000,0.0000000 -20.150000,-34.910000 20.150000,-34.910000 40.310000,0.0000000 " />
    <polygon
       style="stroke:#000000;stroke-width:0.60000002;stroke-miterlimit:4.0000000;stroke-opacity:1.0000000"
       transform="translate(669.4875,-69.94649)"
       id="polygon2431"
       points="40.310000,0.0000000 20.150000,34.910000 -20.150000,34.910000 -40.310000,0.0000000 -20.150000,-34.910000 20.150000,-34.910000 40.310000,0.0000000 " />
    <polygon
       style="stroke:#000000;stroke-width:0.60000002;stroke-miterlimit:4.0000000;stroke-opacity:1.0000000"
       transform="translate(669.7607,-139.7926)"
       id="polygon2433"
       points="40.310000,0.0000000 20.150000,34.910000 -20.150000,34.910000 -40.310000,0.0000000 -20.150000,-34.910000 20.150000,-34.910000 40.310000,0.0000000 " />
    <polygon
       style="stroke:#000000;stroke-width:0.60000002;stroke-miterlimit:4.0000000;stroke-opacity:1.0000000"
       transform="translate(549.3933,-140.0772)"
       id="polygon2441"
       points="40.310000,0.0000000 20.150000,34.910000 -20.150000,34.910000 -40.310000,0.0000000 -20.150000,-34.910000 20.150000,-34.910000 40.310000,0.0000000 " />
    <polygon
       style="stroke:#000000;stroke-width:0.60000002;stroke-miterlimit:4.0000000;stroke-opacity:1.0000000"
       transform="translate(610.0248,-105.2907)"
       id="polygon2443"
       points="40.310000,0.0000000 20.150000,34.910000 -20.150000,34.910000 -40.310000,0.0000000 -20.150000,-34.910000 20.150000,-34.910000 40.310000,0.0000000 " />
    <polygon
       style="stroke:#000000;stroke-width:0.60000002;stroke-miterlimit:4.0000000;stroke-opacity:1.0000000"
       transform="translate(549.3934,-70.11789)"
       id="polygon2445"
       points="40.310000,0.0000000 20.150000,34.910000 -20.150000,34.910000 -40.310000,0.0000000 -20.150000,-34.910000 20.150000,-34.910000 40.310000,0.0000000 " />
    <polygon
       style="stroke:#000000;stroke-width:0.60000002;stroke-miterlimit:4.0000000;stroke-opacity:1.0000000"
       transform="translate(488.7620,-105.5639)"
       id="polygon2447"
       points="40.310000,0.0000000 20.150000,34.910000 -20.150000,34.910000 -40.310000,0.0000000 -20.150000,-34.910000 20.150000,-34.910000 40.310000,0.0000000 " />
    <polygon
       style="stroke:#000000;stroke-width:0.60000002;stroke-miterlimit:4.0000000;stroke-opacity:1.0000000"
       transform="translate(427.9801,-140.9082)"
       id="polygon2459"
       points="40.310000,0.0000000 20.150000,34.910000 -20.150000,34.910000 -40.310000,0.0000000 -20.150000,-34.910000 20.150000,-34.910000 40.310000,0.0000000 " />
    <polygon
       style="stroke:#000000;stroke-width:0.60000002;stroke-miterlimit:4.0000000;stroke-opacity:1.0000000"
       transform="translate(367.3487,-105.7354)"
       id="polygon2461"
       points="40.310000,0.0000000 20.150000,34.910000 -20.150000,34.910000 -40.310000,0.0000000 -20.150000,-34.910000 20.150000,-34.910000 40.310000,0.0000000 " />
    <polygon
       style="stroke:#000000;stroke-width:0.60000002;stroke-miterlimit:4.0000000;stroke-opacity:1.0000000"
       transform="translate(306.7173,-141.1814)"
       id="polygon2463"
       points="40.310000,0.0000000 20.150000,34.910000 -20.150000,34.910000 -40.310000,0.0000000 -20.150000,-34.910000 20.150000,-34.910000 40.310000,0.0000000 " />
    <polygon
       style="stroke:#000000;stroke-width:0.60000002;stroke-miterlimit:4.0000000;stroke-opacity:1.0000000"
       transform="translate(912.7221,-139.2326)"
       id="polygon2469"
       points="40.310000,0.0000000 20.150000,34.910000 -20.150000,34.910000 -40.310000,0.0000000 -20.150000,-34.910000 20.150000,-34.910000 40.310000,0.0000000 " />
    <polygon
       style="stroke:#000000;stroke-width:0.60000002;stroke-miterlimit:4.0000000;stroke-opacity:1.0000000"
       transform="translate(973.5319,-104.1180)"
       id="polygon2471"
       points="40.310000,0.0000000 20.150000,34.910000 -20.150000,34.910000 -40.310000,0.0000000 -20.150000,-34.910000 20.150000,-34.910000 40.310000,0.0000000 " />
    <polygon
       style="stroke:#000000;stroke-width:0.60000002;stroke-miterlimit:4.0000000;stroke-opacity:1.0000000"
       transform="translate(912.8231,-69.06862)"
       id="polygon2473"
       points="40.310000,0.0000000 20.150000,34.910000 -20.150000,34.910000 -40.310000,0.0000000 -20.150000,-34.910000 20.150000,-34.910000 40.310000,0.0000000 " />
    <polygon
       style="stroke:#000000;stroke-width:0.60000002;stroke-miterlimit:4.0000000;stroke-opacity:1.0000000"
       transform="translate(973.4546,-34.28217)"
       id="polygon2475"
       points="40.310000,0.0000000 20.150000,34.910000 -20.150000,34.910000 -40.310000,0.0000000 -20.150000,-34.910000 20.150000,-34.910000 40.310000,0.0000000 " />
    <polygon
       style="stroke:#000000;stroke-width:0.60000002;stroke-miterlimit:4.0000000;stroke-opacity:1.0000000"
       transform="translate(852.4650,-104.4015)"
       id="polygon2481"
       points="40.310000,0.0000000 20.150000,34.910000 -20.150000,34.910000 -40.310000,0.0000000 -20.150000,-34.910000 20.150000,-34.910000 40.310000,0.0000000 " />
    <polygon
       style="stroke:#000000;stroke-width:0.60000002;stroke-miterlimit:4.0000000;stroke-opacity:1.0000000"
       transform="translate(972.7603,35.18900)"
       id="polygon2485"
       points="40.310000,0.0000000 20.150000,34.910000 -20.150000,34.910000 -40.310000,0.0000000 -20.150000,-34.910000 20.150000,-34.910000 40.310000,0.0000000 " />
    <polygon
       style="stroke:#000000;stroke-width:0.60000002;stroke-miterlimit:4.0000000;stroke-opacity:1.0000000"
       transform="translate(972.8613,105.3529)"
       id="polygon2489"
       points="40.310000,0.0000000 20.150000,34.910000 -20.150000,34.910000 -40.310000,0.0000000 -20.150000,-34.910000 20.150000,-34.910000 40.310000,0.0000000 " />
    <polygon
       style="stroke:#000000;stroke-width:0.60000002;stroke-miterlimit:4.0000000;stroke-opacity:1.0000000"
       transform="translate(972.8614,175.3122)"
       id="polygon2493"
       points="40.310000,0.0000000 20.150000,34.910000 -20.150000,34.910000 -40.310000,0.0000000 -20.150000,-34.910000 20.150000,-34.910000 40.310000,0.0000000 " />
    <polygon
       style="stroke:#000000;stroke-width:0.60000002;stroke-miterlimit:4.0000000;stroke-opacity:1.0000000"
       transform="translate(912.5032,70.02009)"
       id="polygon2497"
       points="40.310000,0.0000000 20.150000,34.910000 -20.150000,34.910000 -40.310000,0.0000000 -20.150000,-34.910000 20.150000,-34.910000 40.310000,0.0000000 " />
    <polygon
       style="stroke:#000000;stroke-width:0.60000002;stroke-miterlimit:4.0000000;stroke-opacity:1.0000000"
       transform="translate(852.1572,175.1075)"
       id="polygon2501"
       points="40.310000,0.0000000 20.150000,34.910000 -20.150000,34.910000 -40.310000,0.0000000 -20.150000,-34.910000 20.150000,-34.910000 40.310000,0.0000000 " />
    <polygon
       style="stroke:#000000;stroke-width:0.60000002;stroke-miterlimit:4.0000000;stroke-opacity:1.0000000"
       transform="translate(912.9670,210.2220)"
       id="polygon2503"
       points="40.310000,0.0000000 20.150000,34.910000 -20.150000,34.910000 -40.310000,0.0000000 -20.150000,-34.910000 20.150000,-34.910000 40.310000,0.0000000 " />
    <polygon
       style="stroke:#000000;stroke-width:0.60000002;stroke-miterlimit:4.0000000;stroke-opacity:1.0000000"
       transform="translate(852.2582,245.2714)"
       id="polygon2505"
       points="40.310000,0.0000000 20.150000,34.910000 -20.150000,34.910000 -40.310000,0.0000000 -20.150000,-34.910000 20.150000,-34.910000 40.310000,0.0000000 " />
    <polygon
       style="stroke:#000000;stroke-width:0.60000002;stroke-miterlimit:4.0000000;stroke-opacity:1.0000000"
       transform="translate(912.8897,280.0579)"
       id="polygon2507"
       points="40.310000,0.0000000 20.150000,34.910000 -20.150000,34.910000 -40.310000,0.0000000 -20.150000,-34.910000 20.150000,-34.910000 40.310000,0.0000000 " />
    <polygon
       style="stroke:#000000;stroke-width:0.60000002;stroke-miterlimit:4.0000000;stroke-opacity:1.0000000"
       transform="translate(852.2583,315.2307)"
       id="polygon2509"
       points="40.310000,0.0000000 20.150000,34.910000 -20.150000,34.910000 -40.310000,0.0000000 -20.150000,-34.910000 20.150000,-34.910000 40.310000,0.0000000 " />
    <polygon
       style="stroke:#000000;stroke-width:0.60000002;stroke-miterlimit:4.0000000;stroke-opacity:1.0000000"
       transform="translate(791.6269,279.7847)"
       id="polygon2511"
       points="40.310000,0.0000000 20.150000,34.910000 -20.150000,34.910000 -40.310000,0.0000000 -20.150000,-34.910000 20.150000,-34.910000 40.310000,0.0000000 " />
    <polygon
       style="stroke:#000000;stroke-width:0.60000002;stroke-miterlimit:4.0000000;stroke-opacity:1.0000000"
       transform="translate(791.9001,209.9386)"
       id="polygon2513"
       points="40.310000,0.0000000 20.150000,34.910000 -20.150000,34.910000 -40.310000,0.0000000 -20.150000,-34.910000 20.150000,-34.910000 40.310000,0.0000000 " />
    <polygon
       style="stroke:#000000;stroke-width:0.60000002;stroke-miterlimit:4.0000000;stroke-opacity:1.0000000"
       transform="translate(732.1005,315.0260)"
       id="polygon2517"
       points="40.310000,0.0000000 20.150000,34.910000 -20.150000,34.910000 -40.310000,0.0000000 -20.150000,-34.910000 20.150000,-34.910000 40.310000,0.0000000 " />
    <polygon
       style="stroke:#000000;stroke-width:0.60000002;stroke-miterlimit:4.0000000;stroke-opacity:1.0000000"
       transform="translate(792.9103,350.1405)"
       id="polygon2519"
       points="40.310000,0.0000000 20.150000,34.910000 -20.150000,34.910000 -40.310000,0.0000000 -20.150000,-34.910000 20.150000,-34.910000 40.310000,0.0000000 " />
    <polygon
       style="stroke:#000000;stroke-width:0.60000002;stroke-miterlimit:4.0000000;stroke-opacity:1.0000000"
       transform="translate(732.2015,385.1899)"
       id="polygon2521"
       points="40.310000,0.0000000 20.150000,34.910000 -20.150000,34.910000 -40.310000,0.0000000 -20.150000,-34.910000 20.150000,-34.910000 40.310000,0.0000000 " />
    <polygon
       style="stroke:#000000;stroke-width:0.60000002;stroke-miterlimit:4.0000000;stroke-opacity:1.0000000"
       transform="translate(792.8330,419.9764)"
       id="polygon2523"
       points="40.310000,0.0000000 20.150000,34.910000 -20.150000,34.910000 -40.310000,0.0000000 -20.150000,-34.910000 20.150000,-34.910000 40.310000,0.0000000 " />
    <polygon
       style="stroke:#000000;stroke-width:0.60000002;stroke-miterlimit:4.0000000;stroke-opacity:1.0000000"
       transform="translate(732.2016,455.1492)"
       id="polygon2525"
       points="40.310000,0.0000000 20.150000,34.910000 -20.150000,34.910000 -40.310000,0.0000000 -20.150000,-34.910000 20.150000,-34.910000 40.310000,0.0000000 " />
    <polygon
       style="stroke:#000000;stroke-width:0.60000002;stroke-miterlimit:4.0000000;stroke-opacity:1.0000000"
       transform="translate(671.5702,419.7032)"
       id="polygon2527"
       points="40.310000,0.0000000 20.150000,34.910000 -20.150000,34.910000 -40.310000,0.0000000 -20.150000,-34.910000 20.150000,-34.910000 40.310000,0.0000000 " />
    <polygon
       style="stroke:#000000;stroke-width:0.60000002;stroke-miterlimit:4.0000000;stroke-opacity:1.0000000"
       transform="translate(671.8434,349.8571)"
       id="polygon2529"
       points="40.310000,0.0000000 20.150000,34.910000 -20.150000,34.910000 -40.310000,0.0000000 -20.150000,-34.910000 20.150000,-34.910000 40.310000,0.0000000 " />
    <polygon
       style="stroke:#000000;stroke-width:0.60000002;stroke-miterlimit:4.0000000;stroke-opacity:1.0000000"
       transform="translate(610.8378,453.0790)"
       id="polygon2533"
       points="40.310000,0.0000000 20.150000,34.910000 -20.150000,34.910000 -40.310000,0.0000000 -20.150000,-34.910000 20.150000,-34.910000 40.310000,0.0000000 " />
    <polygon
       style="stroke:#000000;stroke-width:0.60000002;stroke-miterlimit:4.0000000;stroke-opacity:1.0000000"
       transform="translate(671.6476,488.1935)"
       id="polygon2535"
       points="40.310000,0.0000000 20.150000,34.910000 -20.150000,34.910000 -40.310000,0.0000000 -20.150000,-34.910000 20.150000,-34.910000 40.310000,0.0000000 " />
    <polygon
       style="stroke:#000000;stroke-width:0.60000002;stroke-miterlimit:4.0000000;stroke-opacity:1.0000000"
       transform="translate(610.9388,523.2429)"
       id="polygon2537"
       points="40.310000,0.0000000 20.150000,34.910000 -20.150000,34.910000 -40.310000,0.0000000 -20.150000,-34.910000 20.150000,-34.910000 40.310000,0.0000000 " />
    <polygon
       style="stroke:#000000;stroke-width:0.60000002;stroke-miterlimit:4.0000000;stroke-opacity:1.0000000"
       transform="translate(550.5807,487.9101)"
       id="polygon2545"
       points="40.310000,0.0000000 20.150000,34.910000 -20.150000,34.910000 -40.310000,0.0000000 -20.150000,-34.910000 20.150000,-34.910000 40.310000,0.0000000 " />
    <polygon
       style="stroke:#000000;stroke-width:0.60000002;stroke-miterlimit:4.0000000;stroke-opacity:1.0000000"
       transform="translate(429.8766,419.4985)"
       id="polygon2549"
       points="40.310000,0.0000000 20.150000,34.910000 -20.150000,34.910000 -40.310000,0.0000000 -20.150000,-34.910000 20.150000,-34.910000 40.310000,0.0000000 " />
    <polygon
       style="stroke:#000000;stroke-width:0.60000002;stroke-miterlimit:4.0000000;stroke-opacity:1.0000000"
       transform="translate(490.6864,454.6130)"
       id="polygon2551"
       points="40.310000,0.0000000 20.150000,34.910000 -20.150000,34.910000 -40.310000,0.0000000 -20.150000,-34.910000 20.150000,-34.910000 40.310000,0.0000000 " />
    <polygon
       style="stroke:#000000;stroke-width:0.60000002;stroke-miterlimit:4.0000000;stroke-opacity:1.0000000"
       transform="translate(429.9776,489.6624)"
       id="polygon2553"
       points="40.310000,0.0000000 20.150000,34.910000 -20.150000,34.910000 -40.310000,0.0000000 -20.150000,-34.910000 20.150000,-34.910000 40.310000,0.0000000 " />
    <polygon
       style="stroke:#000000;stroke-width:0.60000002;stroke-miterlimit:4.0000000;stroke-opacity:1.0000000"
       transform="translate(490.6091,524.4489)"
       id="polygon2555"
       points="40.310000,0.0000000 20.150000,34.910000 -20.150000,34.910000 -40.310000,0.0000000 -20.150000,-34.910000 20.150000,-34.910000 40.310000,0.0000000 " />
    <polygon
       style="stroke:#000000;stroke-width:0.60000002;stroke-miterlimit:4.0000000;stroke-opacity:1.0000000"
       transform="translate(369.3463,524.1757)"
       id="polygon2559"
       points="40.310000,0.0000000 20.150000,34.910000 -20.150000,34.910000 -40.310000,0.0000000 -20.150000,-34.910000 20.150000,-34.910000 40.310000,0.0000000 " />
    <polygon
       style="stroke:#000000;stroke-width:0.60000002;stroke-miterlimit:4.0000000;stroke-opacity:1.0000000"
       transform="translate(369.6195,454.3296)"
       id="polygon2561"
       points="40.310000,0.0000000 20.150000,34.910000 -20.150000,34.910000 -40.310000,0.0000000 -20.150000,-34.910000 20.150000,-34.910000 40.310000,0.0000000 " />
    <polygon
       style="stroke:#000000;stroke-width:0.60000002;stroke-miterlimit:4.0000000;stroke-opacity:1.0000000"
       transform="translate(791.7991,490.3906)"
       id="polygon2565"
       points="40.310000,0.0000000 20.150000,34.910000 -20.150000,34.910000 -40.310000,0.0000000 -20.150000,-34.910000 20.150000,-34.910000 40.310000,0.0000000 " />
    <polygon
       style="stroke:#000000;stroke-width:0.60000002;stroke-miterlimit:4.0000000;stroke-opacity:1.0000000"
       transform="translate(852.6089,525.5051)"
       id="polygon2567"
       points="40.310000,0.0000000 20.150000,34.910000 -20.150000,34.910000 -40.310000,0.0000000 -20.150000,-34.910000 20.150000,-34.910000 40.310000,0.0000000 " />
    <polygon
       style="stroke:#000000;stroke-width:0.60000002;stroke-miterlimit:4.0000000;stroke-opacity:1.0000000"
       transform="translate(731.5420,525.2217)"
       id="polygon2577"
       points="40.310000,0.0000000 20.150000,34.910000 -20.150000,34.910000 -40.310000,0.0000000 -20.150000,-34.910000 20.150000,-34.910000 40.310000,0.0000000 " />
    <polygon
       style="stroke:#000000;stroke-width:0.60000002;stroke-miterlimit:4.0000000;stroke-opacity:1.0000000"
       transform="translate(913.6083,349.9255)"
       id="polygon2581"
       points="40.310000,0.0000000 20.150000,34.910000 -20.150000,34.910000 -40.310000,0.0000000 -20.150000,-34.910000 20.150000,-34.910000 40.310000,0.0000000 " />
    <polygon
       style="stroke:#000000;stroke-width:0.60000002;stroke-miterlimit:4.0000000;stroke-opacity:1.0000000"
       transform="translate(974.4181,385.0400)"
       id="polygon2583"
       points="40.310000,0.0000000 20.150000,34.910000 -20.150000,34.910000 -40.310000,0.0000000 -20.150000,-34.910000 20.150000,-34.910000 40.310000,0.0000000 " />
    <polygon
       style="stroke:#000000;stroke-width:0.60000002;stroke-miterlimit:4.0000000;stroke-opacity:1.0000000"
       transform="translate(974.3408,454.8759)"
       id="polygon2587"
       points="40.310000,0.0000000 20.150000,34.910000 -20.150000,34.910000 -40.310000,0.0000000 -20.150000,-34.910000 20.150000,-34.910000 40.310000,0.0000000 " />
    <polygon
       style="stroke:#000000;stroke-width:0.60000002;stroke-miterlimit:4.0000000;stroke-opacity:1.0000000"
       transform="translate(913.7094,490.0487)"
       id="polygon2589"
       points="40.310000,0.0000000 20.150000,34.910000 -20.150000,34.910000 -40.310000,0.0000000 -20.150000,-34.910000 20.150000,-34.910000 40.310000,0.0000000 " />
    <polygon
       style="stroke:#000000;stroke-width:0.60000002;stroke-miterlimit:4.0000000;stroke-opacity:1.0000000"
       transform="translate(853.0780,454.6027)"
       id="polygon2591"
       points="40.310000,0.0000000 20.150000,34.910000 -20.150000,34.910000 -40.310000,0.0000000 -20.150000,-34.910000 20.150000,-34.910000 40.310000,0.0000000 " />
    <polygon
       style="stroke:#000000;stroke-width:0.60000002;stroke-miterlimit:4.0000000;stroke-opacity:1.0000000"
       transform="translate(853.3512,384.7566)"
       id="polygon2593"
       points="40.310000,0.0000000 20.150000,34.910000 -20.150000,34.910000 -40.310000,0.0000000 -20.150000,-34.910000 20.150000,-34.910000 40.310000,0.0000000 " />
    <polygon
       style="stroke:#000000;stroke-width:0.60000002;stroke-miterlimit:4.0000000;stroke-opacity:1.0000000"
       transform="translate(973.5549,314.1567)"
       id="polygon2607"
       points="40.310000,0.0000000 20.150000,34.910000 -20.150000,34.910000 -40.310000,0.0000000 -20.150000,-34.910000 20.150000,-34.910000 40.310000,0.0000000 " />
    <polygon
       style="stroke:#000000;stroke-width:0.60000002;stroke-miterlimit:4.0000000;stroke-opacity:1.0000000"
       transform="translate(973.8281,244.3106)"
       id="polygon2609"
       points="40.310000,0.0000000 20.150000,34.910000 -20.150000,34.910000 -40.310000,0.0000000 -20.150000,-34.910000 20.150000,-34.910000 40.310000,0.0000000 " />
    <polygon
       style="stroke:#000000;stroke-width:0.60000002;stroke-miterlimit:4.0000000;stroke-opacity:1.0000000"
       transform="translate(973.6931,524.9037)"
       id="polygon2629"
       points="40.310000,0.0000000 20.150000,34.910000 -20.150000,34.910000 -40.310000,0.0000000 -20.150000,-34.910000 20.150000,-34.910000 40.310000,0.0000000 " />
    <polygon
       style="stroke:#000000;stroke-width:0.60000002;stroke-miterlimit:4.0000000;stroke-opacity:1.0000000"
       transform="translate(247.8632,384.7021)"
       id="polygon2645"
       points="40.310000,0.0000000 20.150000,34.910000 -20.150000,34.910000 -40.310000,0.0000000 -20.150000,-34.910000 20.150000,-34.910000 40.310000,0.0000000 " />
    <polygon
       style="stroke:#000000;stroke-width:0.60000002;stroke-miterlimit:4.0000000;stroke-opacity:1.0000000"
       transform="translate(308.6730,419.8166)"
       id="polygon2647"
       points="40.310000,0.0000000 20.150000,34.910000 -20.150000,34.910000 -40.310000,0.0000000 -20.150000,-34.910000 20.150000,-34.910000 40.310000,0.0000000 " />
    <polygon
       style="stroke:#000000;stroke-width:0.60000002;stroke-miterlimit:4.0000000;stroke-opacity:1.0000000"
       transform="translate(247.9642,454.8660)"
       id="polygon2649"
       points="40.310000,0.0000000 20.150000,34.910000 -20.150000,34.910000 -40.310000,0.0000000 -20.150000,-34.910000 20.150000,-34.910000 40.310000,0.0000000 " />
    <polygon
       style="stroke:#000000;stroke-width:0.60000002;stroke-miterlimit:4.0000000;stroke-opacity:1.0000000"
       transform="translate(308.5957,489.6525)"
       id="polygon2651"
       points="40.310000,0.0000000 20.150000,34.910000 -20.150000,34.910000 -40.310000,0.0000000 -20.150000,-34.910000 20.150000,-34.910000 40.310000,0.0000000 " />
    <polygon
       style="stroke:#000000;stroke-width:0.60000002;stroke-miterlimit:4.0000000;stroke-opacity:1.0000000"
       transform="translate(247.9643,524.8253)"
       id="polygon2653"
       points="40.310000,0.0000000 20.150000,34.910000 -20.150000,34.910000 -40.310000,0.0000000 -20.150000,-34.910000 20.150000,-34.910000 40.310000,0.0000000 " />
    <polygon
       style="stroke:#000000;stroke-width:0.60000002;stroke-miterlimit:4.0000000;stroke-opacity:1.0000000"
       transform="translate(187.3329,489.3793)"
       id="polygon2655"
       points="40.310000,0.0000000 20.150000,34.910000 -20.150000,34.910000 -40.310000,0.0000000 -20.150000,-34.910000 20.150000,-34.910000 40.310000,0.0000000 " />
    <polygon
       style="stroke:#000000;stroke-width:0.60000002;stroke-miterlimit:4.0000000;stroke-opacity:1.0000000"
       transform="translate(187.6061,419.5332)"
       id="polygon2657"
       points="40.310000,0.0000000 20.150000,34.910000 -20.150000,34.910000 -40.310000,0.0000000 -20.150000,-34.910000 20.150000,-34.910000 40.310000,0.0000000 " />
    <polygon
       style="stroke:#000000;stroke-width:0.60000002;stroke-miterlimit:4.0000000;stroke-opacity:1.0000000"
       transform="translate(65.81850,-141.6446)"
       id="polygon2677"
       points="40.310000,0.0000000 20.150000,34.910000 -20.150000,34.910000 -40.310000,0.0000000 -20.150000,-34.910000 20.150000,-34.910000 40.310000,0.0000000 " />
    <polygon
       style="stroke:#000000;stroke-width:0.60000002;stroke-miterlimit:4.0000000;stroke-opacity:1.0000000"
       transform="translate(126.6283,-106.5301)"
       id="polygon2679"
       points="40.310000,0.0000000 20.150000,34.910000 -20.150000,34.910000 -40.310000,0.0000000 -20.150000,-34.910000 20.150000,-34.910000 40.310000,0.0000000 " />
    <polygon
       style="stroke:#000000;stroke-width:0.60000002;stroke-miterlimit:4.0000000;stroke-opacity:1.0000000"
       transform="translate(65.91950,-71.48063)"
       id="polygon2681"
       points="40.310000,0.0000000 20.150000,34.910000 -20.150000,34.910000 -40.310000,0.0000000 -20.150000,-34.910000 20.150000,-34.910000 40.310000,0.0000000 " />
    <polygon
       style="stroke:#000000;stroke-width:0.60000002;stroke-miterlimit:4.0000000;stroke-opacity:1.0000000"
       transform="translate(126.5510,-36.69418)"
       id="polygon2683"
       points="40.310000,0.0000000 20.150000,34.910000 -20.150000,34.910000 -40.310000,0.0000000 -20.150000,-34.910000 20.150000,-34.910000 40.310000,0.0000000 " />
    <polygon
       style="stroke:#000000;stroke-width:0.60000002;stroke-miterlimit:4.0000000;stroke-opacity:1.0000000"
       transform="translate(65.91960,-1.521360)"
       id="polygon2685"
       points="40.310000,0.0000000 20.150000,34.910000 -20.150000,34.910000 -40.310000,0.0000000 -20.150000,-34.910000 20.150000,-34.910000 40.310000,0.0000000 " />
    <polygon
       style="stroke:#000000;stroke-width:0.60000002;stroke-miterlimit:4.0000000;stroke-opacity:1.0000000"
       transform="translate(186.6231,-140.6932)"
       id="polygon2701"
       points="40.310000,0.0000000 20.150000,34.910000 -20.150000,34.910000 -40.310000,0.0000000 -20.150000,-34.910000 20.150000,-34.910000 40.310000,0.0000000 " />
    <polygon
       style="stroke:#000000;stroke-width:0.60000002;stroke-miterlimit:4.0000000;stroke-opacity:1.0000000"
       transform="translate(65.89429,349.0846)"
       id="polygon4183"
       points="40.310000,0.0000000 20.150000,34.910000 -20.150000,34.910000 -40.310000,0.0000000 -20.150000,-34.910000 20.150000,-34.910000 40.310000,0.0000000 " />
    <polygon
       style="stroke:#000000;stroke-width:0.60000002;stroke-miterlimit:4.0000000;stroke-opacity:1.0000000"
       transform="translate(126.7043,384.1991)"
       id="polygon4185"
       points="40.310000,0.0000000 20.150000,34.910000 -20.150000,34.910000 -40.310000,0.0000000 -20.150000,-34.910000 20.150000,-34.910000 40.310000,0.0000000 " />
    <polygon
       style="stroke:#000000;stroke-width:0.60000002;stroke-miterlimit:4.0000000;stroke-opacity:1.0000000"
       transform="translate(65.99529,419.2485)"
       id="polygon4187"
       points="40.310000,0.0000000 20.150000,34.910000 -20.150000,34.910000 -40.310000,0.0000000 -20.150000,-34.910000 20.150000,-34.910000 40.310000,0.0000000 " />
    <polygon
       style="stroke:#000000;stroke-width:0.60000002;stroke-miterlimit:4.0000000;stroke-opacity:1.0000000"
       transform="translate(65.99529,489.2078)"
       id="polygon4191"
       points="40.310000,0.0000000 20.150000,34.910000 -20.150000,34.910000 -40.310000,0.0000000 -20.150000,-34.910000 20.150000,-34.910000 40.310000,0.0000000 " />
    <polygon
       style="stroke:#000000;stroke-width:0.60000002;stroke-miterlimit:4.0000000;stroke-opacity:1.0000000"
       transform="translate(66.68198,208.7502)"
       id="polygon4195"
       points="40.310000,0.0000000 20.150000,34.910000 -20.150000,34.910000 -40.310000,0.0000000 -20.150000,-34.910000 20.150000,-34.910000 40.310000,0.0000000 " />
    <polygon
       style="stroke:#000000;stroke-width:0.60000002;stroke-miterlimit:4.0000000;stroke-opacity:1.0000000"
       transform="translate(66.60498,278.5861)"
       id="polygon4199"
       points="40.310000,0.0000000 20.150000,34.910000 -20.150000,34.910000 -40.310000,0.0000000 -20.150000,-34.910000 20.150000,-34.910000 40.310000,0.0000000 " />
    <polygon
       style="stroke:#000000;stroke-width:0.60000002;stroke-miterlimit:4.0000000;stroke-opacity:1.0000000"
       transform="translate(125.8838,523.5367)"
       id="polygon4227"
       points="40.310000,0.0000000 20.150000,34.910000 -20.150000,34.910000 -40.310000,0.0000000 -20.150000,-34.910000 20.150000,-34.910000 40.310000,0.0000000 " />
  </g>
  <g
     inkscape:export-ydpi="150.03279"
     inkscape:export-xdpi="150.03279"
     inkscape:export-filename="/home/tornil/these/papier/ihm2005/damier.png"
     id="g8101">
    <polygon
       style="fill-opacity:1.0000000;fill:#0071ff;stroke-opacity:1.0000000;stroke-miterlimit:4.0000000;stroke-width:0.60000002;stroke:#000000"
       transform="translate(412.8870,211.3886)"
       id="polygon2359"
       points="40.310000,0.0000000 20.150000,34.910000 -20.150000,34.910000 -40.310000,0.0000000 -20.150000,-34.910000 20.150000,-34.910000 40.310000,0.0000000 " />
    <polygon
       style="fill-opacity:1.0000000;fill:#0071ff;stroke-opacity:1.0000000;stroke-miterlimit:4.0000000;stroke-width:0.60000002;stroke:#000000"
       transform="translate(110.7712,105.3310)"
       id="polygon2397"
       points="40.310000,0.0000000 20.150000,34.910000 -20.150000,34.910000 -40.310000,0.0000000 -20.150000,-34.910000 20.150000,-34.910000 40.310000,0.0000000 " />
    <polygon
       style="fill-opacity:1.0000000;fill:#0071ff;stroke-opacity:1.0000000;stroke-miterlimit:4.0000000;stroke-width:0.60000002;stroke:#000000"
       transform="translate(836.3387,-33.97594)"
       id="polygon2407"
       points="40.310000,0.0000000 20.150000,34.910000 -20.150000,34.910000 -40.310000,0.0000000 -20.150000,-34.910000 20.150000,-34.910000 40.310000,0.0000000 " />
    <polygon
       style="fill-opacity:1.0000000;fill:#0071ff;stroke-opacity:1.0000000;stroke-miterlimit:4.0000000;stroke-width:0.60000002;stroke:#000000"
       transform="translate(714.9986,35.58675)"
       id="polygon2415"
       points="40.310000,0.0000000 20.150000,34.910000 -20.150000,34.910000 -40.310000,0.0000000 -20.150000,-34.910000 20.150000,-34.910000 40.310000,0.0000000 " />
    <polygon
       style="fill-opacity:1.0000000;fill:#0071ff;stroke-opacity:1.0000000;stroke-miterlimit:4.0000000;stroke-width:0.60000002;stroke:#000000"
       transform="translate(715.2718,-34.25936)"
       id="polygon2417"
       points="40.310000,0.0000000 20.150000,34.910000 -20.150000,34.910000 -40.310000,0.0000000 -20.150000,-34.910000 20.150000,-34.910000 40.310000,0.0000000 " />
    <polygon
       style="fill-opacity:1.0000000;fill:#0071ff;stroke-opacity:1.0000000;stroke-miterlimit:4.0000000;stroke-width:0.60000002;stroke:#000000"
       transform="translate(896.9932,-67.70590)"
       id="polygon2477"
       points="40.310000,0.0000000 20.150000,34.910000 -20.150000,34.910000 -40.310000,0.0000000 -20.150000,-34.910000 20.150000,-34.910000 40.310000,0.0000000 " />
    <polygon
       style="fill-opacity:1.0000000;fill:#0071ff;stroke-opacity:1.0000000;stroke-miterlimit:4.0000000;stroke-width:0.60000002;stroke:#000000"
       transform="translate(836.3618,-103.1519)"
       id="polygon2479"
       points="40.310000,0.0000000 20.150000,34.910000 -20.150000,34.910000 -40.310000,0.0000000 -20.150000,-34.910000 20.150000,-34.910000 40.310000,0.0000000 " />
    <polygon
       style="fill-opacity:1.0000000;fill:#0071ff;stroke-opacity:1.0000000;stroke-miterlimit:4.0000000;stroke-width:0.60000002;stroke:#000000"
       transform="translate(896.4000,71.26965)"
       id="polygon2495"
       points="40.310000,0.0000000 20.150000,34.910000 -20.150000,34.910000 -40.310000,0.0000000 -20.150000,-34.910000 20.150000,-34.910000 40.310000,0.0000000 " />
    <polygon
       style="fill-opacity:1.0000000;fill:#0071ff;stroke-opacity:1.0000000;stroke-miterlimit:4.0000000;stroke-width:0.60000002;stroke:#000000"
       transform="translate(897.8793,351.4929)"
       id="polygon2585"
       points="40.310000,0.0000000 20.150000,34.910000 -20.150000,34.910000 -40.310000,0.0000000 -20.150000,-34.910000 20.150000,-34.910000 40.310000,0.0000000 " />
    <polygon
       style="fill-opacity:1.0000000;fill:#0071ff;stroke-opacity:1.0000000;stroke-miterlimit:4.0000000;stroke-width:0.60000002;stroke:#000000"
       transform="translate(110.7973,385.4385)"
       id="polygon4189"
       points="40.310000,0.0000000 20.150000,34.910000 -20.150000,34.910000 -40.310000,0.0000000 -20.150000,-34.910000 20.150000,-34.910000 40.310000,0.0000000 " />
  </g>
  <metadata
     id="metadata2214">
    <rdf:RDF
       id="RDF2216">
      <cc:Work
         id="Work2218"
         rdf:about="">
        <dc:format
           id="format2220">image/svg+xml</dc:format>
        <dc:type
           rdf:resource="http://purl.org/dc/dcmitype/StillImage"
           id="type2222" />
      </cc:Work>
    </rdf:RDF>
  </metadata>
  <defs
     id="defs2212" />
  <sodipodi:namedview
     showborder="false"
     inkscape:current-layer="svg2201"
     inkscape:window-y="130"
     inkscape:window-x="24"
     inkscape:cy="349.53705"
     inkscape:cx="1019.4493"
     inkscape:zoom="0.45483336"
     inkscape:window-height="682"
     inkscape:window-width="1166"
     inkscape:pageshadow="2"
     inkscape:pageopacity="0.0"
     borderopacity="1.0"
     bordercolor="#666666"
     pagecolor="#ffffff"
     id="base" />
  <desc
     id="desc2203">Example polygon01 - star and hexagon</desc>
<!-- Show outline of canvas using 'rect' element -->  <path
     inkscape:export-ydpi="150.03279"
     inkscape:export-xdpi="150.03279"
     inkscape:export-filename="/home/tornil/these/papier/ihm2005/damier.png"
     transform="translate(-258.3554,539.5826)"
     d="M 1234.7380 -642.78119 A 18.468302 18.468302 0 1 1  1197.8014,-642.78119 A 18.468302 18.468302 0 1 1  1234.7380 -642.78119 z"
     sodipodi:ry="18.468302"
     sodipodi:rx="18.468302"
     sodipodi:cy="-642.78119"
     sodipodi:cx="1216.2697"
     id="path4253"
     style="fill:#f12502;fill-opacity:1.0000000;fill-rule:nonzero;stroke:#000000;stroke-width:0.60000002;stroke-linejoin:miter;stroke-miterlimit:4.0000000;stroke-dashoffset:0.0000000;stroke-opacity:1.0000000"
     sodipodi:type="arc" />
  <g
     inkscape:export-ydpi="150.00000"
     inkscape:export-xdpi="150.00000"
     inkscape:export-filename="/home/tornil/these/papier/ihm2005/damier.png"
     transform="matrix(0.783666,0.000000,0.000000,0.704278,86.09456,77.39546)"
     id="g1466">
    <rect
       y="520.73822"
       x="105.52127"
       height="284.90680"
       width="865.39563"
       id="rect8087"
       style="fill:#ffffff;fill-opacity:1.0000000;fill-rule:nonzero;stroke:#000000;stroke-width:0.58626521;stroke-linejoin:miter;stroke-miterlimit:4.0000000;stroke-dashoffset:0.0000000;stroke-opacity:1.0000000" />
    <path
       transform="translate(-1021.033,1221.546)"
       d="M 1234.7380 -642.78119 A 18.468302 18.468302 0 1 1  1197.8014,-642.78119 A 18.468302 18.468302 0 1 1  1234.7380 -642.78119 z"
       sodipodi:ry="18.468302"
       sodipodi:rx="18.468302"
       sodipodi:cy="-642.78119"
       sodipodi:cx="1216.2697"
       id="path8089"
       style="fill:#f12502;fill-opacity:1.0000000;fill-rule:nonzero;stroke:#000000;stroke-width:0.60000002;stroke-linejoin:miter;stroke-miterlimit:4.0000000;stroke-dashoffset:0.0000000;stroke-opacity:1.0000000"
       sodipodi:type="arc" />
    <polygon
       style="fill:#0071ff;fill-opacity:1.0000000;stroke:#000000;stroke-width:0.60000002;stroke-miterlimit:4.0000000;stroke-opacity:1.0000000"
       transform="translate(189.9597,668.4683)"
       id="polygon8113"
       points="40.310000,0.0000000 20.150000,34.910000 -20.150000,34.910000 -40.310000,0.0000000 -20.150000,-34.910000 20.150000,-34.910000 40.310000,0.0000000 " />
    <text
       sodipodi:linespacing="100%"
       id="text8115"
       y="594.59509"
       x="248.00291"
       style="font-size:48.000000;font-style:normal;font-variant:normal;font-weight:normal;font-stretch:normal;fill:#000000;fill-opacity:1.0000000;stroke:none;stroke-width:1.0000000px;stroke-linecap:butt;stroke-linejoin:miter;stroke-opacity:1.0000000;font-family:Bitstream Vera Sans;text-anchor:start;writing-mode:lr-tb"
       xml:space="preserve"><tspan
         id="tspan8119"
         sodipodi:role="line"
         y="594.59509"
         x="248.00291">Origine du mouvement</tspan></text>
    <text
       id="text8121"
       y="679.02161"
       x="248.00291"
       style="font-size:48.000000;font-style:normal;font-variant:normal;font-weight:normal;font-stretch:normal;fill:#000000;fill-opacity:1.0000000;stroke:none;stroke-width:1.0000000px;stroke-linecap:butt;stroke-linejoin:miter;stroke-opacity:1.0000000;font-family:Bitstream Vera Sans;text-anchor:start;writing-mode:lr-tb"
       xml:space="preserve"><tspan
         y="679.02161"
         x="248.00291"
         id="tspan8123"
         sodipodi:role="line">Cible</tspan></text>
    <polygon
       style="fill:#ececec;fill-opacity:0.41666666;stroke:#000000;stroke-width:0.60000002;stroke-miterlimit:4.0000000;stroke-opacity:1.0000000"
       transform="translate(501.2825,668.4683)"
       id="polygon8702"
       points="40.310000,0.0000000 20.150000,34.910000 -20.150000,34.910000 -40.310000,0.0000000 -20.150000,-34.910000 20.150000,-34.910000 40.310000,0.0000000 " />
    <text
       id="text8879"
       y="679.02161"
       x="585.70905"
       style="font-size:48.000000;font-style:normal;font-variant:normal;font-weight:normal;font-stretch:normal;fill:#000000;fill-opacity:1.0000000;stroke:none;stroke-width:1.0000000px;stroke-linecap:butt;stroke-linejoin:miter;stroke-opacity:1.0000000;font-family:Bitstream Vera Sans;text-anchor:start;writing-mode:lr-tb"
       xml:space="preserve"><tspan
         y="679.02161"
         x="585.70905"
         id="tspan8881"
         sodipodi:role="line">Vide pouvant</tspan><tspan
         sodipodi:role="line"
         id="tspan1695"
         x="585.70905"
         y="727.02161">recevoir un</tspan><tspan
         sodipodi:role="line"
         id="tspan1697"
         x="585.70905"
         y="775.02161">retour de force</tspan></text>
  </g>
</svg>
