<?xml version="1.0" encoding="UTF-8" standalone="no"?>
<svg
   xmlns:xml="http://www.w3.org/XML/1998/namespace"
   xmlns:dc="http://purl.org/dc/elements/1.1/"
   xmlns:cc="http://web.resource.org/cc/"
   xmlns:rdf="http://www.w3.org/1999/02/22-rdf-syntax-ns#"
   xmlns:svg="http://www.w3.org/2000/svg"
   xmlns="http://www.w3.org/2000/svg"
   xmlns:sodipodi="http://inkscape.sourceforge.net/DTD/sodipodi-0.dtd"
   xmlns:inkscape="http://www.inkscape.org/namespaces/inkscape"
   width="800.00000pt"
   height="600.00000pt"
   viewBox="0 0 1200 400"
   version="1.1"
   id="svg2201"
   sodipodi:version="0.32"
   inkscape:version="0.41"
   sodipodi:docname="damier_eng.svg"
   sodipodi:docbase="/home/bobuss/these/papier/icmi2005">
  <rect
     style="fill:#ffffff;fill-opacity:1.0000000;fill-rule:nonzero;stroke:#000000;stroke-width:0.39710611;stroke-linejoin:miter;stroke-miterlimit:4.0000000;stroke-dashoffset:0.0000000;stroke-opacity:1.0000000"
     id="rect8085"
     width="1005.4681"
     height="915.61926"
     x="-2.7707713"
     y="-252.36804"
     inkscape:export-filename="/home/tornil/these/papier/ihm2005/damier.png"
     inkscape:export-xdpi="150.03279"
     inkscape:export-ydpi="150.03279" />
  <g
     id="g5317"
     style="fill:#ececec;fill-opacity:0.41666666"
     transform="translate(-15.82997,-68.59655)"
     inkscape:export-filename="/home/tornil/these/papier/ihm2005/damier.png"
     inkscape:export-xdpi="150.03279"
     inkscape:export-ydpi="150.03279">
    <polygon
       points="40.310000,0.0000000 20.150000,34.910000 -20.150000,34.910000 -40.310000,0.0000000 -20.150000,-34.910000 20.150000,-34.910000 40.310000,0.0000000 "
       id="polygon2209"
       transform="translate(246.6219,-105.7647)"
       style="stroke:#000000;stroke-width:0.60000002;stroke-miterlimit:4.0000000;stroke-opacity:1.0000000" />
    <polygon
       points="40.310000,0.0000000 20.150000,34.910000 -20.150000,34.910000 -40.310000,0.0000000 -20.150000,-34.910000 20.150000,-34.910000 40.310000,0.0000000 "
       id="polygon2224"
       transform="translate(307.4317,-70.65019)"
       style="stroke:#000000;stroke-width:0.60000002;stroke-miterlimit:4.0000000;stroke-opacity:1.0000000" />
    <polygon
       points="40.310000,0.0000000 20.150000,34.910000 -20.150000,34.910000 -40.310000,0.0000000 -20.150000,-34.910000 20.150000,-34.910000 40.310000,0.0000000 "
       id="polygon2226"
       transform="translate(246.7229,-35.60076)"
       style="stroke:#000000;stroke-width:0.60000002;stroke-miterlimit:4.0000000;stroke-opacity:1.0000000" />
    <polygon
       points="40.310000,0.0000000 20.150000,34.910000 -20.150000,34.910000 -40.310000,0.0000000 -20.150000,-34.910000 20.150000,-34.910000 40.310000,0.0000000 "
       id="polygon2228"
       transform="translate(307.3544,-0.814307)"
       style="stroke:#000000;stroke-width:0.60000002;stroke-miterlimit:4.0000000;stroke-opacity:1.0000000" />
    <polygon
       points="40.310000,0.0000000 20.150000,34.910000 -20.150000,34.910000 -40.310000,0.0000000 -20.150000,-34.910000 20.150000,-34.910000 40.310000,0.0000000 "
       id="polygon2230"
       transform="translate(246.7230,34.35851)"
       style="stroke:#000000;stroke-width:0.60000002;stroke-miterlimit:4.0000000;stroke-opacity:1.0000000" />
    <polygon
       points="40.310000,0.0000000 20.150000,34.910000 -20.150000,34.910000 -40.310000,0.0000000 -20.150000,-34.910000 20.150000,-34.910000 40.310000,0.0000000 "
       id="polygon2232"
       transform="translate(186.0916,-1.087515)"
       style="stroke:#000000;stroke-width:0.60000002;stroke-miterlimit:4.0000000;stroke-opacity:1.0000000" />
    <polygon
       points="40.310000,0.0000000 20.150000,34.910000 -20.150000,34.910000 -40.310000,0.0000000 -20.150000,-34.910000 20.150000,-34.910000 40.310000,0.0000000 "
       id="polygon2234"
       transform="translate(186.3648,-70.93361)"
       style="stroke:#000000;stroke-width:0.60000002;stroke-miterlimit:4.0000000;stroke-opacity:1.0000000" />
    <polygon
       points="40.310000,0.0000000 20.150000,34.910000 -20.150000,34.910000 -40.310000,0.0000000 -20.150000,-34.910000 20.150000,-34.910000 40.310000,0.0000000 "
       id="polygon2261"
       transform="translate(428.5887,-70.40968)"
       style="stroke:#000000;stroke-width:0.60000002;stroke-miterlimit:4.0000000;stroke-opacity:1.0000000" />
    <polygon
       points="40.310000,0.0000000 20.150000,34.910000 -20.150000,34.910000 -40.310000,0.0000000 -20.150000,-34.910000 20.150000,-34.910000 40.310000,0.0000000 "
       id="polygon2263"
       transform="translate(489.3985,-35.29517)"
       style="stroke:#000000;stroke-width:0.60000002;stroke-miterlimit:4.0000000;stroke-opacity:1.0000000" />
    <polygon
       points="40.310000,0.0000000 20.150000,34.910000 -20.150000,34.910000 -40.310000,0.0000000 -20.150000,-34.910000 20.150000,-34.910000 40.310000,0.0000000 "
       id="polygon2265"
       transform="translate(428.6897,-0.245740)"
       style="stroke:#000000;stroke-width:0.60000002;stroke-miterlimit:4.0000000;stroke-opacity:1.0000000" />
    <polygon
       points="40.310000,0.0000000 20.150000,34.910000 -20.150000,34.910000 -40.310000,0.0000000 -20.150000,-34.910000 20.150000,-34.910000 40.310000,0.0000000 "
       id="polygon2267"
       transform="translate(489.3212,34.54071)"
       style="stroke:#000000;stroke-width:0.60000002;stroke-miterlimit:4.0000000;stroke-opacity:1.0000000" />
    <polygon
       points="40.310000,0.0000000 20.150000,34.910000 -20.150000,34.910000 -40.310000,0.0000000 -20.150000,-34.910000 20.150000,-34.910000 40.310000,0.0000000 "
       id="polygon2269"
       transform="translate(428.6898,69.71353)"
       style="stroke:#000000;stroke-width:0.60000002;stroke-miterlimit:4.0000000;stroke-opacity:1.0000000" />
    <polygon
       points="40.310000,0.0000000 20.150000,34.910000 -20.150000,34.910000 -40.310000,0.0000000 -20.150000,-34.910000 20.150000,-34.910000 40.310000,0.0000000 "
       id="polygon2271"
       transform="translate(368.0584,34.26750)"
       style="stroke:#000000;stroke-width:0.60000002;stroke-miterlimit:4.0000000;stroke-opacity:1.0000000" />
    <polygon
       points="40.310000,0.0000000 20.150000,34.910000 -20.150000,34.910000 -40.310000,0.0000000 -20.150000,-34.910000 20.150000,-34.910000 40.310000,0.0000000 "
       id="polygon2273"
       transform="translate(368.3316,-35.57859)"
       style="stroke:#000000;stroke-width:0.60000002;stroke-miterlimit:4.0000000;stroke-opacity:1.0000000" />
    <polygon
       points="40.310000,0.0000000 20.150000,34.910000 -20.150000,34.910000 -40.310000,0.0000000 -20.150000,-34.910000 20.150000,-34.910000 40.310000,0.0000000 "
       id="polygon2277"
       transform="translate(307.2256,68.76220)"
       style="stroke:#000000;stroke-width:0.60000002;stroke-miterlimit:4.0000000;stroke-opacity:1.0000000" />
    <polygon
       points="40.310000,0.0000000 20.150000,34.910000 -20.150000,34.910000 -40.310000,0.0000000 -20.150000,-34.910000 20.150000,-34.910000 40.310000,0.0000000 "
       id="polygon2279"
       transform="translate(368.0354,103.8767)"
       style="stroke:#000000;stroke-width:0.60000002;stroke-miterlimit:4.0000000;stroke-opacity:1.0000000" />
    <polygon
       points="40.310000,0.0000000 20.150000,34.910000 -20.150000,34.910000 -40.310000,0.0000000 -20.150000,-34.910000 20.150000,-34.910000 40.310000,0.0000000 "
       id="polygon2281"
       transform="translate(307.3266,138.9261)"
       style="stroke:#000000;stroke-width:0.60000002;stroke-miterlimit:4.0000000;stroke-opacity:1.0000000" />
    <polygon
       points="40.310000,0.0000000 20.150000,34.910000 -20.150000,34.910000 -40.310000,0.0000000 -20.150000,-34.910000 20.150000,-34.910000 40.310000,0.0000000 "
       id="polygon2283"
       transform="translate(367.9581,173.7126)"
       style="stroke:#000000;stroke-width:0.60000002;stroke-miterlimit:4.0000000;stroke-opacity:1.0000000" />
    <polygon
       points="40.310000,0.0000000 20.150000,34.910000 -20.150000,34.910000 -40.310000,0.0000000 -20.150000,-34.910000 20.150000,-34.910000 40.310000,0.0000000 "
       id="polygon2285"
       transform="translate(307.3267,208.8854)"
       style="stroke:#000000;stroke-width:0.60000002;stroke-miterlimit:4.0000000;stroke-opacity:1.0000000" />
    <polygon
       points="40.310000,0.0000000 20.150000,34.910000 -20.150000,34.910000 -40.310000,0.0000000 -20.150000,-34.910000 20.150000,-34.910000 40.310000,0.0000000 "
       id="polygon2287"
       transform="translate(246.6953,173.4394)"
       style="stroke:#000000;stroke-width:0.60000002;stroke-miterlimit:4.0000000;stroke-opacity:1.0000000" />
    <polygon
       points="40.310000,0.0000000 20.150000,34.910000 -20.150000,34.910000 -40.310000,0.0000000 -20.150000,-34.910000 20.150000,-34.910000 40.310000,0.0000000 "
       id="polygon2289"
       transform="translate(246.9685,103.5933)"
       style="stroke:#000000;stroke-width:0.60000002;stroke-miterlimit:4.0000000;stroke-opacity:1.0000000" />
    <polygon
       points="40.310000,0.0000000 20.150000,34.910000 -20.150000,34.910000 -40.310000,0.0000000 -20.150000,-34.910000 20.150000,-34.910000 40.310000,0.0000000 "
       id="polygon2293"
       transform="translate(488.6107,104.3797)"
       style="stroke:#000000;stroke-width:0.60000002;stroke-miterlimit:4.0000000;stroke-opacity:1.0000000" />
    <polygon
       points="40.310000,0.0000000 20.150000,34.910000 -20.150000,34.910000 -40.310000,0.0000000 -20.150000,-34.910000 20.150000,-34.910000 40.310000,0.0000000 "
       id="polygon2295"
       transform="translate(549.4205,139.4942)"
       style="stroke:#000000;stroke-width:0.60000002;stroke-miterlimit:4.0000000;stroke-opacity:1.0000000" />
    <polygon
       points="40.310000,0.0000000 20.150000,34.910000 -20.150000,34.910000 -40.310000,0.0000000 -20.150000,-34.910000 20.150000,-34.910000 40.310000,0.0000000 "
       id="polygon2297"
       transform="translate(488.7117,174.5436)"
       style="stroke:#000000;stroke-width:0.60000002;stroke-miterlimit:4.0000000;stroke-opacity:1.0000000" />
    <polygon
       points="40.310000,0.0000000 20.150000,34.910000 -20.150000,34.910000 -40.310000,0.0000000 -20.150000,-34.910000 20.150000,-34.910000 40.310000,0.0000000 "
       id="polygon2299"
       transform="translate(549.3432,209.3301)"
       style="stroke:#000000;stroke-width:0.60000002;stroke-miterlimit:4.0000000;stroke-opacity:1.0000000" />
    <polygon
       points="40.310000,0.0000000 20.150000,34.910000 -20.150000,34.910000 -40.310000,0.0000000 -20.150000,-34.910000 20.150000,-34.910000 40.310000,0.0000000 "
       id="polygon2301"
       transform="translate(488.7118,244.5029)"
       style="stroke:#000000;stroke-width:0.60000002;stroke-miterlimit:4.0000000;stroke-opacity:1.0000000" />
    <polygon
       points="40.310000,0.0000000 20.150000,34.910000 -20.150000,34.910000 -40.310000,0.0000000 -20.150000,-34.910000 20.150000,-34.910000 40.310000,0.0000000 "
       id="polygon2303"
       transform="translate(428.0804,209.0569)"
       style="stroke:#000000;stroke-width:0.60000002;stroke-miterlimit:4.0000000;stroke-opacity:1.0000000" />
    <polygon
       points="40.310000,0.0000000 20.150000,34.910000 -20.150000,34.910000 -40.310000,0.0000000 -20.150000,-34.910000 20.150000,-34.910000 40.310000,0.0000000 "
       id="polygon2305"
       transform="translate(428.3536,139.2108)"
       style="stroke:#000000;stroke-width:0.60000002;stroke-miterlimit:4.0000000;stroke-opacity:1.0000000" />
    <polygon
       points="40.310000,0.0000000 20.150000,34.910000 -20.150000,34.910000 -40.310000,0.0000000 -20.150000,-34.910000 20.150000,-34.910000 40.310000,0.0000000 "
       id="polygon2309"
       transform="translate(609.5405,-34.87797)"
       style="stroke:#000000;stroke-width:0.60000002;stroke-miterlimit:4.0000000;stroke-opacity:1.0000000" />
    <polygon
       points="40.310000,0.0000000 20.150000,34.910000 -20.150000,34.910000 -40.310000,0.0000000 -20.150000,-34.910000 20.150000,-34.910000 40.310000,0.0000000 "
       id="polygon2311"
       transform="translate(670.3503,0.236540)"
       style="stroke:#000000;stroke-width:0.60000002;stroke-miterlimit:4.0000000;stroke-opacity:1.0000000" />
    <polygon
       points="40.310000,0.0000000 20.150000,34.910000 -20.150000,34.910000 -40.310000,0.0000000 -20.150000,-34.910000 20.150000,-34.910000 40.310000,0.0000000 "
       id="polygon2313"
       transform="translate(609.6415,35.28597)"
       style="stroke:#000000;stroke-width:0.60000002;stroke-miterlimit:4.0000000;stroke-opacity:1.0000000" />
    <polygon
       points="40.310000,0.0000000 20.150000,34.910000 -20.150000,34.910000 -40.310000,0.0000000 -20.150000,-34.910000 20.150000,-34.910000 40.310000,0.0000000 "
       id="polygon2315"
       transform="translate(670.2730,70.07242)"
       style="stroke:#000000;stroke-width:0.60000002;stroke-miterlimit:4.0000000;stroke-opacity:1.0000000" />
    <polygon
       points="40.310000,0.0000000 20.150000,34.910000 -20.150000,34.910000 -40.310000,0.0000000 -20.150000,-34.910000 20.150000,-34.910000 40.310000,0.0000000 "
       id="polygon2317"
       transform="translate(609.6416,105.2452)"
       style="stroke:#000000;stroke-width:0.60000002;stroke-miterlimit:4.0000000;stroke-opacity:1.0000000" />
    <polygon
       points="40.310000,0.0000000 20.150000,34.910000 -20.150000,34.910000 -40.310000,0.0000000 -20.150000,-34.910000 20.150000,-34.910000 40.310000,0.0000000 "
       id="polygon2319"
       transform="translate(549.0102,69.79922)"
       style="stroke:#000000;stroke-width:0.60000002;stroke-miterlimit:4.0000000;stroke-opacity:1.0000000" />
    <polygon
       points="40.310000,0.0000000 20.150000,34.910000 -20.150000,34.910000 -40.310000,0.0000000 -20.150000,-34.910000 20.150000,-34.910000 40.310000,0.0000000 "
       id="polygon2321"
       transform="translate(549.2834,-4.688000e-2)"
       style="stroke:#000000;stroke-width:0.60000002;stroke-miterlimit:4.0000000;stroke-opacity:1.0000000" />
    <polygon
       points="40.310000,0.0000000 20.150000,34.910000 -20.150000,34.910000 -40.310000,0.0000000 -20.150000,-34.910000 20.150000,-34.910000 40.310000,0.0000000 "
       id="polygon2325"
       transform="translate(671.3149,139.3375)"
       style="stroke:#000000;stroke-width:0.60000002;stroke-miterlimit:4.0000000;stroke-opacity:1.0000000" />
    <polygon
       points="40.310000,0.0000000 20.150000,34.910000 -20.150000,34.910000 -40.310000,0.0000000 -20.150000,-34.910000 20.150000,-34.910000 40.310000,0.0000000 "
       id="polygon2327"
       transform="translate(732.1247,174.4520)"
       style="stroke:#000000;stroke-width:0.60000002;stroke-miterlimit:4.0000000;stroke-opacity:1.0000000" />
    <polygon
       points="40.310000,0.0000000 20.150000,34.910000 -20.150000,34.910000 -40.310000,0.0000000 -20.150000,-34.910000 20.150000,-34.910000 40.310000,0.0000000 "
       id="polygon2329"
       transform="translate(671.4159,209.5014)"
       style="stroke:#000000;stroke-width:0.60000002;stroke-miterlimit:4.0000000;stroke-opacity:1.0000000" />
    <polygon
       points="40.310000,0.0000000 20.150000,34.910000 -20.150000,34.910000 -40.310000,0.0000000 -20.150000,-34.910000 20.150000,-34.910000 40.310000,0.0000000 "
       id="polygon2331"
       transform="translate(732.0474,244.2879)"
       style="stroke:#000000;stroke-width:0.60000002;stroke-miterlimit:4.0000000;stroke-opacity:1.0000000" />
    <polygon
       points="40.310000,0.0000000 20.150000,34.910000 -20.150000,34.910000 -40.310000,0.0000000 -20.150000,-34.910000 20.150000,-34.910000 40.310000,0.0000000 "
       id="polygon2333"
       transform="translate(671.4160,279.4607)"
       style="stroke:#000000;stroke-width:0.60000002;stroke-miterlimit:4.0000000;stroke-opacity:1.0000000" />
    <polygon
       points="40.310000,0.0000000 20.150000,34.910000 -20.150000,34.910000 -40.310000,0.0000000 -20.150000,-34.910000 20.150000,-34.910000 40.310000,0.0000000 "
       id="polygon2335"
       transform="translate(610.7846,244.0147)"
       style="stroke:#000000;stroke-width:0.60000002;stroke-miterlimit:4.0000000;stroke-opacity:1.0000000" />
    <polygon
       points="40.310000,0.0000000 20.150000,34.910000 -20.150000,34.910000 -40.310000,0.0000000 -20.150000,-34.910000 20.150000,-34.910000 40.310000,0.0000000 "
       id="polygon2337"
       transform="translate(611.0578,174.1686)"
       style="stroke:#000000;stroke-width:0.60000002;stroke-miterlimit:4.0000000;stroke-opacity:1.0000000" />
    <polygon
       points="40.310000,0.0000000 20.150000,34.910000 -20.150000,34.910000 -40.310000,0.0000000 -20.150000,-34.910000 20.150000,-34.910000 40.310000,0.0000000 "
       id="polygon2341"
       transform="translate(549.9519,279.1689)"
       style="stroke:#000000;stroke-width:0.60000002;stroke-miterlimit:4.0000000;stroke-opacity:1.0000000" />
    <polygon
       points="40.310000,0.0000000 20.150000,34.910000 -20.150000,34.910000 -40.310000,0.0000000 -20.150000,-34.910000 20.150000,-34.910000 40.310000,0.0000000 "
       id="polygon2343"
       transform="translate(610.7617,314.2834)"
       style="stroke:#000000;stroke-width:0.60000002;stroke-miterlimit:4.0000000;stroke-opacity:1.0000000" />
    <polygon
       points="40.310000,0.0000000 20.150000,34.910000 -20.150000,34.910000 -40.310000,0.0000000 -20.150000,-34.910000 20.150000,-34.910000 40.310000,0.0000000 "
       id="polygon2345"
       transform="translate(550.0529,349.3328)"
       style="stroke:#000000;stroke-width:0.60000002;stroke-miterlimit:4.0000000;stroke-opacity:1.0000000" />
    <polygon
       points="40.310000,0.0000000 20.150000,34.910000 -20.150000,34.910000 -40.310000,0.0000000 -20.150000,-34.910000 20.150000,-34.910000 40.310000,0.0000000 "
       id="polygon2347"
       transform="translate(610.6844,384.1193)"
       style="stroke:#000000;stroke-width:0.60000002;stroke-miterlimit:4.0000000;stroke-opacity:1.0000000" />
    <polygon
       points="40.310000,0.0000000 20.150000,34.910000 -20.150000,34.910000 -40.310000,0.0000000 -20.150000,-34.910000 20.150000,-34.910000 40.310000,0.0000000 "
       id="polygon2349"
       transform="translate(550.0530,419.2921)"
       style="stroke:#000000;stroke-width:0.60000002;stroke-miterlimit:4.0000000;stroke-opacity:1.0000000" />
    <polygon
       points="40.310000,0.0000000 20.150000,34.910000 -20.150000,34.910000 -40.310000,0.0000000 -20.150000,-34.910000 20.150000,-34.910000 40.310000,0.0000000 "
       id="polygon2351"
       transform="translate(489.4216,383.8461)"
       style="stroke:#000000;stroke-width:0.60000002;stroke-miterlimit:4.0000000;stroke-opacity:1.0000000" />
    <polygon
       points="40.310000,0.0000000 20.150000,34.910000 -20.150000,34.910000 -40.310000,0.0000000 -20.150000,-34.910000 20.150000,-34.910000 40.310000,0.0000000 "
       id="polygon2353"
       transform="translate(489.6948,314.0000)"
       style="stroke:#000000;stroke-width:0.60000002;stroke-miterlimit:4.0000000;stroke-opacity:1.0000000" />
    <polygon
       points="40.310000,0.0000000 20.150000,34.910000 -20.150000,34.910000 -40.310000,0.0000000 -20.150000,-34.910000 20.150000,-34.910000 40.310000,0.0000000 "
       id="polygon2357"
       transform="translate(367.9072,244.8706)"
       style="stroke:#000000;stroke-width:0.60000002;stroke-miterlimit:4.0000000;stroke-opacity:1.0000000" />
    <polygon
       points="40.310000,0.0000000 20.150000,34.910000 -20.150000,34.910000 -40.310000,0.0000000 -20.150000,-34.910000 20.150000,-34.910000 40.310000,0.0000000 "
       id="polygon2361"
       transform="translate(368.0082,315.0345)"
       style="stroke:#000000;stroke-width:0.60000002;stroke-miterlimit:4.0000000;stroke-opacity:1.0000000" />
    <polygon
       points="40.310000,0.0000000 20.150000,34.910000 -20.150000,34.910000 -40.310000,0.0000000 -20.150000,-34.910000 20.150000,-34.910000 40.310000,0.0000000 "
       id="polygon2363"
       transform="translate(428.6397,349.8210)"
       style="stroke:#000000;stroke-width:0.60000002;stroke-miterlimit:4.0000000;stroke-opacity:1.0000000" />
    <polygon
       points="40.310000,0.0000000 20.150000,34.910000 -20.150000,34.910000 -40.310000,0.0000000 -20.150000,-34.910000 20.150000,-34.910000 40.310000,0.0000000 "
       id="polygon2365"
       transform="translate(368.0083,384.9938)"
       style="stroke:#000000;stroke-width:0.60000002;stroke-miterlimit:4.0000000;stroke-opacity:1.0000000" />
    <polygon
       points="40.310000,0.0000000 20.150000,34.910000 -20.150000,34.910000 -40.310000,0.0000000 -20.150000,-34.910000 20.150000,-34.910000 40.310000,0.0000000 "
       id="polygon2367"
       transform="translate(307.3769,349.5478)"
       style="stroke:#000000;stroke-width:0.60000002;stroke-miterlimit:4.0000000;stroke-opacity:1.0000000" />
    <polygon
       points="40.310000,0.0000000 20.150000,34.910000 -20.150000,34.910000 -40.310000,0.0000000 -20.150000,-34.910000 20.150000,-34.910000 40.310000,0.0000000 "
       id="polygon2369"
       transform="translate(307.6501,279.7017)"
       style="stroke:#000000;stroke-width:0.60000002;stroke-miterlimit:4.0000000;stroke-opacity:1.0000000" />
    <polygon
       points="40.310000,0.0000000 20.150000,34.910000 -20.150000,34.910000 -40.310000,0.0000000 -20.150000,-34.910000 20.150000,-34.910000 40.310000,0.0000000 "
       id="polygon2373"
       transform="translate(187.1816,209.2531)"
       style="stroke:#000000;stroke-width:0.60000002;stroke-miterlimit:4.0000000;stroke-opacity:1.0000000" />
    <polygon
       points="40.310000,0.0000000 20.150000,34.910000 -20.150000,34.910000 -40.310000,0.0000000 -20.150000,-34.910000 20.150000,-34.910000 40.310000,0.0000000 "
       id="polygon2375"
       transform="translate(247.9914,244.3676)"
       style="stroke:#000000;stroke-width:0.60000002;stroke-miterlimit:4.0000000;stroke-opacity:1.0000000" />
    <polygon
       points="40.310000,0.0000000 20.150000,34.910000 -20.150000,34.910000 -40.310000,0.0000000 -20.150000,-34.910000 20.150000,-34.910000 40.310000,0.0000000 "
       id="polygon2377"
       transform="translate(187.2826,279.4170)"
       style="stroke:#000000;stroke-width:0.60000002;stroke-miterlimit:4.0000000;stroke-opacity:1.0000000" />
    <polygon
       points="40.310000,0.0000000 20.150000,34.910000 -20.150000,34.910000 -40.310000,0.0000000 -20.150000,-34.910000 20.150000,-34.910000 40.310000,0.0000000 "
       id="polygon2379"
       transform="translate(247.9141,314.2035)"
       style="stroke:#000000;stroke-width:0.60000002;stroke-miterlimit:4.0000000;stroke-opacity:1.0000000" />
    <polygon
       points="40.310000,0.0000000 20.150000,34.910000 -20.150000,34.910000 -40.310000,0.0000000 -20.150000,-34.910000 20.150000,-34.910000 40.310000,0.0000000 "
       id="polygon2381"
       transform="translate(187.2827,349.3763)"
       style="stroke:#000000;stroke-width:0.60000002;stroke-miterlimit:4.0000000;stroke-opacity:1.0000000" />
    <polygon
       points="40.310000,0.0000000 20.150000,34.910000 -20.150000,34.910000 -40.310000,0.0000000 -20.150000,-34.910000 20.150000,-34.910000 40.310000,0.0000000 "
       id="polygon2383"
       transform="translate(126.6513,313.9303)"
       style="stroke:#000000;stroke-width:0.60000002;stroke-miterlimit:4.0000000;stroke-opacity:1.0000000" />
    <polygon
       points="40.310000,0.0000000 20.150000,34.910000 -20.150000,34.910000 -40.310000,0.0000000 -20.150000,-34.910000 20.150000,-34.910000 40.310000,0.0000000 "
       id="polygon2385"
       transform="translate(126.9245,244.0842)"
       style="stroke:#000000;stroke-width:0.60000002;stroke-miterlimit:4.0000000;stroke-opacity:1.0000000" />
    <polygon
       points="40.310000,0.0000000 20.150000,34.910000 -20.150000,34.910000 -40.310000,0.0000000 -20.150000,-34.910000 20.150000,-34.910000 40.310000,0.0000000 "
       id="polygon2389"
       transform="translate(126.5001,33.80430)"
       style="stroke:#000000;stroke-width:0.60000002;stroke-miterlimit:4.0000000;stroke-opacity:1.0000000" />
    <polygon
       points="40.310000,0.0000000 20.150000,34.910000 -20.150000,34.910000 -40.310000,0.0000000 -20.150000,-34.910000 20.150000,-34.910000 40.310000,0.0000000 "
       id="polygon2391"
       transform="translate(187.3099,68.91881)"
       style="stroke:#000000;stroke-width:0.60000002;stroke-miterlimit:4.0000000;stroke-opacity:1.0000000" />
    <polygon
       points="40.310000,0.0000000 20.150000,34.910000 -20.150000,34.910000 -40.310000,0.0000000 -20.150000,-34.910000 20.150000,-34.910000 40.310000,0.0000000 "
       id="polygon2393"
       transform="translate(126.6011,103.9682)"
       style="stroke:#000000;stroke-width:0.60000002;stroke-miterlimit:4.0000000;stroke-opacity:1.0000000" />
    <polygon
       points="40.310000,0.0000000 20.150000,34.910000 -20.150000,34.910000 -40.310000,0.0000000 -20.150000,-34.910000 20.150000,-34.910000 40.310000,0.0000000 "
       id="polygon2395"
       transform="translate(187.2326,138.7547)"
       style="stroke:#000000;stroke-width:0.60000002;stroke-miterlimit:4.0000000;stroke-opacity:1.0000000" />
    <polygon
       points="40.310000,0.0000000 20.150000,34.910000 -20.150000,34.910000 -40.310000,0.0000000 -20.150000,-34.910000 20.150000,-34.910000 40.310000,0.0000000 "
       id="polygon2399"
       transform="translate(65.96980,138.4815)"
       style="stroke:#000000;stroke-width:0.60000002;stroke-miterlimit:4.0000000;stroke-opacity:1.0000000" />
    <polygon
       points="40.310000,0.0000000 20.150000,34.910000 -20.150000,34.910000 -40.310000,0.0000000 -20.150000,-34.910000 20.150000,-34.910000 40.310000,0.0000000 "
       id="polygon2401"
       transform="translate(66.24300,68.63539)"
       style="stroke:#000000;stroke-width:0.60000002;stroke-miterlimit:4.0000000;stroke-opacity:1.0000000" />
    <polygon
       points="40.310000,0.0000000 20.150000,34.910000 -20.150000,34.910000 -40.310000,0.0000000 -20.150000,-34.910000 20.150000,-34.910000 40.310000,0.0000000 "
       id="polygon2405"
       transform="translate(791.3589,-0.493900)"
       style="stroke:#000000;stroke-width:0.60000002;stroke-miterlimit:4.0000000;stroke-opacity:1.0000000" />
    <polygon
       points="40.310000,0.0000000 20.150000,34.910000 -20.150000,34.910000 -40.310000,0.0000000 -20.150000,-34.910000 20.150000,-34.910000 40.310000,0.0000000 "
       id="polygon2409"
       transform="translate(791.4599,69.67004)"
       style="stroke:#000000;stroke-width:0.60000002;stroke-miterlimit:4.0000000;stroke-opacity:1.0000000" />
    <polygon
       points="40.310000,0.0000000 20.150000,34.910000 -20.150000,34.910000 -40.310000,0.0000000 -20.150000,-34.910000 20.150000,-34.910000 40.310000,0.0000000 "
       id="polygon2411"
       transform="translate(852.0914,104.4565)"
       style="stroke:#000000;stroke-width:0.60000002;stroke-miterlimit:4.0000000;stroke-opacity:1.0000000" />
    <polygon
       points="40.310000,0.0000000 20.150000,34.910000 -20.150000,34.910000 -40.310000,0.0000000 -20.150000,-34.910000 20.150000,-34.910000 40.310000,0.0000000 "
       id="polygon2413"
       transform="translate(791.4600,139.6293)"
       style="stroke:#000000;stroke-width:0.60000002;stroke-miterlimit:4.0000000;stroke-opacity:1.0000000" />
    <polygon
       points="40.310000,0.0000000 20.150000,34.910000 -20.150000,34.910000 -40.310000,0.0000000 -20.150000,-34.910000 20.150000,-34.910000 40.310000,0.0000000 "
       id="polygon2423"
       transform="translate(790.8276,-139.5092)"
       style="stroke:#000000;stroke-width:0.60000002;stroke-miterlimit:4.0000000;stroke-opacity:1.0000000" />
    <polygon
       points="40.310000,0.0000000 20.150000,34.910000 -20.150000,34.910000 -40.310000,0.0000000 -20.150000,-34.910000 20.150000,-34.910000 40.310000,0.0000000 "
       id="polygon2425"
       transform="translate(730.1188,-104.4597)"
       style="stroke:#000000;stroke-width:0.60000002;stroke-miterlimit:4.0000000;stroke-opacity:1.0000000" />
    <polygon
       points="40.310000,0.0000000 20.150000,34.910000 -20.150000,34.910000 -40.310000,0.0000000 -20.150000,-34.910000 20.150000,-34.910000 40.310000,0.0000000 "
       id="polygon2427"
       transform="translate(790.7503,-69.67329)"
       style="stroke:#000000;stroke-width:0.60000002;stroke-miterlimit:4.0000000;stroke-opacity:1.0000000" />
    <polygon
       points="40.310000,0.0000000 20.150000,34.910000 -20.150000,34.910000 -40.310000,0.0000000 -20.150000,-34.910000 20.150000,-34.910000 40.310000,0.0000000 "
       id="polygon2429"
       transform="translate(730.1189,-34.50047)"
       style="stroke:#000000;stroke-width:0.60000002;stroke-miterlimit:4.0000000;stroke-opacity:1.0000000" />
    <polygon
       points="40.310000,0.0000000 20.150000,34.910000 -20.150000,34.910000 -40.310000,0.0000000 -20.150000,-34.910000 20.150000,-34.910000 40.310000,0.0000000 "
       id="polygon2431"
       transform="translate(669.4875,-69.94649)"
       style="stroke:#000000;stroke-width:0.60000002;stroke-miterlimit:4.0000000;stroke-opacity:1.0000000" />
    <polygon
       points="40.310000,0.0000000 20.150000,34.910000 -20.150000,34.910000 -40.310000,0.0000000 -20.150000,-34.910000 20.150000,-34.910000 40.310000,0.0000000 "
       id="polygon2433"
       transform="translate(669.7607,-139.7926)"
       style="stroke:#000000;stroke-width:0.60000002;stroke-miterlimit:4.0000000;stroke-opacity:1.0000000" />
    <polygon
       points="40.310000,0.0000000 20.150000,34.910000 -20.150000,34.910000 -40.310000,0.0000000 -20.150000,-34.910000 20.150000,-34.910000 40.310000,0.0000000 "
       id="polygon2441"
       transform="translate(549.3933,-140.0772)"
       style="stroke:#000000;stroke-width:0.60000002;stroke-miterlimit:4.0000000;stroke-opacity:1.0000000" />
    <polygon
       points="40.310000,0.0000000 20.150000,34.910000 -20.150000,34.910000 -40.310000,0.0000000 -20.150000,-34.910000 20.150000,-34.910000 40.310000,0.0000000 "
       id="polygon2443"
       transform="translate(610.0248,-105.2907)"
       style="stroke:#000000;stroke-width:0.60000002;stroke-miterlimit:4.0000000;stroke-opacity:1.0000000" />
    <polygon
       points="40.310000,0.0000000 20.150000,34.910000 -20.150000,34.910000 -40.310000,0.0000000 -20.150000,-34.910000 20.150000,-34.910000 40.310000,0.0000000 "
       id="polygon2445"
       transform="translate(549.3934,-70.11789)"
       style="stroke:#000000;stroke-width:0.60000002;stroke-miterlimit:4.0000000;stroke-opacity:1.0000000" />
    <polygon
       points="40.310000,0.0000000 20.150000,34.910000 -20.150000,34.910000 -40.310000,0.0000000 -20.150000,-34.910000 20.150000,-34.910000 40.310000,0.0000000 "
       id="polygon2447"
       transform="translate(488.7620,-105.5639)"
       style="stroke:#000000;stroke-width:0.60000002;stroke-miterlimit:4.0000000;stroke-opacity:1.0000000" />
    <polygon
       points="40.310000,0.0000000 20.150000,34.910000 -20.150000,34.910000 -40.310000,0.0000000 -20.150000,-34.910000 20.150000,-34.910000 40.310000,0.0000000 "
       id="polygon2459"
       transform="translate(427.9801,-140.9082)"
       style="stroke:#000000;stroke-width:0.60000002;stroke-miterlimit:4.0000000;stroke-opacity:1.0000000" />
    <polygon
       points="40.310000,0.0000000 20.150000,34.910000 -20.150000,34.910000 -40.310000,0.0000000 -20.150000,-34.910000 20.150000,-34.910000 40.310000,0.0000000 "
       id="polygon2461"
       transform="translate(367.3487,-105.7354)"
       style="stroke:#000000;stroke-width:0.60000002;stroke-miterlimit:4.0000000;stroke-opacity:1.0000000" />
    <polygon
       points="40.310000,0.0000000 20.150000,34.910000 -20.150000,34.910000 -40.310000,0.0000000 -20.150000,-34.910000 20.150000,-34.910000 40.310000,0.0000000 "
       id="polygon2463"
       transform="translate(306.7173,-141.1814)"
       style="stroke:#000000;stroke-width:0.60000002;stroke-miterlimit:4.0000000;stroke-opacity:1.0000000" />
    <polygon
       points="40.310000,0.0000000 20.150000,34.910000 -20.150000,34.910000 -40.310000,0.0000000 -20.150000,-34.910000 20.150000,-34.910000 40.310000,0.0000000 "
       id="polygon2469"
       transform="translate(912.7221,-139.2326)"
       style="stroke:#000000;stroke-width:0.60000002;stroke-miterlimit:4.0000000;stroke-opacity:1.0000000" />
    <polygon
       points="40.310000,0.0000000 20.150000,34.910000 -20.150000,34.910000 -40.310000,0.0000000 -20.150000,-34.910000 20.150000,-34.910000 40.310000,0.0000000 "
       id="polygon2471"
       transform="translate(973.5319,-104.1180)"
       style="stroke:#000000;stroke-width:0.60000002;stroke-miterlimit:4.0000000;stroke-opacity:1.0000000" />
    <polygon
       points="40.310000,0.0000000 20.150000,34.910000 -20.150000,34.910000 -40.310000,0.0000000 -20.150000,-34.910000 20.150000,-34.910000 40.310000,0.0000000 "
       id="polygon2473"
       transform="translate(912.8231,-69.06862)"
       style="stroke:#000000;stroke-width:0.60000002;stroke-miterlimit:4.0000000;stroke-opacity:1.0000000" />
    <polygon
       points="40.310000,0.0000000 20.150000,34.910000 -20.150000,34.910000 -40.310000,0.0000000 -20.150000,-34.910000 20.150000,-34.910000 40.310000,0.0000000 "
       id="polygon2475"
       transform="translate(973.4546,-34.28217)"
       style="stroke:#000000;stroke-width:0.60000002;stroke-miterlimit:4.0000000;stroke-opacity:1.0000000" />
    <polygon
       points="40.310000,0.0000000 20.150000,34.910000 -20.150000,34.910000 -40.310000,0.0000000 -20.150000,-34.910000 20.150000,-34.910000 40.310000,0.0000000 "
       id="polygon2481"
       transform="translate(852.4650,-104.4015)"
       style="stroke:#000000;stroke-width:0.60000002;stroke-miterlimit:4.0000000;stroke-opacity:1.0000000" />
    <polygon
       points="40.310000,0.0000000 20.150000,34.910000 -20.150000,34.910000 -40.310000,0.0000000 -20.150000,-34.910000 20.150000,-34.910000 40.310000,0.0000000 "
       id="polygon2485"
       transform="translate(972.7603,35.18900)"
       style="stroke:#000000;stroke-width:0.60000002;stroke-miterlimit:4.0000000;stroke-opacity:1.0000000" />
    <polygon
       points="40.310000,0.0000000 20.150000,34.910000 -20.150000,34.910000 -40.310000,0.0000000 -20.150000,-34.910000 20.150000,-34.910000 40.310000,0.0000000 "
       id="polygon2489"
       transform="translate(972.8613,105.3529)"
       style="stroke:#000000;stroke-width:0.60000002;stroke-miterlimit:4.0000000;stroke-opacity:1.0000000" />
    <polygon
       points="40.310000,0.0000000 20.150000,34.910000 -20.150000,34.910000 -40.310000,0.0000000 -20.150000,-34.910000 20.150000,-34.910000 40.310000,0.0000000 "
       id="polygon2493"
       transform="translate(972.8614,175.3122)"
       style="stroke:#000000;stroke-width:0.60000002;stroke-miterlimit:4.0000000;stroke-opacity:1.0000000" />
    <polygon
       points="40.310000,0.0000000 20.150000,34.910000 -20.150000,34.910000 -40.310000,0.0000000 -20.150000,-34.910000 20.150000,-34.910000 40.310000,0.0000000 "
       id="polygon2497"
       transform="translate(912.5032,70.02009)"
       style="stroke:#000000;stroke-width:0.60000002;stroke-miterlimit:4.0000000;stroke-opacity:1.0000000" />
    <polygon
       points="40.310000,0.0000000 20.150000,34.910000 -20.150000,34.910000 -40.310000,0.0000000 -20.150000,-34.910000 20.150000,-34.910000 40.310000,0.0000000 "
       id="polygon2501"
       transform="translate(852.1572,175.1075)"
       style="stroke:#000000;stroke-width:0.60000002;stroke-miterlimit:4.0000000;stroke-opacity:1.0000000" />
    <polygon
       points="40.310000,0.0000000 20.150000,34.910000 -20.150000,34.910000 -40.310000,0.0000000 -20.150000,-34.910000 20.150000,-34.910000 40.310000,0.0000000 "
       id="polygon2503"
       transform="translate(912.9670,210.2220)"
       style="stroke:#000000;stroke-width:0.60000002;stroke-miterlimit:4.0000000;stroke-opacity:1.0000000" />
    <polygon
       points="40.310000,0.0000000 20.150000,34.910000 -20.150000,34.910000 -40.310000,0.0000000 -20.150000,-34.910000 20.150000,-34.910000 40.310000,0.0000000 "
       id="polygon2505"
       transform="translate(852.2582,245.2714)"
       style="stroke:#000000;stroke-width:0.60000002;stroke-miterlimit:4.0000000;stroke-opacity:1.0000000" />
    <polygon
       points="40.310000,0.0000000 20.150000,34.910000 -20.150000,34.910000 -40.310000,0.0000000 -20.150000,-34.910000 20.150000,-34.910000 40.310000,0.0000000 "
       id="polygon2507"
       transform="translate(912.8897,280.0579)"
       style="stroke:#000000;stroke-width:0.60000002;stroke-miterlimit:4.0000000;stroke-opacity:1.0000000" />
    <polygon
       points="40.310000,0.0000000 20.150000,34.910000 -20.150000,34.910000 -40.310000,0.0000000 -20.150000,-34.910000 20.150000,-34.910000 40.310000,0.0000000 "
       id="polygon2509"
       transform="translate(852.2583,315.2307)"
       style="stroke:#000000;stroke-width:0.60000002;stroke-miterlimit:4.0000000;stroke-opacity:1.0000000" />
    <polygon
       points="40.310000,0.0000000 20.150000,34.910000 -20.150000,34.910000 -40.310000,0.0000000 -20.150000,-34.910000 20.150000,-34.910000 40.310000,0.0000000 "
       id="polygon2511"
       transform="translate(791.6269,279.7847)"
       style="stroke:#000000;stroke-width:0.60000002;stroke-miterlimit:4.0000000;stroke-opacity:1.0000000" />
    <polygon
       points="40.310000,0.0000000 20.150000,34.910000 -20.150000,34.910000 -40.310000,0.0000000 -20.150000,-34.910000 20.150000,-34.910000 40.310000,0.0000000 "
       id="polygon2513"
       transform="translate(791.9001,209.9386)"
       style="stroke:#000000;stroke-width:0.60000002;stroke-miterlimit:4.0000000;stroke-opacity:1.0000000" />
    <polygon
       points="40.310000,0.0000000 20.150000,34.910000 -20.150000,34.910000 -40.310000,0.0000000 -20.150000,-34.910000 20.150000,-34.910000 40.310000,0.0000000 "
       id="polygon2517"
       transform="translate(732.1005,315.0260)"
       style="stroke:#000000;stroke-width:0.60000002;stroke-miterlimit:4.0000000;stroke-opacity:1.0000000" />
    <polygon
       points="40.310000,0.0000000 20.150000,34.910000 -20.150000,34.910000 -40.310000,0.0000000 -20.150000,-34.910000 20.150000,-34.910000 40.310000,0.0000000 "
       id="polygon2519"
       transform="translate(792.9103,350.1405)"
       style="stroke:#000000;stroke-width:0.60000002;stroke-miterlimit:4.0000000;stroke-opacity:1.0000000" />
    <polygon
       points="40.310000,0.0000000 20.150000,34.910000 -20.150000,34.910000 -40.310000,0.0000000 -20.150000,-34.910000 20.150000,-34.910000 40.310000,0.0000000 "
       id="polygon2521"
       transform="translate(732.2015,385.1899)"
       style="stroke:#000000;stroke-width:0.60000002;stroke-miterlimit:4.0000000;stroke-opacity:1.0000000" />
    <polygon
       points="40.310000,0.0000000 20.150000,34.910000 -20.150000,34.910000 -40.310000,0.0000000 -20.150000,-34.910000 20.150000,-34.910000 40.310000,0.0000000 "
       id="polygon2523"
       transform="translate(792.8330,419.9764)"
       style="stroke:#000000;stroke-width:0.60000002;stroke-miterlimit:4.0000000;stroke-opacity:1.0000000" />
    <polygon
       points="40.310000,0.0000000 20.150000,34.910000 -20.150000,34.910000 -40.310000,0.0000000 -20.150000,-34.910000 20.150000,-34.910000 40.310000,0.0000000 "
       id="polygon2525"
       transform="translate(732.2016,455.1492)"
       style="stroke:#000000;stroke-width:0.60000002;stroke-miterlimit:4.0000000;stroke-opacity:1.0000000" />
    <polygon
       points="40.310000,0.0000000 20.150000,34.910000 -20.150000,34.910000 -40.310000,0.0000000 -20.150000,-34.910000 20.150000,-34.910000 40.310000,0.0000000 "
       id="polygon2527"
       transform="translate(671.5702,419.7032)"
       style="stroke:#000000;stroke-width:0.60000002;stroke-miterlimit:4.0000000;stroke-opacity:1.0000000" />
    <polygon
       points="40.310000,0.0000000 20.150000,34.910000 -20.150000,34.910000 -40.310000,0.0000000 -20.150000,-34.910000 20.150000,-34.910000 40.310000,0.0000000 "
       id="polygon2529"
       transform="translate(671.8434,349.8571)"
       style="stroke:#000000;stroke-width:0.60000002;stroke-miterlimit:4.0000000;stroke-opacity:1.0000000" />
    <polygon
       points="40.310000,0.0000000 20.150000,34.910000 -20.150000,34.910000 -40.310000,0.0000000 -20.150000,-34.910000 20.150000,-34.910000 40.310000,0.0000000 "
       id="polygon2533"
       transform="translate(610.8378,453.0790)"
       style="stroke:#000000;stroke-width:0.60000002;stroke-miterlimit:4.0000000;stroke-opacity:1.0000000" />
    <polygon
       points="40.310000,0.0000000 20.150000,34.910000 -20.150000,34.910000 -40.310000,0.0000000 -20.150000,-34.910000 20.150000,-34.910000 40.310000,0.0000000 "
       id="polygon2535"
       transform="translate(671.6476,488.1935)"
       style="stroke:#000000;stroke-width:0.60000002;stroke-miterlimit:4.0000000;stroke-opacity:1.0000000" />
    <polygon
       points="40.310000,0.0000000 20.150000,34.910000 -20.150000,34.910000 -40.310000,0.0000000 -20.150000,-34.910000 20.150000,-34.910000 40.310000,0.0000000 "
       id="polygon2537"
       transform="translate(610.9388,523.2429)"
       style="stroke:#000000;stroke-width:0.60000002;stroke-miterlimit:4.0000000;stroke-opacity:1.0000000" />
    <polygon
       points="40.310000,0.0000000 20.150000,34.910000 -20.150000,34.910000 -40.310000,0.0000000 -20.150000,-34.910000 20.150000,-34.910000 40.310000,0.0000000 "
       id="polygon2545"
       transform="translate(550.5807,487.9101)"
       style="stroke:#000000;stroke-width:0.60000002;stroke-miterlimit:4.0000000;stroke-opacity:1.0000000" />
    <polygon
       points="40.310000,0.0000000 20.150000,34.910000 -20.150000,34.910000 -40.310000,0.0000000 -20.150000,-34.910000 20.150000,-34.910000 40.310000,0.0000000 "
       id="polygon2549"
       transform="translate(429.8766,419.4985)"
       style="stroke:#000000;stroke-width:0.60000002;stroke-miterlimit:4.0000000;stroke-opacity:1.0000000" />
    <polygon
       points="40.310000,0.0000000 20.150000,34.910000 -20.150000,34.910000 -40.310000,0.0000000 -20.150000,-34.910000 20.150000,-34.910000 40.310000,0.0000000 "
       id="polygon2551"
       transform="translate(490.6864,454.6130)"
       style="stroke:#000000;stroke-width:0.60000002;stroke-miterlimit:4.0000000;stroke-opacity:1.0000000" />
    <polygon
       points="40.310000,0.0000000 20.150000,34.910000 -20.150000,34.910000 -40.310000,0.0000000 -20.150000,-34.910000 20.150000,-34.910000 40.310000,0.0000000 "
       id="polygon2553"
       transform="translate(429.9776,489.6624)"
       style="stroke:#000000;stroke-width:0.60000002;stroke-miterlimit:4.0000000;stroke-opacity:1.0000000" />
    <polygon
       points="40.310000,0.0000000 20.150000,34.910000 -20.150000,34.910000 -40.310000,0.0000000 -20.150000,-34.910000 20.150000,-34.910000 40.310000,0.0000000 "
       id="polygon2555"
       transform="translate(490.6091,524.4489)"
       style="stroke:#000000;stroke-width:0.60000002;stroke-miterlimit:4.0000000;stroke-opacity:1.0000000" />
    <polygon
       points="40.310000,0.0000000 20.150000,34.910000 -20.150000,34.910000 -40.310000,0.0000000 -20.150000,-34.910000 20.150000,-34.910000 40.310000,0.0000000 "
       id="polygon2559"
       transform="translate(369.3463,524.1757)"
       style="stroke:#000000;stroke-width:0.60000002;stroke-miterlimit:4.0000000;stroke-opacity:1.0000000" />
    <polygon
       points="40.310000,0.0000000 20.150000,34.910000 -20.150000,34.910000 -40.310000,0.0000000 -20.150000,-34.910000 20.150000,-34.910000 40.310000,0.0000000 "
       id="polygon2561"
       transform="translate(369.6195,454.3296)"
       style="stroke:#000000;stroke-width:0.60000002;stroke-miterlimit:4.0000000;stroke-opacity:1.0000000" />
    <polygon
       points="40.310000,0.0000000 20.150000,34.910000 -20.150000,34.910000 -40.310000,0.0000000 -20.150000,-34.910000 20.150000,-34.910000 40.310000,0.0000000 "
       id="polygon2565"
       transform="translate(791.7991,490.3906)"
       style="stroke:#000000;stroke-width:0.60000002;stroke-miterlimit:4.0000000;stroke-opacity:1.0000000" />
    <polygon
       points="40.310000,0.0000000 20.150000,34.910000 -20.150000,34.910000 -40.310000,0.0000000 -20.150000,-34.910000 20.150000,-34.910000 40.310000,0.0000000 "
       id="polygon2567"
       transform="translate(852.6089,525.5051)"
       style="stroke:#000000;stroke-width:0.60000002;stroke-miterlimit:4.0000000;stroke-opacity:1.0000000" />
    <polygon
       points="40.310000,0.0000000 20.150000,34.910000 -20.150000,34.910000 -40.310000,0.0000000 -20.150000,-34.910000 20.150000,-34.910000 40.310000,0.0000000 "
       id="polygon2577"
       transform="translate(731.5420,525.2217)"
       style="stroke:#000000;stroke-width:0.60000002;stroke-miterlimit:4.0000000;stroke-opacity:1.0000000" />
    <polygon
       points="40.310000,0.0000000 20.150000,34.910000 -20.150000,34.910000 -40.310000,0.0000000 -20.150000,-34.910000 20.150000,-34.910000 40.310000,0.0000000 "
       id="polygon2581"
       transform="translate(913.6083,349.9255)"
       style="stroke:#000000;stroke-width:0.60000002;stroke-miterlimit:4.0000000;stroke-opacity:1.0000000" />
    <polygon
       points="40.310000,0.0000000 20.150000,34.910000 -20.150000,34.910000 -40.310000,0.0000000 -20.150000,-34.910000 20.150000,-34.910000 40.310000,0.0000000 "
       id="polygon2583"
       transform="translate(974.4181,385.0400)"
       style="stroke:#000000;stroke-width:0.60000002;stroke-miterlimit:4.0000000;stroke-opacity:1.0000000" />
    <polygon
       points="40.310000,0.0000000 20.150000,34.910000 -20.150000,34.910000 -40.310000,0.0000000 -20.150000,-34.910000 20.150000,-34.910000 40.310000,0.0000000 "
       id="polygon2587"
       transform="translate(974.3408,454.8759)"
       style="stroke:#000000;stroke-width:0.60000002;stroke-miterlimit:4.0000000;stroke-opacity:1.0000000" />
    <polygon
       points="40.310000,0.0000000 20.150000,34.910000 -20.150000,34.910000 -40.310000,0.0000000 -20.150000,-34.910000 20.150000,-34.910000 40.310000,0.0000000 "
       id="polygon2589"
       transform="translate(913.7094,490.0487)"
       style="stroke:#000000;stroke-width:0.60000002;stroke-miterlimit:4.0000000;stroke-opacity:1.0000000" />
    <polygon
       points="40.310000,0.0000000 20.150000,34.910000 -20.150000,34.910000 -40.310000,0.0000000 -20.150000,-34.910000 20.150000,-34.910000 40.310000,0.0000000 "
       id="polygon2591"
       transform="translate(853.0780,454.6027)"
       style="stroke:#000000;stroke-width:0.60000002;stroke-miterlimit:4.0000000;stroke-opacity:1.0000000" />
    <polygon
       points="40.310000,0.0000000 20.150000,34.910000 -20.150000,34.910000 -40.310000,0.0000000 -20.150000,-34.910000 20.150000,-34.910000 40.310000,0.0000000 "
       id="polygon2593"
       transform="translate(853.3512,384.7566)"
       style="stroke:#000000;stroke-width:0.60000002;stroke-miterlimit:4.0000000;stroke-opacity:1.0000000" />
    <polygon
       points="40.310000,0.0000000 20.150000,34.910000 -20.150000,34.910000 -40.310000,0.0000000 -20.150000,-34.910000 20.150000,-34.910000 40.310000,0.0000000 "
       id="polygon2607"
       transform="translate(973.5549,314.1567)"
       style="stroke:#000000;stroke-width:0.60000002;stroke-miterlimit:4.0000000;stroke-opacity:1.0000000" />
    <polygon
       points="40.310000,0.0000000 20.150000,34.910000 -20.150000,34.910000 -40.310000,0.0000000 -20.150000,-34.910000 20.150000,-34.910000 40.310000,0.0000000 "
       id="polygon2609"
       transform="translate(973.8281,244.3106)"
       style="stroke:#000000;stroke-width:0.60000002;stroke-miterlimit:4.0000000;stroke-opacity:1.0000000" />
    <polygon
       points="40.310000,0.0000000 20.150000,34.910000 -20.150000,34.910000 -40.310000,0.0000000 -20.150000,-34.910000 20.150000,-34.910000 40.310000,0.0000000 "
       id="polygon2629"
       transform="translate(973.6931,524.9037)"
       style="stroke:#000000;stroke-width:0.60000002;stroke-miterlimit:4.0000000;stroke-opacity:1.0000000" />
    <polygon
       points="40.310000,0.0000000 20.150000,34.910000 -20.150000,34.910000 -40.310000,0.0000000 -20.150000,-34.910000 20.150000,-34.910000 40.310000,0.0000000 "
       id="polygon2645"
       transform="translate(247.8632,384.7021)"
       style="stroke:#000000;stroke-width:0.60000002;stroke-miterlimit:4.0000000;stroke-opacity:1.0000000" />
    <polygon
       points="40.310000,0.0000000 20.150000,34.910000 -20.150000,34.910000 -40.310000,0.0000000 -20.150000,-34.910000 20.150000,-34.910000 40.310000,0.0000000 "
       id="polygon2647"
       transform="translate(308.6730,419.8166)"
       style="stroke:#000000;stroke-width:0.60000002;stroke-miterlimit:4.0000000;stroke-opacity:1.0000000" />
    <polygon
       points="40.310000,0.0000000 20.150000,34.910000 -20.150000,34.910000 -40.310000,0.0000000 -20.150000,-34.910000 20.150000,-34.910000 40.310000,0.0000000 "
       id="polygon2649"
       transform="translate(247.9642,454.8660)"
       style="stroke:#000000;stroke-width:0.60000002;stroke-miterlimit:4.0000000;stroke-opacity:1.0000000" />
    <polygon
       points="40.310000,0.0000000 20.150000,34.910000 -20.150000,34.910000 -40.310000,0.0000000 -20.150000,-34.910000 20.150000,-34.910000 40.310000,0.0000000 "
       id="polygon2651"
       transform="translate(308.5957,489.6525)"
       style="stroke:#000000;stroke-width:0.60000002;stroke-miterlimit:4.0000000;stroke-opacity:1.0000000" />
    <polygon
       points="40.310000,0.0000000 20.150000,34.910000 -20.150000,34.910000 -40.310000,0.0000000 -20.150000,-34.910000 20.150000,-34.910000 40.310000,0.0000000 "
       id="polygon2653"
       transform="translate(247.9643,524.8253)"
       style="stroke:#000000;stroke-width:0.60000002;stroke-miterlimit:4.0000000;stroke-opacity:1.0000000" />
    <polygon
       points="40.310000,0.0000000 20.150000,34.910000 -20.150000,34.910000 -40.310000,0.0000000 -20.150000,-34.910000 20.150000,-34.910000 40.310000,0.0000000 "
       id="polygon2655"
       transform="translate(187.3329,489.3793)"
       style="stroke:#000000;stroke-width:0.60000002;stroke-miterlimit:4.0000000;stroke-opacity:1.0000000" />
    <polygon
       points="40.310000,0.0000000 20.150000,34.910000 -20.150000,34.910000 -40.310000,0.0000000 -20.150000,-34.910000 20.150000,-34.910000 40.310000,0.0000000 "
       id="polygon2657"
       transform="translate(187.6061,419.5332)"
       style="stroke:#000000;stroke-width:0.60000002;stroke-miterlimit:4.0000000;stroke-opacity:1.0000000" />
    <polygon
       points="40.310000,0.0000000 20.150000,34.910000 -20.150000,34.910000 -40.310000,0.0000000 -20.150000,-34.910000 20.150000,-34.910000 40.310000,0.0000000 "
       id="polygon2677"
       transform="translate(65.81850,-141.6446)"
       style="stroke:#000000;stroke-width:0.60000002;stroke-miterlimit:4.0000000;stroke-opacity:1.0000000" />
    <polygon
       points="40.310000,0.0000000 20.150000,34.910000 -20.150000,34.910000 -40.310000,0.0000000 -20.150000,-34.910000 20.150000,-34.910000 40.310000,0.0000000 "
       id="polygon2679"
       transform="translate(126.6283,-106.5301)"
       style="stroke:#000000;stroke-width:0.60000002;stroke-miterlimit:4.0000000;stroke-opacity:1.0000000" />
    <polygon
       points="40.310000,0.0000000 20.150000,34.910000 -20.150000,34.910000 -40.310000,0.0000000 -20.150000,-34.910000 20.150000,-34.910000 40.310000,0.0000000 "
       id="polygon2681"
       transform="translate(65.91950,-71.48063)"
       style="stroke:#000000;stroke-width:0.60000002;stroke-miterlimit:4.0000000;stroke-opacity:1.0000000" />
    <polygon
       points="40.310000,0.0000000 20.150000,34.910000 -20.150000,34.910000 -40.310000,0.0000000 -20.150000,-34.910000 20.150000,-34.910000 40.310000,0.0000000 "
       id="polygon2683"
       transform="translate(126.5510,-36.69418)"
       style="stroke:#000000;stroke-width:0.60000002;stroke-miterlimit:4.0000000;stroke-opacity:1.0000000" />
    <polygon
       points="40.310000,0.0000000 20.150000,34.910000 -20.150000,34.910000 -40.310000,0.0000000 -20.150000,-34.910000 20.150000,-34.910000 40.310000,0.0000000 "
       id="polygon2685"
       transform="translate(65.91960,-1.521360)"
       style="stroke:#000000;stroke-width:0.60000002;stroke-miterlimit:4.0000000;stroke-opacity:1.0000000" />
    <polygon
       points="40.310000,0.0000000 20.150000,34.910000 -20.150000,34.910000 -40.310000,0.0000000 -20.150000,-34.910000 20.150000,-34.910000 40.310000,0.0000000 "
       id="polygon2701"
       transform="translate(186.6231,-140.6932)"
       style="stroke:#000000;stroke-width:0.60000002;stroke-miterlimit:4.0000000;stroke-opacity:1.0000000" />
    <polygon
       points="40.310000,0.0000000 20.150000,34.910000 -20.150000,34.910000 -40.310000,0.0000000 -20.150000,-34.910000 20.150000,-34.910000 40.310000,0.0000000 "
       id="polygon4183"
       transform="translate(65.89429,349.0846)"
       style="stroke:#000000;stroke-width:0.60000002;stroke-miterlimit:4.0000000;stroke-opacity:1.0000000" />
    <polygon
       points="40.310000,0.0000000 20.150000,34.910000 -20.150000,34.910000 -40.310000,0.0000000 -20.150000,-34.910000 20.150000,-34.910000 40.310000,0.0000000 "
       id="polygon4185"
       transform="translate(126.7043,384.1991)"
       style="stroke:#000000;stroke-width:0.60000002;stroke-miterlimit:4.0000000;stroke-opacity:1.0000000" />
    <polygon
       points="40.310000,0.0000000 20.150000,34.910000 -20.150000,34.910000 -40.310000,0.0000000 -20.150000,-34.910000 20.150000,-34.910000 40.310000,0.0000000 "
       id="polygon4187"
       transform="translate(65.99529,419.2485)"
       style="stroke:#000000;stroke-width:0.60000002;stroke-miterlimit:4.0000000;stroke-opacity:1.0000000" />
    <polygon
       points="40.310000,0.0000000 20.150000,34.910000 -20.150000,34.910000 -40.310000,0.0000000 -20.150000,-34.910000 20.150000,-34.910000 40.310000,0.0000000 "
       id="polygon4191"
       transform="translate(65.99529,489.2078)"
       style="stroke:#000000;stroke-width:0.60000002;stroke-miterlimit:4.0000000;stroke-opacity:1.0000000" />
    <polygon
       points="40.310000,0.0000000 20.150000,34.910000 -20.150000,34.910000 -40.310000,0.0000000 -20.150000,-34.910000 20.150000,-34.910000 40.310000,0.0000000 "
       id="polygon4195"
       transform="translate(66.68198,208.7502)"
       style="stroke:#000000;stroke-width:0.60000002;stroke-miterlimit:4.0000000;stroke-opacity:1.0000000" />
    <polygon
       points="40.310000,0.0000000 20.150000,34.910000 -20.150000,34.910000 -40.310000,0.0000000 -20.150000,-34.910000 20.150000,-34.910000 40.310000,0.0000000 "
       id="polygon4199"
       transform="translate(66.60498,278.5861)"
       style="stroke:#000000;stroke-width:0.60000002;stroke-miterlimit:4.0000000;stroke-opacity:1.0000000" />
    <polygon
       points="40.310000,0.0000000 20.150000,34.910000 -20.150000,34.910000 -40.310000,0.0000000 -20.150000,-34.910000 20.150000,-34.910000 40.310000,0.0000000 "
       id="polygon4227"
       transform="translate(125.8838,523.5367)"
       style="stroke:#000000;stroke-width:0.60000002;stroke-miterlimit:4.0000000;stroke-opacity:1.0000000" />
  </g>
  <g
     id="g8101"
     inkscape:export-filename="/home/tornil/these/papier/ihm2005/damier.png"
     inkscape:export-xdpi="150.03279"
     inkscape:export-ydpi="150.03279">
    <polygon
       points="40.310000,0.0000000 20.150000,34.910000 -20.150000,34.910000 -40.310000,0.0000000 -20.150000,-34.910000 20.150000,-34.910000 40.310000,0.0000000 "
       id="polygon2359"
       transform="translate(412.8870,211.3886)"
       style="fill-opacity:1.0000000;fill:#0071ff;stroke-opacity:1.0000000;stroke-miterlimit:4.0000000;stroke-width:0.60000002;stroke:#000000" />
    <polygon
       points="40.310000,0.0000000 20.150000,34.910000 -20.150000,34.910000 -40.310000,0.0000000 -20.150000,-34.910000 20.150000,-34.910000 40.310000,0.0000000 "
       id="polygon2397"
       transform="translate(110.7712,105.3310)"
       style="fill-opacity:1.0000000;fill:#0071ff;stroke-opacity:1.0000000;stroke-miterlimit:4.0000000;stroke-width:0.60000002;stroke:#000000" />
    <polygon
       points="40.310000,0.0000000 20.150000,34.910000 -20.150000,34.910000 -40.310000,0.0000000 -20.150000,-34.910000 20.150000,-34.910000 40.310000,0.0000000 "
       id="polygon2407"
       transform="translate(836.3387,-33.97594)"
       style="fill-opacity:1.0000000;fill:#0071ff;stroke-opacity:1.0000000;stroke-miterlimit:4.0000000;stroke-width:0.60000002;stroke:#000000" />
    <polygon
       points="40.310000,0.0000000 20.150000,34.910000 -20.150000,34.910000 -40.310000,0.0000000 -20.150000,-34.910000 20.150000,-34.910000 40.310000,0.0000000 "
       id="polygon2415"
       transform="translate(714.9986,35.58675)"
       style="fill-opacity:1.0000000;fill:#0071ff;stroke-opacity:1.0000000;stroke-miterlimit:4.0000000;stroke-width:0.60000002;stroke:#000000" />
    <polygon
       points="40.310000,0.0000000 20.150000,34.910000 -20.150000,34.910000 -40.310000,0.0000000 -20.150000,-34.910000 20.150000,-34.910000 40.310000,0.0000000 "
       id="polygon2417"
       transform="translate(715.2718,-34.25936)"
       style="fill-opacity:1.0000000;fill:#0071ff;stroke-opacity:1.0000000;stroke-miterlimit:4.0000000;stroke-width:0.60000002;stroke:#000000" />
    <polygon
       points="40.310000,0.0000000 20.150000,34.910000 -20.150000,34.910000 -40.310000,0.0000000 -20.150000,-34.910000 20.150000,-34.910000 40.310000,0.0000000 "
       id="polygon2477"
       transform="translate(896.9932,-67.70590)"
       style="fill-opacity:1.0000000;fill:#0071ff;stroke-opacity:1.0000000;stroke-miterlimit:4.0000000;stroke-width:0.60000002;stroke:#000000" />
    <polygon
       points="40.310000,0.0000000 20.150000,34.910000 -20.150000,34.910000 -40.310000,0.0000000 -20.150000,-34.910000 20.150000,-34.910000 40.310000,0.0000000 "
       id="polygon2479"
       transform="translate(836.3618,-103.1519)"
       style="fill-opacity:1.0000000;fill:#0071ff;stroke-opacity:1.0000000;stroke-miterlimit:4.0000000;stroke-width:0.60000002;stroke:#000000" />
    <polygon
       points="40.310000,0.0000000 20.150000,34.910000 -20.150000,34.910000 -40.310000,0.0000000 -20.150000,-34.910000 20.150000,-34.910000 40.310000,0.0000000 "
       id="polygon2495"
       transform="translate(896.4000,71.26965)"
       style="fill-opacity:1.0000000;fill:#0071ff;stroke-opacity:1.0000000;stroke-miterlimit:4.0000000;stroke-width:0.60000002;stroke:#000000" />
    <polygon
       points="40.310000,0.0000000 20.150000,34.910000 -20.150000,34.910000 -40.310000,0.0000000 -20.150000,-34.910000 20.150000,-34.910000 40.310000,0.0000000 "
       id="polygon2585"
       transform="translate(897.8793,351.4929)"
       style="fill-opacity:1.0000000;fill:#0071ff;stroke-opacity:1.0000000;stroke-miterlimit:4.0000000;stroke-width:0.60000002;stroke:#000000" />
    <polygon
       points="40.310000,0.0000000 20.150000,34.910000 -20.150000,34.910000 -40.310000,0.0000000 -20.150000,-34.910000 20.150000,-34.910000 40.310000,0.0000000 "
       id="polygon4189"
       transform="translate(110.7973,385.4385)"
       style="fill-opacity:1.0000000;fill:#0071ff;stroke-opacity:1.0000000;stroke-miterlimit:4.0000000;stroke-width:0.60000002;stroke:#000000" />
  </g>
  <metadata
     id="metadata2214">
    <rdf:RDF
       id="RDF2216">
      <cc:Work
         rdf:about=""
         id="Work2218">
        <dc:format
           id="format2220">image/svg+xml</dc:format>
        <dc:type
           id="type2222"
           rdf:resource="http://purl.org/dc/dcmitype/StillImage" />
      </cc:Work>
    </rdf:RDF>
  </metadata>
  <defs
     id="defs2212" />
  <sodipodi:namedview
     id="base"
     pagecolor="#ffffff"
     bordercolor="#666666"
     borderopacity="1.0"
     inkscape:pageopacity="0.0"
     inkscape:pageshadow="2"
     inkscape:window-width="1166"
     inkscape:window-height="682"
     inkscape:zoom="0.45483336"
     inkscape:cx="1019.4493"
     inkscape:cy="349.53705"
     inkscape:window-x="23"
     inkscape:window-y="113"
     inkscape:current-layer="svg2201"
     showborder="false" />
  <desc
     id="desc2203">Example polygon01 - star and hexagon</desc>
<!-- Show outline of canvas using 'rect' element -->  <path
     sodipodi:type="arc"
     style="fill:#f12502;fill-opacity:1.0000000;fill-rule:nonzero;stroke:#000000;stroke-width:0.60000002;stroke-linejoin:miter;stroke-miterlimit:4.0000000;stroke-dashoffset:0.0000000;stroke-opacity:1.0000000"
     id="path4253"
     sodipodi:cx="1216.2697"
     sodipodi:cy="-642.78119"
     sodipodi:rx="18.468302"
     sodipodi:ry="18.468302"
     d="M 1234.7380 -642.78119 A 18.468302 18.468302 0 1 1  1197.8014,-642.78119 A 18.468302 18.468302 0 1 1  1234.7380 -642.78119 z"
     transform="translate(-258.3554,539.5826)"
     inkscape:export-filename="/home/tornil/these/papier/ihm2005/damier.png"
     inkscape:export-xdpi="150.03279"
     inkscape:export-ydpi="150.03279" />
  <rect
     style="fill:#ffffff;fill-opacity:1.0000000;fill-rule:nonzero;stroke:#000000;stroke-width:0.43554366;stroke-linejoin:miter;stroke-miterlimit:4.0000000;stroke-dashoffset:0.0000000;stroke-opacity:1.0000000"
     id="rect8087"
     width="678.18115"
     height="200.65359"
     x="168.78799"
     y="444.13992" />
  <path
     sodipodi:type="arc"
     style="stroke-opacity:1.0000000;stroke-dashoffset:0.0000000;stroke-miterlimit:4.0000000;stroke-linejoin:miter;stroke-width:0.60000002;stroke:#000000;fill-rule:nonzero;fill-opacity:1.0000000;fill:#f12502"
     id="path8089"
     sodipodi:cx="1216.2697"
     sodipodi:cy="-642.78119"
     sodipodi:rx="18.468302"
     sodipodi:ry="18.468302"
     d="M 1234.7380 -642.78119 A 18.468302 18.468302 0 1 1  1197.8014,-642.78119 A 18.468302 18.468302 0 1 1  1234.7380 -642.78119 z"
     transform="matrix(0.783666,0.000000,0.000000,0.704278,-714.0543,937.7034)" />
  <polygon
     points="40.310000,0.0000000 20.150000,34.910000 -20.150000,34.910000 -40.310000,0.0000000 -20.150000,-34.910000 20.150000,-34.910000 40.310000,0.0000000 "
     id="polygon8113"
     transform="matrix(0.783666,0.000000,0.000000,0.704278,234.9595,548.1830)"
     style="stroke-opacity:1.0000000;stroke-miterlimit:4.0000000;stroke-width:0.60000002;stroke:#000000;fill-opacity:1.0000000;fill:#0071ff" />
  <text
     transform="scale(1.054857,0.947996)"
     xml:space="preserve"
     style="font-size:38.399996;font-style:normal;font-variant:normal;font-weight:normal;font-stretch:normal;fill:#000000;fill-opacity:1.0000000;stroke:none;stroke-width:1.0000000px;stroke-linecap:butt;stroke-linejoin:miter;stroke-opacity:1.0000000;font-family:Bitstream Vera Sans;text-anchor:start;writing-mode:lr;line-height:119.99999%"
     x="265.86172"
     y="523.37311"
     id="text8115"
     sodipodi:linespacing="100%"><tspan
       id="tspan1908"
       sodipodi:role="line"
       y="523.37311"
       x="265.86172">Movement origin</tspan></text>
  <text
     sodipodi:linespacing="100%"
     transform="scale(1.054857,0.947996)"
     xml:space="preserve"
     style="line-height:119.99999%;writing-mode:lr;text-anchor:start;font-family:Bitstream Vera Sans;stroke-opacity:1.0000000;stroke-linejoin:miter;stroke-linecap:butt;stroke-width:1.0000000px;stroke:none;fill-opacity:1.0000000;fill:#000000;font-stretch:normal;font-weight:normal;font-variant:normal;font-style:normal;font-size:38.399996"
     x="265.86172"
     y="586.09467"
     id="text8121"><tspan
       id="tspan1910"
       sodipodi:role="line"
       y="586.09467"
       x="265.86172">Target</tspan></text>
  <polygon
     points="40.310000,0.0000000 20.150000,34.910000 -20.150000,34.910000 -40.310000,0.0000000 -20.150000,-34.910000 20.150000,-34.910000 40.310000,0.0000000 "
     id="polygon8702"
     transform="matrix(0.783666,0.000000,0.000000,0.704278,478.9326,548.1830)"
     style="stroke-opacity:1.0000000;stroke-miterlimit:4.0000000;stroke-width:0.60000002;stroke:#000000;fill-opacity:0.41666666;fill:#ececec" />
  <text
     sodipodi:linespacing="100%"
     transform="scale(1.054857,0.947996)"
     xml:space="preserve"
     style="line-height:119.99999%;writing-mode:lr;text-anchor:start;font-family:Bitstream Vera Sans;stroke-opacity:1.0000000;stroke-linejoin:miter;stroke-linecap:butt;stroke-width:1.0000000px;stroke:none;fill-opacity:1.0000000;fill:#000000;font-stretch:normal;font-weight:normal;font-variant:normal;font-style:normal;font-size:38.399996"
     x="516.7478"
     y="586.09467"
     id="text8879"><tspan
       id="tspan1918"
       sodipodi:role="line"
       y="586.09467"
       x="516.74780">hole with </tspan><tspan
       id="tspan1920"
       sodipodi:role="line"
       y="624.49466"
       x="516.74780">potential force </tspan><tspan
       id="tspan1922"
       sodipodi:role="line"
       y="662.89466"
       x="516.74780">feedback</tspan></text>
</svg>
