<?xml version="1.0" encoding="UTF-8" standalone="no"?>
<!-- Created with Inkscape (http://www.inkscape.org/) -->
<svg
   xmlns:dc="http://purl.org/dc/elements/1.1/"
   xmlns:cc="http://web.resource.org/cc/"
   xmlns:rdf="http://www.w3.org/1999/02/22-rdf-syntax-ns#"
   xmlns:svg="http://www.w3.org/2000/svg"
   xmlns="http://www.w3.org/2000/svg"
   xmlns:sodipodi="http://inkscape.sourceforge.net/DTD/sodipodi-0.dtd"
   xmlns:inkscape="http://www.inkscape.org/namespaces/inkscape"
   width="210mm"
   height="297mm"
   id="svg3169"
   sodipodi:version="0.32"
   inkscape:version="0.42"
   sodipodi:docbase="/home/bobuss/these/manuscrit2/img"
   sodipodi:docname="eye.svg">
  <defs
     id="defs3171" />
  <sodipodi:namedview
     id="base"
     pagecolor="#ffffff"
     bordercolor="#666666"
     borderopacity="1.0"
     inkscape:pageopacity="0.0"
     inkscape:pageshadow="2"
     inkscape:zoom="1.4000000"
     inkscape:cx="289.40700"
     inkscape:cy="564.29053"
     inkscape:document-units="px"
     inkscape:current-layer="layer1"
     inkscape:window-width="818"
     inkscape:window-height="546"
     inkscape:window-x="76"
     inkscape:window-y="405" />
  <metadata
     id="metadata3174">
    <rdf:RDF>
      <cc:Work
         rdf:about="">
        <dc:format>image/svg+xml</dc:format>
        <dc:type
           rdf:resource="http://purl.org/dc/dcmitype/StillImage" />
      </cc:Work>
    </rdf:RDF>
  </metadata>
  <g
     inkscape:label="Calque 1"
     inkscape:groupmode="layer"
     id="layer1">
    <g
       id="g3246">
      <path
         style="fill:#e1e2dd"
         d="M 248.28573,559.73409 C 245.81073,559.06805 242.66073,558.46529 241.28573,558.39461 C 239.91073,558.32393 237.21073,557.48448 235.28573,556.52916 C 232.13547,554.96580 231.81404,554.42896 232.06908,551.15682 C 232.22492,549.15735 231.88742,547.23402 231.31908,546.88277 C 230.75074,546.53152 230.28573,544.92068 230.28573,543.30314 C 230.28573,541.68560 229.89573,540.36216 229.41906,540.36216 C 228.45217,540.36216 224.28573,549.83593 224.28573,552.03447 C 224.28573,553.05975 223.70806,552.90189 222.15075,551.45103 C 220.46060,549.87642 220.15237,548.77894 220.67142,546.18369 C 221.29929,543.04436 221.19997,543.10582 218.32843,547.63378 C 216.67917,550.23439 214.88721,552.36216 214.34630,552.36216 C 213.80538,552.36216 212.88324,550.58116 212.29710,548.40438 C 210.95154,543.40736 209.70673,542.60248 208.76267,546.11907 L 208.02626,548.86216 L 207.23443,546.08207 C 206.79893,544.55302 206.85731,541.85599 207.36417,540.08867 C 209.25834,533.48405 207.32787,532.62373 204.70413,538.90322 C 203.47105,541.85440 203.03608,542.12081 200.55616,541.44375 C 198.11980,540.77858 197.82570,540.27587 198.11718,537.27477 C 198.38537,534.51342 198.20407,534.10071 197.16718,535.11216 C 193.79727,538.39938 193.32147,535.11078 196.40970,529.87662 C 199.20527,525.13848 198.06295,524.24699 194.02075,528.01222 C 192.24149,529.66956 189.72831,531.07672 188.43590,531.13924 C 186.28829,531.24312 186.11846,530.91338 186.46233,527.30753 C 186.82413,523.51373 186.09386,522.24556 184.77565,524.37847 C 184.43019,524.93744 183.70678,525.12238 183.16807,524.78944 C 182.57184,524.42095 182.54492,523.72986 183.09928,523.02313 C 184.87660,520.75731 185.42291,516.36216 183.92723,516.36216 C 183.15909,516.36216 181.98525,515.70503 181.31869,514.90188 C 180.32161,513.70046 180.69876,513.07815 183.44625,511.39137 C 187.50926,508.89694 189.81260,509.17363 189.70633,512.14337 C 189.64623,513.82280 190.19317,514.36216 191.95633,514.36216 C 193.87789,514.36216 194.28573,513.83690 194.28573,511.36216 L 194.28573,508.36216 L 185.76098,508.36216 C 177.58804,508.36216 177.19700,508.25899 176.28573,505.86216 C 175.76296,504.48716 174.61877,503.36216 173.74309,503.36216 C 172.68403,503.36216 172.33500,502.77623 172.70064,501.61216 C 173.10096,500.33769 172.16822,499.24265 169.26803,497.58230 C 164.05362,494.59706 163.81812,491.86425 168.85674,492.80950 C 170.82080,493.17796 173.18330,493.72288 174.10674,494.02042 C 175.03019,494.31797 173.64823,493.11333 171.03573,491.34345 C 168.42323,489.57357 166.28573,487.48961 166.28573,486.71244 C 166.28573,484.74263 168.99242,483.91063 171.59950,485.07904 C 175.04947,486.62521 176.77391,485.55907 174.63890,483.19991 C 172.42700,480.75579 173.95032,477.70428 177.14799,478.17370 C 178.72896,478.40579 179.11626,478.08411 178.66662,476.91236 C 178.24291,475.80820 178.50478,475.50899 179.54535,475.90829 C 181.66903,476.72322 182.36349,474.02843 180.97664,470.35424 C 179.95215,467.64006 180.03010,467.02225 181.53599,465.92111 C 182.49835,465.21742 183.28573,464.00631 183.28573,463.22976 C 183.28573,461.05721 189.36724,454.17946 190.80158,454.72987 C 192.85815,455.51905 196.28573,451.04913 196.28573,447.57797 C 196.28573,444.67394 196.66398,444.31289 201.03573,443.04393 C 205.00006,441.89323 205.83807,441.22654 206.10219,439.01328 C 206.52580,435.46345 209.89533,433.55676 210.78597,436.36291 C 211.58562,438.88239 212.91863,438.91661 214.23790,436.45154 C 214.80029,435.40069 216.84188,433.56353 218.77476,432.36894 C 220.70764,431.17435 222.56212,429.10913 222.89582,427.77956 C 223.26545,426.30682 224.22947,425.36216 225.36275,425.36216 C 226.42858,425.36216 227.02733,425.89596 226.76485,426.61216 C 226.51289,427.29966 226.76056,428.53716 227.31524,429.36216 C 228.19710,430.67380 228.49216,430.64241 229.66498,429.11216 C 230.40266,428.14966 231.69596,427.36216 232.53898,427.36216 C 234.34383,427.36216 235.28573,425.30152 235.28573,421.35295 C 235.28573,418.16655 231.65077,414.68054 227.37325,413.76471 C 225.95011,413.46001 222.53573,412.14122 219.78573,410.83407 C 217.03573,409.52691 213.43573,408.14874 211.78573,407.77146 C 210.13573,407.39418 207.88573,406.58733 206.78573,405.97846 C 205.68573,405.36959 204.11073,404.86875 203.28573,404.86547 C 202.46073,404.86220 201.78573,404.18512 201.78573,403.36084 C 201.78573,402.39602 200.36084,401.61214 197.78573,401.16030 C 195.58573,400.77428 191.66443,400.06058 189.07173,399.57430 C 186.47903,399.08802 184.00403,399.01178 183.57173,399.40487 C 183.13943,399.79796 181.09823,400.41955 179.03573,400.78618 C 174.11498,401.66090 174.11498,399.88686 179.03573,397.79432 C 182.82346,396.18359 188.34645,395.83146 198.13977,396.57630 C 201.63830,396.84239 203.64911,396.57879 203.94194,395.81568 C 204.18842,395.17337 206.27910,394.10585 208.58791,393.44341 C 210.89671,392.78098 214.02323,391.85579 215.53573,391.38744 C 217.12017,390.89681 218.28573,390.91484 218.28573,391.42997 C 218.28573,391.92172 217.17919,392.60178 215.82675,392.94122 C 214.47431,393.28066 212.79790,394.24503 212.10139,395.08427 C 210.97360,396.44317 211.98042,396.52818 221.30155,395.86103 C 230.88321,395.17523 231.96253,394.88998 234.06815,392.48703 C 236.21457,390.03751 236.45634,389.97907 237.68722,391.61216 C 239.18784,393.60313 242.45425,393.87752 245.46611,392.26562 C 247.12398,391.37836 248.44846,391.67714 252.40614,393.83118 C 255.53793,395.53571 258.03186,396.26012 259.33949,395.84510 C 260.46271,395.48860 262.01540,395.72284 262.78991,396.36563 C 263.56443,397.00842 264.60138,397.28511 265.09426,396.98049 C 266.12651,396.34253 276.13988,399.81631 277.66506,401.34149 C 279.03784,402.71427 287.60330,402.64459 288.99860,401.24929 C 289.63074,400.61715 290.68202,400.48905 291.43229,400.95274 C 292.15875,401.40172 294.93506,401.89903 297.60188,402.05789 C 300.64461,402.23914 303.43421,403.12040 305.09131,404.42387 C 307.05020,405.96474 308.56051,406.34559 310.94104,405.89900 C 313.61410,405.39753 314.67554,405.81062 317.29598,408.37218 C 319.53251,410.55846 321.01814,411.26448 322.43546,410.81464 C 323.59952,410.44518 325.12741,410.80059 326.10739,411.66879 C 327.03048,412.48658 328.61860,413.31464 329.63655,413.50892 C 330.71641,413.71502 332.92662,416.56975 334.94252,420.36216 C 338.67269,427.37952 339.96705,428.29451 339.47077,423.56320 C 339.12890,420.30404 340.92537,418.25951 341.89978,420.79878 C 342.76560,423.05506 344.53683,422.72866 343.81244,420.44632 C 343.47800,419.39260 343.68261,418.23491 344.26712,417.87366 C 344.88776,417.49008 346.36519,419.47832 347.81869,422.65319 C 349.89391,427.18606 350.26417,429.35809 350.04663,435.72263 C 349.90314,439.92084 349.64365,443.35718 349.46999,443.35895 C 349.29633,443.36071 348.24529,442.87570 347.13434,442.28114 C 344.44793,440.84342 343.95763,441.54796 345.41646,444.74973 C 346.45752,447.03460 346.36026,447.59384 344.70390,448.84715 C 342.31642,450.65366 340.80601,450.72227 339.10716,449.10136 C 337.39151,447.46443 330.08540,447.47268 329.53710,449.11216 C 329.30718,449.79966 328.53405,450.36216 327.81903,450.36216 C 325.93223,450.36216 325.31479,453.69359 325.29938,463.95717 C 325.28762,471.79258 325.56272,473.30286 327.28573,474.86216 C 329.60750,476.96334 329.94016,481.17380 327.84783,481.97670 C 326.23885,482.59413 326.21460,487.91120 327.80959,490.36216 C 328.34647,491.18716 329.31921,494.11216 329.97124,496.86216 C 331.04906,501.40798 330.98255,501.99842 329.23904,503.36216 C 327.70966,504.55841 327.44676,505.62952 327.94077,508.65162 C 328.44777,511.75317 328.14060,512.88774 326.24866,514.90162 C 324.97730,516.25492 322.84176,517.36216 321.50301,517.36216 C 319.40598,517.36216 319.15580,517.01596 319.69637,514.86216 C 320.04148,513.48716 319.96539,512.36216 319.52729,512.36216 C 317.50789,512.36216 314.38595,515.64343 314.10110,518.06529 C 313.85451,520.16178 313.05408,520.93491 310.43114,521.61006 C 307.27704,522.42194 307.17389,522.58110 308.70525,524.27324 C 309.61098,525.27405 310.05422,526.80189 309.70378,527.71512 C 309.22625,528.95956 309.64427,529.34253 311.42967,529.29628 C 315.09931,529.20123 320.59520,530.79056 321.02173,532.07016 C 321.23377,532.70629 320.45838,533.73458 319.29863,534.35526 C 318.13888,534.97594 316.77267,536.58140 316.26261,537.92296 C 315.75255,539.26452 314.73372,540.36216 313.99854,540.36216 C 313.26336,540.36216 311.66375,541.71216 310.44385,543.36216 C 309.22395,545.01216 307.36588,546.36216 306.31481,546.36216 C 305.26373,546.36216 304.14796,546.77606 303.83531,547.28194 C 302.30279,549.76160 290.65674,555.04447 283.78573,556.37680 C 262.12893,560.57620 254.20109,561.32595 248.28573,559.73409 z M 257.83573,532.45922 C 258.35823,531.96261 259.68573,531.35961 260.78573,531.11923 C 262.50102,530.74439 262.39458,530.57286 260.03797,529.91432 C 256.68457,528.97722 254.28573,529.77644 254.28573,531.83078 C 254.28573,533.51525 256.34172,533.87922 257.83573,532.45922 z M 252.03573,531.50217 C 252.72323,531.42516 253.28573,530.96625 253.28573,530.48235 C 253.28573,529.60353 248.01708,528.85698 232.61631,527.55356 C 228.12313,527.17329 224.14917,526.56320 223.78529,526.19781 C 222.45084,524.85781 225.36816,521.36216 227.82091,521.36216 C 229.52777,521.36216 230.28573,520.80864 230.28573,519.56216 C 230.28573,518.57216 230.79548,517.25241 231.41851,516.62938 C 232.04154,516.00635 232.26122,514.74067 231.90668,513.81675 C 231.38326,512.45274 230.98227,512.36912 229.77390,513.37198 C 228.95541,514.05127 228.28573,515.22695 228.28573,515.98460 C 228.28573,516.84856 227.16722,517.36216 225.28573,517.36216 C 222.45240,517.36216 222.28573,517.13994 222.28573,513.36216 L 222.28573,509.36216 L 216.28573,509.36216 C 210.95240,509.36216 210.28573,509.58438 210.28573,511.36216 C 210.28573,513.02883 210.95240,513.36216 214.28573,513.36216 C 218.06351,513.36216 218.28573,513.52883 218.28573,516.36216 C 218.28573,519.23038 218.09684,519.36216 213.98573,519.36216 C 211.62073,519.36216 209.14573,519.90216 208.48573,520.56216 C 207.04577,522.00212 206.91933,520.91531 208.23977,518.44804 C 208.99284,517.04092 208.46620,515.96017 205.73977,513.31761 C 203.84005,511.47633 202.28573,509.34560 202.28573,508.58266 C 202.28573,506.87260 200.27089,507.43858 198.95992,509.51690 C 197.55843,511.73872 199.04630,516.48679 201.33127,517.08432 C 202.40622,517.36543 203.28573,518.13331 203.28573,518.79073 C 203.28573,521.00543 208.83652,524.11270 214.08144,524.83406 C 217.70831,525.33288 219.82223,526.22875 221.04727,527.78614 C 222.01460,529.01589 223.40835,529.82129 224.14450,529.57590 C 224.88065,529.33052 226.45108,529.61332 227.63434,530.20436 C 228.81761,530.79539 230.91073,531.43895 232.28573,531.63449 C 234.52321,531.95268 248.87187,531.85655 252.03573,531.50217 z M 293.28573,523.80314 C 293.28573,523.56060 292.58417,523.36216 291.72671,523.36216 C 290.86925,523.36216 290.45035,523.81950 290.79581,524.37847 C 291.36662,525.30205 293.28573,524.85862 293.28573,523.80314 z M 239.06878,521.52801 C 239.36755,520.62151 238.77670,520.30097 237.22544,520.52801 C 235.96976,520.71179 234.74452,521.46253 234.50268,522.19631 C 234.20391,523.10281 234.79476,523.42335 236.34602,523.19631 C 237.60170,523.01253 238.82694,522.26179 239.06878,521.52801 z M 214.28573,505.42118 C 214.28573,504.35364 214.73573,503.20208 215.28573,502.86216 C 216.44546,502.14541 216.64715,499.34702 215.53573,499.39358 C 214.04279,499.45614 211.31043,504.26297 211.89778,505.79356 C 212.74132,507.99180 214.28573,507.75096 214.28573,505.42118 z M 227.28573,500.36216 C 227.28573,499.81216 226.80917,499.36216 226.22671,499.36216 C 225.64425,499.36216 225.44581,499.81216 225.78573,500.36216 C 226.12565,500.91216 226.60221,501.36216 226.84475,501.36216 C 227.08729,501.36216 227.28573,500.91216 227.28573,500.36216 z M 227.28573,433.36216 C 227.28573,432.81216 226.83573,432.36216 226.28573,432.36216 C 225.73573,432.36216 225.28573,432.81216 225.28573,433.36216 C 225.28573,433.91216 225.73573,434.36216 226.28573,434.36216 C 226.83573,434.36216 227.28573,433.91216 227.28573,433.36216 z M 156.36141,410.77484 C 158.56904,408.41878 164.24241,405.36216 166.40785,405.36216 C 168.03856,405.36216 167.30016,408.42040 165.53573,408.97425 C 164.57323,409.27637 161.93644,410.38725 159.67620,411.44286 C 154.18520,414.00735 153.46799,413.86282 156.36141,410.77484 z "
         id="path3234" />
      <path
         style="fill:#d0d1cf"
         d="M 257.17682,554.99339 C 257.92141,554.09621 259.26302,553.34848 260.15817,553.33175 C 261.45359,553.30755 261.37759,553.06990 259.78573,552.16721 C 257.16669,550.68205 256.31971,549.34393 256.30104,546.66185 C 256.29262,545.45168 255.64419,544.10168 254.86008,543.66185 C 253.81373,543.07493 253.62620,541.93095 254.15524,539.36216 C 254.70658,536.68503 255.38189,535.85510 257.02759,535.83212 C 258.21094,535.81560 259.50312,535.47810 259.89910,535.08212 C 261.22935,533.75188 264.28573,534.34646 264.28573,535.93548 C 264.28573,538.32246 267.73307,537.20933 268.09157,534.70660 C 268.48470,531.96201 276.59791,529.54643 278.92799,531.48023 C 280.02060,532.38701 280.65129,532.39660 281.52811,531.51978 C 283.21974,529.82815 287.28573,530.06994 287.28573,531.86216 C 287.28573,533.67195 289.94601,533.87634 290.53978,532.11216 C 290.86216,531.15432 291.29065,531.13436 292.37311,532.02678 C 294.09905,533.44972 302.28573,534.78017 302.28573,533.63773 C 302.28573,533.18617 304.08573,532.81671 306.28573,532.81671 C 313.12857,532.81671 310.80053,537.58939 301.65614,542.30776 C 299.38487,543.47970 296.71285,545.33771 295.71831,546.43666 C 292.69354,549.77899 278.38407,555.16966 272.28573,555.26419 C 270.91073,555.28550 266.64412,555.60032 262.80438,555.96378 C 256.42232,556.56789 255.93924,556.48459 257.17682,554.99339 z M 215.28573,545.82232 C 215.28573,542.27243 221.94081,532.36216 224.32469,532.36216 C 226.05503,532.36216 225.33815,534.23286 222.26767,537.72995 C 220.60774,539.62051 218.76372,542.56117 218.16984,544.26474 C 217.03781,547.51210 215.28573,548.45832 215.28573,545.82232 z M 246.75938,545.11319 C 245.90858,541.72332 246.72764,539.36216 248.75435,539.36216 C 250.70698,539.36216 250.77495,543.31085 248.86722,545.91982 C 247.50254,547.78614 247.42256,547.75553 246.75938,545.11319 z M 223.90493,542.36216 C 224.54158,537.52194 227.54406,533.36216 230.40103,533.36216 C 233.58219,533.36216 233.32977,535.09119 229.75000,537.82161 C 227.81607,539.29670 225.57660,541.93426 224.77340,543.68287 L 223.31304,546.86216 L 223.90493,542.36216 z M 236.71975,542.86216 C 237.12996,540.67559 236.98409,539.36216 236.33104,539.36216 C 235.75612,539.36216 235.28573,540.48716 235.28573,541.86216 C 235.28573,543.41772 234.71906,544.36216 233.78573,544.36216 C 231.90329,544.36216 231.90633,543.51443 233.80508,538.97009 C 235.06236,535.96100 235.71120,535.43084 237.56670,535.89654 C 238.79994,536.20607 241.55045,535.73167 243.67894,534.84233 C 250.02485,532.19084 250.21937,534.41509 244.19722,540.76872 C 237.91248,547.39940 235.75526,548.00335 236.71975,542.86216 z M 213.53526,535.11216 C 213.76417,534.42466 214.70009,533.71697 215.61509,533.53951 C 216.77521,533.31451 217.09607,533.69283 216.67523,534.78951 C 215.96584,536.63816 212.92306,536.95082 213.53526,535.11216 z M 201.28573,534.29544 C 201.28573,533.70874 202.48099,531.66165 203.94186,529.74635 C 205.74064,527.38803 207.27056,526.36052 208.68165,526.56307 C 212.25124,527.07546 211.60330,529.79898 207.23072,532.66179 C 202.79455,535.56623 201.28573,535.98085 201.28573,534.29544 z M 249.95111,525.88088 C 241.35110,522.57820 233.80510,515.14594 230.33469,506.56017 C 228.51654,502.06205 228.67486,493.68852 230.66749,488.95862 C 231.57196,486.81167 232.09725,484.84034 231.83479,484.57789 C 231.57234,484.31544 228.89257,485.10119 225.87975,486.32400 C 219.99018,488.71440 214.59293,493.34601 210.86932,499.20509 C 207.07726,505.17186 204.85807,506.73884 202.20825,505.32069 C 200.45987,504.38499 198.84060,504.38837 194.87506,505.33603 C 187.63166,507.06699 183.87034,506.46026 183.45058,503.49316 C 183.23340,501.95796 182.08951,500.73691 180.20058,500.02392 C 176.54150,498.64277 176.48037,497.58767 180.03573,497.17858 C 183.71011,496.75580 183.09815,495.32654 178.09754,492.65187 C 175.82473,491.43621 173.49728,489.97371 172.92544,489.40187 C 171.26343,487.73986 177.47286,488.18913 179.72686,489.89396 C 182.13660,491.71660 186.43483,491.87348 185.70501,490.11216 C 185.42013,489.42466 183.18425,487.28925 180.73639,485.36680 C 178.28853,483.44436 176.28573,481.49610 176.28573,481.03735 C 176.28573,479.88594 182.26218,481.30062 185.01334,483.10325 C 186.25466,483.91660 187.94876,484.32171 188.77801,484.00350 C 190.91110,483.18495 190.65159,480.27059 188.39301,479.67996 C 187.34672,479.40635 186.26004,477.99482 185.96305,476.52358 C 185.66756,475.05980 185.09115,472.99654 184.68215,471.93855 C 184.08627,470.39715 184.27775,470.14512 185.64584,470.67011 C 186.92447,471.16076 188.09199,470.16028 190.29555,466.68563 C 194.40143,460.21133 204.80460,450.71132 209.93349,448.75258 C 212.29685,447.85001 214.49825,446.26793 214.82550,445.23685 C 215.15275,444.20577 216.03589,443.36216 216.78802,443.36216 C 217.54015,443.36216 219.42233,442.83949 220.97063,442.20068 C 222.51894,441.56186 224.17955,441.13064 224.66089,441.24240 C 225.14223,441.35416 226.26723,440.79564 227.16089,440.00124 C 228.05455,439.20685 231.03573,437.88927 233.78573,437.07328 C 236.53573,436.25730 241.42594,434.41494 244.65286,432.97915 L 250.51998,430.36862 L 248.82687,427.78460 C 247.89566,426.36339 247.35796,424.61630 247.63200,423.90218 C 248.36529,421.99124 242.39494,416.79287 237.78573,415.32907 C 235.58573,414.63039 231.25506,412.77701 228.16203,411.21045 C 225.06899,409.64389 222.09217,408.36216 221.54688,408.36216 C 221.00159,408.36216 219.37188,407.43116 217.92529,406.29328 C 216.24611,404.97243 214.57031,404.45445 213.29043,404.86067 C 210.39282,405.78034 207.28573,404.51731 207.28573,402.41977 C 207.28573,400.32028 213.03328,398.70971 214.67323,400.34966 C 215.23010,400.90653 216.63073,401.36216 217.78573,401.36216 C 218.94073,401.36216 220.36064,401.83707 220.94109,402.41752 C 222.36220,403.83863 227.28573,402.51236 227.28573,400.70844 C 227.28573,399.61303 226.46934,399.42469 223.85062,399.91597 C 219.61116,400.71129 216.57218,399.29095 220.29581,398.25455 C 224.25647,397.15216 230.08583,397.26247 230.48077,398.44727 C 231.04349,400.13543 248.04157,400.36128 249.42120,398.69893 C 251.07017,396.71204 255.17488,397.12552 260.70885,399.83597 C 264.36669,401.62752 266.10279,401.99525 267.46396,401.26678 C 268.74205,400.58276 270.66216,400.75016 273.81459,401.82044 C 276.29983,402.66420 281.81003,404.06678 286.05947,404.93727 C 290.30891,405.80776 295.75543,407.38448 298.16285,408.44107 C 300.57026,409.49767 303.64989,410.36216 305.00647,410.36216 C 306.63197,410.36216 307.65130,411.04410 307.99598,412.36216 C 308.31640,413.58745 309.36000,414.36216 310.69014,414.36216 C 311.88426,414.36216 314.41928,415.69387 316.32350,417.32152 C 320.55413,420.93767 322.84287,421.36134 319.02551,417.82169 C 316.21059,415.21155 315.50001,413.36216 317.31205,413.36216 C 318.97701,413.36216 327.28573,422.16428 327.28573,423.92811 C 327.28573,424.81834 328.16059,426.65890 329.22985,428.01825 C 330.29912,429.37761 330.97099,431.02359 330.72289,431.67598 C 330.47480,432.32838 332.07494,434.83153 334.27877,437.23854 C 336.48260,439.64555 338.28573,441.93561 338.28573,442.32756 C 338.28573,443.24174 332.15814,443.03635 330.61067,442.07031 C 329.96438,441.66685 328.24465,441.87938 326.78905,442.54260 C 324.62145,443.53023 323.98001,443.48728 323.24463,442.30530 C 322.53163,441.15931 321.95696,441.10362 320.45364,442.03483 C 318.93174,442.97755 317.96537,442.84555 315.52531,441.36167 C 313.64641,440.21904 311.40351,439.70331 309.63791,440.00793 C 308.06921,440.27859 305.09823,440.74127 303.03573,441.03613 C 300.97323,441.33099 299.28573,442.00455 299.28573,442.53294 C 299.28573,443.87473 301.32782,447.54710 303.00854,449.22782 C 303.99514,450.21443 304.22045,451.78906 303.76270,454.49846 C 303.21818,457.72146 303.39122,458.36216 304.80624,458.36216 C 306.12023,458.36216 306.35989,458.93057 305.86957,460.88412 C 305.42591,462.65182 305.69256,463.58105 306.76117,463.99111 C 307.59968,464.31287 308.28573,465.42799 308.28573,466.46915 C 308.28573,467.51030 308.75773,468.36216 309.33462,468.36216 C 309.91151,468.36216 311.18319,470.14828 312.16056,472.33132 C 313.13794,474.51436 315.15725,477.25986 316.64793,478.43243 C 319.04076,480.31462 326.28573,493.12359 326.28573,495.47186 C 326.28573,495.96152 325.18729,496.36216 323.84475,496.36216 C 320.34152,496.36216 320.11455,497.40597 322.34270,503.26998 C 324.59691,509.20256 324.28819,510.36216 320.45456,510.36216 C 317.41020,510.36216 310.28573,515.68515 310.28573,517.95971 C 310.28573,520.04260 306.04833,521.36216 299.35968,521.36216 C 295.82481,521.36216 290.48629,522.37145 285.67478,523.94939 C 275.71379,527.21612 256.17838,528.27235 249.95111,525.88088 z M 250.30579,488.83799 C 251.00151,487.99970 251.36132,487.10442 251.10538,486.84848 C 250.47241,486.21551 245.30330,488.67355 245.29353,489.61216 C 245.27940,490.97048 249.01480,490.39353 250.30579,488.83799 z M 210.28573,479.32784 C 211.61297,478.43975 211.60573,478.18238 210.22286,477.09316 C 209.36328,476.41611 207.80375,474.39966 206.75725,472.61216 C 204.66959,469.04629 203.18645,468.57193 201.28573,470.86216 C 200.60104,471.68716 199.42094,472.36216 198.66329,472.36216 C 194.99863,472.36216 198.69729,477.03803 203.79896,478.85471 C 208.64100,480.57893 208.43811,480.56413 210.28573,479.32784 z M 216.89272,463.78037 C 216.55887,462.91039 216.28573,462.01039 216.28573,461.78037 C 216.28573,461.55036 215.61073,461.36216 214.78573,461.36216 C 212.97754,461.36216 212.85252,462.52895 214.48573,464.16216 C 216.19456,465.87099 217.60888,465.64666 216.89272,463.78037 z M 266.72945,460.00716 C 267.22047,457.24907 267.08109,456.26371 266.23963,456.54419 C 265.59276,456.75982 264.97120,458.83937 264.85840,461.16542 C 264.61520,466.18006 265.75625,465.47370 266.72945,460.00716 z M 235.31291,459.46310 C 234.23548,455.46183 232.28573,453.81860 232.28573,456.91182 C 232.28573,458.86753 235.26515,464.71608 235.92519,464.05603 C 236.19578,463.78544 235.92026,461.71862 235.31291,459.46310 z M 278.28573,463.42118 C 278.28573,462.90364 277.83573,462.20208 277.28573,461.86216 C 276.73573,461.52224 276.28573,461.94568 276.28573,462.80314 C 276.28573,463.66060 276.73573,464.36216 277.28573,464.36216 C 277.83573,464.36216 278.28573,463.93872 278.28573,463.42118 z M 253.09323,459.18988 C 252.73276,454.29887 250.28573,452.56190 250.28573,457.19704 C 250.28573,460.84384 251.16988,463.36216 252.45022,463.36216 C 252.97300,463.36216 253.26235,461.48463 253.09323,459.18988 z M 227.80965,459.43752 C 227.08455,457.15294 225.28573,456.60033 225.28573,458.66216 C 225.28573,460.08549 227.40580,462.57542 228.06037,461.92085 C 228.28475,461.69647 228.17193,460.57897 227.80965,459.43752 z M 239.28573,458.16216 C 239.28573,455.83606 238.98551,455.26238 238.18639,456.06150 C 237.58176,456.66613 237.38708,458.10613 237.75378,459.26150 C 238.70860,462.26988 239.28573,461.85573 239.28573,458.16216 z M 260.28573,457.30314 C 260.28573,456.78560 259.83573,456.36216 259.28573,456.36216 C 258.73573,456.36216 258.28573,457.06372 258.28573,457.92118 C 258.28573,458.77864 258.73573,459.20208 259.28573,458.86216 C 259.83573,458.52224 260.28573,457.82068 260.28573,457.30314 z M 313.82685,420.42869 C 313.46431,419.84210 312.68915,419.36216 312.10427,419.36216 C 311.44117,419.36216 311.51704,419.93594 312.30579,420.88633 C 313.67733,422.53893 314.90312,422.17013 313.82685,420.42869 z M 193.26567,522.83799 C 192.56995,521.99970 192.17735,521.21220 192.39323,521.08799 C 196.83383,518.53300 197.45079,518.38013 199.30876,519.37449 C 202.12316,520.88071 201.77826,522.68947 198.78573,522.11741 C 197.10932,521.79694 196.28573,522.08797 196.28573,523.00083 C 196.28573,524.80709 194.83495,524.72886 193.26567,522.83799 z M 333.70185,429.06132 C 329.81932,426.47395 327.08347,421.96442 328.52297,420.52492 C 330.18113,418.86676 333.91654,421.98219 335.74278,426.54643 C 336.63744,428.78239 337.23809,430.72535 337.07758,430.86413 C 336.91706,431.00290 335.39799,430.19164 333.70185,429.06132 z M 239.78573,396.36216 C 240.12565,395.81216 240.82721,395.36216 241.34475,395.36216 C 241.86229,395.36216 242.28573,395.81216 242.28573,396.36216 C 242.28573,396.91216 241.58417,397.36216 240.72671,397.36216 C 239.86925,397.36216 239.44581,396.91216 239.78573,396.36216 z "
         id="path3232" />
      <path
         style="fill:#afb1ae"
         d="M 259.31753,541.61216 C 259.29565,539.37580 259.75357,538.36216 260.78573,538.36216 C 262.69397,538.36216 262.70834,540.42117 260.81753,542.92103 C 259.42876,544.75716 259.34762,544.68636 259.31753,541.61216 z M 256.78573,539.36216 C 256.44581,538.81216 256.64425,538.36216 257.22671,538.36216 C 257.80917,538.36216 258.28573,538.81216 258.28573,539.36216 C 258.28573,539.91216 258.08729,540.36216 257.84475,540.36216 C 257.60221,540.36216 257.12565,539.91216 256.78573,539.36216 z M 226.28573,538.48019 C 226.28573,537.93019 226.73573,537.20208 227.28573,536.86216 C 227.83573,536.52224 228.28573,536.69413 228.28573,537.24413 C 228.28573,537.79413 227.83573,538.52224 227.28573,538.86216 C 226.73573,539.20208 226.28573,539.03019 226.28573,538.48019 z M 272.92410,537.86216 C 273.24069,537.03716 274.12656,536.36216 274.89272,536.36216 C 275.65887,536.36216 276.28573,537.03716 276.28573,537.86216 C 276.28573,538.68752 275.40033,539.36216 274.31711,539.36216 C 272.97808,539.36216 272.53258,538.88245 272.92410,537.86216 z M 250.63828,524.93104 C 237.49434,520.81961 227.39536,505.90854 229.99900,494.45730 C 230.57364,491.92997 231.64040,488.41683 232.36959,486.65033 C 233.09878,484.88382 233.47371,483.21680 233.20276,482.94585 C 232.93181,482.67491 230.05027,483.44523 226.79933,484.65769 C 220.78598,486.90041 212.74446,493.72141 207.11904,501.35097 C 204.64659,504.70427 204.44211,504.78381 201.85449,503.39896 C 199.71519,502.25404 198.76704,502.20500 197.23759,503.16015 C 194.38033,504.94454 189.61736,504.66875 188.85214,502.67462 C 188.46327,501.66125 188.80343,500.65194 189.70362,500.14818 C 190.52809,499.68678 190.94601,498.64044 190.63232,497.82298 C 190.31863,497.00552 190.60106,495.68713 191.25994,494.89323 C 192.56699,493.31833 191.86917,491.38086 189.97671,491.33041 C 189.32167,491.31295 187.21073,489.70138 185.28573,487.74914 L 181.78573,484.19963 L 186.78573,484.90704 C 189.53573,485.29612 192.32852,486.04642 192.99193,486.57439 C 193.65533,487.10236 194.64818,487.25619 195.19825,486.91622 C 196.54803,486.08202 195.41210,483.36216 193.71392,483.36216 C 192.96712,483.36216 191.85620,482.42810 191.24522,481.28647 C 190.63424,480.14483 189.24028,478.31671 188.14754,477.22397 C 186.15288,475.22931 186.11801,472.66493 188.09131,473.08902 C 189.42637,473.37594 194.28573,467.67408 194.28573,465.82062 C 194.28573,465.05717 195.18107,463.95335 196.27538,463.36770 C 197.36969,462.78204 198.95544,460.96776 199.79929,459.33595 C 200.64313,457.70414 202.78528,455.68044 204.55964,454.83884 C 208.48180,452.97850 210.86709,451.55163 214.91935,448.64171 C 216.62003,447.42045 218.24459,446.65435 218.52950,446.93926 C 218.81440,447.22416 221.68860,446.24283 224.91662,444.75852 C 228.14463,443.27420 231.69660,441.65616 232.80988,441.16285 C 233.92316,440.66955 237.41475,440.17509 240.56896,440.06405 C 244.41993,439.92848 246.15927,439.48361 245.86367,438.70982 C 245.55638,437.90544 247.66735,437.54868 252.85459,437.52834 C 256.94172,437.51231 260.28573,437.91836 260.28573,438.43068 C 260.28573,438.94299 261.27573,439.36216 262.48573,439.36216 C 264.19684,439.36216 264.41906,439.09549 263.48573,438.16216 C 261.53615,436.21258 262.10956,434.36216 264.66329,434.36216 C 267.51049,434.36216 269.99545,431.91882 268.24716,430.83832 C 267.62253,430.45228 266.61067,430.63722 265.99860,431.24929 C 264.28022,432.96767 262.04569,432.52776 259.03573,429.87852 C 255.88172,427.10250 255.50786,425.39033 258.03573,425.29877 C 259.37654,425.25021 259.25963,425.02392 257.53573,424.33100 C 256.29823,423.83358 255.28573,422.93915 255.28573,422.34336 C 255.28573,421.74757 253.59823,420.56139 251.53573,419.70741 C 249.47323,418.85343 245.49231,417.07639 242.68924,415.75844 C 239.88617,414.44049 236.96117,413.35397 236.18924,413.34396 C 235.41731,413.33395 232.80551,411.98395 230.38525,410.34396 C 227.96498,408.70397 225.48998,407.35527 224.88525,407.34685 C 222.13865,407.30860 227.15358,405.39105 230.03573,405.37747 C 232.25115,405.36703 233.28573,404.88466 233.28573,403.86216 C 233.28573,403.03716 233.96073,402.36216 234.78573,402.36216 C 235.61073,402.36216 236.28573,403.12317 236.28573,404.05329 C 236.28573,405.52468 236.47001,405.49241 237.70397,403.80486 C 238.48400,402.73811 239.44813,402.19122 239.84647,402.58957 C 240.24481,402.98791 240.06051,403.92861 239.43691,404.68000 C 238.00453,406.40591 238.93474,407.36216 242.04602,407.36216 C 243.66503,407.36216 244.65450,406.66798 245.01827,405.27693 C 245.47753,403.52070 246.08296,403.28914 248.85555,403.80928 C 251.43893,404.29393 252.57635,403.96659 254.13966,402.28858 C 256.05915,400.22824 256.30774,400.20627 260.95875,401.68581 C 266.40276,403.41762 270.83280,404.38011 275.56106,404.85837 C 282.75737,405.58627 288.08051,407.15694 290.06010,409.13653 C 291.21065,410.28708 293.41959,412.00791 294.96887,412.96061 C 307.73174,420.80887 310.27833,422.81011 309.72418,424.55608 C 309.33790,425.77314 309.66213,426.36216 310.71834,426.36216 C 311.58041,426.36216 312.31619,425.79966 312.35341,425.11216 C 312.39063,424.42466 312.94260,424.98716 313.58000,426.36216 C 314.21740,427.73716 316.73352,430.77466 319.17139,433.11216 C 321.60926,435.44966 323.29765,437.36216 322.92336,437.36216 C 321.26509,437.36216 314.29204,431.95739 313.75099,430.25272 C 313.13288,428.30523 311.47773,427.70948 305.01864,427.10962 L 301.25154,426.75977 L 304.01864,429.05011 C 305.54054,430.30980 307.81010,431.62210 309.06211,431.96634 C 310.31412,432.31057 311.77662,433.41087 312.31211,434.41145 C 313.83942,437.26525 313.46116,437.83090 311.32077,435.89387 C 309.91612,434.62268 308.56166,434.31093 306.57077,434.80060 C 296.54851,437.26560 294.48039,437.13996 287.21286,433.62459 C 283.12387,431.64670 279.08041,430.36687 277.49733,430.54944 C 273.98903,430.95404 273.80377,433.85970 277.28573,433.86841 C 278.66073,433.87185 281.04455,434.72508 282.58311,435.76447 C 284.90649,437.33405 285.27427,438.13785 284.75365,440.50821 C 284.14490,443.27984 285.47090,444.48960 286.78573,442.36216 C 287.71980,440.85080 289.28573,441.16399 289.28573,442.86216 C 289.28573,443.68716 289.73573,444.36216 290.28573,444.36216 C 290.83573,444.36216 291.30004,445.37466 291.31753,446.61216 C 291.35282,449.10854 293.44840,452.36216 295.02097,452.36216 C 295.57909,452.36216 296.30750,453.72100 296.63966,455.38181 C 297.31256,458.74630 297.53352,459.05648 305.28573,467.51900 C 308.31073,470.82117 311.23573,474.34897 311.78573,475.35856 C 312.33573,476.36815 314.04096,478.17858 315.57512,479.38173 C 318.41069,481.60551 321.38844,487.18599 320.54064,488.68744 C 320.28435,489.14134 319.13467,488.50376 317.98580,487.27060 C 316.60966,485.79349 315.75767,485.44635 315.48872,486.25319 C 315.26419,486.92677 315.86106,488.34041 316.81509,489.39460 C 318.47609,491.22999 318.44214,491.35219 316.01485,492.27505 C 312.41209,493.64481 311.89319,495.04563 314.24318,497.05776 C 315.36658,498.01964 316.28573,499.33349 316.28573,499.97741 C 316.28573,500.62134 316.96073,501.40720 317.78573,501.72379 C 318.63389,502.04926 319.27229,503.50807 319.25481,505.08078 C 319.23127,507.19780 318.12898,508.68740 314.64000,511.31709 C 312.11886,513.21730 309.61441,515.74145 309.07455,516.92631 C 308.23280,518.77375 306.99361,519.16537 300.37430,519.67581 C 296.12902,520.00318 291.33489,520.77972 289.72067,521.40146 C 278.40431,525.76008 258.91546,527.52015 250.63828,524.93104 z M 290.28573,507.30640 C 290.28573,506.23707 290.02036,505.36216 289.69602,505.36216 C 288.28145,505.36216 285.35212,510.08099 285.35060,512.36216 L 285.34893,514.86216 L 287.81733,512.05640 C 289.17495,510.51323 290.28573,508.37573 290.28573,507.30640 z M 249.65087,490.28958 C 252.16390,488.31283 253.23490,485.36216 251.43937,485.36216 C 250.04175,485.36216 244.37350,488.41112 243.67750,489.53729 C 243.09282,490.48331 244.86206,492.30854 246.40087,492.34685 C 246.73920,492.35527 248.20170,491.42950 249.65087,490.28958 z M 212.59630,479.71825 C 212.95045,479.36410 212.01295,477.66597 210.51297,475.94462 C 209.01299,474.22326 207.08388,471.74274 206.22605,470.43235 C 204.31842,467.51827 201.01771,468.03392 196.33004,471.97833 L 193.22021,474.59508 L 199.00297,477.47486 C 204.34827,480.13678 211.06866,481.24589 212.59630,479.71825 z M 217.78573,471.82900 C 216.13573,471.01081 214.01916,468.99606 213.08224,467.35177 C 212.06191,465.56110 210.55803,464.36216 209.33224,464.36216 C 206.48047,464.36216 206.76790,465.48014 210.53573,469.04323 C 214.02701,472.34480 215.64572,473.17224 218.78573,473.26044 C 220.29733,473.30290 220.05313,472.95335 217.78573,471.82900 z M 225.28573,468.82232 C 225.28573,467.68559 221.26551,460.46770 220.30002,459.87099 C 218.58145,458.80886 219.17595,462.06178 221.38451,465.80500 C 223.20205,468.88550 225.28573,470.49708 225.28573,468.82232 z M 218.81291,466.31818 C 219.69594,464.88942 216.59344,460.36216 214.73129,460.36216 C 212.07777,460.36216 211.76999,463.52612 214.22976,465.51792 C 216.82634,467.62050 217.89293,467.80674 218.81291,466.31818 z M 240.67186,464.95984 C 241.33383,462.32232 240.47690,456.47031 239.18532,454.80826 C 238.73487,454.22861 236.77320,453.94034 234.82603,454.16766 C 230.78349,454.63961 230.40790,456.01697 232.77615,461.68498 C 235.12218,467.29984 239.61668,469.16399 240.67186,464.95984 z M 266.69839,465.11216 C 267.05365,463.87466 267.60290,460.95156 267.91895,458.61637 L 268.49359,454.37059 L 265.51094,454.96712 C 263.87048,455.29521 262.24827,455.11056 261.90601,454.55678 C 260.83335,452.82117 257.48340,454.43846 256.83983,457.00263 C 255.92938,460.63016 257.06798,461.73485 259.84315,459.91650 C 263.47870,457.53439 264.62122,457.93470 263.93792,461.35122 C 262.91907,466.44548 265.36066,469.77198 266.69839,465.11216 z M 281.47853,463.00617 C 282.34564,461.65826 280.70685,459.62949 277.35856,457.90579 C 275.21563,456.80260 274.57686,456.80657 273.53573,457.92952 C 272.00491,459.58063 271.91014,461.36216 273.35312,461.36216 C 273.96383,461.36216 274.15014,462.21402 273.78857,463.35321 C 272.73781,466.66388 274.09741,467.50945 277.59248,465.71896 C 279.34877,464.81923 281.09749,463.59848 281.47853,463.00617 z M 229.28573,462.79642 C 229.28573,459.44296 227.59304,456.36216 225.75055,456.36216 C 223.79476,456.36216 223.89914,458.89912 226.00134,462.45787 C 228.12016,466.04475 229.28573,466.16489 229.28573,462.79642 z M 253.66654,455.13167 C 252.84257,453.53828 251.63230,452.42043 250.97707,452.64756 C 249.34307,453.21395 249.55653,461.77860 251.25567,463.82593 C 252.46387,465.28173 252.74869,465.05637 253.88758,461.74357 C 254.96248,458.61690 254.92748,457.57007 253.66654,455.13167 z M 245.28573,459.30314 C 245.28573,456.85178 244.88966,455.48891 244.28573,455.86216 C 242.59236,456.90872 243.16600,463.36216 244.95240,463.36216 C 245.13573,463.36216 245.28573,461.53560 245.28573,459.30314 z M 298.03620,422.11216 C 297.80729,421.42466 296.77161,420.69776 295.73470,420.49682 C 294.10360,420.18074 294.03015,420.34928 295.19001,421.74682 C 296.77621,423.65808 298.63016,423.89605 298.03620,422.11216 z M 297.56239,411.44477 C 295.78955,410.45334 294.61519,409.36603 294.95271,409.02852 C 295.68042,408.30080 301.28573,411.44221 301.28573,412.57777 C 301.28573,413.55984 301.41458,413.59905 297.56239,411.44477 z "
         id="path3230" />
      <path
         style="fill:#8f928f"
         d="M 254.20618,524.29870 C 244.16257,522.71529 235.07225,514.95310 231.95385,505.29753 C 229.71247,498.35750 229.87794,494.96733 232.80483,487.86216 C 234.16423,484.56216 235.27855,481.74966 235.28110,481.61216 C 235.29464,480.88097 230.31597,481.50422 229.82731,482.29488 C 229.51026,482.80788 226.85064,483.72589 223.91705,484.33490 C 220.24564,485.09708 217.69938,486.36474 215.74739,488.40218 C 212.74847,491.53238 210.71126,492.30158 211.60782,489.96518 C 211.96193,489.04239 211.23644,488.39473 209.47051,488.05715 C 206.38540,487.46739 204.49471,488.25525 206.30708,489.37536 C 208.09547,490.48064 206.71117,492.10981 203.35780,492.84633 C 201.76006,493.19725 200.20434,494.13188 199.90065,494.92327 C 199.01147,497.24043 197.56042,496.58888 196.43773,493.36835 C 195.55004,490.82193 195.67504,490.22418 197.27417,489.36835 C 198.30821,488.81495 200.19633,488.32663 201.46999,488.28321 C 203.63633,488.20936 203.60832,488.13947 201.03573,487.19988 C 197.85628,486.03865 197.33322,483.36216 200.28573,483.36216 C 201.38573,483.36216 202.28573,482.71545 202.28573,481.92503 C 202.28573,480.84539 203.14286,480.62699 205.73144,481.04706 C 210.20011,481.77223 214.28573,480.71960 214.28573,478.84311 C 214.28573,478.02859 213.84138,477.36216 213.29827,477.36216 C 212.33070,477.36216 207.28573,470.08849 207.28573,468.69347 C 207.28573,468.30383 208.22894,468.99746 209.38176,470.23486 C 211.78617,472.81569 215.33416,474.36216 218.85083,474.36216 C 221.79951,474.36216 222.13587,471.81774 219.28573,471.07241 C 217.00754,470.47665 216.55422,468.36216 218.70469,468.36216 C 219.48512,468.36216 221.48107,469.14121 223.14013,470.09338 C 226.74392,472.16167 228.03362,471.29902 226.46961,467.86639 C 225.38667,465.48959 226.47658,464.24391 227.78573,466.36216 C 229.23040,468.69968 230.93029,467.29414 230.50693,464.11216 L 230.07452,460.86216 L 232.93013,464.03659 C 236.72905,468.25965 239.81113,469.11747 241.28573,466.36216 C 242.06717,464.90203 242.99588,464.45278 244.34663,464.88149 C 246.05864,465.42486 246.28573,464.99718 246.28573,461.22955 C 246.28573,457.91194 246.55264,457.22907 247.48499,458.16142 C 248.14458,458.82101 249.15708,460.81802 249.73499,462.59923 C 251.10494,466.82165 253.76242,467.34951 255.10551,463.66598 C 255.66779,462.12388 256.16336,461.59456 256.20678,462.48972 C 256.25020,463.38487 256.96073,464.67747 257.78573,465.36216 C 259.03893,466.40223 259.28573,466.25784 259.28573,464.48460 C 259.28573,461.31806 261.93674,461.92229 263.13589,465.36216 C 264.70825,469.87264 266.73590,469.05360 268.31027,463.27205 C 269.87865,457.51247 271.09286,458.69948 271.21544,466.11216 C 271.25410,468.44966 271.58369,470.36216 271.94787,470.36216 C 272.31205,470.36216 274.55513,469.22225 276.93248,467.82902 C 280.95870,465.46950 281.41757,465.40244 283.62757,466.85048 C 285.44685,468.04252 285.88421,469.04142 285.50293,471.13362 L 285.00568,473.86216 L 287.59796,471.11216 C 289.02371,469.59966 290.41552,468.36216 290.69087,468.36216 C 290.96621,468.36216 290.91878,470.66488 290.58545,473.47932 C 289.99318,478.48008 290.02837,478.57026 292.13256,477.44413 C 293.31681,476.81035 294.28573,475.66295 294.28573,474.89436 C 294.28573,474.12578 295.18573,473.21129 296.28573,472.86216 C 297.38573,472.51303 298.28573,471.80771 298.28573,471.29477 C 298.28573,470.78184 298.78451,470.36216 299.39414,470.36216 C 300.08661,470.36216 300.25926,471.33150 299.85421,472.94534 C 299.33677,475.00699 299.61772,475.63622 301.24580,476.06197 C 303.55702,476.66637 304.09691,481.15098 302.09897,483.14892 C 301.18330,484.06459 301.39479,484.85265 303.02484,486.59892 C 304.18679,487.84370 305.44461,490.09966 305.82001,491.61216 C 306.19540,493.12466 307.12876,494.36216 307.89414,494.36216 C 308.65951,494.36216 309.28573,495.27011 309.28573,496.37983 C 309.28573,497.48954 310.88919,499.95466 312.84897,501.85787 C 316.38744,505.29420 316.39961,505.33530 314.59897,507.77029 C 311.78057,511.58160 306.52873,512.37113 308.88944,508.62863 C 309.60255,507.49812 309.59485,506.29692 308.86458,504.74949 C 308.04119,503.00475 307.21802,502.62570 305.15040,503.03923 C 302.37414,503.59448 300.28853,502.11590 297.20981,497.40981 C 295.48361,494.77117 290.04916,493.72229 288.42537,495.71438 C 287.91080,496.34566 286.81026,499.16698 285.97973,501.98398 C 283.89217,509.06452 282.10136,512.23154 277.63147,516.74774 C 271.28989,523.15502 263.29607,525.73176 254.20618,524.29870 z M 250.38136,491.29407 C 253.26987,489.23727 254.20642,486.04921 252.27314,484.85438 C 250.72310,483.89640 243.37498,487.50558 242.72852,489.54242 C 241.40633,493.70825 245.63248,494.67556 250.38136,491.29407 z M 197.28573,499.36216 C 197.28573,498.81216 197.73573,498.36216 198.28573,498.36216 C 198.83573,498.36216 199.28573,498.81216 199.28573,499.36216 C 199.28573,499.91216 198.83573,500.36216 198.28573,500.36216 C 197.73573,500.36216 197.28573,499.91216 197.28573,499.36216 z M 192.28573,480.42118 C 192.28573,479.90364 192.73573,479.20208 193.28573,478.86216 C 193.83573,478.52224 194.28573,478.94568 194.28573,479.80314 C 194.28573,480.66060 193.83573,481.36216 193.28573,481.36216 C 192.73573,481.36216 192.28573,480.93872 192.28573,480.42118 z M 302.37569,469.74939 C 300.77551,467.71510 299.76313,467.27651 297.80311,467.76844 C 296.05702,468.20668 295.28573,467.99217 295.28573,467.06830 C 295.28573,465.36966 290.67666,461.03871 286.78573,459.08120 C 279.87857,455.60623 270.48635,453.18558 262.78573,452.89568 C 258.38573,452.73003 253.98147,452.26265 252.99848,451.85705 C 251.84181,451.37978 250.49721,451.76579 249.18744,452.95112 C 247.44958,454.52386 247.02828,454.57631 246.20568,453.32240 C 245.39111,452.08073 245.02843,452.14945 243.78263,453.78154 C 242.38954,455.60659 242.22339,455.61572 240.40201,453.96740 C 237.83168,451.64128 231.46034,452.71592 230.37155,455.65922 C 229.86477,457.02915 229.37623,457.31760 228.89139,456.53313 C 227.78347,454.74047 224.15620,455.14148 223.64047,457.11364 C 223.29843,458.42159 222.03292,458.90961 218.64294,459.04080 C 213.68579,459.23265 206.28573,463.46888 206.28573,466.11479 C 206.28573,467.13821 205.62083,467.42155 204.13251,467.03234 C 202.94824,466.72265 200.69824,467.13172 199.13251,467.94139 C 195.79159,469.66905 195.38618,468.48622 198.38811,465.76951 C 199.54442,464.72306 201.13097,462.62832 201.91379,461.11452 C 202.69660,459.60072 203.99551,458.36216 204.80024,458.36216 C 205.60498,458.36216 208.85592,456.40840 212.02456,454.02047 C 217.74138,449.71220 221.23768,448.35291 232.78634,445.94869 C 236.08667,445.26162 239.73604,444.19153 240.89606,443.57071 C 242.05607,442.94989 247.23080,442.40290 252.39545,442.35518 C 257.56010,442.30746 262.68573,442.24048 263.78573,442.20633 C 266.59951,442.11898 277.80665,446.28397 280.00982,448.23580 C 281.01951,449.13030 283.40714,450.72734 285.31567,451.78479 C 289.03296,453.84440 305.28573,469.81314 305.28573,471.40585 C 305.28573,472.94352 304.56587,472.53376 302.37569,469.74939 z M 285.98565,430.34076 C 282.45253,427.56161 275.54671,425.25856 272.80772,425.94600 C 270.53907,426.51539 257.14552,420.56235 255.80112,418.38706 C 255.45274,417.82336 254.15347,417.36216 252.91387,417.36216 C 249.95837,417.36216 240.28573,412.67526 240.28573,411.24316 C 240.28573,410.62818 241.16542,410.35894 242.24896,410.64229 C 243.32874,410.92466 244.73877,410.52121 245.38236,409.74572 C 246.02596,408.97024 247.05500,408.41267 247.66913,408.50668 C 248.28326,408.60068 249.60348,408.32187 250.60295,407.88710 C 253.01915,406.83603 255.43245,409.03542 253.30540,410.35001 C 252.08784,411.10250 252.17330,411.37323 253.81376,411.96036 C 254.89834,412.34855 256.53612,413.30892 257.45326,414.09452 C 258.37041,414.88011 260.17041,415.37421 261.45326,415.19252 C 263.57526,414.89197 263.42819,414.65087 259.82351,412.52067 C 256.37203,410.48101 256.08693,410.05292 257.61171,409.19961 C 259.55286,408.11329 265.28573,409.01484 265.28573,410.40643 C 265.28573,411.96684 269.68242,413.72767 273.03573,413.51024 C 274.82323,413.39434 276.28573,413.76361 276.28573,414.33083 C 276.28573,414.89806 275.83573,415.36216 275.28573,415.36216 C 274.73573,415.36216 274.28573,415.81216 274.28573,416.36216 C 274.28573,416.91216 275.25869,417.36216 276.44787,417.36216 C 278.96900,417.36216 287.28573,421.99877 287.28573,423.40431 C 287.28573,423.93113 286.55563,424.36216 285.66329,424.36216 C 284.33449,424.36216 284.26616,424.63365 285.28573,425.86216 C 285.97042,426.68716 286.98841,427.36216 287.54793,427.36216 C 288.61560,427.36216 291.19935,430.32519 291.25393,431.61216 C 291.31393,433.02717 288.55417,432.36115 285.98565,430.34076 z M 295.86918,428.71903 C 295.52239,427.81531 295.46337,426.85119 295.73803,426.57653 C 296.37638,425.93818 299.28573,428.32299 299.28573,429.48460 C 299.28573,431.03765 296.52121,430.41819 295.86918,428.71903 z M 281.93724,414.78996 C 280.37057,412.90467 278.31908,411.36216 277.37837,411.36216 C 276.43766,411.36216 274.79448,410.70147 273.72686,409.89396 C 272.02880,408.60962 271.99748,408.42178 273.47671,408.39396 C 274.40675,408.37647 275.47004,408.85136 275.83957,409.44928 C 276.20910,410.04719 277.43995,410.29359 278.57478,409.99682 C 279.70962,409.70006 281.90883,410.20788 283.46192,411.12531 C 286.32554,412.81689 287.16405,414.36216 285.21834,414.36216 C 284.60603,414.36216 284.42159,415.21485 284.78573,416.36216 C 285.62824,419.01668 285.29829,418.83457 281.93724,414.78996 z M 263.87769,406.86216 C 261.81324,403.71141 262.91846,403.72319 266.78573,406.89316 C 269.52113,409.13534 269.59743,409.35266 267.65074,409.35719 C 266.47303,409.35993 264.78128,408.24122 263.87769,406.86216 z "
         id="path3228" />
      <path
         style="fill:#6f726e"
         d="M 274.83435,512.54842 C 278.78465,505.91702 278.79627,503.36216 274.87613,503.36216 C 271.98250,503.36216 270.62949,504.89636 272.79147,505.72599 C 275.30660,506.69113 274.45200,508.40314 271.53573,508.24160 C 270.02323,508.15781 266.62923,508.84996 263.99351,509.77970 C 261.35779,510.70944 258.28804,511.18028 257.17185,510.82602 C 255.87821,510.41543 254.40866,510.84592 253.11868,512.01334 C 251.14955,513.79538 251.04584,513.78413 249.27426,511.59632 C 247.85184,509.83971 246.94301,509.52731 245.11964,510.16822 C 243.83599,510.61942 241.30356,510.91960 239.49202,510.83530 C 236.65860,510.70343 235.85504,510.03719 233.74202,506.06789 C 230.55377,500.07880 230.59316,494.65551 233.87804,487.33581 C 236.70169,481.04388 236.73402,478.67090 234.01928,476.96934 C 232.59453,476.07633 230.65854,476.68854 224.01095,480.13422 C 216.49648,484.02923 207.43921,486.57999 204.54674,485.61583 C 202.21805,484.83960 204.56509,482.36185 207.64272,482.34742 C 211.59482,482.32888 215.78573,480.26262 215.78573,478.33263 C 215.78573,477.52387 217.33295,476.36208 219.22399,475.75087 C 221.11503,475.13965 222.91503,474.01465 223.22399,473.25087 C 223.53295,472.48708 224.91073,471.86216 226.28573,471.86216 C 228.11098,471.86216 228.74345,471.36105 228.62906,470.00549 C 228.51455,468.64841 228.77017,468.44660 229.57906,469.25549 C 231.26597,470.94240 232.28573,470.58360 232.28573,468.30314 C 232.28573,467.04029 232.71801,466.51129 233.40368,466.93506 C 236.05297,468.57241 241.31015,469.14138 242.04394,467.87017 C 242.45192,467.16338 243.68226,466.41694 244.77802,466.21142 C 246.05832,465.97128 246.95176,464.80665 247.27802,462.95257 L 247.78573,460.06739 L 249.06597,463.61939 C 250.48312,467.55128 252.81197,469.00024 254.91248,467.25697 C 255.93701,466.40668 256.63295,466.40543 257.65305,467.25205 C 258.69392,468.11589 259.32436,468.02054 260.29361,466.85266 C 261.42315,465.49165 261.72668,465.54669 262.98299,467.34033 C 264.91384,470.09701 267.11725,469.88164 267.87509,466.86216 C 268.65613,463.75022 270.28043,463.58284 270.30104,466.61216 C 270.32535,470.18356 271.73528,471.67164 274.31811,470.85188 C 276.04343,470.30429 277.01268,470.67443 278.29094,472.36907 C 279.53296,474.01565 281.08368,474.63945 284.13371,474.71943 C 286.97735,474.79399 288.28573,475.27018 288.28573,476.23056 C 288.28573,478.27863 293.05316,482.36216 295.44424,482.36216 C 296.81367,482.36216 297.31696,482.83840 296.95216,483.78905 C 296.65101,484.57383 297.05286,485.75393 297.84517,486.41149 C 298.63748,487.06905 299.28573,488.27449 299.28573,489.09025 C 299.28573,489.90601 300.41073,491.91043 301.78573,493.54453 C 305.39469,497.83354 304.85747,498.90003 300.68944,495.72091 C 297.93956,493.62348 287.17015,488.39706 285.53573,488.36679 C 285.39823,488.36424 285.28573,490.30548 285.28573,492.68066 C 285.28573,501.81155 280.95184,511.23207 274.47349,516.18312 L 271.16124,518.71448 L 274.83435,512.54842 z M 250.17072,492.90921 C 254.81160,488.45110 255.29213,486.18048 252.07203,483.92503 C 250.11637,482.55523 249.76088,482.54862 249.02234,483.86833 C 248.56255,484.68994 247.34871,485.36216 246.32493,485.36216 C 244.32128,485.36216 239.28573,490.68576 239.28573,492.80403 C 239.28573,493.51266 240.18573,495.23661 241.28573,496.63503 C 242.38573,498.03345 243.30334,500.00664 243.32487,501.01989 C 243.35151,502.27367 243.79393,501.90384 244.70986,499.86216 C 245.45008,498.21216 247.90747,495.08333 250.17072,492.90921 z M 279.28573,468.92118 C 279.28573,468.06372 279.73573,467.36216 280.28573,467.36216 C 280.83573,467.36216 281.28573,467.78560 281.28573,468.30314 C 281.28573,468.82068 280.83573,469.52224 280.28573,469.86216 C 279.73573,470.20208 279.28573,469.77864 279.28573,468.92118 z M 203.86845,464.47495 C 202.89576,462.92463 204.45126,461.46730 213.21279,455.72029 C 219.94476,451.30453 234.47855,447.47725 250.60538,445.87342 C 253.25618,445.60980 255.86340,445.12318 256.39918,444.79204 C 256.93497,444.46091 257.98087,444.69419 258.72341,445.31044 C 259.46595,445.92669 262.14623,446.47250 264.67960,446.52335 C 267.21297,446.57420 269.28573,447.00874 269.28573,447.48898 C 269.28573,447.96923 270.38417,448.36216 271.72671,448.36216 C 273.06925,448.36216 274.47419,448.85808 274.84879,449.46419 C 275.22339,450.07031 277.04995,451.20135 278.90781,451.97761 C 280.76566,452.75388 282.28573,453.83296 282.28573,454.37558 C 282.28573,455.67389 281.69675,455.62156 275.78573,453.79804 C 267.11861,451.12428 247.05347,450.41892 243.55640,452.66506 C 242.88026,453.09933 241.44522,452.98270 240.36741,452.40587 C 237.49508,450.86865 222.28573,454.18846 222.28573,456.35264 C 222.28573,456.76395 220.60288,457.37356 218.54607,457.70734 C 213.42640,458.53815 205.41372,462.47018 205.04293,464.33368 C 204.78968,465.60649 204.59322,465.63012 203.86845,464.47495 z "
         id="path3226" />
      <path
         style="fill:#52514d"
         d="M 253.52470,506.65498 C 252.28113,506.41583 250.59515,504.92741 249.77808,503.34736 C 247.96767,499.84642 248.94683,496.65111 253.37583,491.60676 C 256.89807,487.59515 256.82231,485.84731 253.00269,482.99822 C 250.67635,481.26298 249.89688,481.12391 248.25269,482.15072 C 247.07574,482.88574 246.28573,482.97406 246.28573,482.37063 C 246.28573,480.30742 243.50791,481.47331 239.95240,485.02883 C 237.93573,487.04549 236.28573,489.24406 236.28573,489.91452 C 236.28573,492.16360 233.52203,496.55353 232.82061,495.41860 C 232.01036,494.10759 237.85005,480.77164 240.59517,477.66403 C 241.66312,476.45506 243.83038,475.18181 245.41131,474.83458 C 246.99224,474.48735 248.28573,473.74022 248.28573,473.17430 C 248.28573,472.55341 247.20492,472.41661 245.56041,472.82936 C 239.16828,474.43368 232.19335,475.42310 231.27535,474.85574 C 229.79236,473.93920 230.08372,472.36216 231.73604,472.36216 C 232.53371,472.36216 233.60218,471.61911 234.11042,470.71093 C 234.80884,469.46294 235.90476,469.20093 238.59819,469.63801 C 241.04552,470.03516 242.53289,469.76928 243.34625,468.78924 C 244.68073,467.18129 248.86123,466.86629 249.75140,468.30662 C 250.07244,468.82607 252.91150,469.10796 256.06042,468.93303 C 260.13247,468.70683 262.29107,469.05638 263.53573,470.14356 C 265.11174,471.52016 265.47666,471.49935 267.20615,469.93418 C 269.03785,468.27651 269.17805,468.29245 270.24133,470.27920 C 270.95210,471.60728 272.34338,472.36216 274.08037,472.36216 C 275.72163,472.36216 277.30117,473.15724 278.05366,474.36216 C 278.74062,475.46216 279.97997,476.36216 280.80777,476.36216 C 284.19854,476.36216 292.28573,483.18262 292.28573,486.04227 C 292.28573,488.12038 290.22695,487.59078 287.69815,484.86216 C 286.34377,483.40076 284.27434,482.36216 282.71685,482.36216 C 280.40173,482.36216 280.14923,482.65710 280.79067,484.61216 C 281.19668,485.84966 281.74985,488.84226 282.01994,491.26237 C 282.46651,495.26384 282.34222,495.58884 280.64837,494.84874 C 278.61614,493.96080 276.38887,493.90232 271.80434,494.61655 C 269.36143,494.99714 268.69825,495.69080 268.13246,498.45720 C 266.79868,504.97864 261.18617,508.12834 253.52470,506.65498 z M 222.22407,476.27130 C 224.23299,474.43643 226.15078,473.48013 227.09495,473.84245 C 228.44646,474.36107 228.39677,474.69233 226.71901,476.34885 C 225.65570,477.39870 223.46381,478.49168 221.84812,478.77771 L 218.91052,479.29776 L 222.22407,476.27130 z M 219.28573,454.92118 C 219.28573,454.67864 219.73573,454.20208 220.28573,453.86216 C 220.83573,453.52224 221.28573,453.72068 221.28573,454.30314 C 221.28573,454.88560 220.83573,455.36216 220.28573,455.36216 C 219.73573,455.36216 219.28573,455.16372 219.28573,454.92118 z M 236.55656,449.75799 C 236.88886,449.42570 237.75135,449.39018 238.47323,449.67905 C 239.27096,449.99827 239.03401,450.23523 237.86906,450.28321 C 236.81490,450.32663 236.22427,450.09029 236.55656,449.75799 z M 243.30332,449.38779 C 245.78094,448.02731 259.55985,447.70935 259.99533,449.00261 C 260.26413,449.80085 257.59503,450.15187 251.10013,450.17242 C 245.79678,450.18921 242.45608,449.85302 243.30332,449.38779 z M 262.55656,449.75799 C 262.88886,449.42570 263.75135,449.39018 264.47323,449.67905 C 265.27096,449.99827 265.03401,450.23523 263.86906,450.28321 C 262.81490,450.32663 262.22427,450.09029 262.55656,449.75799 z "
         id="path3224" />
      <path
         style="fill:#353330"
         d="M 255.60110,504.35518 C 251.43281,502.67574 250.93422,499.87791 253.86534,494.61495 C 255.32119,492.00092 257.02385,489.53155 257.64904,489.12747 C 261.51512,486.62868 266.19914,490.65522 266.25246,496.52327 C 266.27866,499.40631 265.63186,500.73457 263.20900,502.77327 C 259.91829,505.54222 259.01396,505.73025 255.60110,504.35518 z M 273.28573,483.35259 C 272.46073,482.81417 268.59518,482.42540 264.69563,482.48866 C 260.53549,482.55615 256.60964,482.06333 255.19563,481.29610 C 253.81437,480.54665 250.26771,480.08204 246.88651,480.20761 C 241.81012,480.39614 241.15654,480.22275 242.20074,478.96457 C 242.86814,478.16040 246.76029,476.71360 250.84996,475.74946 C 256.85729,474.33323 258.28573,473.63331 258.28573,472.10599 C 258.28573,470.84381 258.86734,470.32752 260.03573,470.55253 C 260.99823,470.73789 261.78573,471.54510 261.78573,472.34632 C 261.78573,473.95164 265.78846,476.32428 268.53573,476.34742 C 269.49823,476.35553 270.28573,475.68716 270.28573,474.86216 C 270.28573,472.97074 273.30101,472.92163 275.83133,474.77184 C 277.64502,476.09805 277.65934,476.29185 276.07304,478.04468 C 274.91210,479.32751 274.67786,480.36794 275.32101,481.38500 C 277.14556,484.27030 276.15670,485.22627 273.28573,483.35259 z M 236.28573,471.36216 C 236.28573,470.81216 236.93417,470.36216 237.72671,470.36216 C 238.51925,470.36216 239.44581,470.81216 239.78573,471.36216 C 240.12565,471.91216 239.47721,472.36216 238.34475,472.36216 C 237.21229,472.36216 236.28573,471.91216 236.28573,471.36216 z M 267.28573,471.92118 C 267.28573,471.67864 267.73573,471.20208 268.28573,470.86216 C 268.83573,470.52224 269.28573,470.72068 269.28573,471.30314 C 269.28573,471.88560 268.83573,472.36216 268.28573,472.36216 C 267.73573,472.36216 267.28573,472.16372 267.28573,471.92118 z M 245.28573,469.36216 C 245.28573,468.81216 245.93417,468.36216 246.72671,468.36216 C 247.51925,468.36216 248.44581,468.81216 248.78573,469.36216 C 249.12565,469.91216 248.47721,470.36216 247.34475,470.36216 C 246.21229,470.36216 245.28573,469.91216 245.28573,469.36216 z "
         id="path3222" />
    </g>
  </g>
</svg>
