<?xml version="1.0" encoding="UTF-8" standalone="no"?>
<!-- Created with Inkscape (http://www.inkscape.org/) -->
<svg
   xmlns:dc="http://purl.org/dc/elements/1.1/"
   xmlns:cc="http://web.resource.org/cc/"
   xmlns:rdf="http://www.w3.org/1999/02/22-rdf-syntax-ns#"
   xmlns:svg="http://www.w3.org/2000/svg"
   xmlns="http://www.w3.org/2000/svg"
   xmlns:sodipodi="http://inkscape.sourceforge.net/DTD/sodipodi-0.dtd"
   xmlns:inkscape="http://www.inkscape.org/namespaces/inkscape"
   width="132mm"
   height="110mm"
   id="svg5019"
   sodipodi:version="0.32"
   inkscape:version="0.41"
   sodipodi:docbase="/home/bobuss/these/papier/ICMC2005"
   sodipodi:docname="gamme.svg">
  <defs
     id="defs3" />

  <metadata
     id="metadata4">
    <rdf:RDF
       id="RDF5">
      <cc:Work
         rdf:about=""
         id="Work6">
        <dc:format
           id="format7">image/svg+xml</dc:format>
        <dc:type
           id="type9"
           rdf:resource="http://purl.org/dc/dcmitype/StillImage" />
      </cc:Work>
    </rdf:RDF>
  </metadata>
  <g
     inkscape:label="Layer 1"
     inkscape:groupmode="layer"
     id="layer1">
    <g
       inkscape:export-ydpi="90.000000"
       inkscape:export-xdpi="90.000000"
       inkscape:export-filename="/home/bobuss/these/papier/ICMC2005/gamme.png"
       id="id12t11"
       idx="12"
       idy="11"
       noteNumber="1"
       onmouseover="Hmouseover(evt)"
       transform="translate(51.70747,72.55429)">
      <polygon
         id="polygon12t11"
         points="359.17200,272.83700 349.09500,290.29100 339.01800,307.74400 318.86400,307.74400 298.71000,307.74400 288.63300,290.29100 278.55600,272.83700 288.63300,255.38300 298.71000,237.92900 318.86400,237.92900 339.01800,237.92900 349.09500,255.38300 359.17200,272.83700 "
         style="fill:#ffff00;fill-opacity:0.75000000;fill-rule:evenodd;stroke:#000000;stroke-width:1.0000000pt" />
      <text
         id="text12t11"
         pointer-events="none"
         style="font-size:18.000000;fill:#000000;font-family:Lucida Sans Unicode;text-anchor:middle"
         x="319"
         y="278">ré♭</text>
    </g>
    <g
       inkscape:export-ydpi="90.000000"
       inkscape:export-xdpi="90.000000"
       inkscape:export-filename="/home/bobuss/these/papier/ICMC2005/gamme.png"
       id="id12t12"
       idx="12"
       idy="12"
       noteNumber="5"
       onmouseover="Hmouseover(evt)"
       transform="translate(112.7075,37.15429)">
      <polygon
         id="polygon12t12"
         points="359.17200,272.83700 349.09500,290.29100 339.01800,307.74400 318.86400,307.74400 298.71000,307.74400 288.63300,290.29100 278.55600,272.83700 288.63300,255.38300 298.71000,237.92900 318.86400,237.92900 339.01800,237.92900 349.09500,255.38300 359.17200,272.83700 "
         style="fill:#ffff00;fill-opacity:0.75000000;fill-rule:evenodd;stroke:#000000;stroke-width:1.0000000pt" />
      <text
         id="text12t12"
         pointer-events="none"
         style="font-size:18.000000;fill:#000000;font-family:Lucida Sans Unicode;text-anchor:middle"
         x="319"
         y="278">fa</text>
    </g>
    <g
       inkscape:export-ydpi="90.000000"
       inkscape:export-xdpi="90.000000"
       inkscape:export-filename="/home/bobuss/these/papier/ICMC2005/gamme.png"
       id="id13t10"
       idx="13"
       idy="10"
       noteNumber="0"
       onmouseover="Hmouseover(evt)"
       transform="translate(-70.29253,72.55429)">
      <polygon
         id="polygon13t10"
         points="359.17200,272.83700 349.09500,290.29100 339.01800,307.74400 318.86400,307.74400 298.71000,307.74400 288.63300,290.29100 278.55600,272.83700 288.63300,255.38300 298.71000,237.92900 318.86400,237.92900 339.01800,237.92900 349.09500,255.38300 359.17200,272.83700 "
         style="fill:#ffff00;fill-opacity:0.75000000;fill-rule:evenodd;stroke:#000000;stroke-width:1.0000000pt" />
      <text
         id="text13t10"
         pointer-events="none"
         style="font-size:18.000000;fill:#000000;font-family:Lucida Sans Unicode;text-anchor:middle"
         x="319"
         y="278">do</text>
    </g>
    <g
       inkscape:export-ydpi="90.000000"
       inkscape:export-xdpi="90.000000"
       inkscape:export-filename="/home/bobuss/these/papier/ICMC2005/gamme.png"
       id="id13t11"
       idx="13"
       idy="11"
       noteNumber="4"
       onmouseover="Hmouseover(evt)"
       transform="translate(-9.292529,37.15429)">
      <polygon
         id="polygon13t11"
         points="359.17200,272.83700 349.09500,290.29100 339.01800,307.74400 318.86400,307.74400 298.71000,307.74400 288.63300,290.29100 278.55600,272.83700 288.63300,255.38300 298.71000,237.92900 318.86400,237.92900 339.01800,237.92900 349.09500,255.38300 359.17200,272.83700 "
         style="fill:#ffff00;fill-opacity:0.75000000;fill-rule:evenodd;stroke:#000000;stroke-width:1.0000000pt" />
      <text
         id="text13t11"
         pointer-events="none"
         style="font-size:18.000000;fill:#000000;font-family:Lucida Sans Unicode;text-anchor:middle"
         x="319"
         y="278">mi</text>
    </g>
    <g
       inkscape:export-ydpi="90.000000"
       inkscape:export-xdpi="90.000000"
       inkscape:export-filename="/home/bobuss/these/papier/ICMC2005/gamme.png"
       id="id13t12"
       idx="13"
       idy="12"
       noteNumber="8"
       onmouseover="Hmouseover(evt)"
       transform="translate(51.70747,1.754286)">
      <polygon
         id="polygon13t12"
         points="359.17200,272.83700 349.09500,290.29100 339.01800,307.74400 318.86400,307.74400 298.71000,307.74400 288.63300,290.29100 278.55600,272.83700 288.63300,255.38300 298.71000,237.92900 318.86400,237.92900 339.01800,237.92900 349.09500,255.38300 359.17200,272.83700 "
         style="fill:#ffff00;fill-opacity:0.75000000;fill-rule:evenodd;stroke:#000000;stroke-width:1.0000000pt" />
      <text
         id="text13t12"
         pointer-events="none"
         style="font-size:18.000000;fill:#000000;font-family:Lucida Sans Unicode;text-anchor:middle"
         x="319"
         y="278">la♭</text>
    </g>
    <g
       inkscape:export-ydpi="90.000000"
       inkscape:export-xdpi="90.000000"
       inkscape:export-filename="/home/bobuss/these/papier/ICMC2005/gamme.png"
       id="id13t13"
       idx="13"
       idy="13"
       noteNumber="0"
       onmouseover="Hmouseover(evt)"
       transform="translate(112.7075,-33.64571)">
      <polygon
         id="polygon13t13"
         points="359.17200,272.83700 349.09500,290.29100 339.01800,307.74400 318.86400,307.74400 298.71000,307.74400 288.63300,290.29100 278.55600,272.83700 288.63300,255.38300 298.71000,237.92900 318.86400,237.92900 339.01800,237.92900 349.09500,255.38300 359.17200,272.83700 "
         style="fill:#ffff00;fill-opacity:0.75000000;fill-rule:evenodd;stroke:#000000;stroke-width:1.0000000pt" />
      <text
         id="text13t13"
         pointer-events="none"
         style="font-size:18.000000;fill:#000000;font-family:Lucida Sans Unicode;text-anchor:middle"
         x="319"
         y="278">do</text>
    </g>
    <g
       inkscape:export-ydpi="90.000000"
       inkscape:export-xdpi="90.000000"
       inkscape:export-filename="/home/bobuss/these/papier/ICMC2005/gamme.png"
       id="id14t9"
       idx="14"
       idy="9"
       noteNumber="11"
       onmouseover="Hmouseover(evt)"
       transform="translate(-192.2926,72.55429)">
      <polygon
         id="polygon14t9"
         points="359.17200,272.83700 349.09500,290.29100 339.01800,307.74400 318.86400,307.74400 298.71000,307.74400 288.63300,290.29100 278.55600,272.83700 288.63300,255.38300 298.71000,237.92900 318.86400,237.92900 339.01800,237.92900 349.09500,255.38300 359.17200,272.83700 "
         style="fill:#ffff00;fill-opacity:0.75000000;fill-rule:evenodd;stroke:#000000;stroke-width:1.0000000pt" />
      <text
         id="text14t9"
         pointer-events="none"
         style="font-size:18.000000;fill:#000000;font-family:Lucida Sans Unicode;text-anchor:middle"
         x="319"
         y="278">si</text>
    </g>
    <g
       inkscape:export-ydpi="90.000000"
       inkscape:export-xdpi="90.000000"
       inkscape:export-filename="/home/bobuss/these/papier/ICMC2005/gamme.png"
       id="id14t10"
       idx="14"
       idy="10"
       noteNumber="3"
       onmouseover="Hmouseover(evt)"
       transform="translate(-131.2926,37.15429)">
      <polygon
         id="polygon14t10"
         points="359.17200,272.83700 349.09500,290.29100 339.01800,307.74400 318.86400,307.74400 298.71000,307.74400 288.63300,290.29100 278.55600,272.83700 288.63300,255.38300 298.71000,237.92900 318.86400,237.92900 339.01800,237.92900 349.09500,255.38300 359.17200,272.83700 "
         style="fill:#ffff00;fill-opacity:0.75000000;fill-rule:evenodd;stroke:#000000;stroke-width:1.0000000pt" />
      <text
         id="text14t10"
         pointer-events="none"
         style="font-size:18.000000;fill:#000000;font-family:Lucida Sans Unicode;text-anchor:middle"
         x="319"
         y="278">mi♭</text>
    </g>
    <g
       inkscape:export-ydpi="90.000000"
       inkscape:export-xdpi="90.000000"
       inkscape:export-filename="/home/bobuss/these/papier/ICMC2005/gamme.png"
       id="id14t11"
       idx="14"
       idy="11"
       noteNumber="7"
       onmouseover="Hmouseover(evt)"
       transform="translate(-70.29253,1.754286)">
      <polygon
         id="polygon14t11"
         points="359.17200,272.83700 349.09500,290.29100 339.01800,307.74400 318.86400,307.74400 298.71000,307.74400 288.63300,290.29100 278.55600,272.83700 288.63300,255.38300 298.71000,237.92900 318.86400,237.92900 339.01800,237.92900 349.09500,255.38300 359.17200,272.83700 "
         style="fill:#ffff00;fill-opacity:0.75000000;fill-rule:evenodd;stroke:#000000;stroke-width:1.0000000pt" />
      <text
         id="text14t11"
         pointer-events="none"
         style="font-size:18.000000;fill:#000000;font-family:Lucida Sans Unicode;text-anchor:middle"
         x="319"
         y="278">sol</text>
    </g>
    <g
       inkscape:export-ydpi="90.000000"
       inkscape:export-xdpi="90.000000"
       inkscape:export-filename="/home/bobuss/these/papier/ICMC2005/gamme.png"
       id="id14t12"
       idx="14"
       idy="12"
       noteNumber="11"
       onmouseover="Hmouseover(evt)"
       transform="translate(-9.292529,-33.64571)">
      <polygon
         id="polygon14t12"
         points="359.17200,272.83700 349.09500,290.29100 339.01800,307.74400 318.86400,307.74400 298.71000,307.74400 288.63300,290.29100 278.55600,272.83700 288.63300,255.38300 298.71000,237.92900 318.86400,237.92900 339.01800,237.92900 349.09500,255.38300 359.17200,272.83700 "
         style="fill:#ffff00;fill-opacity:0.75000000;fill-rule:evenodd;stroke:#000000;stroke-width:1.0000000pt" />
      <text
         id="text14t12"
         pointer-events="none"
         style="font-size:18.000000;fill:#000000;font-family:Lucida Sans Unicode;text-anchor:middle"
         x="319"
         y="278">si</text>
    </g>
    <g
       inkscape:export-ydpi="90.000000"
       inkscape:export-xdpi="90.000000"
       inkscape:export-filename="/home/bobuss/these/papier/ICMC2005/gamme.png"
       id="id14t13"
       idx="14"
       idy="13"
       noteNumber="3"
       onmouseover="Hmouseover(evt)"
       transform="translate(51.70747,-69.04571)">
      <polygon
         id="polygon14t13"
         points="359.17200,272.83700 349.09500,290.29100 339.01800,307.74400 318.86400,307.74400 298.71000,307.74400 288.63300,290.29100 278.55600,272.83700 288.63300,255.38300 298.71000,237.92900 318.86400,237.92900 339.01800,237.92900 349.09500,255.38300 359.17200,272.83700 "
         style="fill:#ffff00;fill-opacity:0.75000000;fill-rule:evenodd;stroke:#000000;stroke-width:1.0000000pt" />
      <text
         id="text14t13"
         pointer-events="none"
         style="font-size:18.000000;fill:#000000;font-family:Lucida Sans Unicode;text-anchor:middle"
         x="319"
         y="278">mi♭</text>
    </g>
    <g
       inkscape:export-ydpi="90.000000"
       inkscape:export-xdpi="90.000000"
       inkscape:export-filename="/home/bobuss/these/papier/ICMC2005/gamme.png"
       id="id14t14"
       idx="14"
       idy="14"
       noteNumber="7"
       onmouseover="Hmouseover(evt)"
       transform="translate(112.7075,-104.4457)">
      <polygon
         id="polygon14t14"
         points="359.17200,272.83700 349.09500,290.29100 339.01800,307.74400 318.86400,307.74400 298.71000,307.74400 288.63300,290.29100 278.55600,272.83700 288.63300,255.38300 298.71000,237.92900 318.86400,237.92900 339.01800,237.92900 349.09500,255.38300 359.17200,272.83700 "
         style="fill:#ffff00;fill-opacity:0.75000000;fill-rule:evenodd;stroke:#000000;stroke-width:1.0000000pt" />
      <text
         id="text14t14"
         pointer-events="none"
         style="font-size:18.000000;fill:#000000;font-family:Lucida Sans Unicode;text-anchor:middle"
         x="319"
         y="278">sol</text>
    </g>
    <g
       inkscape:export-ydpi="90.000000"
       inkscape:export-xdpi="90.000000"
       inkscape:export-filename="/home/bobuss/these/papier/ICMC2005/gamme.png"
       id="id15t9"
       idx="15"
       idy="9"
       noteNumber="2"
       onmouseover="Hmouseover(evt)"
       transform="translate(-253.2926,37.15429)">
      <polygon
         id="polygon15t9"
         points="359.17200,272.83700 349.09500,290.29100 339.01800,307.74400 318.86400,307.74400 298.71000,307.74400 288.63300,290.29100 278.55600,272.83700 288.63300,255.38300 298.71000,237.92900 318.86400,237.92900 339.01800,237.92900 349.09500,255.38300 359.17200,272.83700 "
         style="fill:#ffff00;fill-opacity:0.75000000;fill-rule:evenodd;stroke:#000000;stroke-width:1.0000000pt" />
      <text
         id="text15t9"
         pointer-events="none"
         style="font-size:18.000000;fill:#000000;font-family:Lucida Sans Unicode;text-anchor:middle"
         x="319"
         y="278">ré</text>
    </g>
    <g
       inkscape:export-ydpi="90.000000"
       inkscape:export-xdpi="90.000000"
       inkscape:export-filename="/home/bobuss/these/papier/ICMC2005/gamme.png"
       id="id15t10"
       idx="15"
       idy="10"
       noteNumber="6"
       onmouseover="Hmouseover(evt)"
       transform="translate(-192.2926,1.754286)">
      <polygon
         id="polygon15t10"
         points="359.17200,272.83700 349.09500,290.29100 339.01800,307.74400 318.86400,307.74400 298.71000,307.74400 288.63300,290.29100 278.55600,272.83700 288.63300,255.38300 298.71000,237.92900 318.86400,237.92900 339.01800,237.92900 349.09500,255.38300 359.17200,272.83700 "
         style="fill:#ffff00;fill-opacity:0.75000000;fill-rule:evenodd;stroke:#000000;stroke-width:1.0000000pt" />
      <text
         id="text15t10"
         pointer-events="none"
         style="font-size:18.000000;fill:#000000;font-family:Lucida Sans Unicode;text-anchor:middle"
         x="319"
         y="278">sol♭</text>
    </g>
    <g
       inkscape:export-ydpi="90.000000"
       inkscape:export-xdpi="90.000000"
       inkscape:export-filename="/home/bobuss/these/papier/ICMC2005/gamme.png"
       id="id15t11"
       idx="15"
       idy="11"
       noteNumber="10"
       onmouseover="Hmouseover(evt)"
       transform="translate(-131.2926,-33.64571)">
      <polygon
         id="polygon15t11"
         points="359.17200,272.83700 349.09500,290.29100 339.01800,307.74400 318.86400,307.74400 298.71000,307.74400 288.63300,290.29100 278.55600,272.83700 288.63300,255.38300 298.71000,237.92900 318.86400,237.92900 339.01800,237.92900 349.09500,255.38300 359.17200,272.83700 "
         style="fill:#ffff00;fill-opacity:0.75000000;fill-rule:evenodd;stroke:#000000;stroke-width:1.0000000pt" />
      <text
         id="text15t11"
         pointer-events="none"
         style="font-size:18.000000;fill:#000000;font-family:Lucida Sans Unicode;text-anchor:middle"
         x="319"
         y="278">si♭</text>
    </g>
    <g
       inkscape:export-ydpi="90.000000"
       inkscape:export-xdpi="90.000000"
       inkscape:export-filename="/home/bobuss/these/papier/ICMC2005/gamme.png"
       id="id15t12"
       idx="15"
       idy="12"
       noteNumber="2"
       onmouseover="Hmouseover(evt)"
       transform="translate(-70.29253,-69.04571)">
      <polygon
         id="polygon15t12"
         points="359.17200,272.83700 349.09500,290.29100 339.01800,307.74400 318.86400,307.74400 298.71000,307.74400 288.63300,290.29100 278.55600,272.83700 288.63300,255.38300 298.71000,237.92900 318.86400,237.92900 339.01800,237.92900 349.09500,255.38300 359.17200,272.83700 "
         style="fill:#ffff00;fill-opacity:0.75000000;fill-rule:evenodd;stroke:#000000;stroke-width:1.0000000pt" />
      <text
         id="text15t12"
         pointer-events="none"
         style="font-size:18.000000;fill:#000000;font-family:Lucida Sans Unicode;text-anchor:middle"
         x="319"
         y="278">ré</text>
    </g>
    <g
       inkscape:export-ydpi="90.000000"
       inkscape:export-xdpi="90.000000"
       inkscape:export-filename="/home/bobuss/these/papier/ICMC2005/gamme.png"
       id="id15t13"
       idx="15"
       idy="13"
       noteNumber="6"
       onmouseover="Hmouseover(evt)"
       transform="translate(-9.292529,-104.4457)">
      <polygon
         id="polygon15t13"
         points="359.17200,272.83700 349.09500,290.29100 339.01800,307.74400 318.86400,307.74400 298.71000,307.74400 288.63300,290.29100 278.55600,272.83700 288.63300,255.38300 298.71000,237.92900 318.86400,237.92900 339.01800,237.92900 349.09500,255.38300 359.17200,272.83700 "
         style="fill:#ffff00;fill-opacity:0.75000000;fill-rule:evenodd;stroke:#000000;stroke-width:1.0000000pt" />
      <text
         id="text15t13"
         pointer-events="none"
         style="font-size:18.000000;fill:#000000;font-family:Lucida Sans Unicode;text-anchor:middle"
         x="319"
         y="278">sol♭</text>
    </g>
    <g
       inkscape:export-ydpi="90.000000"
       inkscape:export-xdpi="90.000000"
       inkscape:export-filename="/home/bobuss/these/papier/ICMC2005/gamme.png"
       id="id15t14"
       idx="15"
       idy="14"
       noteNumber="10"
       onmouseover="Hmouseover(evt)"
       transform="translate(51.70747,-139.8457)">
      <polygon
         id="polygon15t14"
         points="359.17200,272.83700 349.09500,290.29100 339.01800,307.74400 318.86400,307.74400 298.71000,307.74400 288.63300,290.29100 278.55600,272.83700 288.63300,255.38300 298.71000,237.92900 318.86400,237.92900 339.01800,237.92900 349.09500,255.38300 359.17200,272.83700 "
         style="fill:#ffff00;fill-opacity:0.75000000;fill-rule:evenodd;stroke:#000000;stroke-width:1.0000000pt" />
      <text
         id="text15t14"
         pointer-events="none"
         style="font-size:18.000000;fill:#000000;font-family:Lucida Sans Unicode;text-anchor:middle"
         x="319"
         y="278">si♭</text>
    </g>
    <g
       inkscape:export-ydpi="90.000000"
       inkscape:export-xdpi="90.000000"
       inkscape:export-filename="/home/bobuss/these/papier/ICMC2005/gamme.png"
       id="id15t15"
       idx="15"
       idy="15"
       noteNumber="2"
       onmouseover="Hmouseover(evt)"
       transform="translate(112.7075,-175.2457)">
      <polygon
         id="polygon15t15"
         points="359.17200,272.83700 349.09500,290.29100 339.01800,307.74400 318.86400,307.74400 298.71000,307.74400 288.63300,290.29100 278.55600,272.83700 288.63300,255.38300 298.71000,237.92900 318.86400,237.92900 339.01800,237.92900 349.09500,255.38300 359.17200,272.83700 "
         style="fill:#ffff00;fill-opacity:0.75000000;fill-rule:evenodd;stroke:#000000;stroke-width:1.0000000pt" />
      <text
         id="text15t15"
         pointer-events="none"
         style="font-size:18.000000;fill:#000000;font-family:Lucida Sans Unicode;text-anchor:middle"
         x="319"
         y="278">ré</text>
    </g>
    <g
       inkscape:export-ydpi="90.000000"
       inkscape:export-xdpi="90.000000"
       inkscape:export-filename="/home/bobuss/these/papier/ICMC2005/gamme.png"
       id="id16t10"
       idx="16"
       idy="10"
       noteNumber="9"
       onmouseover="Hmouseover(evt)"
       transform="translate(-253.2926,-33.64571)">
      <polygon
         id="polygon16t10"
         points="359.17200,272.83700 349.09500,290.29100 339.01800,307.74400 318.86400,307.74400 298.71000,307.74400 288.63300,290.29100 278.55600,272.83700 288.63300,255.38300 298.71000,237.92900 318.86400,237.92900 339.01800,237.92900 349.09500,255.38300 359.17200,272.83700 "
         style="fill:#ffff00;fill-opacity:0.75000000;fill-rule:evenodd;stroke:#000000;stroke-width:1.0000000pt" />
      <text
         id="text16t10"
         pointer-events="none"
         style="font-size:18.000000;fill:#000000;font-family:Lucida Sans Unicode;text-anchor:middle"
         x="319"
         y="278">la</text>
    </g>
    <g
       inkscape:export-ydpi="90.000000"
       inkscape:export-xdpi="90.000000"
       inkscape:export-filename="/home/bobuss/these/papier/ICMC2005/gamme.png"
       id="id16t11"
       idx="16"
       idy="11"
       noteNumber="1"
       onmouseover="Hmouseover(evt)"
       transform="translate(-192.2926,-69.04571)">
      <polygon
         id="polygon16t11"
         points="359.17200,272.83700 349.09500,290.29100 339.01800,307.74400 318.86400,307.74400 298.71000,307.74400 288.63300,290.29100 278.55600,272.83700 288.63300,255.38300 298.71000,237.92900 318.86400,237.92900 339.01800,237.92900 349.09500,255.38300 359.17200,272.83700 "
         style="fill:#ffff00;fill-opacity:0.75000000;fill-rule:evenodd;stroke:#000000;stroke-width:1.0000000pt" />
      <text
         id="text16t11"
         pointer-events="none"
         style="font-size:18.000000;fill:#000000;font-family:Lucida Sans Unicode;text-anchor:middle"
         x="319"
         y="278">ré♭</text>
    </g>
    <g
       inkscape:export-ydpi="90.000000"
       inkscape:export-xdpi="90.000000"
       inkscape:export-filename="/home/bobuss/these/papier/ICMC2005/gamme.png"
       id="id16t12"
       idx="16"
       idy="12"
       noteNumber="5"
       onmouseover="Hmouseover(evt)"
       transform="translate(-131.2926,-104.4457)">
      <polygon
         id="polygon16t12"
         points="359.17200,272.83700 349.09500,290.29100 339.01800,307.74400 318.86400,307.74400 298.71000,307.74400 288.63300,290.29100 278.55600,272.83700 288.63300,255.38300 298.71000,237.92900 318.86400,237.92900 339.01800,237.92900 349.09500,255.38300 359.17200,272.83700 "
         style="fill:#ffff00;fill-opacity:0.75000000;fill-rule:evenodd;stroke:#000000;stroke-width:1.0000000pt" />
      <text
         id="text16t12"
         pointer-events="none"
         style="font-size:18.000000;fill:#000000;font-family:Lucida Sans Unicode;text-anchor:middle"
         x="319"
         y="278">fa</text>
    </g>
    <g
       inkscape:export-ydpi="90.000000"
       inkscape:export-xdpi="90.000000"
       inkscape:export-filename="/home/bobuss/these/papier/ICMC2005/gamme.png"
       id="id16t13"
       idx="16"
       idy="13"
       noteNumber="9"
       onmouseover="Hmouseover(evt)"
       transform="translate(-70.29253,-139.8457)">
      <polygon
         id="polygon16t13"
         points="359.17200,272.83700 349.09500,290.29100 339.01800,307.74400 318.86400,307.74400 298.71000,307.74400 288.63300,290.29100 278.55600,272.83700 288.63300,255.38300 298.71000,237.92900 318.86400,237.92900 339.01800,237.92900 349.09500,255.38300 359.17200,272.83700 "
         style="fill:#ffff00;fill-opacity:0.75000000;fill-rule:evenodd;stroke:#000000;stroke-width:1.0000000pt" />
      <text
         id="text16t13"
         pointer-events="none"
         style="font-size:18.000000;fill:#000000;font-family:Lucida Sans Unicode;text-anchor:middle"
         x="319"
         y="278">la</text>
    </g>
    <g
       inkscape:export-ydpi="90.000000"
       inkscape:export-xdpi="90.000000"
       inkscape:export-filename="/home/bobuss/these/papier/ICMC2005/gamme.png"
       id="id16t14"
       idx="16"
       idy="14"
       noteNumber="1"
       onmouseover="Hmouseover(evt)"
       transform="translate(-9.292529,-175.2457)">
      <polygon
         id="polygon16t14"
         points="359.17200,272.83700 349.09500,290.29100 339.01800,307.74400 318.86400,307.74400 298.71000,307.74400 288.63300,290.29100 278.55600,272.83700 288.63300,255.38300 298.71000,237.92900 318.86400,237.92900 339.01800,237.92900 349.09500,255.38300 359.17200,272.83700 "
         style="fill:#ffff00;fill-opacity:0.75000000;fill-rule:evenodd;stroke:#000000;stroke-width:1.0000000pt" />
      <text
         id="text16t14"
         pointer-events="none"
         style="font-size:18.000000;fill:#000000;font-family:Lucida Sans Unicode;text-anchor:middle"
         x="319"
         y="278">ré♭</text>
    </g>
    <g
       inkscape:export-ydpi="90.000000"
       inkscape:export-xdpi="90.000000"
       inkscape:export-filename="/home/bobuss/these/papier/ICMC2005/gamme.png"
       id="id16t15"
       idx="16"
       idy="15"
       noteNumber="5"
       onmouseover="Hmouseover(evt)"
       transform="translate(51.70747,-210.6457)">
      <polygon
         id="polygon16t15"
         points="359.17200,272.83700 349.09500,290.29100 339.01800,307.74400 318.86400,307.74400 298.71000,307.74400 288.63300,290.29100 278.55600,272.83700 288.63300,255.38300 298.71000,237.92900 318.86400,237.92900 339.01800,237.92900 349.09500,255.38300 359.17200,272.83700 "
         style="fill:#ffff00;fill-opacity:0.75000000;fill-rule:evenodd;stroke:#000000;stroke-width:1.0000000pt" />
      <text
         id="text16t15"
         pointer-events="none"
         style="font-size:18.000000;fill:#000000;font-family:Lucida Sans Unicode;text-anchor:middle"
         x="319"
         y="278">fa</text>
    </g>
    <g
       inkscape:export-ydpi="90.000000"
       inkscape:export-xdpi="90.000000"
       inkscape:export-filename="/home/bobuss/these/papier/ICMC2005/gamme.png"
       id="id17t11"
       idx="17"
       idy="11"
       noteNumber="4"
       onmouseover="Hmouseover(evt)"
       transform="translate(-253.2926,-104.4457)">
      <polygon
         id="polygon17t11"
         points="359.17200,272.83700 349.09500,290.29100 339.01800,307.74400 318.86400,307.74400 298.71000,307.74400 288.63300,290.29100 278.55600,272.83700 288.63300,255.38300 298.71000,237.92900 318.86400,237.92900 339.01800,237.92900 349.09500,255.38300 359.17200,272.83700 "
         style="fill:#ffff00;fill-opacity:0.75000000;fill-rule:evenodd;stroke:#000000;stroke-width:1.0000000pt" />
      <text
         id="text17t11"
         pointer-events="none"
         style="font-size:18.000000;fill:#000000;font-family:Lucida Sans Unicode;text-anchor:middle"
         x="319"
         y="278">mi</text>
    </g>
    <g
       inkscape:export-ydpi="90.000000"
       inkscape:export-xdpi="90.000000"
       inkscape:export-filename="/home/bobuss/these/papier/ICMC2005/gamme.png"
       id="id17t12"
       idx="17"
       idy="12"
       noteNumber="8"
       onmouseover="Hmouseover(evt)"
       transform="translate(-192.2926,-139.8457)">
      <polygon
         id="polygon17t12"
         points="359.17200,272.83700 349.09500,290.29100 339.01800,307.74400 318.86400,307.74400 298.71000,307.74400 288.63300,290.29100 278.55600,272.83700 288.63300,255.38300 298.71000,237.92900 318.86400,237.92900 339.01800,237.92900 349.09500,255.38300 359.17200,272.83700 "
         style="fill:#ffff00;fill-opacity:0.75000000;fill-rule:evenodd;stroke:#000000;stroke-width:1.0000000pt" />
      <text
         id="text17t12"
         pointer-events="none"
         style="font-size:18.000000;fill:#000000;font-family:Lucida Sans Unicode;text-anchor:middle"
         x="319"
         y="278">la♭</text>
    </g>
    <g
       inkscape:export-ydpi="90.000000"
       inkscape:export-xdpi="90.000000"
       inkscape:export-filename="/home/bobuss/these/papier/ICMC2005/gamme.png"
       id="id17t13"
       idx="17"
       idy="13"
       noteNumber="0"
       onmouseover="Hmouseover(evt)"
       transform="translate(-131.2926,-175.2457)">
      <polygon
         id="polygon17t13"
         points="359.17200,272.83700 349.09500,290.29100 339.01800,307.74400 318.86400,307.74400 298.71000,307.74400 288.63300,290.29100 278.55600,272.83700 288.63300,255.38300 298.71000,237.92900 318.86400,237.92900 339.01800,237.92900 349.09500,255.38300 359.17200,272.83700 "
         style="fill:#ffff00;fill-opacity:0.75000000;fill-rule:evenodd;stroke:#000000;stroke-width:1.0000000pt" />
      <text
         id="text17t13"
         pointer-events="none"
         style="font-size:18.000000;fill:#000000;font-family:Lucida Sans Unicode;text-anchor:middle"
         x="319"
         y="278">do</text>
    </g>
    <g
       inkscape:export-ydpi="90.000000"
       inkscape:export-xdpi="90.000000"
       inkscape:export-filename="/home/bobuss/these/papier/ICMC2005/gamme.png"
       id="id17t14"
       idx="17"
       idy="14"
       noteNumber="4"
       onmouseover="Hmouseover(evt)"
       transform="translate(-70.29253,-210.6457)">
      <polygon
         id="polygon17t14"
         points="359.17200,272.83700 349.09500,290.29100 339.01800,307.74400 318.86400,307.74400 298.71000,307.74400 288.63300,290.29100 278.55600,272.83700 288.63300,255.38300 298.71000,237.92900 318.86400,237.92900 339.01800,237.92900 349.09500,255.38300 359.17200,272.83700 "
         style="fill:#ffff00;fill-opacity:0.75000000;fill-rule:evenodd;stroke:#000000;stroke-width:1.0000000pt" />
      <text
         id="text17t14"
         pointer-events="none"
         style="font-size:18.000000;fill:#000000;font-family:Lucida Sans Unicode;text-anchor:middle"
         x="319"
         y="278">mi</text>
    </g>
    <g
       inkscape:export-ydpi="90.000000"
       inkscape:export-xdpi="90.000000"
       inkscape:export-filename="/home/bobuss/these/papier/ICMC2005/gamme.png"
       id="id18t12"
       idx="18"
       idy="12"
       noteNumber="11"
       onmouseover="Hmouseover(evt)"
       transform="translate(-253.2926,-175.2457)">
      <polygon
         id="polygon18t12"
         points="359.17200,272.83700 349.09500,290.29100 339.01800,307.74400 318.86400,307.74400 298.71000,307.74400 288.63300,290.29100 278.55600,272.83700 288.63300,255.38300 298.71000,237.92900 318.86400,237.92900 339.01800,237.92900 349.09500,255.38300 359.17200,272.83700 "
         style="fill:#ffff00;fill-opacity:0.75000000;fill-rule:evenodd;stroke:#000000;stroke-width:1.0000000pt" />
      <text
         id="text18t12"
         pointer-events="none"
         style="font-size:18.000000;fill:#000000;font-family:Lucida Sans Unicode;text-anchor:middle"
         x="319"
         y="278">si</text>
    </g>
    <g
       inkscape:export-ydpi="90.000000"
       inkscape:export-xdpi="90.000000"
       inkscape:export-filename="/home/bobuss/these/papier/ICMC2005/gamme.png"
       id="id18t13"
       idx="18"
       idy="13"
       noteNumber="3"
       onmouseover="Hmouseover(evt)"
       transform="translate(-192.2926,-210.6457)">
      <polygon
         id="polygon18t13"
         points="359.17200,272.83700 349.09500,290.29100 339.01800,307.74400 318.86400,307.74400 298.71000,307.74400 288.63300,290.29100 278.55600,272.83700 288.63300,255.38300 298.71000,237.92900 318.86400,237.92900 339.01800,237.92900 349.09500,255.38300 359.17200,272.83700 "
         style="fill:#ffff00;fill-opacity:0.75000000;fill-rule:evenodd;stroke:#000000;stroke-width:1.0000000pt" />
      <text
         id="text18t13"
         pointer-events="none"
         style="font-size:18.000000;fill:#000000;font-family:Lucida Sans Unicode;text-anchor:middle"
         x="319"
         y="278">mi♭</text>
    </g>
  </g>
</svg>
