<?xml version="1.0" encoding="UTF-8" standalone="no"?>
<!-- Created with Inkscape (http://www.inkscape.org/) -->
<svg
   xmlns:dc="http://purl.org/dc/elements/1.1/"
   xmlns:cc="http://web.resource.org/cc/"
   xmlns:rdf="http://www.w3.org/1999/02/22-rdf-syntax-ns#"
   xmlns:svg="http://www.w3.org/2000/svg"
   xmlns="http://www.w3.org/2000/svg"
   xmlns:sodipodi="http://inkscape.sourceforge.net/DTD/sodipodi-0.dtd"
   xmlns:inkscape="http://www.inkscape.org/namespaces/inkscape"
   sodipodi:docname="noteSeuleNoire.svg"
   sodipodi:docbase="/home/bobuss/these/papier/icmc2005"
   inkscape:version="0.41"
   sodipodi:version="0.32"
   id="svg4738"
   height="297mm"
   width="210mm">
  <defs
     id="defs3" />
  <sodipodi:namedview
     inkscape:window-y="64"
     inkscape:window-x="32"
     inkscape:window-height="542"
     inkscape:window-width="640"
     inkscape:current-layer="layer1"
     inkscape:document-units="px"
     inkscape:cy="520.00000"
     inkscape:cx="375.00000"
     inkscape:zoom="0.35000000"
     inkscape:pageshadow="2"
     inkscape:pageopacity="0.0"
     borderopacity="1.0"
     bordercolor="#666666"
     pagecolor="#ffffff"
     id="base" />
  <metadata
     id="metadata4">
    <rdf:RDF
       id="RDF5">
      <cc:Work
         id="Work6"
         rdf:about="">
        <dc:format
           id="format7">image/svg+xml</dc:format>
        <dc:type
           rdf:resource="http://purl.org/dc/dcmitype/StillImage"
           id="type9" />
      </cc:Work>
    </rdf:RDF>
  </metadata>
  <g
     id="layer1"
     inkscape:groupmode="layer"
     inkscape:label="Layer 1">
    <rect
       inkscape:export-ydpi="90.000000"
       inkscape:export-xdpi="90.000000"
       inkscape:export-filename="/home/bobuss/these/papier/icmc2005/noteNoire.png"
       y="135.76477"
       x="17.018789"
       height="336.05212"
       width="628.81952"
       id="rect2325"
       style="stroke-opacity:1.0000000;stroke-dashoffset:0.0000000;stroke-miterlimit:4.0000000;stroke-linejoin:miter;stroke-linecap:butt;stroke-width:5.7770605;stroke:none;fill-rule:nonzero;fill-opacity:1.0000000;fill:#ffffff;opacity:1.0000000" />
    <path
       inkscape:export-ydpi="90.000000"
       inkscape:export-xdpi="90.000000"
       inkscape:export-filename="/home/bobuss/these/papier/icmc2005/noteNoire.png"
       id="path1548"
       d="M 99.675259,405.84397 C 85.674772,398.72823 82.516575,376.19275 94.788112,370.97131 C 102.27300,367.78653 109.88388,373.54753 109.88388,382.39784 C 109.88388,388.66378 106.00398,393.67393 101.15160,393.67393 C 96.692133,393.67393 96.915683,395.58744 101.92640,400.30594 C 109.20938,407.16424 119.09711,404.50194 124.81823,394.14214 C 127.32182,389.60867 128.02646,385.82697 128.46677,374.56052 L 129.01246,360.59745 L 93.251244,360.59745 C 70.306036,360.59745 57.490029,360.05863 57.490029,359.09395 C 57.490029,358.15318 66.163085,357.55738 80.664244,357.50208 C 99.176552,357.43145 103.31568,357.05339 101.23980,355.62272 C 94.756450,351.15461 87.035072,341.80386 84.795228,335.70810 L 82.343525,329.03570 L 69.916777,329.03006 C 62.531278,329.02672 57.490029,328.41450 57.490029,327.52094 C 57.490029,326.63315 62.304016,326.01744 69.245076,326.01744 L 81.000095,326.01744 L 81.000095,316.62075 C 81.000095,311.45257 81.438412,305.02516 81.974100,302.33771 L 82.948078,297.45139 L 70.219081,297.45139 C 62.628676,297.45139 57.490029,296.84447 57.490029,295.94792 C 57.490029,295.04607 62.854663,294.44442 70.897071,294.44442 L 84.304084,294.44442 L 86.907674,288.80640 C 88.339610,285.70546 91.679195,279.78555 94.328908,275.65099 L 99.146579,268.13360 L 78.318332,267.71957 C 49.845301,267.15350 50.762630,264.37491 79.422506,264.37491 C 100.68259,264.37491 101.44554,264.26702 104.30941,260.85542 C 107.25406,257.34757 107.25619,257.30034 104.95557,246.57235 L 102.64725,235.80885 L 80.068666,235.80885 C 65.911889,235.80885 57.490029,235.24805 57.490029,234.30536 C 57.490029,233.36453 65.684572,232.80189 79.386799,232.80189 L 101.28354,232.80189 L 101.21758,215.13602 C 101.15683,198.88052 101.44288,196.80634 104.80055,189.15525 C 106.80746,184.58202 110.27954,178.87812 112.51622,176.47995 L 116.58297,172.11961 L 119.82197,175.52500 C 128.36829,184.51034 136.42560,212.25749 134.29607,225.36971 L 133.08904,232.80189 L 366.66283,232.80189 C 521.48309,232.80189 600.23661,233.30884 600.23661,234.30536 C 600.23661,235.30193 521.24658,235.80885 365.95337,235.80885 L 131.67012,235.80885 L 130.85404,239.44776 C 130.40514,241.44917 127.31692,247.62781 123.99124,253.17816 C 120.66550,258.72845 117.94449,263.57350 117.94449,263.94488 C 117.94449,264.31629 142.88195,264.50442 173.36108,264.36292 C 340.92184,263.58486 600.23661,264.50551 600.23661,265.87837 C 600.23661,266.87329 538.90006,267.38187 418.91379,267.38187 L 237.59095,267.38187 L 240.90903,272.85381 C 244.70032,279.10616 245.17983,286.23928 242.13579,291.10292 L 240.04448,294.44442 L 420.14055,294.44442 C 539.30899,294.44442 600.23661,294.95312 600.23661,295.94792 C 600.23661,296.94326 534.85625,297.45139 406.78242,297.45139 L 213.32815,297.45139 L 213.32815,307.97573 C 213.32815,322.35465 216.25208,325.65230 228.01258,324.53723 C 233.13594,324.05151 237.13338,320.31999 240.25071,313.11338 C 241.83068,309.46077 243.71471,306.47227 244.43749,306.47227 C 247.39020,306.47227 240.56775,321.73598 236.39796,324.45898 C 234.89217,325.44224 244.92251,325.94112 266.81637,325.97175 L 299.48133,326.01744 L 303.04463,321.27819 C 311.45879,310.08729 331.41212,306.87630 345.29698,314.47880 C 349.29899,316.67009 353.38617,320.16267 354.37965,322.24019 L 356.18603,326.01744 L 478.21131,326.01744 C 558.66591,326.01744 600.23661,326.52966 600.23661,327.52094 C 600.23661,328.51221 558.66591,329.02443 478.21131,329.02443 L 356.18603,329.02443 L 354.46522,332.62283 C 353.51878,334.60195 350.12230,337.83502 346.91745,339.80739 L 341.09051,343.39350 L 346.89033,346.83686 C 350.08019,348.73068 353.47673,351.92499 354.43810,353.93534 L 356.18603,357.59045 L 478.21131,357.59045 C 558.66591,357.59045 600.23661,358.10267 600.23661,359.09395 C 600.23661,360.08523 558.66591,360.59745 478.21131,360.59745 L 356.18603,360.59745 L 354.43810,364.25259 C 353.47673,366.26291 350.09266,369.44984 346.91795,371.33465 L 341.14577,374.76160 L 346.75958,378.32551 C 349.84717,380.28563 352.85689,382.84949 353.44775,384.02299 C 354.10544,385.32914 356.71041,386.16548 360.16490,386.17955 C 366.88643,386.20699 369.86174,387.97370 368.73253,391.26701 C 368.15077,392.96361 366.18221,393.67393 362.06189,393.67393 C 357.44899,393.67393 355.57948,394.49391 353.19509,397.56286 C 342.72411,411.04025 314.48981,411.08221 303.43982,397.63689 C 300.78479,394.40632 298.98484,393.67393 293.69993,393.67393 C 288.23471,393.67393 287.21697,393.22713 287.21697,390.82787 C 287.21697,387.41920 289.73230,386.15657 296.52264,386.15657 C 299.99702,386.15657 302.37875,385.14963 304.13750,382.93726 C 305.54509,381.16663 308.93343,378.58403 311.66716,377.19806 L 316.63757,374.67820 L 312.09500,372.83989 C 309.59665,371.82886 305.71595,368.66070 303.47120,365.79952 L 299.38991,360.59745 L 216.05609,360.59745 L 132.72227,360.59745 L 132.72227,372.40093 C 132.72227,385.59712 131.19593,392.11688 126.42181,399.31355 C 120.13502,408.79060 110.23078,411.20877 99.675259,405.84397 z M 338.18941,399.39725 C 339.30125,397.17006 339.84766,394.94131 339.40358,394.44436 C 338.95956,393.94741 333.83703,393.73992 328.02020,393.98326 L 317.44415,394.42569 L 321.78935,399.40418 C 325.42337,403.56783 326.95551,404.30598 331.15117,403.91457 C 334.96481,403.55877 336.65257,402.47554 338.18941,399.39725 z M 334.55176,381.60205 C 329.02199,375.97273 321.99819,375.46912 318.86376,380.47722 C 317.71355,382.31498 316.77245,384.34468 316.77245,384.98761 C 316.77245,385.63052 321.75996,386.13675 327.85577,386.11247 L 338.93909,386.06841 L 334.55176,381.60205 z M 337.51948,369.28376 C 338.66972,367.44596 339.61079,364.73969 339.61079,363.26986 C 339.61079,360.93166 338.26672,360.59745 328.86332,360.59745 C 322.08221,360.59745 318.11591,361.19499 318.11591,362.21654 C 318.11591,363.10710 319.88303,365.81334 322.04285,368.23049 C 327.04786,373.83174 334.36156,374.32950 337.51948,369.28376 z M 303.03347,352.86609 C 304.98713,350.26770 308.84728,347.00852 311.61159,345.62348 L 316.63757,343.10519 L 312.09500,341.26688 C 309.59665,340.25584 305.71595,337.08765 303.47120,334.22650 L 299.38991,329.02443 L 225.60963,329.02443 L 151.82933,329.02443 L 150.97627,334.11343 C 149.88436,340.62716 143.68966,350.96609 138.65185,354.68274 C 134.76909,357.54729 135.40481,357.57073 217.10935,357.58054 L 299.48133,357.59045 L 303.03347,352.86609 z M 338.26736,355.46893 C 338.26736,351.69909 330.34493,345.56270 325.47789,345.56270 C 320.68471,345.56270 316.77245,349.76702 316.77245,354.91807 C 316.77245,357.25630 318.11655,357.59045 327.51989,357.59045 C 335.87671,357.59045 338.26736,357.11854 338.26736,355.46893 z M 128.47796,353.82077 C 128.78514,353.47692 128.28051,347.75715 127.35659,341.11004 L 125.67661,329.02443 L 116.43684,329.02443 C 111.35493,329.02443 107.19702,329.59228 107.19702,330.28633 C 107.19702,330.98036 109.32996,333.72037 111.93691,336.37525 C 114.54382,339.03011 116.33809,341.81551 115.92418,342.56505 C 114.30481,345.49734 104.76681,338.93831 101.88397,332.90999 C 100.31815,329.63568 99.096274,329.02443 94.116854,329.02443 C 88.617066,329.02443 88.270467,329.25867 89.111119,332.40723 C 93.121907,347.42935 107.50691,357.20631 122.59606,355.16571 C 125.52392,354.76979 128.17073,354.16453 128.47796,353.82077 z M 140.64246,345.78330 C 142.14578,343.42057 143.77645,338.68325 144.26615,335.25594 L 145.15655,329.02443 L 137.45033,329.02443 C 130.08793,329.02443 129.77859,329.17816 130.51686,332.47006 C 130.94185,334.36517 131.69262,339.75317 132.18517,344.44341 C 132.98391,352.04914 133.34178,352.81482 135.49495,351.52518 C 136.82276,350.72989 139.13911,348.14606 140.64246,345.78330 z M 337.51948,337.71074 C 338.66972,335.87295 339.61079,333.16667 339.61079,331.69685 C 339.61079,329.35864 338.26672,329.02443 328.86332,329.02443 C 322.08221,329.02443 318.11591,329.62198 318.11591,330.64353 C 318.11591,331.53408 319.88303,334.24033 322.04285,336.65748 C 327.04786,342.25870 334.36156,342.75649 337.51948,337.71074 z M 99.136468,319.95527 C 99.136468,312.03912 101.93524,304.76766 106.54369,300.71081 L 110.24627,297.45139 L 102.84163,297.45139 L 95.436987,297.45139 L 92.564473,304.92435 C 90.984585,309.03445 89.316579,315.46180 88.857846,319.20739 L 88.023787,326.01744 L 93.580114,326.01744 L 99.136468,326.01744 L 99.136468,319.95527 z M 124.66166,324.42804 C 124.66166,321.09323 121.59352,309.39297 120.52525,308.65406 C 118.61951,307.33596 110.35112,311.98313 108.04435,315.66884 C 106.83942,317.59402 105.85359,320.71001 105.85359,322.59332 C 105.85359,325.83039 106.36728,326.01744 115.25763,326.01744 C 120.97047,326.01744 124.66166,325.39360 124.66166,324.42804 z M 143.46085,324.88987 C 143.44154,322.42877 138.17486,315.00897 134.54757,312.33264 C 129.57022,308.66024 125.57728,308.54958 126.52247,312.11029 C 126.90663,313.55741 127.63548,316.77108 128.14217,319.25181 C 128.64885,321.73255 129.31781,324.26967 129.62870,324.88987 C 130.36680,326.36225 143.47243,326.36225 143.46085,324.88987 z M 206.09858,321.46183 C 201.69341,317.13330 197.20699,306.40043 197.20699,300.19055 C 197.20699,297.62057 195.31056,297.45139 166.49999,297.45139 L 135.79296,297.45139 L 142.25515,304.68345 C 146.81376,309.78516 149.21377,313.99258 150.40249,318.96649 L 152.08756,326.01744 L 181.41119,326.01744 L 210.73481,326.01744 L 206.09858,321.46183 z M 338.26736,323.89591 C 338.26736,320.12608 330.34493,313.98963 325.47789,313.98963 C 320.68471,313.98963 316.77245,318.19400 316.77245,323.34505 C 316.77245,325.68323 318.11655,326.01744 327.51989,326.01744 C 335.87671,326.01744 338.26736,325.54552 338.26736,323.89591 z M 114.89230,283.92011 C 113.38350,278.13172 111.75596,273.39576 111.27554,273.39576 C 110.30516,273.39576 97.793038,292.08028 97.793038,293.52941 C 97.793038,294.03266 102.25757,294.44442 107.71429,294.44442 L 117.63559,294.44442 L 114.89230,283.92011 z M 197.20699,291.62656 C 197.20699,286.43858 201.30510,275.73629 204.89942,271.53775 L 208.45713,267.38187 L 161.85739,267.38187 C 136.22751,267.38187 115.25763,267.85439 115.25763,268.43188 C 115.25763,269.00940 116.78843,275.09847 118.65938,281.96319 L 122.06118,294.44442 L 159.63406,294.44442 C 195.47123,294.44442 197.20699,294.31428 197.20699,291.62656 z M 229.44937,291.43752 C 225.85493,287.41483 225.96590,279.80070 229.68355,275.37202 C 231.29015,273.45817 233.55717,271.87079 234.72145,271.84449 C 236.43550,271.80573 236.34206,271.37667 234.23050,269.58926 C 232.77707,268.35899 228.76296,267.38187 225.16231,267.38187 C 215.60237,267.38187 213.32815,270.56009 213.32815,283.92011 L 213.32815,294.44442 L 222.73219,294.44442 C 232.13623,294.44442 232.13623,294.44442 229.44937,291.43752 z M 115.98376,243.22973 C 117.80105,240.00799 119.28792,237.02033 119.28792,236.59046 C 119.28792,236.16056 116.56748,235.80885 113.24250,235.80885 C 109.91748,235.80885 107.19702,236.18583 107.19702,236.64652 C 107.19702,240.40605 110.45505,250.62601 111.43704,249.94681 C 112.12048,249.47410 114.16650,246.45145 115.98376,243.22973 z M 124.02010,225.18288 C 126.62959,216.39052 126.40109,195.05676 123.66464,191.99432 C 119.75748,187.62169 109.28387,204.67369 107.01234,219.10570 C 105.02369,231.74040 105.59899,232.80189 114.43579,232.80189 L 121.75885,232.80189 L 124.02010,225.18288 z "
       style="fill:#000000;fill-opacity:1.0000000" />
  </g>
</svg>
