<?xml version="1.0" encoding="UTF-8" standalone="no"?>
<!-- Created with Inkscape (http://www.inkscape.org/) -->
<svg
   xmlns:dc="http://purl.org/dc/elements/1.1/"
   xmlns:cc="http://web.resource.org/cc/"
   xmlns:rdf="http://www.w3.org/1999/02/22-rdf-syntax-ns#"
   xmlns:svg="http://www.w3.org/2000/svg"
   xmlns="http://www.w3.org/2000/svg"
   xmlns:sodipodi="http://inkscape.sourceforge.net/DTD/sodipodi-0.dtd"
   xmlns:inkscape="http://www.inkscape.org/namespaces/inkscape"
   sodipodi:docname="organistation.svg"
   sodipodi:docbase="/home/bobuss/these/manuscrit2/svg"
   inkscape:version="0.43"
   sodipodi:version="0.32"
   id="svg2"
   height="297mm"
   width="210mm">
  <defs
     id="defs3">
    <marker
       inkscape:stockid="Arrow2Lstart"
       orient="auto"
       refY="0.0"
       refX="0.0"
       id="Arrow2Lstart"
       style="overflow:visible">
      <path
         sodipodi:nodetypes="cccc"
         id="path2346"
         style="font-size:12.0;fill-rule:evenodd;stroke-width:0.62500000;stroke-linejoin:round"
         d="M 8.7185878,4.0337352 L -2.2072895,0.016013256 L 8.7185884,-4.0017078 C 6.9730900,-1.6296469 6.9831476,1.6157441 8.7185878,4.0337352 z "
         transform="scale(1.1) translate(-5,0)" />
    </marker>
    <marker
       inkscape:stockid="TriangleInL"
       orient="auto"
       refY="0.0"
       refX="0.0"
       id="TriangleInL"
       style="overflow:visible">
      <path
         sodipodi:nodetypes="cccc"
         id="path2299"
         d="M 5.77,0.0 L -2.88,5.0 L -2.88,-5.0 L 5.77,0.0 z "
         style="fill-rule:evenodd;stroke:#000000;stroke-width:1.0pt;marker-start:none"
         transform="scale(-0.8)" />
    </marker>
    <marker
       inkscape:stockid="DistanceIn"
       orient="auto"
       refY="0.0"
       refX="0.0"
       id="DistanceIn"
       style="overflow:visible">
      <g
         transform="scale(0.6,0.6) translate(8,0)"
         id="g987">
        <path
           sodipodi:nodetypes="ccccc"
           id="path974"
           d="M 0.0,0.0 L 5.0,-5.0 L -12.5,0.0 L 5.0,5.0 L 0.0,0.0 z "
           style="fill-rule:evenodd;stroke:#000000;stroke-width:1.0pt;marker-start:none" />
        <path
           id="path976"
           d="M -14.759949,-7 L -14.759949,65"
           style="fill:none;fill-opacity:0.75000000;fill-rule:evenodd;stroke:#000000;stroke-width:1.2pt;marker-start:none" />
      </g>
    </marker>
    <marker
       inkscape:stockid="Arrow2Lend"
       orient="auto"
       refY="0.0"
       refX="0.0"
       id="Arrow2Lend"
       style="overflow:visible;">
      <path
         sodipodi:nodetypes="cccc"
         id="path2355"
         style="font-size:12.0;fill-rule:evenodd;stroke-width:0.62500000;stroke-linejoin:round;"
         d="M 8.7185878,4.0337352 L -2.2072895,0.016013256 L 8.7185884,-4.0017078 C 6.9730900,-1.6296469 6.9831476,1.6157441 8.7185878,4.0337352 z "
         transform="scale(1.1) rotate(180) translate(-5,0)" />
    </marker>
    <marker
       inkscape:stockid="Arrow1Lstart"
       orient="auto"
       refY="0.0"
       refX="0.0"
       id="Arrow1Lstart"
       style="overflow:visible">
      <path
         sodipodi:nodetypes="ccccc"
         id="path2363"
         d="M 0.0,0.0 L 5.0,-5.0 L -12.5,0.0 L 5.0,5.0 L 0.0,0.0 z "
         style="fill-rule:evenodd;stroke:#000000;stroke-width:1.0pt;marker-start:none"
         transform="scale(0.8)" />
    </marker>
  </defs>
  <sodipodi:namedview
     guidetolerance="1.4000000px"
     inkscape:guide-points="true"
     inkscape:window-y="30"
     inkscape:window-x="1342"
     inkscape:window-height="583"
     inkscape:window-width="864"
     showgrid="true"
     showborder="false"
     inkscape:current-layer="layer1"
     inkscape:document-units="px"
     inkscape:cy="630.54774"
     inkscape:cx="339.19053"
     inkscape:zoom="2.8284272"
     inkscape:pageshadow="2"
     inkscape:pageopacity="0.0"
     borderopacity="1.0"
     bordercolor="#666666"
     pagecolor="#ffffff"
     id="base" />
  <metadata
     id="metadata4">
    <rdf:RDF>
      <cc:Work
         rdf:about="">
        <dc:format>image/svg+xml</dc:format>
        <dc:type
           rdf:resource="http://purl.org/dc/dcmitype/StillImage" />
      </cc:Work>
    </rdf:RDF>
  </metadata>
  <g
     id="layer1"
     inkscape:groupmode="layer"
     inkscape:label="Layer 1">
    <rect
       inkscape:export-ydpi="90.000000"
       inkscape:export-xdpi="90.000000"
       inkscape:export-filename="/home/bobuss/these/papier/icmc2005/organisation.png"
       y="78.362183"
       x="-48.000000"
       height="645.00000"
       width="866.56561"
       id="rect17175"
       style="fill:#ffffff;fill-opacity:1.0000000;stroke:none;stroke-width:1.8000000;stroke-miterlimit:4.0000000;stroke-dasharray:5.4000000 5.4000000 ;stroke-dashoffset:0.0000000;stroke-opacity:1.0000000" />
    <rect
       inkscape:export-ydpi="90.000000"
       inkscape:export-xdpi="90.000000"
       inkscape:export-filename="/home/bobuss/these/papier/icmc2005/organisation.png"
       y="165.47421"
       x="-20.588270"
       height="459.79083"
       width="827.63397"
       id="rect6351"
       style="fill:#ffffff;fill-opacity:0.0000000;fill-rule:evenodd;stroke:#000000;stroke-width:2.7656889;stroke-linecap:butt;stroke-linejoin:miter;stroke-miterlimit:4.0000000;stroke-opacity:1.0000000" />
    <g
       id="g1517"
       transform="translate(-4.285714,45.58831)">
      <path
         id="path1548"
         d="M 40.695600,380.09000 C 35.641510,377.66286 34.501420,369.97614 38.931370,368.19514 C 41.633370,367.10883 44.380850,369.07388 44.380850,372.09266 C 44.380850,374.22994 42.980230,375.93887 41.228550,375.93887 C 39.618710,375.93887 39.699410,376.59156 41.508250,378.20101 C 44.137360,380.54033 47.706770,379.63224 49.772060,376.09857 C 50.675840,374.55223 50.930210,373.26232 51.089160,369.41940 L 51.286150,364.65668 L 38.376570,364.65668 C 30.093490,364.65668 25.466990,364.47289 25.466990,364.14385 C 25.466990,363.82296 28.597910,363.61973 33.832740,363.60087 C 40.515570,363.57678 42.009770,363.44782 41.260390,362.95983 C 38.919940,361.43579 36.132570,358.24630 35.324000,356.16707 L 34.438950,353.89116 L 29.952970,353.88924 C 27.286850,353.88809 25.466990,353.67927 25.466990,353.37448 C 25.466990,353.07166 27.204810,352.86165 29.710490,352.86165 L 33.953980,352.86165 L 33.953980,349.65649 C 33.953980,347.89366 34.112210,345.70131 34.305590,344.78463 L 34.657190,343.11794 L 30.062100,343.11794 C 27.322010,343.11794 25.466990,342.91092 25.466990,342.60512 C 25.466990,342.29750 27.403590,342.09228 30.306850,342.09228 L 35.146700,342.09228 L 36.086580,340.16919 C 36.603500,339.11148 37.809070,337.09223 38.765600,335.68195 L 40.504750,333.11782 L 32.985880,332.97660 C 22.707290,332.78351 23.038440,331.83575 33.384480,331.83575 C 41.059240,331.83575 41.334660,331.79895 42.368500,330.63528 C 43.431500,329.43877 43.432270,329.42266 42.601760,325.76341 L 41.768470,322.09204 L 33.617740,322.09204 C 28.507230,322.09204 25.466990,321.90075 25.466990,321.57921 C 25.466990,321.25830 28.425170,321.06638 33.371590,321.06638 L 41.276180,321.06638 L 41.252370,315.04066 C 41.230440,309.49601 41.333700,308.78852 42.545800,306.17878 C 43.270280,304.61888 44.523680,302.67331 45.331110,301.85531 L 46.799180,300.36802 L 47.968440,301.52958 C 51.053610,304.59443 53.962250,314.05881 53.193500,318.53131 L 52.757770,321.06638 L 137.07648,321.06638 C 192.96565,321.06638 221.39519,321.23930 221.39519,321.57921 C 221.39519,321.91913 192.88027,322.09204 136.82037,322.09204 L 52.245550,322.09204 L 51.950950,323.33325 C 51.788900,324.01592 50.674070,326.12342 49.473520,328.01661 C 48.272950,329.90978 47.290680,331.56240 47.290680,331.68907 C 47.290680,331.81576 56.292950,331.87993 67.295730,331.83166 C 127.78414,331.56627 221.39519,331.88030 221.39519,332.34857 C 221.39519,332.68793 199.25307,332.86141 155.93876,332.86141 L 90.482320,332.86141 L 91.680130,334.72785 C 93.048760,336.86049 93.221860,339.29356 92.122980,340.95252 L 91.368030,342.09228 L 156.38161,342.09228 C 199.40069,342.09228 221.39519,342.26579 221.39519,342.60512 C 221.39519,342.94462 197.79328,343.11794 151.55941,343.11794 L 81.723600,343.11794 L 81.723600,346.70773 C 81.723600,351.61229 82.779120,352.73710 87.024590,352.35676 C 88.874090,352.19108 90.317140,350.91828 91.442480,348.46015 C 92.012840,347.21427 92.692960,346.19491 92.953880,346.19491 C 94.019790,346.19491 91.556930,351.40127 90.051660,352.33006 C 89.508080,352.66545 93.128970,352.83561 101.03252,352.84606 L 112.82437,352.86165 L 114.11070,351.24512 C 117.14816,347.42797 124.35119,346.33272 129.36354,348.92589 C 130.80824,349.67332 132.28369,350.86462 132.64233,351.57325 L 133.29442,352.86165 L 177.34480,352.86165 C 206.38842,352.86165 221.39519,353.03636 221.39519,353.37448 C 221.39519,353.71260 206.38842,353.88731 177.34480,353.88731 L 133.29442,353.88731 L 132.67322,355.11471 C 132.33156,355.78977 131.10545,356.89255 129.94852,357.56532 L 127.84503,358.78852 L 129.93873,359.96303 C 131.09025,360.60900 132.31638,361.69856 132.66343,362.38428 L 133.29442,363.63101 L 177.34480,363.63101 C 206.38842,363.63101 221.39519,363.80573 221.39519,364.14385 C 221.39519,364.48196 206.38842,364.65668 177.34480,364.65668 L 133.29442,364.65668 L 132.66343,365.90343 C 132.31638,366.58914 131.09475,367.67618 129.94870,368.31908 L 127.86498,369.48799 L 129.89153,370.70362 C 131.00613,371.37220 132.09262,372.24672 132.30592,372.64699 C 132.54334,373.09251 133.48372,373.37778 134.73077,373.38258 C 137.15720,373.39194 138.23127,373.99456 137.82363,375.11788 C 137.61362,375.69658 136.90298,375.93887 135.41557,375.93887 C 133.75034,375.93887 133.07546,376.21856 132.21471,377.26536 C 128.43475,381.86242 118.24234,381.87673 114.25336,377.29061 C 113.29491,376.18868 112.64514,375.93887 110.73732,375.93887 C 108.76441,375.93887 108.39701,375.78647 108.39701,374.96809 C 108.39701,373.80542 109.30503,373.37474 111.75630,373.37474 C 113.01053,373.37474 113.87032,373.03128 114.50522,372.27666 C 115.01335,371.67271 116.23652,370.79180 117.22338,370.31905 L 119.01767,369.45954 L 117.37783,368.83250 C 116.47594,368.48765 115.07503,367.40701 114.26469,366.43107 L 112.79137,364.65668 L 82.708370,364.65668 L 52.625370,364.65668 L 52.625370,368.68278 C 52.625370,373.18392 52.074370,375.40777 50.350940,377.86251 C 48.081450,381.09507 44.506080,381.91990 40.695600,380.09000 z M 126.79775,377.89106 C 127.19912,377.13138 127.39637,376.37117 127.23606,376.20166 C 127.07577,376.03215 125.22657,375.96138 123.12673,376.04438 L 119.30884,376.19529 L 120.87743,377.89342 C 122.18929,379.31362 122.74238,379.56540 124.25699,379.43189 C 125.63369,379.31053 126.24296,378.94104 126.79775,377.89106 z M 125.48458,371.82122 C 123.48837,369.90109 120.95282,369.72932 119.82131,371.43755 C 119.40609,372.06440 119.06636,372.75672 119.06636,372.97602 C 119.06636,373.19531 120.86682,373.36798 123.06737,373.35970 L 127.06838,373.34467 L 125.48458,371.82122 z M 126.55591,367.61953 C 126.97114,366.99267 127.31086,366.06957 127.31086,365.56823 C 127.31086,364.77068 126.82566,364.65668 123.43109,364.65668 C 120.98315,364.65668 119.55134,364.86050 119.55134,365.20894 C 119.55134,365.51271 120.18926,366.43579 120.96894,367.26027 C 122.77572,369.17082 125.41592,369.34060 126.55591,367.61953 z M 114.10667,362.01956 C 114.81193,361.13327 116.20542,360.02158 117.20332,359.54915 L 119.01767,358.69018 L 117.37783,358.06314 C 116.47594,357.71828 115.07503,356.63763 114.26469,355.66171 L 112.79137,353.88731 L 86.157140,353.88731 L 59.522900,353.88731 L 59.214950,355.62314 C 58.820780,357.84494 56.584530,361.37148 54.765910,362.63921 C 53.364260,363.61629 53.593750,363.62428 83.088590,363.62763 L 112.82437,363.63101 L 114.10667,362.01956 z M 126.82589,362.90737 C 126.82589,361.62150 123.96594,359.52842 122.20897,359.52842 C 120.47866,359.52842 119.06636,360.96249 119.06636,362.71948 C 119.06636,363.51704 119.55157,363.63101 122.94612,363.63101 C 125.96288,363.63101 126.82589,363.47004 126.82589,362.90737 z M 51.093200,362.34520 C 51.204090,362.22791 51.021920,360.27693 50.688390,358.00964 L 50.081930,353.88731 L 46.746430,353.88731 C 44.911890,353.88731 43.410910,354.08100 43.410910,354.31774 C 43.410910,354.55447 44.180890,355.48907 45.121980,356.39464 C 46.063060,357.30019 46.710780,358.25028 46.561360,358.50594 C 45.976780,359.50612 42.533620,357.26888 41.492930,355.21265 C 40.927680,354.09581 40.486590,353.88731 38.689050,353.88731 C 36.703660,353.88731 36.578540,353.96721 36.882010,355.04117 C 38.329880,360.16512 43.522780,363.49998 48.969870,362.80395 C 50.026810,362.66890 50.982290,362.46245 51.093200,362.34520 z M 55.484510,359.60366 C 56.027200,358.79775 56.615860,357.18188 56.792640,356.01284 L 57.114070,353.88731 L 54.332170,353.88731 C 51.674390,353.88731 51.562720,353.93975 51.829230,355.06260 C 51.982650,355.70901 52.253670,357.54682 52.431480,359.14664 C 52.719820,361.74091 52.849010,362.00207 53.626290,361.56218 C 54.105620,361.29092 54.941810,360.40959 55.484510,359.60366 z M 126.55591,356.85016 C 126.97114,356.22330 127.31086,355.30021 127.31086,354.79886 C 127.31086,354.00131 126.82566,353.88731 123.43109,353.88731 C 120.98315,353.88731 119.55134,354.09113 119.55134,354.43958 C 119.55134,354.74334 120.18926,355.66642 120.96894,356.49090 C 122.77572,358.40144 125.41592,358.57124 126.55591,356.85016 z M 40.501100,350.79388 C 40.501100,348.09373 41.511440,345.61348 43.175060,344.22971 L 44.511670,343.11794 L 41.838640,343.11794 L 39.165610,343.11794 L 38.128650,345.66692 C 37.558320,347.06885 36.956180,349.26118 36.790580,350.53878 L 36.489490,352.86165 L 38.495290,352.86165 L 40.501100,352.86165 L 40.501100,350.79388 z M 49.715540,352.31951 C 49.715540,351.18203 48.607960,347.19114 48.222320,346.93910 C 47.534360,346.48951 44.549520,348.07463 43.716790,349.33180 C 43.281820,349.98847 42.925940,351.05132 42.925940,351.69370 C 42.925940,352.79785 43.111380,352.86165 46.320740,352.86165 C 48.383040,352.86165 49.715540,352.64886 49.715540,352.31951 z M 56.501930,352.47704 C 56.494960,351.63757 54.593720,349.10673 53.284290,348.19384 C 51.487500,346.94121 50.046070,346.90347 50.387280,348.11800 C 50.525960,348.61160 50.789070,349.70777 50.971980,350.55393 C 51.154890,351.40010 51.396380,352.26549 51.508610,352.47704 C 51.775060,352.97926 56.506110,352.97926 56.501930,352.47704 z M 79.113770,351.30776 C 77.523530,349.83132 75.903960,346.17040 75.903960,344.05225 C 75.903960,343.17565 75.219360,343.11794 64.818920,343.11794 L 53.733870,343.11794 L 56.066680,345.58475 C 57.712310,347.32491 58.578700,348.76004 59.007820,350.45661 L 59.616120,352.86165 L 70.201770,352.86165 L 80.787420,352.86165 L 79.113770,351.30776 z M 126.82589,352.13801 C 126.82589,350.85214 123.96594,348.75903 122.20897,348.75903 C 120.47866,348.75903 119.06636,350.19312 119.06636,351.95011 C 119.06636,352.74765 119.55157,352.86165 122.94612,352.86165 C 125.96288,352.86165 126.82589,352.70068 126.82589,352.13801 z M 46.188860,338.50250 C 45.644190,336.52812 45.056660,334.91271 44.883230,334.91271 C 44.532930,334.91271 40.016130,341.28589 40.016130,341.78018 C 40.016130,341.95183 41.627800,342.09228 43.597640,342.09228 L 47.179170,342.09228 L 46.188860,338.50250 z M 75.903960,341.13112 C 75.903960,339.36154 77.383350,335.71105 78.680880,334.27895 L 79.965190,332.86141 L 63.142970,332.86141 C 53.890740,332.86141 46.320740,333.02258 46.320740,333.21956 C 46.320740,333.41655 46.873350,335.49349 47.548750,337.83501 L 48.776780,342.09228 L 62.340360,342.09228 C 75.277360,342.09228 75.903960,342.04789 75.903960,341.13112 z M 87.543260,341.06665 C 86.245690,339.69453 86.285750,337.09739 87.627800,335.58680 C 88.207770,334.93400 89.026150,334.39255 89.446450,334.38358 C 90.065210,334.37036 90.031480,334.22401 89.269220,333.61434 C 88.744540,333.19470 87.295470,332.86141 85.995660,332.86141 C 82.544580,332.86141 81.723600,333.94548 81.723600,338.50250 L 81.723600,342.09228 L 85.118400,342.09228 C 88.513200,342.09228 88.513200,342.09228 87.543260,341.06665 z M 46.582870,324.62326 C 47.238900,323.52434 47.775650,322.50527 47.775650,322.35864 C 47.775650,322.21201 46.793590,322.09204 45.593290,322.09204 C 44.392980,322.09204 43.410910,322.22063 43.410910,322.37776 C 43.410910,323.66012 44.587040,327.14608 44.941530,326.91441 C 45.188250,326.75318 45.926850,325.72217 46.582870,324.62326 z M 49.483940,318.46759 C 50.425950,315.46856 50.343460,308.19175 49.355620,307.14717 C 47.945160,305.65569 44.164250,311.47202 43.344240,316.39470 C 42.626350,320.70432 42.834030,321.06638 46.024060,321.06638 L 48.667640,321.06638 L 49.483940,318.46759 z "
         style="fill:#000000" />
      <rect
         y="281.76944"
         x="10.857121"
         height="110.58372"
         width="227.00000"
         id="rect2325"
         style="opacity:0.91812867;fill:none;fill-opacity:0.27953890;fill-rule:nonzero;stroke:#000000;stroke-width:1.9911276;stroke-linecap:butt;stroke-linejoin:miter;stroke-miterlimit:4.0000000;stroke-dashoffset:0.0000000;stroke-opacity:1.0000000" />
    </g>
    <path
       style="opacity:0.91812867;fill:none;fill-opacity:0.27953890;fill-rule:nonzero;stroke:#000000;stroke-width:1.9288595;stroke-linecap:butt;stroke-linejoin:miter;stroke-miterlimit:4.0000000;stroke-dashoffset:0.0000000;stroke-opacity:1.0000000"
       d="M 12.285690,172.33714 L 189.42855,172.33714 L 189.42855,261.43211 L 12.285690,261.43211 L 12.285690,172.33714 z "
       id="rect1558"
       sodipodi:nodetypes="ccccc" />
    <text
       sodipodi:linespacing="100%"
       id="text1550"
       y="198.78601"
       x="23.354328"
       style="font-size:22.000000;font-style:normal;font-variant:normal;font-weight:normal;font-stretch:normal;fill:#000000;fill-opacity:1.0000000;stroke:none;stroke-width:1.0000000pt;stroke-linecap:butt;stroke-linejoin:miter;stroke-opacity:1.0000000;font-family:Sans;text-anchor:start;writing-mode:lr-tb"
       xml:space="preserve"><tspan
         y="198.78601"
         x="23.354328"
         id="tspan1552"
         sodipodi:role="line">Bash :</tspan><tspan
         y="220.78601"
         x="23.354328"
         id="tspan1556"
         sodipodi:role="line">-Lilypond</tspan><tspan
         y="242.78601"
         x="23.354328"
         id="tspan1554"
         sodipodi:role="line">-ImageMagick</tspan></text>
    <text
       sodipodi:linespacing="100%"
       id="text2327"
       y="211.07703"
       x="273.26938"
       style="font-size:22.000000;font-style:normal;font-variant:normal;font-weight:normal;font-stretch:normal;fill:#000000;fill-opacity:1.0000000;stroke:none;stroke-width:1.0000000pt;stroke-linecap:butt;stroke-linejoin:miter;stroke-opacity:1.0000000;font-family:Sans;text-anchor:start;writing-mode:lr-tb"
       xml:space="preserve"><tspan
         y="211.07703"
         x="273.26938"
         id="tspan2329"
         sodipodi:role="line">Perl : cgi script</tspan><tspan
         y="233.07703"
         x="273.26938"
         id="tspan2331"
         sodipodi:role="line" /></text>
    <rect
       y="172.26736"
       x="266.42856"
       height="70.170937"
       width="175.71429"
       id="rect2333"
       style="opacity:0.91812867;fill:none;fill-opacity:0.27953890;fill-rule:nonzero;stroke:#000000;stroke-width:1.9039608;stroke-linecap:butt;stroke-linejoin:miter;stroke-miterlimit:4.0000000;stroke-dashoffset:0.0000000;stroke-opacity:1.0000000" />
    <text
       id="text2345"
       y="189.79076"
       x="504.28568"
       style="font-size:22px;font-style:normal;font-variant:normal;font-weight:normal;font-stretch:normal;line-height:100%;writing-mode:lr-tb;text-anchor:start;fill:#000000;fill-opacity:1;stroke:none;stroke-width:1pt;stroke-linecap:butt;stroke-linejoin:miter;stroke-opacity:1;font-family:Sans"
       xml:space="preserve"
       sodipodi:linespacing="100%"><tspan
         y="189.79076"
         x="504.28568"
         id="tspan2347"
         sodipodi:role="line">Génération du SVG</tspan><tspan
         y="211.79076"
         x="504.28568"
         id="tspan2349"
         sodipodi:role="line">- type (maj, dim, ...)</tspan><tspan
         y="233.79076"
         x="504.28568"
         id="tspan2351"
         sodipodi:role="line">- note de base (do, ré, ...)</tspan><tspan
         y="255.79076"
         x="504.28568"
         id="tspan2353"
         sodipodi:role="line">- alterations</tspan><tspan
         y="277.79076"
         x="504.28568"
         id="tspan2381"
         sodipodi:role="line">- affichage</tspan></text>
    <rect
       y="172.28386"
       x="492.85712"
       height="110.19301"
       width="293.14285"
       id="rect2383"
       style="opacity:0.91812867;fill:none;fill-opacity:0.27953890;fill-rule:nonzero;stroke:#000000;stroke-width:1.8569000;stroke-linecap:butt;stroke-linejoin:miter;stroke-miterlimit:4.0000000;stroke-dashoffset:0.0000000;stroke-opacity:1.0000000" />
    <rect
       y="339.77109"
       x="584.30103"
       height="109.75135"
       width="160.28780"
       id="rect4692"
       style="opacity:0.91812867;fill:none;fill-opacity:0.27953890;fill-rule:nonzero;stroke:#000000;stroke-width:1.6795145;stroke-linecap:butt;stroke-linejoin:miter;stroke-miterlimit:4.0000000;stroke-dashoffset:0.0000000;stroke-opacity:1.0000000" />
    <polygon
       transform="matrix(0.66734,0,0,0.696949,431.5346,228.3082)"
       id="polygon11"
       points="359.172,272.837 349.095,290.291 339.018,307.744 318.864,307.744 298.71,307.744 288.633,290.291 278.556,272.837 288.633,255.383 298.71,237.929 318.864,237.929 339.018,237.929 349.095,255.383 359.172,272.837 "
       style="fill:#ffff00;fill-opacity:0.75;fill-rule:evenodd;stroke:#000000;stroke-width:1pt" />
    <text
       transform="scale(0.978528,1.021943)"
       pointer-events="none"
       style="font-size:12.27570438px;text-anchor:middle;fill:#000000;font-family:Lucida Sans Unicode"
       x="658.55652"
       y="412.99728"
       id="text10390">Do</text>
    <polygon
       transform="matrix(0.66734,0,0,0.696949,472.2423,203.6362)"
       id="polygon12"
       points="359.172,272.837 349.095,290.291 339.018,307.744 318.864,307.744 298.71,307.744 288.633,290.291 278.556,272.837 288.633,255.383 298.71,237.929 318.864,237.929 339.018,237.929 349.095,255.383 359.172,272.837 "
       style="fill:#ffff00;fill-opacity:0.75;fill-rule:evenodd;stroke:#000000;stroke-width:1pt" />
    <text
       transform="scale(0.978528,1.021943)"
       pointer-events="none"
       style="font-size:12.27570438px;text-anchor:middle;fill:#000000;font-family:Lucida Sans Unicode"
       x="700.15747"
       y="388.85507"
       id="text10394">Mi</text>
    <polygon
       transform="matrix(0.66734,0,0,0.696949,431.5346,178.9641)"
       id="polygon22"
       points="359.172,272.837 349.095,290.291 339.018,307.744 318.864,307.744 298.71,307.744 288.633,290.291 278.556,272.837 288.633,255.383 298.71,237.929 318.864,237.929 339.018,237.929 349.095,255.383 359.172,272.837 "
       style="fill:#ffff00;fill-opacity:0.75;fill-rule:evenodd;stroke:#000000;stroke-width:1pt" />
    <text
       transform="scale(0.978528,1.021943)"
       pointer-events="none"
       style="font-size:12.27570438px;text-anchor:middle;fill:#000000;font-family:Lucida Sans Unicode"
       x="658.55652"
       y="364.71271"
       id="text10398">Sol</text>
    <text
       inkscape:export-ydpi="90.000000"
       inkscape:export-xdpi="90.000000"
       inkscape:export-filename="/home/bobuss/these/papier/icmc2005/organisation.png"
       x="250.34262"
       y="94.370003"
       sodipodi:linespacing="100%"
       id="text7891"
       style="font-size:24px;font-style:normal;font-variant:normal;font-weight:normal;font-stretch:normal;line-height:100%;writing-mode:lr-tb;text-anchor:start;fill:#000000;fill-opacity:1;stroke:none;stroke-width:1px;stroke-linecap:butt;stroke-linejoin:miter;stroke-opacity:1;font-family:Bitstream Vera Sans"
       xml:space="preserve"><tspan
         y="94.370003"
         x="250.34262"
         id="tspan7893"
         sodipodi:role="line">Requète utilisateur</tspan></text>
    <path
       inkscape:export-ydpi="90.000000"
       inkscape:export-xdpi="90.000000"
       inkscape:export-filename="/home/bobuss/these/papier/icmc2005/organisation.png"
       id="path7895"
       d="M 265.62855,203.41933 L 202.77141,203.56218"
       style="fill:none;fill-opacity:0.75000000;fill-rule:evenodd;stroke:#000000;stroke-width:1.6000000;stroke-linecap:butt;stroke-linejoin:miter;stroke-miterlimit:4.0000000;stroke-opacity:1.0000000;marker-start:none;marker-end:url(#Arrow2Lend)" />
    <path
       inkscape:export-ydpi="90.000000"
       inkscape:export-xdpi="90.000000"
       inkscape:export-filename="/home/bobuss/these/papier/icmc2005/organisation.png"
       id="path7899"
       d="M 103.20000,263.16218 L 102.91429,313.16218"
       style="fill:none;fill-opacity:0.75000000;fill-rule:evenodd;stroke:#000000;stroke-width:1.6000000;stroke-linecap:butt;stroke-linejoin:miter;stroke-miterlimit:4.0000000;stroke-opacity:1.0000000;marker-start:none;marker-end:url(#Arrow2Lend)"
       sodipodi:nodetypes="cc" />
    <path
       inkscape:export-ydpi="90.000000"
       inkscape:export-xdpi="90.000000"
       inkscape:export-filename="/home/bobuss/these/papier/icmc2005/organisation.png"
       id="path7901"
       d="M 443.22855,204.30504 L 481.79998,204.16218"
       style="fill:none;fill-opacity:0.75000000;fill-rule:evenodd;stroke:#000000;stroke-width:1.6000000;stroke-linecap:butt;stroke-linejoin:miter;stroke-miterlimit:4.0000000;stroke-opacity:1.0000000;marker-start:none;marker-end:url(#Arrow2Lend)" />
    <path
       inkscape:export-ydpi="90.000000"
       inkscape:export-xdpi="90.000000"
       inkscape:export-filename="/home/bobuss/these/papier/icmc2005/organisation.png"
       id="path7903"
       d="M 654.80000,284.16218 L 655.08571,324.01932"
       style="fill:none;fill-opacity:0.75000000;fill-rule:evenodd;stroke:#000000;stroke-width:1.6000000;stroke-linecap:butt;stroke-linejoin:miter;stroke-miterlimit:4.0000000;stroke-opacity:1.0000000;marker-start:none;marker-end:url(#Arrow2Lend)"
       sodipodi:nodetypes="cc" />
    <path
       inkscape:export-ydpi="90.000000"
       inkscape:export-xdpi="90.000000"
       inkscape:export-filename="/home/bobuss/these/papier/icmc2005/organisation.png"
       id="path8677"
       d="M 357.69463,114.62826 L 357.69463,164.49189"
       style="fill:none;fill-opacity:0.75000000;fill-rule:evenodd;stroke:#000000;stroke-width:2.5321555;stroke-linecap:butt;stroke-linejoin:miter;stroke-miterlimit:4.0000000;stroke-opacity:1.0000000;marker-start:none;marker-mid:none;marker-end:url(#Arrow2Lend)" />
    <path
       inkscape:export-ydpi="90.000000"
       inkscape:export-xdpi="90.000000"
       inkscape:export-filename="/home/bobuss/these/papier/icmc2005/organisation.png"
       sodipodi:open="true"
       sodipodi:end="3.1415927"
       sodipodi:start="0.0000000"
       d="M 446.42858,97.362183 A 87.857140,28.571428 0 1 1 270.71430,97.362181"
       sodipodi:ry="28.571428"
       sodipodi:rx="87.857140"
       sodipodi:cy="97.362183"
       sodipodi:cx="358.57144"
       id="path9473"
       style="fill:#ffffff;fill-opacity:0.0000000;stroke:#000000;stroke-width:2.5999999;stroke-miterlimit:4.0000000;stroke-opacity:1.0000000"
       sodipodi:type="arc"
       transform="translate(1.428547,0.000000)" />
    <rect
       inkscape:export-ydpi="90.000000"
       inkscape:export-xdpi="90.000000"
       inkscape:export-filename="/home/bobuss/these/papier/icmc2005/organisation.png"
       y="417.07648"
       x="270.72855"
       height="177.42857"
       width="179.00000"
       id="rect9475"
       style="fill:#ffffff;fill-opacity:0.0000000;stroke:#000000;stroke-width:2.5999999;stroke-miterlimit:4.0000000;stroke-opacity:1.0000000" />
    <text
       inkscape:export-ydpi="90.000000"
       inkscape:export-xdpi="90.000000"
       inkscape:export-filename="/home/bobuss/these/papier/icmc2005/organisation.png"
       sodipodi:linespacing="100%"
       id="text9479"
       y="440.40027"
       x="295.08383"
       style="font-size:22px;font-style:normal;font-variant:normal;font-weight:normal;font-stretch:normal;line-height:100%;writing-mode:lr-tb;text-anchor:start;fill:#000000;fill-opacity:1;stroke:none;stroke-width:1px;stroke-linecap:butt;stroke-linejoin:miter;stroke-opacity:1;font-family:Bitstream Vera Sans"
       xml:space="preserve"><tspan
         y="440.40027"
         x="295.08383"
         id="tspan9481"
         sodipodi:role="line">Page HTML</tspan></text>
    <path
       inkscape:export-ydpi="90.000000"
       inkscape:export-xdpi="90.000000"
       inkscape:export-filename="/home/bobuss/these/papier/icmc2005/organisation.png"
       id="path9483"
       d="M 357.94284,249.56218 L 358.22855,402.41932"
       style="fill:none;fill-opacity:0.75000000;fill-rule:evenodd;stroke:#000000;stroke-width:2.4000001;stroke-linecap:butt;stroke-linejoin:miter;stroke-miterlimit:4.0000000;stroke-dasharray:2.4000000 4.8000000 ;stroke-dashoffset:0.0000000;stroke-opacity:1.0000000;marker-end:url(#Arrow2Lend)" />
    <path
       inkscape:export-ydpi="90.000000"
       inkscape:export-xdpi="90.000000"
       inkscape:export-filename="/home/bobuss/these/papier/icmc2005/organisation.png"
       id="path10333"
       d="M 295.98450,491.41243 C 294.14282,490.52799 293.72738,487.72699 295.34163,487.07801 C 296.32622,486.68216 297.32739,487.39821 297.32739,488.49824 C 297.32739,489.27705 296.81701,489.89978 296.17871,489.89978 C 295.59209,489.89978 295.62150,490.13762 296.28063,490.72409 C 297.23866,491.57653 298.53933,491.24562 299.29191,489.95797 C 299.62125,489.39450 299.71394,488.92446 299.77186,487.52412 L 299.84364,485.78861 L 295.13946,485.78861 C 292.12115,485.78861 290.43528,485.72164 290.43528,485.60174 C 290.43528,485.48481 291.57617,485.41075 293.48371,485.40388 C 295.91890,485.39510 296.46338,485.34811 296.19031,485.17029 C 295.33746,484.61494 294.32176,483.45270 294.02712,482.69504 L 293.70461,481.86571 L 292.06995,481.86501 C 291.09843,481.86459 290.43528,481.78850 290.43528,481.67744 C 290.43528,481.56709 291.06853,481.49057 291.98159,481.49057 L 293.52789,481.49057 L 293.52789,480.32262 C 293.52789,479.68026 293.58555,478.88138 293.65602,478.54734 L 293.78414,477.94001 L 292.10971,477.94001 C 291.11124,477.94001 290.43528,477.86457 290.43528,477.75314 C 290.43528,477.64105 291.14097,477.56627 292.19890,477.56627 L 293.96251,477.56627 L 294.30500,476.86550 C 294.49336,476.48008 294.93267,475.74427 295.28122,475.23038 L 295.91496,474.29602 L 293.17512,474.24456 C 289.42966,474.17420 289.55033,473.82884 293.32037,473.82884 C 296.11701,473.82884 296.21737,473.81543 296.59410,473.39140 C 296.98145,472.95539 296.98173,472.94952 296.67910,471.61611 L 296.37545,470.27829 L 293.40537,470.27829 C 291.54313,470.27829 290.43528,470.20858 290.43528,470.09141 C 290.43528,469.97448 291.51322,469.90454 293.31567,469.90454 L 296.19606,469.90454 L 296.18739,467.70880 C 296.17939,465.68836 296.21702,465.43056 296.65870,464.47958 C 296.92270,463.91116 297.37943,463.20221 297.67366,462.90413 L 298.20861,462.36217 L 298.63469,462.78544 C 299.75890,463.90225 300.81880,467.35102 300.53867,468.98078 L 300.37989,469.90454 L 331.10517,469.90454 C 351.47088,469.90454 361.83045,469.96755 361.83045,470.09141 C 361.83045,470.21528 351.43977,470.27829 331.01184,470.27829 L 300.19324,470.27829 L 300.08589,470.73058 C 300.02684,470.97934 299.62060,471.74730 299.18313,472.43717 C 298.74565,473.12703 298.38771,473.72923 298.38771,473.77539 C 298.38771,473.82156 301.66809,473.84494 305.67745,473.82735 C 327.71909,473.73064 361.83045,473.84508 361.83045,474.01571 C 361.83045,474.13937 353.76198,474.20259 337.97848,474.20259 L 314.12651,474.20259 L 314.56298,474.88271 C 315.06171,475.65983 315.12478,476.54643 314.72436,477.15094 L 314.44926,477.56627 L 338.13985,477.56627 C 353.81577,477.56627 361.83045,477.62949 361.83045,477.75314 C 361.83045,477.87685 353.23004,477.94001 336.38267,477.94001 L 310.93488,477.94001 L 310.93488,479.24811 C 310.93488,481.03531 311.31951,481.44518 312.86653,481.30659 C 313.54048,481.24621 314.06632,480.78241 314.47639,479.88668 C 314.68422,479.43269 314.93205,479.06124 315.02713,479.06124 C 315.41554,479.06124 314.51809,480.95841 313.96958,481.29686 C 313.77150,481.41907 315.09093,481.48108 317.97095,481.48488 L 322.26783,481.49057 L 322.73656,480.90151 C 323.84340,479.51056 326.46814,479.11146 328.29462,480.05640 C 328.82106,480.32876 329.35870,480.76286 329.48939,481.02108 L 329.72701,481.49057 L 345.77873,481.49057 C 356.36206,481.49057 361.83045,481.55423 361.83045,481.67744 C 361.83045,481.80065 356.36206,481.86431 345.77873,481.86431 L 329.72701,481.86431 L 329.50064,482.31157 C 329.37615,482.55756 328.92936,482.95940 328.50778,483.20456 L 327.74128,483.65028 L 328.50421,484.07827 C 328.92382,484.31366 329.37061,484.71069 329.49708,484.96056 L 329.72701,485.41486 L 345.77873,485.41486 C 356.36206,485.41486 361.83045,485.47853 361.83045,485.60174 C 361.83045,485.72494 356.36206,485.78861 345.77873,485.78861 L 329.72701,485.78861 L 329.49708,486.24292 C 329.37061,486.49279 328.92546,486.88890 328.50784,487.12317 L 327.74855,487.54911 L 328.48701,487.99208 C 328.89317,488.23571 329.28908,488.55438 329.36680,488.70024 C 329.45332,488.86258 329.79599,488.96653 330.25040,488.96828 C 331.13458,488.97169 331.52597,489.19128 331.37743,489.60062 C 331.30090,489.81149 331.04195,489.89978 330.49994,489.89978 C 329.89314,489.89978 329.64722,490.00170 329.33357,490.38315 C 327.95617,492.05829 324.24211,492.06350 322.78855,490.39235 C 322.43929,489.99081 322.20252,489.89978 321.50732,489.89978 C 320.78840,489.89978 320.65453,489.84425 320.65453,489.54603 C 320.65453,489.12236 320.98540,488.96542 321.87863,488.96542 C 322.33567,488.96542 322.64897,488.84027 322.88032,488.56529 C 323.06548,488.34521 323.51120,488.02421 323.87081,487.85195 L 324.52464,487.53875 L 323.92709,487.31026 C 323.59844,487.18460 323.08796,486.79082 322.79268,486.43519 L 322.25581,485.78861 L 311.29372,485.78861 L 300.33165,485.78861 L 300.33165,487.25570 C 300.33165,488.89589 300.13086,489.70625 299.50286,490.60074 C 298.67587,491.77867 297.37302,492.07923 295.98450,491.41243 z M 327.35966,490.61115 C 327.50591,490.33432 327.57779,490.05731 327.51937,489.99554 C 327.46096,489.93377 326.78713,489.90798 326.02196,489.93823 L 324.63074,489.99322 L 325.20232,490.61201 C 325.68036,491.12952 325.88190,491.22127 326.43382,491.17262 C 326.93548,491.12839 327.15749,490.99375 327.35966,490.61115 z M 326.88114,488.39933 C 326.15374,487.69965 325.22979,487.63705 324.81748,488.25952 C 324.66617,488.48794 324.54238,488.74022 324.54238,488.82013 C 324.54238,488.90004 325.19846,488.96296 326.00033,488.95994 L 327.45827,488.95447 L 326.88114,488.39933 z M 327.27153,486.86826 C 327.42284,486.63983 327.54663,486.30346 327.54663,486.12077 C 327.54663,485.83015 327.36983,485.78861 326.13286,485.78861 C 325.24085,485.78861 324.71910,485.86288 324.71910,485.98985 C 324.71910,486.10054 324.95156,486.43691 325.23567,486.73734 C 325.89405,487.43354 326.85612,487.49541 327.27153,486.86826 z M 322.73509,484.82766 C 322.99209,484.50470 323.49987,484.09961 323.86350,483.92745 L 324.52464,483.61445 L 323.92709,483.38596 C 323.59844,483.26030 323.08796,482.86651 322.79268,482.51089 L 322.25581,481.86431 L 312.55044,481.86431 L 302.84507,481.86431 L 302.73285,482.49684 C 302.58922,483.30645 301.77434,484.59150 301.11165,485.05346 C 300.60089,485.40950 300.68452,485.41241 311.43227,485.41363 L 322.26783,485.41486 L 322.73509,484.82766 z M 327.36991,485.15117 C 327.36991,484.68261 326.32776,483.91990 325.68753,483.91990 C 325.05701,483.91990 324.54238,484.44247 324.54238,485.08271 C 324.54238,485.37333 324.71919,485.41486 325.95614,485.41486 C 327.05543,485.41486 327.36991,485.35621 327.36991,485.15117 z M 299.77333,484.94632 C 299.81374,484.90358 299.74736,484.19265 299.62582,483.36647 L 299.40483,481.86431 L 298.18939,481.86431 C 297.52090,481.86431 296.97395,481.93489 296.97395,482.02116 C 296.97395,482.10742 297.25452,482.44798 297.59745,482.77797 C 297.94038,483.10795 298.17640,483.45415 298.12195,483.54731 C 297.90894,483.91177 296.65427,483.09654 296.27504,482.34726 C 296.06907,481.94029 295.90834,481.86431 295.25333,481.86431 C 294.52986,481.86431 294.48427,481.89343 294.59485,482.28477 C 295.12245,484.15191 297.01471,485.36712 298.99960,485.11349 C 299.38474,485.06427 299.73292,484.98904 299.77333,484.94632 z M 301.37350,483.94732 C 301.57125,483.65365 301.78576,483.06483 301.85018,482.63884 L 301.96730,481.86431 L 300.95359,481.86431 C 299.98511,481.86431 299.94442,481.88342 300.04154,482.29258 C 300.09744,482.52813 300.19620,483.19782 300.26099,483.78078 C 300.36606,484.72612 300.41314,484.82128 300.69638,484.66099 C 300.87104,484.56215 301.17574,484.24099 301.37350,483.94732 z M 327.27153,482.94396 C 327.42284,482.71553 327.54663,482.37916 327.54663,482.19647 C 327.54663,481.90585 327.36983,481.86431 326.13286,481.86431 C 325.24085,481.86431 324.71910,481.93858 324.71910,482.06555 C 324.71910,482.17624 324.95156,482.51261 325.23567,482.81304 C 325.89405,483.50923 326.85612,483.57111 327.27153,482.94396 z M 295.91363,480.73708 C 295.91363,479.75316 296.28179,478.84937 296.88800,478.34513 L 297.37506,477.94001 L 296.40102,477.94001 L 295.42698,477.94001 L 295.04912,478.86884 C 294.84129,479.37970 294.62188,480.17857 294.56153,480.64412 L 294.45182,481.49057 L 295.18272,481.49057 L 295.91363,481.49057 L 295.91363,480.73708 z M 299.27132,481.29301 C 299.27132,480.87852 298.86772,479.42426 298.72720,479.33242 C 298.47651,479.16859 297.38885,479.74620 297.08541,480.20431 C 296.92691,480.44359 296.79723,480.83089 296.79723,481.06497 C 296.79723,481.46732 296.86480,481.49057 298.03427,481.49057 C 298.78576,481.49057 299.27132,481.41303 299.27132,481.29301 z M 301.74424,481.35042 C 301.74170,481.04452 301.04890,480.12229 300.57175,479.78964 C 299.91701,479.33319 299.39176,479.31944 299.51610,479.76201 C 299.56663,479.94187 299.66251,480.34131 299.72916,480.64964 C 299.79581,480.95798 299.88381,481.27333 299.92470,481.35042 C 300.02180,481.53342 301.74577,481.53342 301.74424,481.35042 z M 309.98388,480.92434 C 309.40440,480.38633 308.81424,479.05231 308.81424,478.28047 C 308.81424,477.96104 308.56477,477.94001 304.77491,477.94001 L 300.73558,477.94001 L 301.58564,478.83890 C 302.18530,479.47301 302.50101,479.99596 302.65738,480.61418 L 302.87904,481.49057 L 306.73639,481.49057 L 310.59374,481.49057 L 309.98388,480.92434 z M 327.36991,481.22687 C 327.36991,480.75831 326.32776,479.99559 325.68753,479.99559 C 325.05701,479.99559 324.54238,480.51817 324.54238,481.15841 C 324.54238,481.44902 324.71919,481.49057 325.95614,481.49057 C 327.05543,481.49057 327.36991,481.43191 327.36991,481.22687 z M 297.98622,476.25817 C 297.78774,475.53872 297.57365,474.95007 297.51045,474.95007 C 297.38280,474.95007 295.73691,477.27242 295.73691,477.45254 C 295.73691,477.51509 296.32419,477.56627 297.04199,477.56627 L 298.34708,477.56627 L 297.98622,476.25817 z M 308.81424,477.21602 C 308.81424,476.57120 309.35332,475.24098 309.82613,474.71913 L 310.29412,474.20259 L 304.16420,474.20259 C 300.79274,474.20259 298.03427,474.26132 298.03427,474.33309 C 298.03427,474.40488 298.23564,475.16170 298.48175,476.01494 L 298.92924,477.56627 L 303.87174,477.56627 C 308.58591,477.56627 308.81424,477.55009 308.81424,477.21602 z M 313.05553,477.19253 C 312.58270,476.69254 312.59730,475.74615 313.08634,475.19570 C 313.29768,474.95783 313.59589,474.76053 313.74904,474.75726 C 313.97452,474.75244 313.96223,474.69911 313.68446,474.47695 C 313.49327,474.32404 312.96524,474.20259 312.49159,474.20259 C 311.23404,474.20259 310.93488,474.59762 310.93488,476.25817 L 310.93488,477.56627 L 312.17193,477.56627 C 313.40897,477.56627 313.40897,477.56627 313.05553,477.19253 z M 298.12979,471.20065 C 298.36885,470.80021 298.56443,470.42886 298.56443,470.37543 C 298.56443,470.32200 298.20658,470.27829 297.76919,470.27829 C 297.33181,470.27829 296.97395,470.32514 296.97395,470.38240 C 296.97395,470.84969 297.40252,472.11995 297.53170,472.03553 C 297.62160,471.97678 297.89074,471.60109 298.12979,471.20065 z M 299.18693,468.95756 C 299.53019,467.86473 299.50013,465.21310 299.14017,464.83246 C 298.62620,464.28897 297.24846,466.40841 296.94965,468.20221 C 296.68806,469.77261 296.76373,469.90454 297.92616,469.90454 L 298.88947,469.90454 L 299.18693,468.95756 z "
       style="fill:#000000" />
    <path
       inkscape:export-ydpi="90.000000"
       inkscape:export-xdpi="90.000000"
       inkscape:export-filename="/home/bobuss/these/papier/icmc2005/organisation.png"
       id="path11146"
       d="M 113.62854,439.59075 L 257.91426,472.44789"
       style="fill:none;fill-opacity:0.75000000;fill-rule:evenodd;stroke:#000000;stroke-width:1.6000000;stroke-linecap:butt;stroke-linejoin:miter;stroke-miterlimit:4.0000000;stroke-opacity:1.0000000;marker-end:url(#Arrow2Lend)"
       sodipodi:nodetypes="cc" />
    <path
       inkscape:export-ydpi="90.000000"
       inkscape:export-xdpi="90.000000"
       inkscape:export-filename="/home/bobuss/these/papier/icmc2005/organisation.png"
       id="path11148"
       d="M 583.62855,398.16218 L 461.91426,475.44789"
       style="fill:none;fill-opacity:0.75000000;fill-rule:evenodd;stroke:#000000;stroke-width:1.6000000;stroke-linecap:butt;stroke-linejoin:miter;stroke-miterlimit:4.0000000;stroke-opacity:1.0000000;marker-end:url(#Arrow2Lend)" />
    <path
       inkscape:export-ydpi="90.000000"
       inkscape:export-xdpi="90.000000"
       inkscape:export-filename="/home/bobuss/these/papier/icmc2005/organisation.png"
       id="path11944"
       d="M 370.11015,247.00648 C 422.56853,257.55207 442.67294,269.17083 490.91199,316.28139 C 518.67583,347.04090 510.88632,384.02958 512.82291,399.81684"
       style="fill:none;fill-opacity:0.75000000;fill-rule:evenodd;stroke:#000000;stroke-width:1.3253748;stroke-linecap:butt;stroke-linejoin:miter;stroke-miterlimit:4.0000000;stroke-dasharray:1.3253748 3.9761246 ;stroke-dashoffset:0.0000000;stroke-opacity:1.0000000;marker-end:url(#Arrow2Lend)"
       sodipodi:nodetypes="ccc" />
    <text
       inkscape:export-ydpi="90.000000"
       inkscape:export-xdpi="90.000000"
       inkscape:export-filename="/home/bobuss/these/papier/icmc2005/organisation.png"
       transform="matrix(0.818215,-0.574913,0.574913,0.818215,0,0)"
       sodipodi:linespacing="100%"
       x="170.7363"
       y="652.21021"
       id="text11951"
       style="font-size:22px;font-style:normal;font-variant:normal;font-weight:normal;font-stretch:normal;line-height:100%;writing-mode:lr-tb;text-anchor:middle;fill:#000000;fill-opacity:1;stroke:none;stroke-width:1px;stroke-linecap:butt;stroke-linejoin:miter;stroke-opacity:1;font-family:Bitstream Vera Sans"
       xml:space="preserve"><tspan
         id="tspan12759"
         sodipodi:role="line"
         y="652.21021"
         x="174.23825">Retour de </tspan><tspan
         id="tspan12761"
         sodipodi:role="line"
         y="674.21021"
         x="170.7363">Force</tspan></text>
    <rect
       y="544.31079"
       x="299.48001"
       height="37.000000"
       width="121.00000"
       id="rect13575"
       style="fill:#929292;fill-opacity:0.47838613;stroke:#000000;stroke-width:1.0400000;stroke-miterlimit:4.0000000;stroke-dashoffset:0.0000000;stroke-opacity:1.0000000" />
    <text
       id="text14371"
       y="570.07703"
       x="306.80566"
       style="font-size:22.000000;font-style:normal;font-variant:normal;font-weight:normal;font-stretch:normal;fill:#000000;fill-opacity:1.0000000;stroke:none;stroke-width:1.0000000px;stroke-linecap:butt;stroke-linejoin:miter;stroke-opacity:1.0000000;font-family:Sans;text-anchor:start;writing-mode:lr-tb"
       xml:space="preserve"
       sodipodi:linespacing="100%"><tspan
         y="570.07703"
         x="306.80566"
         id="tspan14373"
         sodipodi:role="line">Html form</tspan></text>
    <path
       inkscape:export-ydpi="90.000000"
       inkscape:export-xdpi="90.000000"
       inkscape:export-filename="/home/bobuss/these/papier/icmc2005/organisation.png"
       id="path15174"
       d="M 361.69463,596.23247 L 361.69463,646.09610"
       style="fill:none;fill-opacity:0.75000000;fill-rule:evenodd;stroke:#000000;stroke-width:2.5321555;stroke-linecap:butt;stroke-linejoin:miter;stroke-miterlimit:4.0000000;stroke-opacity:1.0000000;marker-start:none;marker-mid:none;marker-end:url(#Arrow2Lend)" />
    <text
       inkscape:export-ydpi="90.000000"
       inkscape:export-xdpi="90.000000"
       inkscape:export-filename="/home/bobuss/these/papier/icmc2005/organisation.png"
       x="246.82031"
       y="709.59656"
       sodipodi:linespacing="100%"
       id="text15176"
       style="font-size:24px;font-style:normal;font-variant:normal;font-weight:normal;font-stretch:normal;line-height:100%;writing-mode:lr-tb;text-anchor:start;fill:#000000;fill-opacity:1;stroke:none;stroke-width:1px;stroke-linecap:butt;stroke-linejoin:miter;stroke-opacity:1;font-family:Bitstream Vera Sans"
       xml:space="preserve"><tspan
         id="tspan15180"
         sodipodi:role="line"
         y="709.59656"
         x="246.82031">navigateur Internet</tspan></text>
    <path
       inkscape:export-ydpi="90.000000"
       inkscape:export-xdpi="90.000000"
       inkscape:export-filename="/home/bobuss/these/papier/icmc2005/organisation.png"
       transform="matrix(-1.192482,0.000000,0.000000,-1.192482,789.3368,806.9146)"
       sodipodi:open="true"
       sodipodi:end="3.1415927"
       sodipodi:start="0.0000000"
       d="M 446.42858,97.362183 A 87.857140,28.571428 0 1 1 270.71430,97.362181"
       sodipodi:ry="28.571428"
       sodipodi:rx="87.857140"
       sodipodi:cy="97.362183"
       sodipodi:cx="358.57144"
       id="path15182"
       style="fill:#ffffff;fill-opacity:0.0000000;stroke:#000000;stroke-width:2.5999999;stroke-miterlimit:4.0000000;stroke-opacity:1.0000000"
       sodipodi:type="arc" />
    <g
       id="g1500"
       transform="translate(6.012602,3.059525)">
      <path
         sodipodi:type="arc"
         style="fill:#ffffff;fill-opacity:0;stroke:#000000;stroke-width:2.5999999;stroke-miterlimit:4;stroke-opacity:1"
         id="path15184"
         sodipodi:cx="358.57144"
         sodipodi:cy="97.362183"
         sodipodi:rx="87.85714"
         sodipodi:ry="28.571428"
         d="M 446.42858,97.362183 A 87.85714,28.571428 0 1 1 270.7143,97.362181"
         sodipodi:start="0"
         sodipodi:end="3.1415927"
         sodipodi:open="true"
         transform="matrix(-0.863264,0,0,-0.708538,971.6686,578.3667)" />
      <path
         sodipodi:type="arc"
         style="fill:#ffffff;fill-opacity:0;stroke:#000000;stroke-width:2.5999999;stroke-miterlimit:4;stroke-opacity:1"
         id="path15186"
         sodipodi:cx="358.57144"
         sodipodi:cy="97.362183"
         sodipodi:rx="87.85714"
         sodipodi:ry="28.571428"
         d="M 446.42858,97.362183 A 87.85714,28.571428 0 1 1 270.7143,97.362181"
         sodipodi:start="0"
         sodipodi:end="3.1415927"
         sodipodi:open="true"
         transform="matrix(0.863264,0,0,0.708538,352.4497,439.9114)" />
      <path
         sodipodi:type="arc"
         style="fill:#ffffff;fill-opacity:0;stroke:#000000;stroke-width:2.5999999;stroke-miterlimit:4;stroke-opacity:1"
         id="path15188"
         sodipodi:cx="358.57144"
         sodipodi:cy="97.362183"
         sodipodi:rx="87.85714"
         sodipodi:ry="28.571428"
         d="M 446.42858,97.362183 A 87.85714,28.571428 0 1 1 270.7143,97.362181"
         sodipodi:start="0"
         sodipodi:end="3.1415927"
         sodipodi:open="true"
         transform="matrix(0.863264,1.071511e-16,-2.057621e-16,0.708538,352.4497,477.0572)" />
      <path
         style="fill:none;fill-opacity:0.75;fill-rule:evenodd;stroke:#000000;stroke-width:1.92950857;stroke-linecap:butt;stroke-linejoin:miter;stroke-miterlimit:4;stroke-opacity:1"
         d="M 585.84718,546.06902 L 585.68484,508.81704"
         id="path15190" />
      <path
         style="fill:none;fill-opacity:0.75;fill-rule:evenodd;stroke:#000000;stroke-width:1.92950857;stroke-linecap:butt;stroke-linejoin:miter;stroke-miterlimit:4;stroke-opacity:1"
         d="M 737.63201,546.865 L 737.63201,508.81704"
         id="path15192" />
    </g>
    <text
       xml:space="preserve"
       style="font-size:22px;font-style:normal;font-variant:normal;font-weight:normal;font-stretch:normal;line-height:100%;writing-mode:lr-tb;text-anchor:start;fill:#000000;fill-opacity:1;stroke:none;stroke-width:1px;stroke-linecap:butt;stroke-linejoin:miter;stroke-opacity:1;font-family:Bitstream Vera Sans"
       id="text16340"
       sodipodi:linespacing="100%"
       y="553.84552"
       x="599.69128"><tspan
         x="599.69128"
         y="553.84552"
         sodipodi:role="line"
         id="tspan16344">fichiers mp3</tspan></text>
    <path
       inkscape:export-ydpi="90.000000"
       inkscape:export-xdpi="90.000000"
       inkscape:export-filename="/home/bobuss/these/papier/icmc2005/organisation.png"
       id="path16377"
       d="M 591.37140,532.41933 L 461.37141,492.56218"
       style="fill:none;fill-opacity:0.75000000;fill-rule:evenodd;stroke:#000000;stroke-width:1.6000000;stroke-linecap:butt;stroke-linejoin:miter;stroke-miterlimit:4.0000000;stroke-opacity:1.0000000;marker-start:none;marker-end:url(#Arrow2Lend)"
       sodipodi:nodetypes="cc" />
    <text
       transform="matrix(6.620628e-17,-1.310573,0.763025,3.854577e-17,0,0)"
       sodipodi:linespacing="100%"
       id="text1374"
       y="-34.511513"
       x="-384.92029"
       style="font-size:30.83402443px;font-style:normal;font-variant:normal;font-weight:normal;font-stretch:normal;line-height:100%;writing-mode:lr-tb;text-anchor:start;fill:#000000;fill-opacity:1;stroke:none;stroke-width:1px;stroke-linecap:butt;stroke-linejoin:miter;stroke-opacity:1;font-family:Bitstream Vera Sans"
       xml:space="preserve"><tspan
         id="tspan1378"
         sodipodi:role="line"
         y="-34.511513"
         x="-384.92029">Côté serveur</tspan></text>
    <g
       transform="matrix(0.643840,0.000000,0.000000,0.643840,-26.24923,228.0018)"
       id="g1403">
      <polygon
         style="fill:#ffff00;fill-opacity:0.75000000;fill-rule:evenodd;stroke:#000000;stroke-width:1.0000000pt"
         points="359.17200,272.83700 349.09500,290.29100 339.01800,307.74400 318.86400,307.74400 298.71000,307.74400 288.63300,290.29100 278.55600,272.83700 288.63300,255.38300 298.71000,237.92900 318.86400,237.92900 339.01800,237.92900 349.09500,255.38300 359.17200,272.83700 "
         id="polygon1405"
         transform="matrix(0.667340,0.000000,0.000000,0.696949,431.5346,228.3082)" />
      <text
         id="text1407"
         y="412.99731"
         x="658.55658"
         style="font-size:12.27570534px;text-anchor:middle;fill:#000000;font-family:Lucida Sans Unicode"
         pointer-events="none"
         transform="scale(0.978528,1.021943)">Do</text>
      <polygon
         style="fill:#ffff00;fill-opacity:0.75000000;fill-rule:evenodd;stroke:#000000;stroke-width:1.0000000pt"
         points="359.17200,272.83700 349.09500,290.29100 339.01800,307.74400 318.86400,307.74400 298.71000,307.74400 288.63300,290.29100 278.55600,272.83700 288.63300,255.38300 298.71000,237.92900 318.86400,237.92900 339.01800,237.92900 349.09500,255.38300 359.17200,272.83700 "
         id="polygon1409"
         transform="matrix(0.667340,0.000000,0.000000,0.696949,472.2423,203.6362)" />
      <text
         id="text1411"
         y="388.8551"
         x="700.15753"
         style="font-size:12.27570534px;text-anchor:middle;fill:#000000;font-family:Lucida Sans Unicode"
         pointer-events="none"
         transform="scale(0.978528,1.021943)">Mi</text>
      <polygon
         style="fill:#ffff00;fill-opacity:0.75000000;fill-rule:evenodd;stroke:#000000;stroke-width:1.0000000pt"
         points="359.17200,272.83700 349.09500,290.29100 339.01800,307.74400 318.86400,307.74400 298.71000,307.74400 288.63300,290.29100 278.55600,272.83700 288.63300,255.38300 298.71000,237.92900 318.86400,237.92900 339.01800,237.92900 349.09500,255.38300 359.17200,272.83700 "
         id="polygon1413"
         transform="matrix(0.667340,0.000000,0.000000,0.696949,431.5346,178.9641)" />
      <text
         id="text1415"
         y="364.71274"
         x="658.55658"
         style="font-size:12.27570534px;text-anchor:middle;fill:#000000;font-family:Lucida Sans Unicode"
         pointer-events="none"
         transform="scale(0.978528,1.021943)">Sol</text>
    </g>
  </g>
</svg>
