<?xml version="1.0" encoding="UTF-8" standalone="no"?>
<svg
   xmlns:dc="http://purl.org/dc/elements/1.1/"
   xmlns:cc="http://web.resource.org/cc/"
   xmlns:rdf="http://www.w3.org/1999/02/22-rdf-syntax-ns#"
   xmlns:svg="http://www.w3.org/2000/svg"
   xmlns="http://www.w3.org/2000/svg"
   xmlns:sodipodi="http://inkscape.sourceforge.net/DTD/sodipodi-0.dtd"
   xmlns:inkscape="http://www.inkscape.org/namespaces/inkscape"
   version="1.1"
   width="869"
   height="565"
   viewBox="0 0 469 351"
   id="svg2695"
   sodipodi:version="0.32"
   inkscape:version="0.43"
   sodipodi:docname="res_loc_temps_points.svg"
   sodipodi:docbase="/home/bobuss/these/manuscrit2/svg">
  <metadata
     id="metadata2810">
    <rdf:RDF>
      <cc:Work
         rdf:about="">
        <dc:format>image/svg+xml</dc:format>
        <dc:type
           rdf:resource="http://purl.org/dc/dcmitype/StillImage" />
      </cc:Work>
    </rdf:RDF>
  </metadata>
  <sodipodi:namedview
     inkscape:window-height="584"
     inkscape:window-width="868"
     inkscape:pageshadow="2"
     inkscape:pageopacity="0.0"
     borderopacity="1.0"
     bordercolor="#666666"
     pagecolor="#ffffff"
     id="base"
     inkscape:zoom="1.2611082"
     inkscape:cx="234.84399"
     inkscape:cy="165.72725"
     inkscape:window-x="0"
     inkscape:window-y="25"
     inkscape:current-layer="svg2695" />
  <defs
     id="defs2697">
    <clipPath
       id="clip1">
      <path
         d="M44.783306999999994 3.783307000000077L389.41681862929528 3.783307000000077L389.41681862929528 296.67119316111138L44.783306999999994 296.67119316111138L44.783306999999994 3.783307000000077"
         id="path2700" />
    </clipPath>
    <clipPath
       id="clip2">
      <path
         d="M403.41681862929534 139.44394308055567L465.90469212929531 139.44394308055567L465.90469212929531 192.01055708055566L403.41681862929534 192.01055708055566L403.41681862929534 139.44394308055567"
         id="path2703" />
    </clipPath>
  </defs>
  <path
     d="M0.12 0.12L0.12 331.33450016111135L469.56799912929534 331.33450016111135L469.56799912929534 0.12L0.12 0.12z"
     fill="#ffffff"
     stroke-width="0.23999999999999999"
     stroke="#000000"
     id="path2705" />
  <path
     d="M44.783306999999994 3.783307000000077L44.783306999999994 296.67119316111138L389.41681862929528 296.67119316111138L389.41681862929528 3.783307000000077L44.783306999999994 3.783307000000077z"
     fill="#d0d0d0"
     stroke-width="0.23999999999999999"
     stroke="#848284"
     id="path2707" />
  <path
     d="M44.783306999999994 296.67119316111138L389.41681862929528 296.67119316111138"
     fill="none"
     stroke-width="0.23999999999999999"
     stroke="#000000"
     id="path2709" />
  <path
     d="M44.783306999999994 300.79119316111138L44.783306999999994 296.67119316111138"
     fill="none"
     stroke-width="0.23999999999999999"
     stroke="#000000"
     id="path2711" />
  <text
     x="44.783306999999994"
     y="308.79119316111138"
     text-anchor="middle"
     transform="rotate(-0,44.783306999999994,305.79119316111138)"
     fill="#000000"
     font-family="Sans"
     font-size="8"
     id="text2713">0</text>
  <path
     d="M79.246658162929521 300.79119316111138L79.246658162929521 296.67119316111138"
     fill="none"
     stroke-width="0.23999999999999999"
     stroke="#000000"
     id="path2715" />
  <text
     x="79.246658162929521"
     y="308.79119316111138"
     text-anchor="middle"
     transform="rotate(-0,79.246658162929521,305.79119316111138)"
     fill="#000000"
     font-family="Sans"
     font-size="8"
     id="text2717">20</text>
  <path
     d="M113.71000932585905 300.79119316111138L113.71000932585905 296.67119316111138"
     fill="none"
     stroke-width="0.23999999999999999"
     stroke="#000000"
     id="path2719" />
  <text
     x="113.71000932585905"
     y="308.79119316111138"
     text-anchor="middle"
     transform="rotate(-0,113.71000932585905,305.79119316111138)"
     fill="#000000"
     font-family="Sans"
     font-size="8"
     id="text2721">40</text>
  <path
     d="M148.1733604887886 300.79119316111138L148.1733604887886 296.67119316111138"
     fill="none"
     stroke-width="0.23999999999999999"
     stroke="#000000"
     id="path2723" />
  <text
     x="148.1733604887886"
     y="308.79119316111138"
     text-anchor="middle"
     transform="rotate(-0,148.1733604887886,305.79119316111138)"
     fill="#000000"
     font-family="Sans"
     font-size="8"
     id="text2725">60</text>
  <path
     d="M182.63671165171809 300.79119316111138L182.63671165171809 296.67119316111138"
     fill="none"
     stroke-width="0.23999999999999999"
     stroke="#000000"
     id="path2727" />
  <text
     x="182.63671165171809"
     y="308.79119316111138"
     text-anchor="middle"
     transform="rotate(-0,182.63671165171809,305.79119316111138)"
     fill="#000000"
     font-family="Sans"
     font-size="8"
     id="text2729">80</text>
  <path
     d="M217.10006281464763 300.79119316111138L217.10006281464763 296.67119316111138"
     fill="none"
     stroke-width="0.23999999999999999"
     stroke="#000000"
     id="path2731" />
  <text
     x="217.10006281464763"
     y="308.79119316111138"
     text-anchor="middle"
     transform="rotate(-0,217.10006281464763,305.79119316111138)"
     fill="#000000"
     font-family="Sans"
     font-size="8"
     id="text2733">100</text>
  <path
     d="M251.56341397757717 300.79119316111138L251.56341397757717 296.67119316111138"
     fill="none"
     stroke-width="0.23999999999999999"
     stroke="#000000"
     id="path2735" />
  <text
     x="251.56341397757717"
     y="308.79119316111138"
     text-anchor="middle"
     transform="rotate(-0,251.56341397757717,305.79119316111138)"
     fill="#000000"
     font-family="Sans"
     font-size="8"
     id="text2737">120</text>
  <path
     d="M286.02676514050671 300.79119316111138L286.02676514050671 296.67119316111138"
     fill="none"
     stroke-width="0.23999999999999999"
     stroke="#000000"
     id="path2739" />
  <text
     x="286.02676514050671"
     y="308.79119316111138"
     text-anchor="middle"
     transform="rotate(-0,286.02676514050671,305.79119316111138)"
     fill="#000000"
     font-family="Sans"
     font-size="8"
     id="text2741">140</text>
  <path
     d="M320.4901163034362 300.79119316111138L320.4901163034362 296.67119316111138"
     fill="none"
     stroke-width="0.23999999999999999"
     stroke="#000000"
     id="path2743" />
  <text
     x="320.4901163034362"
     y="308.79119316111138"
     text-anchor="middle"
     transform="rotate(-0,320.4901163034362,305.79119316111138)"
     fill="#000000"
     font-family="Sans"
     font-size="8"
     id="text2745">160</text>
  <path
     d="M354.95346746636574 300.79119316111138L354.95346746636574 296.67119316111138"
     fill="none"
     stroke-width="0.23999999999999999"
     stroke="#000000"
     id="path2747" />
  <text
     x="354.95346746636574"
     y="308.79119316111138"
     text-anchor="middle"
     transform="rotate(-0,354.95346746636574,305.79119316111138)"
     fill="#000000"
     font-family="Sans"
     font-size="8"
     id="text2749">180</text>
  <path
     d="M389.41681862929528 300.79119316111138L389.41681862929528 296.67119316111138"
     fill="none"
     stroke-width="0.23999999999999999"
     stroke="#000000"
     id="path2751" />
  <text
     x="389.41681862929528"
     y="308.79119316111138"
     text-anchor="middle"
     transform="rotate(-0,389.41681862929528,305.79119316111138)"
     fill="#000000"
     font-family="Sans"
     font-size="8"
     id="text2753">200</text>
  <text
     x="217.10006281464763"
     y="324.67119316111132"
     text-anchor="middle"
     transform="rotate(-0,217.10006281464763,321.17119316111132)"
     fill="#000000"
     font-family="Sans"
     font-size="10"
     id="text2755"
     style="font-family:Sans;font-weight:normal;font-style:normal;font-stretch:normal;font-variant:normal;font-size:10;text-anchor:middle;text-align:center;writing-mode:lr;line-height:125%"
     sodipodi:linespacing="125%">
    <tspan
       sodipodi:role="line"
       id="tspan2812"
       x="217.10007"
       y="324.6712">Temps, en ms</tspan>
  </text>
  <path
     d="M44.783306999999994 296.67119316111138L44.783306999999994 3.783307000000093"
     fill="none"
     stroke-width="0.23999999999999999"
     stroke="#000000"
     id="path2757" />
  <path
     d="M40.663306999999996 296.67119316111138L44.783306999999994 296.67119316111138"
     fill="none"
     stroke-width="0.23999999999999999"
     stroke="#000000"
     id="path2759" />
  <path
     d="M40.663307000000003 199.04189777407427L44.783307000000001 199.0418977740743"
     fill="none"
     stroke-width="0.23999999999999999"
     stroke="#000000"
     id="path2761" />
  <path
     d="M40.66330700000001 101.4126023870372L44.783307000000008 101.4126023870372"
     fill="none"
     stroke-width="0.23999999999999999"
     stroke="#000000"
     id="path2763" />
  <path
     d="M40.663307000000017 3.7833070000000926L44.783307000000015 3.783307000000093"
     fill="none"
     stroke-width="0.23999999999999999"
     stroke="#000000"
     id="path2765" />
  <text
     x="22.163306999999996"
     y="250.85654546759284"
     text-anchor="middle"
     transform="rotate(-0,22.163306999999996,247.85654546759284)"
     fill="#000000"
     font-family="Sans"
     font-size="8"
     id="text2767">3 points</text>
  <text
     x="22.163307000000003"
     y="153.22725008055573"
     text-anchor="middle"
     transform="rotate(-0,22.163307000000003,150.22725008055573)"
     fill="#000000"
     font-family="Sans"
     font-size="8"
     id="text2769">6 points</text>
  <text
     x="22.163307000000007"
     y="55.597954693518659"
     text-anchor="middle"
     transform="rotate(-0,22.163307000000007,52.597954693518659)"
     fill="#000000"
     font-family="Sans"
     font-size="8"
     id="text2771">9 points</text>
  <g
     clip-path="url(#clip1)"
     id="g2773">
    <path
       d="M44.783306999999994 280.39964392993852L140.93605674457336 280.39964392993852L140.93605674457336 258.70424495504142L44.783306999999994 258.70424495504142L44.783306999999994 280.39964392993852z"
       fill="#9c9cff"
       stroke-width="0.23999999999999999"
       stroke="#000000"
       id="path2775" />
    <path
       d="M44.783306999999994 258.70424495504142L129.13235897127001 258.70424495504142L129.13235897127001 237.00884598014429L44.783306999999994 237.00884598014429L44.783306999999994 258.70424495504142z"
       fill="#9c3163"
       stroke-width="0.23999999999999999"
       stroke="#000000"
       id="path2777" />
    <path
       d="M44.783306999999994 237.00884598014429L141.36684863411 237.00884598014429L141.36684863411 215.31344700524716L44.783306999999994 215.31344700524716L44.783306999999994 237.00884598014429z"
       fill="#ffffce"
       stroke-width="0.23999999999999999"
       stroke="#000000"
       id="path2779" />
    <path
       d="M44.783306999999994 182.77034854290144L247.34165346011829 182.77034854290144L247.34165346011829 161.07494956800431L44.783306999999994 161.07494956800431L44.783306999999994 182.77034854290144z"
       fill="#9c9cff"
       stroke-width="0.23999999999999999"
       stroke="#000000"
       id="path2781" />
    <path
       d="M44.783306999999994 161.07494956800431L195.81894347153866 161.07494956800431L195.81894347153866 139.37955059310718L44.783306999999994 139.37955059310718L44.783306999999994 161.07494956800431z"
       fill="#9c3163"
       stroke-width="0.23999999999999999"
       stroke="#000000"
       id="path2783" />
    <path
       d="M44.783306999999994 139.37955059310718L293.60870239635119 139.37955059310718L293.60870239635119 117.68415161821004L44.783306999999994 117.68415161821004L44.783306999999994 139.37955059310718z"
       fill="#ffffce"
       stroke-width="0.23999999999999999"
       stroke="#000000"
       id="path2785" />
    <path
       d="M44.783306999999994 85.141053155864341L323.93645141972917 85.141053155864341L323.93645141972917 63.445654180967232L44.783306999999994 63.445654180967232L44.783306999999994 85.141053155864341z"
       fill="#9c9cff"
       stroke-width="0.23999999999999999"
       stroke="#000000"
       id="path2787" />
    <path
       d="M44.783306999999994 63.445654180967232L247.08317832639634 63.445654180967232L247.08317832639634 41.750255206070086L44.783306999999994 41.750255206070086L44.783306999999994 63.445654180967232z"
       fill="#9c3163"
       stroke-width="0.23999999999999999"
       stroke="#000000"
       id="path2789" />
    <path
       d="M44.783306999999994 41.750255206070086L360.29528689661981 41.750255206070086L360.29528689661981 20.054856231172948L44.783306999999994 20.054856231172948L44.783306999999994 41.750255206070086z"
       fill="#ffffce"
       stroke-width="0.23999999999999999"
       stroke="#000000"
       id="path2791" />
  </g>
  <g
     clip-path="url(#clip2)"
     id="g2793">
    <path
       d="M403.53681862929534 139.56394308055567L403.53681862929534 191.89055708055568L465.78469212929531 191.89055708055568L465.78469212929531 139.56394308055567L403.53681862929534 139.56394308055567z"
       fill="#ffffff"
       stroke-width="0.23999999999999999"
       stroke="#000000"
       id="path2795" />
    <path
       d="M407.32012562929532 147.30394308055568L407.32012562929532 154.15055708055567L414.16673962929531 154.15055708055567L414.16673962929531 147.30394308055568L407.32012562929532 147.30394308055568z"
       fill="#9c9cff"
       stroke-width="0.23999999999999999"
       stroke="#000000"
       id="path2797" />
    <text
       x="435.62138512929533"
       y="155.22725008055568"
       text-anchor="middle"
       transform="rotate(-0,435.62138512929533,150.72725008055568)"
       fill="#000000"
       font-family="Sans"
       font-size="12"
       id="text2799">Notes</text>
    <path
       d="M407.32012562929532 162.30394308055568L407.32012562929532 169.15055708055567L414.16673962929531 169.15055708055567L414.16673962929531 162.30394308055568L407.32012562929532 162.30394308055568z"
       fill="#9c3163"
       stroke-width="0.23999999999999999"
       stroke="#000000"
       id="path2801" />
    <text
       x="439.12138512929533"
       y="170.22725008055568"
       text-anchor="middle"
       transform="rotate(-0,439.12138512929533,165.72725008055568)"
       fill="#000000"
       font-family="Sans"
       font-size="12"
       id="text2803">Lettres</text>
    <path
       d="M407.32012562929532 177.30394308055568L407.32012562929532 184.15055708055567L414.16673962929531 184.15055708055567L414.16673962929531 177.30394308055568L407.32012562929532 177.30394308055568z"
       fill="#ffffce"
       stroke-width="0.23999999999999999"
       stroke="#000000"
       id="path2805" />
    <text
       x="439.62138512929533"
       y="185.22725008055568"
       text-anchor="middle"
       transform="rotate(-0,439.62138512929533,180.72725008055568)"
       fill="#000000"
       font-family="Sans"
       font-size="12"
       id="text2807">Silence</text>
  </g>
</svg>
