<?xml version="1.0" encoding="UTF-8" standalone="no"?>
<!DOCTYPE svg PUBLIC "-//W3C//DTD SVG 1.0//EN"
"http://www.w3.org/TR/2001/REC-SVG-20010904/DTD/svg10.dtd">
<!-- Created with Inkscape (http://www.inkscape.org/) -->
<svg
   id="svg625"
   sodipodi:version="0.32"
   inkscape:version="0.37"
   xmlns="http://www.w3.org/2000/svg"
   xmlns:sodipodi="http://sodipodi.sourceforge.net/DTD/sodipodi-0.dtd"
   xmlns:inkscape="http://www.inkscape.org/namespaces/inkscape"
   xmlns:xlink="http://www.w3.org/1999/xlink"
   width="210mm"
   height="297mm"
   sodipodi:docbase="/home/bobuss/wip/Music Haptic"
   sodipodi:docname="simila.svg">
  <defs
     id="defs627" />
  <sodipodi:namedview
     id="base"
     pagecolor="#ffffff"
     bordercolor="#666666"
     borderopacity="1.0"
     inkscape:pageopacity="0.0"
     inkscape:pageshadow="2"
     inkscape:zoom="2"
     inkscape:cx="254.893442"
     inkscape:cy="598.674378"
     inkscape:window-width="1156"
     inkscape:window-height="586"
     inkscape:window-x="224"
     inkscape:window-y="332" />
  <polygon
     sodipodi:type="star"
     style="font-size:12;fill:#ffff00;fill-opacity:0.75;fill-rule:evenodd;stroke:#000000;stroke-width:1pt;"
     id="polygon589"
     sodipodi:sides="6"
     sodipodi:cx="214.495467"
     sodipodi:cy="353.472843"
     sodipodi:r1="123.207080"
     sodipodi:r2="106.700459"
     sodipodi:arg1="-0.52639236"
     sodipodi:arg2="-0.00279359"
     points="321.023,291.571 321.196,353.175 321.368,414.778 268.104,445.729 214.84,476.679 161.404,446.027 107.968,415.374 107.795,353.771 107.623,292.168 160.887,261.217 214.151,230.266 267.587,260.919 321.023,291.571 "
     transform="matrix(0.240000,0.000000,0.000000,0.240000,92.57190,203.6394)" />
  <polygon
     sodipodi:type="star"
     style="font-size:12;fill:#ffff00;fill-opacity:0.75;fill-rule:evenodd;stroke:#000000;stroke-width:1pt;"
     id="polygon590"
     sodipodi:sides="6"
     sodipodi:cx="214.495467"
     sodipodi:cy="353.472843"
     sodipodi:r1="123.207080"
     sodipodi:r2="106.700459"
     sodipodi:arg1="-0.52639236"
     sodipodi:arg2="-0.00279359"
     points="321.023,291.571 321.196,353.175 321.368,414.778 268.104,445.729 214.84,476.679 161.404,446.027 107.968,415.374 107.795,353.771 107.623,292.168 160.887,261.217 214.151,230.266 267.587,260.919 321.023,291.571 "
     transform="matrix(0.240000,0.000000,0.000000,0.240000,144.3963,203.6394)" />
  <polygon
     sodipodi:type="star"
     style="font-size:12;fill:#ffff00;fill-opacity:0.75;fill-rule:evenodd;stroke:#000000;stroke-width:1pt;"
     id="polygon591"
     sodipodi:sides="6"
     sodipodi:cx="214.495467"
     sodipodi:cy="353.472843"
     sodipodi:r1="123.207080"
     sodipodi:r2="106.700459"
     sodipodi:arg1="-0.52639236"
     sodipodi:arg2="-0.00279359"
     points="321.023,291.571 321.196,353.175 321.368,414.778 268.104,445.729 214.84,476.679 161.404,446.027 107.968,415.374 107.795,353.771 107.623,292.168 160.887,261.217 214.151,230.266 267.587,260.919 321.023,291.571 "
     transform="matrix(0.240000,0.000000,0.000000,0.240000,196.0719,203.6394)" />
  <polygon
     sodipodi:type="star"
     style="font-size:12;fill:#ffff00;fill-opacity:0.75;fill-rule:evenodd;stroke:#000000;stroke-width:1pt;"
     id="polygon592"
     sodipodi:sides="6"
     sodipodi:cx="214.495467"
     sodipodi:cy="353.472843"
     sodipodi:r1="123.207080"
     sodipodi:r2="106.700459"
     sodipodi:arg1="-0.52639236"
     sodipodi:arg2="-0.00279359"
     points="321.023,291.571 321.196,353.175 321.368,414.778 268.104,445.729 214.84,476.679 161.404,446.027 107.968,415.374 107.795,353.771 107.623,292.168 160.887,261.217 214.151,230.266 267.587,260.919 321.023,291.571 "
     transform="matrix(0.240000,0.000000,0.000000,0.240000,247.8963,203.6394)" />
  <polygon
     sodipodi:type="star"
     style="font-size:12;fill:#ffff00;fill-opacity:0.75;fill-rule:evenodd;stroke:#000000;stroke-width:1pt;"
     id="polygon593"
     sodipodi:sides="6"
     sodipodi:cx="214.495467"
     sodipodi:cy="353.472843"
     sodipodi:r1="123.207080"
     sodipodi:r2="106.700459"
     sodipodi:arg1="-0.52639236"
     sodipodi:arg2="-0.00279359"
     points="321.023,291.571 321.196,353.175 321.368,414.778 268.104,445.729 214.84,476.679 161.404,446.027 107.968,415.374 107.795,353.771 107.623,292.168 160.887,261.217 214.151,230.266 267.587,260.919 321.023,291.571 "
     transform="matrix(0.240000,0.000000,0.000000,0.240000,-10.92810,203.6394)" />
  <polygon
     sodipodi:type="star"
     style="font-size:12;fill:#ffff00;fill-opacity:0.75;fill-rule:evenodd;stroke:#000000;stroke-width:1pt;"
     id="polygon594"
     sodipodi:sides="6"
     sodipodi:cx="214.495467"
     sodipodi:cy="353.472843"
     sodipodi:r1="123.207080"
     sodipodi:r2="106.700459"
     sodipodi:arg1="-0.52639236"
     sodipodi:arg2="-0.00279359"
     points="321.023,291.571 321.196,353.175 321.368,414.778 268.104,445.729 214.84,476.679 161.404,446.027 107.968,415.374 107.795,353.771 107.623,292.168 160.887,261.217 214.151,230.266 267.587,260.919 321.023,291.571 "
     transform="matrix(0.240000,0.000000,0.000000,0.240000,40.89630,203.6394)" />
  <polygon
     sodipodi:type="star"
     style="font-size:12;fill:#ffff00;fill-opacity:0.75;fill-rule:evenodd;stroke:#000000;stroke-width:1pt;"
     id="polygon595"
     sodipodi:sides="6"
     sodipodi:cx="214.495467"
     sodipodi:cy="353.472843"
     sodipodi:r1="123.207080"
     sodipodi:r2="106.700459"
     sodipodi:arg1="-0.52639236"
     sodipodi:arg2="-0.00279359"
     points="321.023,291.571 321.196,353.175 321.368,414.778 268.104,445.729 214.84,476.679 161.404,446.027 107.968,415.374 107.795,353.771 107.623,292.168 160.887,261.217 214.151,230.266 267.587,260.919 321.023,291.571 "
     transform="matrix(0.240000,0.000000,0.000000,0.240000,402.5719,203.6394)" />
  <polygon
     sodipodi:type="star"
     style="font-size:12;fill:#ffff00;fill-opacity:0.75;fill-rule:evenodd;stroke:#000000;stroke-width:1pt;"
     id="polygon596"
     sodipodi:sides="6"
     sodipodi:cx="214.495467"
     sodipodi:cy="353.472843"
     sodipodi:r1="123.207080"
     sodipodi:r2="106.700459"
     sodipodi:arg1="-0.52639236"
     sodipodi:arg2="-0.00279359"
     points="321.023,291.571 321.196,353.175 321.368,414.778 268.104,445.729 214.84,476.679 161.404,446.027 107.968,415.374 107.795,353.771 107.623,292.168 160.887,261.217 214.151,230.266 267.587,260.919 321.023,291.571 "
     transform="matrix(0.240000,0.000000,0.000000,0.240000,454.3963,203.6394)" />
  <polygon
     sodipodi:type="star"
     style="font-size:12;fill:#ffff00;fill-opacity:0.75;fill-rule:evenodd;stroke:#000000;stroke-width:1pt;"
     id="polygon597"
     sodipodi:sides="6"
     sodipodi:cx="214.495467"
     sodipodi:cy="353.472843"
     sodipodi:r1="123.207080"
     sodipodi:r2="106.700459"
     sodipodi:arg1="-0.52639236"
     sodipodi:arg2="-0.00279359"
     points="321.023,291.571 321.196,353.175 321.368,414.778 268.104,445.729 214.84,476.679 161.404,446.027 107.968,415.374 107.795,353.771 107.623,292.168 160.887,261.217 214.151,230.266 267.587,260.919 321.023,291.571 "
     transform="matrix(0.240000,0.000000,0.000000,0.240000,506.0719,203.6394)" />
  <polygon
     sodipodi:type="star"
     style="font-size:12;fill:#ffff00;fill-opacity:0.75;fill-rule:evenodd;stroke:#000000;stroke-width:1pt;"
     id="polygon598"
     sodipodi:sides="6"
     sodipodi:cx="214.495467"
     sodipodi:cy="353.472843"
     sodipodi:r1="123.207080"
     sodipodi:r2="106.700459"
     sodipodi:arg1="-0.52639236"
     sodipodi:arg2="-0.00279359"
     points="321.023,291.571 321.196,353.175 321.368,414.778 268.104,445.729 214.84,476.679 161.404,446.027 107.968,415.374 107.795,353.771 107.623,292.168 160.887,261.217 214.151,230.266 267.587,260.919 321.023,291.571 "
     transform="matrix(0.240000,0.000000,0.000000,0.240000,557.8963,203.6394)" />
  <polygon
     sodipodi:type="star"
     style="font-size:12;fill:#ffff00;fill-opacity:0.75;fill-rule:evenodd;stroke:#000000;stroke-width:1pt;"
     id="polygon599"
     sodipodi:sides="6"
     sodipodi:cx="214.495467"
     sodipodi:cy="353.472843"
     sodipodi:r1="123.207080"
     sodipodi:r2="106.700459"
     sodipodi:arg1="-0.52639236"
     sodipodi:arg2="-0.00279359"
     points="321.023,291.571 321.196,353.175 321.368,414.778 268.104,445.729 214.84,476.679 161.404,446.027 107.968,415.374 107.795,353.771 107.623,292.168 160.887,261.217 214.151,230.266 267.587,260.919 321.023,291.571 "
     transform="matrix(0.240000,0.000000,0.000000,0.240000,299.0719,203.6394)" />
  <polygon
     sodipodi:type="star"
     style="font-size:12;fill:#ffff00;fill-opacity:0.75;fill-rule:evenodd;stroke:#000000;stroke-width:1pt;"
     id="polygon600"
     sodipodi:sides="6"
     sodipodi:cx="214.495467"
     sodipodi:cy="353.472843"
     sodipodi:r1="123.207080"
     sodipodi:r2="106.700459"
     sodipodi:arg1="-0.52639236"
     sodipodi:arg2="-0.00279359"
     points="321.023,291.571 321.196,353.175 321.368,414.778 268.104,445.729 214.84,476.679 161.404,446.027 107.968,415.374 107.795,353.771 107.623,292.168 160.887,261.217 214.151,230.266 267.587,260.919 321.023,291.571 "
     transform="matrix(0.240000,0.000000,0.000000,0.240000,350.8963,203.6394)" />
  <text
     xml:space="preserve"
     style="fill:black;fill-opacity:1;stroke:none;font-family:helvetica;font-style:normal;font-weight:normal;font-size:12px;stroke-opacity:1;stroke-width:1pt;stroke-linejoin:miter;stroke-linecap:butt;"
     x="32.5736809"
     y="292.652267"
     id="text640"><tspan
       id="tspan641">si</tspan></text>
  <text
     xml:space="preserve"
     style="fill:black;fill-opacity:1;stroke:none;font-family:helvetica;font-style:normal;font-weight:normal;font-size:12px;stroke-opacity:1;stroke-width:1pt;stroke-linejoin:miter;stroke-linecap:butt;"
     x="82.1590042"
     y="292.652252"
     id="text643"><tspan
       id="tspan644">mi</tspan></text>
  <text
     xml:space="preserve"
     style="fill:black;fill-opacity:1;stroke:none;font-family:helvetica;font-style:normal;font-weight:normal;font-size:12px;stroke-opacity:1;stroke-width:1pt;stroke-linejoin:miter;stroke-linecap:butt;"
     x="136.346333"
     y="292.988220"
     id="text646"><tspan
       id="tspan647">la</tspan></text>
  <text
     xml:space="preserve"
     style="fill:black;fill-opacity:1;stroke:none;font-family:helvetica;font-style:normal;font-weight:normal;font-size:12px;stroke-opacity:1;stroke-width:1pt;stroke-linejoin:miter;stroke-linecap:butt;"
     x="188.139652"
     y="292.988220"
     id="text649"><tspan
       id="tspan650">ré</tspan></text>
  <text
     xml:space="preserve"
     style="fill:black;fill-opacity:1;stroke:none;font-family:helvetica;font-style:normal;font-weight:normal;font-size:12px;stroke-opacity:1;stroke-width:1pt;stroke-linejoin:miter;stroke-linecap:butt;"
     x="238.012985"
     y="292.988220"
     id="text652"><tspan
       id="tspan653">sol</tspan></text>
  <text
     xml:space="preserve"
     style="fill:black;fill-opacity:1;stroke:none;font-family:helvetica;font-style:normal;font-weight:normal;font-size:12px;stroke-opacity:1;stroke-width:1pt;stroke-linejoin:miter;stroke-linecap:butt;"
     x="291.024307"
     y="292.988251"
     id="text655"><tspan
       id="tspan656">do</tspan></text>
  <text
     xml:space="preserve"
     style="fill:black;fill-opacity:1;stroke:none;font-family:helvetica;font-style:normal;font-weight:normal;font-size:12px;stroke-opacity:1;stroke-width:1pt;stroke-linejoin:miter;stroke-linecap:butt;"
     x="344.785618"
     y="293.084229"
     id="text658"><tspan
       id="tspan659">fa</tspan></text>
  <text
     xml:space="preserve"
     style="fill:black;fill-opacity:1;stroke:none;font-family:helvetica;font-style:normal;font-weight:normal;font-size:12px;stroke-opacity:1;stroke-width:1pt;stroke-linejoin:miter;stroke-linecap:butt;"
     x="394.628971"
     y="292.988220"
     id="text661"><tspan
       id="tspan662">sib</tspan></text>
  <text
     xml:space="preserve"
     style="fill:black;fill-opacity:1;stroke:none;font-family:helvetica;font-style:normal;font-weight:normal;font-size:12px;stroke-opacity:1;stroke-width:1pt;stroke-linejoin:miter;stroke-linecap:butt;"
     x="444.214298"
     y="292.988251"
     id="text664"><tspan
       id="tspan665">mib</tspan></text>
  <text
     xml:space="preserve"
     style="fill:black;fill-opacity:1;stroke:none;font-family:helvetica;font-style:normal;font-weight:normal;font-size:12px;stroke-opacity:1;stroke-width:1pt;stroke-linejoin:miter;stroke-linecap:butt;"
     x="498.407642"
     y="292.988251"
     id="text667"><tspan
       id="tspan668">lab</tspan></text>
  <text
     xml:space="preserve"
     style="fill:black;fill-opacity:1;stroke:none;font-family:helvetica;font-style:normal;font-weight:normal;font-size:12px;stroke-opacity:1;stroke-width:1pt;stroke-linejoin:miter;stroke-linecap:butt;"
     x="550.056934"
     y="292.988251"
     id="text670"><tspan
       id="tspan671">réb</tspan></text>
  <text
     xml:space="preserve"
     style="fill:black;fill-opacity:1;stroke:none;font-family:helvetica;font-style:normal;font-weight:normal;font-size:12px;stroke-opacity:1;stroke-width:1pt;stroke-linejoin:miter;stroke-linecap:butt;"
     x="600.068256"
     y="292.988251"
     id="text673"><tspan
       id="tspan674">solb</tspan></text>
</svg>
