<?xml version="1.0" encoding="UTF-8" standalone="no"?>
<!DOCTYPE svg PUBLIC "-//W3C//DTD SVG 1.0//EN"
"http://www.w3.org/TR/2001/REC-SVG-20010904/DTD/svg10.dtd">
<!-- Created with Inkscape (http://www.inkscape.org/) -->
<svg
   xmlns="http://www.w3.org/2000/svg"
   xmlns:xlink="http://www.w3.org/1999/xlink"
   version="1.0"
   x="0"
   y="0"
   width="744.094482"
   height="1052.36218"
   id="svg1">
  <defs
     id="defs3" />
  <g
     transform="matrix(6.870808e-2,0.000000,0.000000,7.379126e-2,347.9561,473.5523)"
     style="font-size:12;"
     id="g643">
    <g
       id="g595">
      <polygon
         points="431.87,908.406 326.547,912.848 181.138,916.574 124.63,827.583 48.698,703.518 97.5122,610.085 166.99,482.294 272.313,477.851 417.722,474.125 474.23,563.116 550.162,687.181 501.348,780.614 431.87,908.406 "
         style="opacity:0.99;fill:#ffff00;fill-opacity:0.75;fill-rule:evenodd;stroke:#000000;stroke-width:1pt;"
         id="polygon588" />
      <polygon
         points="431.87,908.406 326.547,912.848 181.138,916.574 124.63,827.583 48.698,703.518 97.5122,610.085 166.99,482.294 272.313,477.851 417.722,474.125 474.23,563.116 550.162,687.181 501.348,780.614 431.87,908.406 "
         transform="translate(-11.51654,-443.3866)"
         style="opacity:0.99;fill:#ffff00;fill-opacity:0.75;fill-rule:evenodd;stroke:#000000;stroke-width:1pt;"
         id="polygon589" />
      <polygon
         points="431.87,908.406 326.547,912.848 181.138,916.574 124.63,827.583 48.698,703.518 97.5122,610.085 166.99,482.294 272.313,477.851 417.722,474.125 474.23,563.116 550.162,687.181 501.348,780.614 431.87,908.406 "
         transform="translate(380.0457,-230.3307)"
         style="opacity:0.99;fill:#ffff00;fill-opacity:0.75;fill-rule:evenodd;stroke:#000000;stroke-width:1pt;"
         id="polygon590" />
      <polygon
         points="431.87,908.406 326.547,912.848 181.138,916.574 124.63,827.583 48.698,703.518 97.5122,610.085 166.99,482.294 272.313,477.851 417.722,474.125 474.23,563.116 550.162,687.181 501.348,780.614 431.87,908.406 "
         transform="translate(-391.5622,-213.0559)"
         style="opacity:0.99;fill:#ffff00;fill-opacity:0.75;fill-rule:evenodd;stroke:#000000;stroke-width:1pt;"
         id="polygon591" />
      <polygon
         points="431.87,908.406 326.547,912.848 181.138,916.574 124.63,827.583 48.698,703.518 97.5122,610.085 166.99,482.294 272.313,477.851 417.722,474.125 474.23,563.116 550.162,687.181 501.348,780.614 431.87,908.406 "
         transform="translate(-380.0457,236.0890)"
         style="opacity:0.99;fill:#ffff00;fill-opacity:0.75;fill-rule:evenodd;stroke:#000000;stroke-width:1pt;"
         id="polygon592" />
      <polygon
         points="431.87,908.406 326.547,912.848 181.138,916.574 124.63,827.583 48.698,703.518 97.5122,610.085 166.99,482.294 272.313,477.851 417.722,474.125 474.23,563.116 550.162,687.181 501.348,780.614 431.87,908.406 "
         transform="translate(11.51654,443.3866)"
         style="opacity:0.99;fill:#ffff00;fill-opacity:0.75;fill-rule:evenodd;stroke:#000000;stroke-width:1pt;"
         id="polygon593" />
      <polygon
         points="431.87,908.406 326.547,912.848 181.138,916.574 124.63,827.583 48.698,703.518 97.5122,610.085 166.99,482.294 272.313,477.851 417.722,474.125 474.23,563.116 550.162,687.181 501.348,780.614 431.87,908.406 "
         transform="translate(391.5622,213.0559)"
         style="opacity:0.99;fill:#ffff00;fill-opacity:0.75;fill-rule:evenodd;stroke:#000000;stroke-width:1pt;"
         id="polygon594" />
    </g>
    <g
       transform="translate(-1163.170,-195.7811)"
       id="g603">
      <polygon
         points="431.87,908.406 326.547,912.848 181.138,916.574 124.63,827.583 48.698,703.518 97.5122,610.085 166.99,482.294 272.313,477.851 417.722,474.125 474.23,563.116 550.162,687.181 501.348,780.614 431.87,908.406 "
         style="opacity:0.99;fill:#ffff00;fill-opacity:0.75;fill-rule:evenodd;stroke:#000000;stroke-width:1pt;"
         id="polygon604" />
      <polygon
         points="431.87,908.406 326.547,912.848 181.138,916.574 124.63,827.583 48.698,703.518 97.5122,610.085 166.99,482.294 272.313,477.851 417.722,474.125 474.23,563.116 550.162,687.181 501.348,780.614 431.87,908.406 "
         transform="translate(-11.51654,-443.3866)"
         style="opacity:0.99;fill:#ffff00;fill-opacity:0.75;fill-rule:evenodd;stroke:#000000;stroke-width:1pt;"
         id="polygon605" />
      <polygon
         points="431.87,908.406 326.547,912.848 181.138,916.574 124.63,827.583 48.698,703.518 97.5122,610.085 166.99,482.294 272.313,477.851 417.722,474.125 474.23,563.116 550.162,687.181 501.348,780.614 431.87,908.406 "
         transform="translate(380.0457,-230.3307)"
         style="opacity:0.99;fill:#ffff00;fill-opacity:0.75;fill-rule:evenodd;stroke:#000000;stroke-width:1pt;"
         id="polygon606" />
      <polygon
         points="431.87,908.406 326.547,912.848 181.138,916.574 124.63,827.583 48.698,703.518 97.5122,610.085 166.99,482.294 272.313,477.851 417.722,474.125 474.23,563.116 550.162,687.181 501.348,780.614 431.87,908.406 "
         transform="translate(-391.5622,-213.0559)"
         style="opacity:0.99;fill:#ffff00;fill-opacity:0.75;fill-rule:evenodd;stroke:#000000;stroke-width:1pt;"
         id="polygon607" />
      <polygon
         points="431.87,908.406 326.547,912.848 181.138,916.574 124.63,827.583 48.698,703.518 97.5122,610.085 166.99,482.294 272.313,477.851 417.722,474.125 474.23,563.116 550.162,687.181 501.348,780.614 431.87,908.406 "
         transform="translate(-380.0457,236.0890)"
         style="opacity:0.99;fill:#ffff00;fill-opacity:0.75;fill-rule:evenodd;stroke:#000000;stroke-width:1pt;"
         id="polygon608" />
      <polygon
         points="431.87,908.406 326.547,912.848 181.138,916.574 124.63,827.583 48.698,703.518 97.5122,610.085 166.99,482.294 272.313,477.851 417.722,474.125 474.23,563.116 550.162,687.181 501.348,780.614 431.87,908.406 "
         transform="translate(11.51654,443.3866)"
         style="opacity:0.99;fill:#ffff00;fill-opacity:0.75;fill-rule:evenodd;stroke:#000000;stroke-width:1pt;"
         id="polygon609" />
      <polygon
         points="431.87,908.406 326.547,912.848 181.138,916.574 124.63,827.583 48.698,703.518 97.5122,610.085 166.99,482.294 272.313,477.851 417.722,474.125 474.23,563.116 550.162,687.181 501.348,780.614 431.87,908.406 "
         transform="translate(391.5622,213.0559)"
         style="opacity:0.99;fill:#ffff00;fill-opacity:0.75;fill-rule:evenodd;stroke:#000000;stroke-width:1pt;"
         id="polygon610" />
    </g>
    <g
       transform="translate(-414.5953,-1105.587)"
       id="g611">
      <polygon
         points="431.87,908.406 326.547,912.848 181.138,916.574 124.63,827.583 48.698,703.518 97.5122,610.085 166.99,482.294 272.313,477.851 417.722,474.125 474.23,563.116 550.162,687.181 501.348,780.614 431.87,908.406 "
         style="opacity:0.99;fill:#ffff00;fill-opacity:0.75;fill-rule:evenodd;stroke:#000000;stroke-width:1pt;"
         id="polygon612" />
      <polygon
         points="431.87,908.406 326.547,912.848 181.138,916.574 124.63,827.583 48.698,703.518 97.5122,610.085 166.99,482.294 272.313,477.851 417.722,474.125 474.23,563.116 550.162,687.181 501.348,780.614 431.87,908.406 "
         transform="translate(-11.51654,-443.3866)"
         style="opacity:0.99;fill:#ffff00;fill-opacity:0.75;fill-rule:evenodd;stroke:#000000;stroke-width:1pt;"
         id="polygon613" />
      <polygon
         points="431.87,908.406 326.547,912.848 181.138,916.574 124.63,827.583 48.698,703.518 97.5122,610.085 166.99,482.294 272.313,477.851 417.722,474.125 474.23,563.116 550.162,687.181 501.348,780.614 431.87,908.406 "
         transform="translate(380.0457,-230.3307)"
         style="opacity:0.99;fill:#ffff00;fill-opacity:0.75;fill-rule:evenodd;stroke:#000000;stroke-width:1pt;"
         id="polygon614" />
      <polygon
         points="431.87,908.406 326.547,912.848 181.138,916.574 124.63,827.583 48.698,703.518 97.5122,610.085 166.99,482.294 272.313,477.851 417.722,474.125 474.23,563.116 550.162,687.181 501.348,780.614 431.87,908.406 "
         transform="translate(-391.5622,-213.0559)"
         style="opacity:0.99;fill:#ffff00;fill-opacity:0.75;fill-rule:evenodd;stroke:#000000;stroke-width:1pt;"
         id="polygon615" />
      <polygon
         points="431.87,908.406 326.547,912.848 181.138,916.574 124.63,827.583 48.698,703.518 97.5122,610.085 166.99,482.294 272.313,477.851 417.722,474.125 474.23,563.116 550.162,687.181 501.348,780.614 431.87,908.406 "
         transform="translate(-380.0457,236.0890)"
         style="opacity:0.99;fill:#ffff00;fill-opacity:0.75;fill-rule:evenodd;stroke:#000000;stroke-width:1pt;"
         id="polygon616" />
      <polygon
         points="431.87,908.406 326.547,912.848 181.138,916.574 124.63,827.583 48.698,703.518 97.5122,610.085 166.99,482.294 272.313,477.851 417.722,474.125 474.23,563.116 550.162,687.181 501.348,780.614 431.87,908.406 "
         transform="translate(11.51654,443.3866)"
         style="opacity:0.99;fill:#ffff00;fill-opacity:0.75;fill-rule:evenodd;stroke:#000000;stroke-width:1pt;"
         id="polygon617" />
      <polygon
         points="431.87,908.406 326.547,912.848 181.138,916.574 124.63,827.583 48.698,703.518 97.5122,610.085 166.99,482.294 272.313,477.851 417.722,474.125 474.23,563.116 550.162,687.181 501.348,780.614 431.87,908.406 "
         transform="translate(391.5622,213.0559)"
         style="opacity:0.99;fill:#ffff00;fill-opacity:0.75;fill-rule:evenodd;stroke:#000000;stroke-width:1pt;"
         id="polygon618" />
    </g>
    <g
       transform="translate(748.5748,-909.8063)"
       id="g619">
      <polygon
         points="431.87,908.406 326.547,912.848 181.138,916.574 124.63,827.583 48.698,703.518 97.5122,610.085 166.99,482.294 272.313,477.851 417.722,474.125 474.23,563.116 550.162,687.181 501.348,780.614 431.87,908.406 "
         style="opacity:0.99;fill:#ffff00;fill-opacity:0.75;fill-rule:evenodd;stroke:#000000;stroke-width:1pt;"
         id="polygon620" />
      <polygon
         points="431.87,908.406 326.547,912.848 181.138,916.574 124.63,827.583 48.698,703.518 97.5122,610.085 166.99,482.294 272.313,477.851 417.722,474.125 474.23,563.116 550.162,687.181 501.348,780.614 431.87,908.406 "
         transform="translate(-11.51654,-443.3866)"
         style="opacity:0.99;fill:#ffff00;fill-opacity:0.75;fill-rule:evenodd;stroke:#000000;stroke-width:1pt;"
         id="polygon621" />
      <polygon
         points="431.87,908.406 326.547,912.848 181.138,916.574 124.63,827.583 48.698,703.518 97.5122,610.085 166.99,482.294 272.313,477.851 417.722,474.125 474.23,563.116 550.162,687.181 501.348,780.614 431.87,908.406 "
         transform="translate(380.0457,-230.3307)"
         style="opacity:0.99;fill:#ffff00;fill-opacity:0.75;fill-rule:evenodd;stroke:#000000;stroke-width:1pt;"
         id="polygon622" />
      <polygon
         points="431.87,908.406 326.547,912.848 181.138,916.574 124.63,827.583 48.698,703.518 97.5122,610.085 166.99,482.294 272.313,477.851 417.722,474.125 474.23,563.116 550.162,687.181 501.348,780.614 431.87,908.406 "
         transform="translate(-391.5622,-213.0559)"
         style="opacity:0.99;fill:#ffff00;fill-opacity:0.75;fill-rule:evenodd;stroke:#000000;stroke-width:1pt;"
         id="polygon623" />
      <polygon
         points="431.87,908.406 326.547,912.848 181.138,916.574 124.63,827.583 48.698,703.518 97.5122,610.085 166.99,482.294 272.313,477.851 417.722,474.125 474.23,563.116 550.162,687.181 501.348,780.614 431.87,908.406 "
         transform="translate(-380.0457,236.0890)"
         style="opacity:0.99;fill:#ffff00;fill-opacity:0.75;fill-rule:evenodd;stroke:#000000;stroke-width:1pt;"
         id="polygon624" />
      <polygon
         points="431.87,908.406 326.547,912.848 181.138,916.574 124.63,827.583 48.698,703.518 97.5122,610.085 166.99,482.294 272.313,477.851 417.722,474.125 474.23,563.116 550.162,687.181 501.348,780.614 431.87,908.406 "
         transform="translate(11.51654,443.3866)"
         style="opacity:0.99;fill:#ffff00;fill-opacity:0.75;fill-rule:evenodd;stroke:#000000;stroke-width:1pt;"
         id="polygon625" />
      <polygon
         points="431.87,908.406 326.547,912.848 181.138,916.574 124.63,827.583 48.698,703.518 97.5122,610.085 166.99,482.294 272.313,477.851 417.722,474.125 474.23,563.116 550.162,687.181 501.348,780.614 431.87,908.406 "
         transform="translate(391.5622,213.0559)"
         style="opacity:0.99;fill:#ffff00;fill-opacity:0.75;fill-rule:evenodd;stroke:#000000;stroke-width:1pt;"
         id="polygon626" />
    </g>
    <g
       transform="translate(1163.170,195.7811)"
       id="g627">
      <polygon
         points="431.87,908.406 326.547,912.848 181.138,916.574 124.63,827.583 48.698,703.518 97.5122,610.085 166.99,482.294 272.313,477.851 417.722,474.125 474.23,563.116 550.162,687.181 501.348,780.614 431.87,908.406 "
         style="opacity:0.99;fill:#ffff00;fill-opacity:0.75;fill-rule:evenodd;stroke:#000000;stroke-width:1pt;"
         id="polygon628" />
      <polygon
         points="431.87,908.406 326.547,912.848 181.138,916.574 124.63,827.583 48.698,703.518 97.5122,610.085 166.99,482.294 272.313,477.851 417.722,474.125 474.23,563.116 550.162,687.181 501.348,780.614 431.87,908.406 "
         transform="translate(-11.51654,-443.3866)"
         style="opacity:0.99;fill:#ffff00;fill-opacity:0.75;fill-rule:evenodd;stroke:#000000;stroke-width:1pt;"
         id="polygon629" />
      <polygon
         points="431.87,908.406 326.547,912.848 181.138,916.574 124.63,827.583 48.698,703.518 97.5122,610.085 166.99,482.294 272.313,477.851 417.722,474.125 474.23,563.116 550.162,687.181 501.348,780.614 431.87,908.406 "
         transform="translate(380.0457,-230.3307)"
         style="opacity:0.99;fill:#ffff00;fill-opacity:0.75;fill-rule:evenodd;stroke:#000000;stroke-width:1pt;"
         id="polygon630" />
      <polygon
         points="431.87,908.406 326.547,912.848 181.138,916.574 124.63,827.583 48.698,703.518 97.5122,610.085 166.99,482.294 272.313,477.851 417.722,474.125 474.23,563.116 550.162,687.181 501.348,780.614 431.87,908.406 "
         transform="translate(-391.5622,-213.0559)"
         style="opacity:0.99;fill:#ffff00;fill-opacity:0.75;fill-rule:evenodd;stroke:#000000;stroke-width:1pt;"
         id="polygon631" />
      <polygon
         points="431.87,908.406 326.547,912.848 181.138,916.574 124.63,827.583 48.698,703.518 97.5122,610.085 166.99,482.294 272.313,477.851 417.722,474.125 474.23,563.116 550.162,687.181 501.348,780.614 431.87,908.406 "
         transform="translate(-380.0457,236.0890)"
         style="opacity:0.99;fill:#ffff00;fill-opacity:0.75;fill-rule:evenodd;stroke:#000000;stroke-width:1pt;"
         id="polygon632" />
      <polygon
         points="431.87,908.406 326.547,912.848 181.138,916.574 124.63,827.583 48.698,703.518 97.5122,610.085 166.99,482.294 272.313,477.851 417.722,474.125 474.23,563.116 550.162,687.181 501.348,780.614 431.87,908.406 "
         transform="translate(11.51654,443.3866)"
         style="opacity:0.99;fill:#ffff00;fill-opacity:0.75;fill-rule:evenodd;stroke:#000000;stroke-width:1pt;"
         id="polygon633" />
      <polygon
         points="431.87,908.406 326.547,912.848 181.138,916.574 124.63,827.583 48.698,703.518 97.5122,610.085 166.99,482.294 272.313,477.851 417.722,474.125 474.23,563.116 550.162,687.181 501.348,780.614 431.87,908.406 "
         transform="translate(391.5622,213.0559)"
         style="opacity:0.99;fill:#ffff00;fill-opacity:0.75;fill-rule:evenodd;stroke:#000000;stroke-width:1pt;"
         id="polygon634" />
    </g>
    <g
       id="g635">
      <polygon
         points="431.87,908.406 326.547,912.848 181.138,916.574 124.63,827.583 48.698,703.518 97.5122,610.085 166.99,482.294 272.313,477.851 417.722,474.125 474.23,563.116 550.162,687.181 501.348,780.614 431.87,908.406 "
         style="opacity:0.99;fill:#ffff00;fill-opacity:0.75;fill-rule:evenodd;stroke:#000000;stroke-width:1pt;"
         id="polygon636" />
      <polygon
         points="431.87,908.406 326.547,912.848 181.138,916.574 124.63,827.583 48.698,703.518 97.5122,610.085 166.99,482.294 272.313,477.851 417.722,474.125 474.23,563.116 550.162,687.181 501.348,780.614 431.87,908.406 "
         transform="translate(-11.51654,-443.3866)"
         style="opacity:0.99;fill:#ffff00;fill-opacity:0.75;fill-rule:evenodd;stroke:#000000;stroke-width:1pt;"
         id="polygon637" />
      <polygon
         points="431.87,908.406 326.547,912.848 181.138,916.574 124.63,827.583 48.698,703.518 97.5122,610.085 166.99,482.294 272.313,477.851 417.722,474.125 474.23,563.116 550.162,687.181 501.348,780.614 431.87,908.406 "
         transform="translate(380.0457,-230.3307)"
         style="opacity:0.99;fill:#ffff00;fill-opacity:0.75;fill-rule:evenodd;stroke:#000000;stroke-width:1pt;"
         id="polygon638" />
      <polygon
         points="431.87,908.406 326.547,912.848 181.138,916.574 124.63,827.583 48.698,703.518 97.5122,610.085 166.99,482.294 272.313,477.851 417.722,474.125 474.23,563.116 550.162,687.181 501.348,780.614 431.87,908.406 "
         transform="translate(-391.5622,-213.0559)"
         style="opacity:0.99;fill:#ffff00;fill-opacity:0.75;fill-rule:evenodd;stroke:#000000;stroke-width:1pt;"
         id="polygon639" />
      <polygon
         points="431.87,908.406 326.547,912.848 181.138,916.574 124.63,827.583 48.698,703.518 97.5122,610.085 166.99,482.294 272.313,477.851 417.722,474.125 474.23,563.116 550.162,687.181 501.348,780.614 431.87,908.406 "
         transform="translate(-380.0457,236.0890)"
         style="opacity:0.99;fill:#ffff00;fill-opacity:0.75;fill-rule:evenodd;stroke:#000000;stroke-width:1pt;"
         id="polygon640" />
      <polygon
         points="431.87,908.406 326.547,912.848 181.138,916.574 124.63,827.583 48.698,703.518 97.5122,610.085 166.99,482.294 272.313,477.851 417.722,474.125 474.23,563.116 550.162,687.181 501.348,780.614 431.87,908.406 "
         transform="translate(11.51654,443.3866)"
         style="opacity:0.99;fill:#ffff00;fill-opacity:0.75;fill-rule:evenodd;stroke:#000000;stroke-width:1pt;"
         id="polygon641" />
      <polygon
         points="431.87,908.406 326.547,912.848 181.138,916.574 124.63,827.583 48.698,703.518 97.5122,610.085 166.99,482.294 272.313,477.851 417.722,474.125 474.23,563.116 550.162,687.181 501.348,780.614 431.87,908.406 "
         transform="translate(391.5622,213.0559)"
         style="opacity:0.99;fill:#ffff00;fill-opacity:0.75;fill-rule:evenodd;stroke:#000000;stroke-width:1pt;"
         id="polygon642" />
    </g>
  </g>
  <polygon
     points="431.87,908.406 326.547,912.848 181.138,916.574 124.63,827.583 48.698,703.518 97.5122,610.085 166.99,482.294 272.313,477.851 417.722,474.125 474.23,563.116 550.162,687.181 501.348,780.614 431.87,908.406 "
     transform="matrix(6.870808e-2,0.000000,0.000000,7.379126e-2,370.6486,324.2151)"
     style="font-size:12;opacity:0.99;fill:#ffff00;fill-opacity:0.75;fill-rule:evenodd;stroke:#000000;stroke-width:1pt;"
     id="polygon694" />
  <polygon
     points="431.87,908.406 326.547,912.848 181.138,916.574 124.63,827.583 48.698,703.518 97.5122,610.085 166.99,482.294 272.313,477.851 417.722,474.125 474.23,563.116 550.162,687.181 501.348,780.614 431.87,908.406 "
     transform="matrix(6.870808e-2,0.000000,0.000000,7.379126e-2,369.8573,291.4970)"
     style="font-size:12;opacity:0.99;fill:#ffff00;fill-opacity:0.75;fill-rule:evenodd;stroke:#000000;stroke-width:1pt;"
     id="polygon695" />
  <polygon
     points="431.87,908.406 326.547,912.848 181.138,916.574 124.63,827.583 48.698,703.518 97.5122,610.085 166.99,482.294 272.313,477.851 417.722,474.125 474.23,563.116 550.162,687.181 501.348,780.614 431.87,908.406 "
     transform="matrix(6.870808e-2,0.000000,0.000000,7.379126e-2,396.7608,307.2187)"
     style="font-size:12;opacity:0.99;fill:#ffff00;fill-opacity:0.75;fill-rule:evenodd;stroke:#000000;stroke-width:1pt;"
     id="polygon696" />
  <polygon
     points="431.87,908.406 326.547,912.848 181.138,916.574 124.63,827.583 48.698,703.518 97.5122,610.085 166.99,482.294 272.313,477.851 417.722,474.125 474.23,563.116 550.162,687.181 501.348,780.614 431.87,908.406 "
     transform="matrix(6.870808e-2,0.000000,0.000000,7.379126e-2,343.7451,308.4934)"
     style="font-size:12;opacity:0.99;fill:#ffff00;fill-opacity:0.75;fill-rule:evenodd;stroke:#000000;stroke-width:1pt;"
     id="polygon697" />
  <polygon
     points="431.87,908.406 326.547,912.848 181.138,916.574 124.63,827.583 48.698,703.518 97.5122,610.085 166.99,482.294 272.313,477.851 417.722,474.125 474.23,563.116 550.162,687.181 501.348,780.614 431.87,908.406 "
     transform="matrix(6.870808e-2,0.000000,0.000000,7.379126e-2,344.5364,341.6364)"
     style="font-size:12;opacity:0.99;fill:#ffff00;fill-opacity:0.75;fill-rule:evenodd;stroke:#000000;stroke-width:1pt;"
     id="polygon698" />
  <polygon
     points="431.87,908.406 326.547,912.848 181.138,916.574 124.63,827.583 48.698,703.518 97.5122,610.085 166.99,482.294 272.313,477.851 417.722,474.125 474.23,563.116 550.162,687.181 501.348,780.614 431.87,908.406 "
     transform="matrix(6.870808e-2,0.000000,0.000000,7.379126e-2,371.4399,356.9332)"
     style="font-size:12;opacity:0.99;fill:#ffff00;fill-opacity:0.75;fill-rule:evenodd;stroke:#000000;stroke-width:1pt;"
     id="polygon699" />
  <polygon
     points="431.87,908.406 326.547,912.848 181.138,916.574 124.63,827.583 48.698,703.518 97.5122,610.085 166.99,482.294 272.313,477.851 417.722,474.125 474.23,563.116 550.162,687.181 501.348,780.614 431.87,908.406 "
     transform="matrix(6.870808e-2,0.000000,0.000000,7.379126e-2,397.5521,339.9368)"
     style="font-size:12;opacity:0.99;fill:#ffff00;fill-opacity:0.75;fill-rule:evenodd;stroke:#000000;stroke-width:1pt;"
     id="polygon700" />
  <polygon
     points="431.87,908.406 326.547,912.848 181.138,916.574 124.63,827.583 48.698,703.518 97.5122,610.085 166.99,482.294 272.313,477.851 417.722,474.125 474.23,563.116 550.162,687.181 501.348,780.614 431.87,908.406 "
     transform="matrix(6.870808e-2,0.000000,0.000000,7.379126e-2,290.7294,309.7682)"
     style="font-size:12;opacity:0.99;fill:#ffff00;fill-opacity:0.75;fill-rule:evenodd;stroke:#000000;stroke-width:1pt;"
     id="polygon702" />
  <polygon
     points="431.87,908.406 326.547,912.848 181.138,916.574 124.63,827.583 48.698,703.518 97.5122,610.085 166.99,482.294 272.313,477.851 417.722,474.125 474.23,563.116 550.162,687.181 501.348,780.614 431.87,908.406 "
     transform="matrix(6.870808e-2,0.000000,0.000000,7.379126e-2,289.9381,277.0501)"
     style="font-size:12;opacity:0.99;fill:#ffff00;fill-opacity:0.75;fill-rule:evenodd;stroke:#000000;stroke-width:1pt;"
     id="polygon703" />
  <polygon
     points="431.87,908.406 326.547,912.848 181.138,916.574 124.63,827.583 48.698,703.518 97.5122,610.085 166.99,482.294 272.313,477.851 417.722,474.125 474.23,563.116 550.162,687.181 501.348,780.614 431.87,908.406 "
     transform="matrix(6.870808e-2,0.000000,0.000000,7.379126e-2,316.8416,292.7718)"
     style="font-size:12;opacity:0.99;fill:#ffff00;fill-opacity:0.75;fill-rule:evenodd;stroke:#000000;stroke-width:1pt;"
     id="polygon704" />
  <polygon
     points="431.87,908.406 326.547,912.848 181.138,916.574 124.63,827.583 48.698,703.518 97.5122,610.085 166.99,482.294 272.313,477.851 417.722,474.125 474.23,563.116 550.162,687.181 501.348,780.614 431.87,908.406 "
     transform="matrix(6.870808e-2,0.000000,0.000000,7.379126e-2,263.8259,294.0465)"
     style="font-size:12;opacity:0.99;fill:#ffff00;fill-opacity:0.75;fill-rule:evenodd;stroke:#000000;stroke-width:1pt;"
     id="polygon705" />
  <polygon
     points="431.87,908.406 326.547,912.848 181.138,916.574 124.63,827.583 48.698,703.518 97.5122,610.085 166.99,482.294 272.313,477.851 417.722,474.125 474.23,563.116 550.162,687.181 501.348,780.614 431.87,908.406 "
     transform="matrix(6.870808e-2,0.000000,0.000000,7.379126e-2,264.6172,327.1895)"
     style="font-size:12;opacity:0.99;fill:#ffff00;fill-opacity:0.75;fill-rule:evenodd;stroke:#000000;stroke-width:1pt;"
     id="polygon706" />
  <polygon
     points="431.87,908.406 326.547,912.848 181.138,916.574 124.63,827.583 48.698,703.518 97.5122,610.085 166.99,482.294 272.313,477.851 417.722,474.125 474.23,563.116 550.162,687.181 501.348,780.614 431.87,908.406 "
     transform="matrix(6.870808e-2,0.000000,0.000000,7.379126e-2,291.5207,342.4863)"
     style="font-size:12;opacity:0.99;fill:#ffff00;fill-opacity:0.75;fill-rule:evenodd;stroke:#000000;stroke-width:1pt;"
     id="polygon707" />
  <polygon
     points="431.87,908.406 326.547,912.848 181.138,916.574 124.63,827.583 48.698,703.518 97.5122,610.085 166.99,482.294 272.313,477.851 417.722,474.125 474.23,563.116 550.162,687.181 501.348,780.614 431.87,908.406 "
     transform="matrix(6.870808e-2,0.000000,0.000000,7.379126e-2,317.6329,325.4899)"
     style="font-size:12;opacity:0.99;fill:#ffff00;fill-opacity:0.75;fill-rule:evenodd;stroke:#000000;stroke-width:1pt;"
     id="polygon708" />
  <polygon
     points="431.87,908.406 326.547,912.848 181.138,916.574 124.63,827.583 48.698,703.518 97.5122,610.085 166.99,482.294 272.313,477.851 417.722,474.125 474.23,563.116 550.162,687.181 501.348,780.614 431.87,908.406 "
     transform="matrix(6.870808e-2,0.000000,0.000000,7.379126e-2,342.1626,242.6324)"
     style="font-size:12;opacity:0.99;fill:#ffff00;fill-opacity:0.75;fill-rule:evenodd;stroke:#000000;stroke-width:1pt;"
     id="polygon710" />
  <polygon
     points="431.87,908.406 326.547,912.848 181.138,916.574 124.63,827.583 48.698,703.518 97.5122,610.085 166.99,482.294 272.313,477.851 417.722,474.125 474.23,563.116 550.162,687.181 501.348,780.614 431.87,908.406 "
     transform="matrix(6.870808e-2,0.000000,0.000000,7.379126e-2,341.3713,209.9143)"
     style="font-size:12;opacity:0.99;fill:#ffff00;fill-opacity:0.75;fill-rule:evenodd;stroke:#000000;stroke-width:1pt;"
     id="polygon711" />
  <polygon
     points="431.87,908.406 326.547,912.848 181.138,916.574 124.63,827.583 48.698,703.518 97.5122,610.085 166.99,482.294 272.313,477.851 417.722,474.125 474.23,563.116 550.162,687.181 501.348,780.614 431.87,908.406 "
     transform="matrix(6.870808e-2,0.000000,0.000000,7.379126e-2,368.2748,225.6360)"
     style="font-size:12;opacity:0.99;fill:#ffff00;fill-opacity:0.75;fill-rule:evenodd;stroke:#000000;stroke-width:1pt;"
     id="polygon712" />
  <polygon
     points="431.87,908.406 326.547,912.848 181.138,916.574 124.63,827.583 48.698,703.518 97.5122,610.085 166.99,482.294 272.313,477.851 417.722,474.125 474.23,563.116 550.162,687.181 501.348,780.614 431.87,908.406 "
     transform="matrix(6.870808e-2,0.000000,0.000000,7.379126e-2,315.2591,226.9107)"
     style="font-size:12;opacity:0.99;fill:#ffff00;fill-opacity:0.75;fill-rule:evenodd;stroke:#000000;stroke-width:1pt;"
     id="polygon713" />
  <polygon
     points="431.87,908.406 326.547,912.848 181.138,916.574 124.63,827.583 48.698,703.518 97.5122,610.085 166.99,482.294 272.313,477.851 417.722,474.125 474.23,563.116 550.162,687.181 501.348,780.614 431.87,908.406 "
     transform="matrix(6.870808e-2,0.000000,0.000000,7.379126e-2,316.0504,260.0537)"
     style="font-size:12;opacity:0.99;fill:#ffff00;fill-opacity:0.75;fill-rule:evenodd;stroke:#000000;stroke-width:1pt;"
     id="polygon714" />
  <polygon
     points="431.87,908.406 326.547,912.848 181.138,916.574 124.63,827.583 48.698,703.518 97.5122,610.085 166.99,482.294 272.313,477.851 417.722,474.125 474.23,563.116 550.162,687.181 501.348,780.614 431.87,908.406 "
     transform="matrix(6.870808e-2,0.000000,0.000000,7.379126e-2,342.9539,275.3505)"
     style="font-size:12;opacity:0.99;fill:#ffff00;fill-opacity:0.75;fill-rule:evenodd;stroke:#000000;stroke-width:1pt;"
     id="polygon715" />
  <polygon
     points="431.87,908.406 326.547,912.848 181.138,916.574 124.63,827.583 48.698,703.518 97.5122,610.085 166.99,482.294 272.313,477.851 417.722,474.125 474.23,563.116 550.162,687.181 501.348,780.614 431.87,908.406 "
     transform="matrix(6.870808e-2,0.000000,0.000000,7.379126e-2,369.0661,258.3541)"
     style="font-size:12;opacity:0.99;fill:#ffff00;fill-opacity:0.75;fill-rule:evenodd;stroke:#000000;stroke-width:1pt;"
     id="polygon716" />
  <polygon
     points="431.87,908.406 326.547,912.848 181.138,916.574 124.63,827.583 48.698,703.518 97.5122,610.085 166.99,482.294 272.313,477.851 417.722,474.125 474.23,563.116 550.162,687.181 501.348,780.614 431.87,908.406 "
     transform="matrix(6.870808e-2,0.000000,0.000000,7.379126e-2,422.0817,257.0793)"
     style="font-size:12;opacity:0.99;fill:#ffff00;fill-opacity:0.75;fill-rule:evenodd;stroke:#000000;stroke-width:1pt;"
     id="polygon718" />
  <polygon
     points="431.87,908.406 326.547,912.848 181.138,916.574 124.63,827.583 48.698,703.518 97.5122,610.085 166.99,482.294 272.313,477.851 417.722,474.125 474.23,563.116 550.162,687.181 501.348,780.614 431.87,908.406 "
     transform="matrix(6.870808e-2,0.000000,0.000000,7.379126e-2,421.2904,224.3612)"
     style="font-size:12;opacity:0.99;fill:#ffff00;fill-opacity:0.75;fill-rule:evenodd;stroke:#000000;stroke-width:1pt;"
     id="polygon719" />
  <polygon
     points="431.87,908.406 326.547,912.848 181.138,916.574 124.63,827.583 48.698,703.518 97.5122,610.085 166.99,482.294 272.313,477.851 417.722,474.125 474.23,563.116 550.162,687.181 501.348,780.614 431.87,908.406 "
     transform="matrix(6.870808e-2,0.000000,0.000000,7.379126e-2,448.1939,240.0829)"
     style="font-size:12;opacity:0.99;fill:#ffff00;fill-opacity:0.75;fill-rule:evenodd;stroke:#000000;stroke-width:1pt;"
     id="polygon720" />
  <polygon
     points="431.87,908.406 326.547,912.848 181.138,916.574 124.63,827.583 48.698,703.518 97.5122,610.085 166.99,482.294 272.313,477.851 417.722,474.125 474.23,563.116 550.162,687.181 501.348,780.614 431.87,908.406 "
     transform="matrix(6.870808e-2,0.000000,0.000000,7.379126e-2,395.1782,241.3576)"
     style="font-size:12;opacity:0.99;fill:#ffff00;fill-opacity:0.75;fill-rule:evenodd;stroke:#000000;stroke-width:1pt;"
     id="polygon721" />
  <polygon
     points="431.87,908.406 326.547,912.848 181.138,916.574 124.63,827.583 48.698,703.518 97.5122,610.085 166.99,482.294 272.313,477.851 417.722,474.125 474.23,563.116 550.162,687.181 501.348,780.614 431.87,908.406 "
     transform="matrix(6.870808e-2,0.000000,0.000000,7.379126e-2,395.9695,274.5006)"
     style="font-size:12;opacity:0.99;fill:#ffff00;fill-opacity:0.75;fill-rule:evenodd;stroke:#000000;stroke-width:1pt;"
     id="polygon722" />
  <polygon
     points="431.87,908.406 326.547,912.848 181.138,916.574 124.63,827.583 48.698,703.518 97.5122,610.085 166.99,482.294 272.313,477.851 417.722,474.125 474.23,563.116 550.162,687.181 501.348,780.614 431.87,908.406 "
     transform="matrix(6.870808e-2,0.000000,0.000000,7.379126e-2,422.8730,289.7974)"
     style="font-size:12;opacity:0.99;fill:#ffff00;fill-opacity:0.75;fill-rule:evenodd;stroke:#000000;stroke-width:1pt;"
     id="polygon723" />
  <polygon
     points="431.87,908.406 326.547,912.848 181.138,916.574 124.63,827.583 48.698,703.518 97.5122,610.085 166.99,482.294 272.313,477.851 417.722,474.125 474.23,563.116 550.162,687.181 501.348,780.614 431.87,908.406 "
     transform="matrix(6.870808e-2,0.000000,0.000000,7.379126e-2,448.9852,272.8010)"
     style="font-size:12;opacity:0.99;fill:#ffff00;fill-opacity:0.75;fill-rule:evenodd;stroke:#000000;stroke-width:1pt;"
     id="polygon724" />
  <polygon
     points="431.87,908.406 326.547,912.848 181.138,916.574 124.63,827.583 48.698,703.518 97.5122,610.085 166.99,482.294 272.313,477.851 417.722,474.125 474.23,563.116 550.162,687.181 501.348,780.614 431.87,908.406 "
     transform="matrix(6.870808e-2,0.000000,0.000000,7.379126e-2,450.5678,338.6620)"
     style="font-size:12;opacity:0.99;fill:#ffff00;fill-opacity:0.75;fill-rule:evenodd;stroke:#000000;stroke-width:1pt;"
     id="polygon726" />
  <polygon
     points="431.87,908.406 326.547,912.848 181.138,916.574 124.63,827.583 48.698,703.518 97.5122,610.085 166.99,482.294 272.313,477.851 417.722,474.125 474.23,563.116 550.162,687.181 501.348,780.614 431.87,908.406 "
     transform="matrix(6.870808e-2,0.000000,0.000000,7.379126e-2,449.7765,305.9439)"
     style="font-size:12;opacity:0.99;fill:#ffff00;fill-opacity:0.75;fill-rule:evenodd;stroke:#000000;stroke-width:1pt;"
     id="polygon727" />
  <polygon
     points="431.87,908.406 326.547,912.848 181.138,916.574 124.63,827.583 48.698,703.518 97.5122,610.085 166.99,482.294 272.313,477.851 417.722,474.125 474.23,563.116 550.162,687.181 501.348,780.614 431.87,908.406 "
     transform="matrix(6.870808e-2,0.000000,0.000000,7.379126e-2,476.6800,321.6656)"
     style="font-size:12;opacity:0.99;fill:#ffff00;fill-opacity:0.75;fill-rule:evenodd;stroke:#000000;stroke-width:1pt;"
     id="polygon728" />
  <polygon
     points="431.87,908.406 326.547,912.848 181.138,916.574 124.63,827.583 48.698,703.518 97.5122,610.085 166.99,482.294 272.313,477.851 417.722,474.125 474.23,563.116 550.162,687.181 501.348,780.614 431.87,908.406 "
     transform="matrix(6.870808e-2,0.000000,0.000000,7.379126e-2,423.6643,322.9403)"
     style="font-size:12;opacity:0.99;fill:#ffff00;fill-opacity:0.75;fill-rule:evenodd;stroke:#000000;stroke-width:1pt;"
     id="polygon729" />
  <polygon
     points="431.87,908.406 326.547,912.848 181.138,916.574 124.63,827.583 48.698,703.518 97.5122,610.085 166.99,482.294 272.313,477.851 417.722,474.125 474.23,563.116 550.162,687.181 501.348,780.614 431.87,908.406 "
     transform="matrix(6.870808e-2,0.000000,0.000000,7.379126e-2,424.4556,356.0833)"
     style="font-size:12;opacity:0.99;fill:#ffff00;fill-opacity:0.75;fill-rule:evenodd;stroke:#000000;stroke-width:1pt;"
     id="polygon730" />
  <polygon
     points="431.87,908.406 326.547,912.848 181.138,916.574 124.63,827.583 48.698,703.518 97.5122,610.085 166.99,482.294 272.313,477.851 417.722,474.125 474.23,563.116 550.162,687.181 501.348,780.614 431.87,908.406 "
     transform="matrix(6.870808e-2,0.000000,0.000000,7.379126e-2,451.3591,371.3801)"
     style="font-size:12;opacity:0.99;fill:#ffff00;fill-opacity:0.75;fill-rule:evenodd;stroke:#000000;stroke-width:1pt;"
     id="polygon731" />
  <polygon
     points="431.87,908.406 326.547,912.848 181.138,916.574 124.63,827.583 48.698,703.518 97.5122,610.085 166.99,482.294 272.313,477.851 417.722,474.125 474.23,563.116 550.162,687.181 501.348,780.614 431.87,908.406 "
     transform="matrix(6.870808e-2,0.000000,0.000000,7.379126e-2,477.4713,354.3837)"
     style="font-size:12;opacity:0.99;fill:#ffff00;fill-opacity:0.75;fill-rule:evenodd;stroke:#000000;stroke-width:1pt;"
     id="polygon732" />
  <polygon
     points="431.87,908.406 326.547,912.848 181.138,916.574 124.63,827.583 48.698,703.518 97.5122,610.085 166.99,482.294 272.313,477.851 417.722,474.125 474.23,563.116 550.162,687.181 501.348,780.614 431.87,908.406 "
     transform="matrix(6.870808e-2,0.000000,0.000000,7.379126e-2,370.6486,324.2151)"
     style="font-size:12;opacity:0.99;fill:#ffff00;fill-opacity:0.75;fill-rule:evenodd;stroke:#000000;stroke-width:1pt;"
     id="polygon734" />
  <polygon
     points="431.87,908.406 326.547,912.848 181.138,916.574 124.63,827.583 48.698,703.518 97.5122,610.085 166.99,482.294 272.313,477.851 417.722,474.125 474.23,563.116 550.162,687.181 501.348,780.614 431.87,908.406 "
     transform="matrix(6.870808e-2,0.000000,0.000000,7.379126e-2,369.8573,291.4970)"
     style="font-size:12;opacity:0.99;fill:#ffff00;fill-opacity:0.75;fill-rule:evenodd;stroke:#000000;stroke-width:1pt;"
     id="polygon735" />
  <polygon
     points="431.87,908.406 326.547,912.848 181.138,916.574 124.63,827.583 48.698,703.518 97.5122,610.085 166.99,482.294 272.313,477.851 417.722,474.125 474.23,563.116 550.162,687.181 501.348,780.614 431.87,908.406 "
     transform="matrix(6.870808e-2,0.000000,0.000000,7.379126e-2,396.7608,307.2187)"
     style="font-size:12;opacity:0.99;fill:#ffff00;fill-opacity:0.75;fill-rule:evenodd;stroke:#000000;stroke-width:1pt;"
     id="polygon736" />
  <polygon
     points="431.87,908.406 326.547,912.848 181.138,916.574 124.63,827.583 48.698,703.518 97.5122,610.085 166.99,482.294 272.313,477.851 417.722,474.125 474.23,563.116 550.162,687.181 501.348,780.614 431.87,908.406 "
     transform="matrix(6.870808e-2,0.000000,0.000000,7.379126e-2,343.7451,308.4934)"
     style="font-size:12;opacity:0.99;fill:#ffff00;fill-opacity:0.75;fill-rule:evenodd;stroke:#000000;stroke-width:1pt;"
     id="polygon737" />
  <polygon
     points="431.87,908.406 326.547,912.848 181.138,916.574 124.63,827.583 48.698,703.518 97.5122,610.085 166.99,482.294 272.313,477.851 417.722,474.125 474.23,563.116 550.162,687.181 501.348,780.614 431.87,908.406 "
     transform="matrix(6.870808e-2,0.000000,0.000000,7.379126e-2,344.5364,341.6364)"
     style="font-size:12;opacity:0.99;fill:#ffff00;fill-opacity:0.75;fill-rule:evenodd;stroke:#000000;stroke-width:1pt;"
     id="polygon738" />
  <polygon
     points="431.87,908.406 326.547,912.848 181.138,916.574 124.63,827.583 48.698,703.518 97.5122,610.085 166.99,482.294 272.313,477.851 417.722,474.125 474.23,563.116 550.162,687.181 501.348,780.614 431.87,908.406 "
     transform="matrix(6.870808e-2,0.000000,0.000000,7.379126e-2,371.4399,356.9332)"
     style="font-size:12;opacity:0.99;fill:#ffff00;fill-opacity:0.75;fill-rule:evenodd;stroke:#000000;stroke-width:1pt;"
     id="polygon739" />
  <polygon
     points="431.87,908.406 326.547,912.848 181.138,916.574 124.63,827.583 48.698,703.518 97.5122,610.085 166.99,482.294 272.313,477.851 417.722,474.125 474.23,563.116 550.162,687.181 501.348,780.614 431.87,908.406 "
     transform="matrix(6.870808e-2,0.000000,0.000000,7.379126e-2,397.5521,339.9368)"
     style="font-size:12;opacity:0.99;fill:#ffff00;fill-opacity:0.75;fill-rule:evenodd;stroke:#000000;stroke-width:1pt;"
     id="polygon740" />
  <text
     x="359.17193604"
     y="364.60910034"
     style="font-size:12;font-weight:normal;stroke-width:1pt;font-family:helvetica;"
     id="text741"
     xml:space="preserve"><tspan
       id="tspan742">Do</tspan></text>
</svg>
